# Blender 5.0.1
# www.blender.org
mtllib Тайл стены.mtl
o Cube
v -0.250000 -0.250000 0.250000
v -0.250000 3.250000 0.250000
v -0.250000 -0.250000 -0.250000
v -0.250000 3.250000 -0.250000
v 0.250000 -0.250000 0.250000
v 0.250000 3.250000 0.250000
v 0.250000 -0.250000 -0.250000
v 0.250000 3.250000 -0.250000
v -0.250000 -0.005724 0.250000
v -0.250000 -0.005724 -0.250000
v 0.250000 -0.005724 -0.250000
v 0.250000 -0.005724 0.250000
v 0.250000 -0.131977 0.324134
v 0.250000 -0.250000 0.324134
v -0.250000 -0.250000 0.324134
v -0.250000 -0.131977 0.324134
v -0.250000 3.126887 0.250000
v -0.250000 3.126887 -0.250000
v 0.250000 3.126887 -0.250000
v 0.250000 3.126887 0.250000
v -0.250000 3.207345 0.512852
v -0.250000 3.250000 0.512852
v 0.250000 3.250000 0.512852
v 0.250000 3.207345 0.512852
vn -1.0000 -0.0000 -0.0000
vn -0.0000 -0.0000 -1.0000
vn 1.0000 -0.0000 -0.0000
vn -0.0000 1.0000 -0.0000
vn -0.0000 -1.0000 -0.0000
vn -0.0000 -0.0000 1.0000
vn -0.0000 0.5063 0.8623
vn -0.0000 -0.9562 0.2927
vt 0.616206 0.000000
vt 0.625000 0.000000
vt 0.625000 0.250000
vt 0.616206 0.250000
vt 0.625000 0.500000
vt 0.616206 0.500000
vt 0.625000 0.750000
vt 0.616206 0.750000
vt 0.875000 0.750000
vt 0.125000 0.500000
vt 0.375000 0.500000
vt 0.375000 0.750000
vt 0.125000 0.750000
vt 0.875000 0.500000
vt 0.392448 0.000000
vt 0.375000 0.000000
vt 0.392448 0.500000
vt 0.392448 0.750000
vt 0.375000 0.250000
vt 0.392448 0.250000
vt 0.392448 1.000000
vt 0.375000 1.000000
vt 0.616206 1.000000
vt 0.625000 1.000000
s 0
usemtl Material.001
f 17/1/1 2/2/1 4/3/1 18/4/1
f 18/4/2 4/3/2 8/5/2 19/6/2
f 19/6/3 8/5/3 6/7/3 20/8/3
f 6/7/4 2/9/4 22/9/4 23/7/4
f 3/10/5 7/11/5 5/12/5 1/13/5
f 8/5/4 4/14/4 2/9/4 6/7/4
f 9/15/1 1/16/1 15/16/1 16/15/1
f 7/11/3 11/17/3 12/18/3 5/12/3
f 3/19/2 10/20/2 11/17/2 7/11/2
f 1/16/1 9/15/1 10/20/1 3/19/1
f 14/12/6 13/18/6 16/21/6 15/22/6
f 1/13/5 5/12/5 14/12/5 15/13/5
f 5/12/3 12/18/3 13/18/3 14/12/3
f 12/18/7 9/21/7 16/21/7 13/18/7
f 12/18/6 20/8/6 17/23/6 9/21/6
f 11/17/3 19/6/3 20/8/3 12/18/3
f 10/20/2 18/4/2 19/6/2 11/17/2
f 9/15/1 17/1/1 18/4/1 10/20/1
f 24/8/6 23/7/6 22/24/6 21/23/6
f 20/8/3 6/7/3 23/7/3 24/8/3
f 2/2/1 17/1/1 21/1/1 22/2/1
f 17/23/8 20/8/8 24/8/8 21/23/8
