# Blender 5.0.1
# www.blender.org
mtllib Дверь.mtl
o Cube
v -0.643965 -0.045408 0.162367
v -0.643965 0.654592 0.155271
v -0.643965 -0.045408 0.013232
v -0.643965 0.654592 0.013232
v 0.056035 -0.045408 0.162367
v 0.056035 0.654592 0.155271
v 0.056035 -0.045408 0.013232
v 0.056035 0.654592 0.013232
v -0.643965 1.312450 0.162367
v -0.643965 1.312450 0.013232
v 0.056035 1.312450 0.013232
v 0.056035 1.312450 0.162367
v 0.056035 0.786164 0.013232
v 0.056035 0.917735 0.013232
v 0.056035 1.049307 0.013232
v 0.056035 1.180879 0.013232
v 0.056035 1.180879 0.162367
v 0.056035 1.049307 0.162367
v 0.056035 0.917735 0.162367
v 0.056035 0.786164 0.162367
v -0.643965 0.786164 0.162367
v -0.643965 0.917735 0.162367
v -0.643965 1.049307 0.162367
v -0.643965 1.180879 0.162367
v -0.643965 1.180879 0.013232
v -0.643965 1.049307 0.013232
v -0.643965 0.917735 0.013232
v -0.643965 0.786164 0.013232
v -0.643965 0.094592 0.162367
v -0.643965 0.234592 0.162367
v -0.643965 0.374592 0.162367
v -0.643965 0.514592 0.162367
v -0.643965 0.514592 0.013232
v -0.643965 0.374592 0.013232
v -0.643965 0.234592 0.013232
v -0.643965 0.094592 0.013232
v 0.056035 0.514592 0.013232
v 0.056035 0.374592 0.013232
v 0.056035 0.234592 0.013232
v 0.056035 0.094592 0.013232
v 0.056035 0.514592 0.162367
v 0.056035 0.374592 0.162367
v 0.056035 0.234592 0.162367
v 0.056035 0.094592 0.162367
v -0.060632 -0.045408 0.013232
v -0.177299 -0.045408 0.013232
v -0.293965 -0.045408 0.013232
v -0.410632 -0.045408 0.013232
v -0.527299 -0.045408 0.013232
v -0.527299 0.654592 0.013232
v -0.410632 0.654592 0.013232
v -0.293965 0.654592 0.013232
v -0.177299 0.654592 0.013232
v -0.060632 0.654592 0.013232
v -0.527299 -0.045408 0.162367
v -0.410632 -0.045408 0.162367
v -0.293965 -0.045408 0.162367
v -0.177299 -0.045408 0.162367
v -0.060632 -0.045408 0.162367
v -0.060632 0.654592 0.153157
v -0.177299 0.654592 0.153157
v -0.293965 0.654592 0.153157
v -0.410632 0.654592 0.153157
v -0.527299 0.654592 0.153157
v -0.527299 1.312450 0.013232
v -0.410632 1.312450 0.013232
v -0.293965 1.312450 0.013232
v -0.177299 1.312450 0.013232
v -0.060632 1.312450 0.013232
v -0.060632 1.312450 0.162367
v -0.177299 1.312450 0.162367
v -0.293965 1.312450 0.162367
v -0.410632 1.312450 0.162367
v -0.527299 1.312450 0.162367
v -0.527299 0.786164 0.013232
v -0.410632 0.786164 0.013232
v -0.293965 0.786164 0.013232
v -0.177299 0.786164 0.013232
v -0.060632 0.786164 0.013232
v -0.527299 0.917735 0.013232
v -0.410632 0.917735 0.013232
v -0.293965 0.917735 0.013232
v -0.177299 0.917735 0.013232
v -0.060632 0.917735 0.013232
v -0.527299 1.049307 0.013232
v -0.410632 1.049307 0.013232
v -0.293965 1.049307 0.013232
v -0.177299 1.049307 0.013232
v -0.060632 1.049307 0.013232
v -0.527299 1.180879 0.013232
v -0.410632 1.180879 0.013232
v -0.293965 1.180879 0.013232
v -0.177299 1.180879 0.013232
v -0.060632 1.180879 0.013232
v -0.060632 0.786164 0.162367
v -0.177299 0.786164 0.162367
v -0.293965 0.786164 0.162367
v -0.410632 0.786164 0.162367
v -0.527299 0.786164 0.162367
v -0.060632 0.917735 0.162367
v -0.527299 0.917735 0.162367
v -0.060632 1.049307 0.162367
v -0.527299 1.049307 0.162367
v -0.060632 1.180879 0.162367
v -0.177299 1.180879 0.162367
v -0.293965 1.180879 0.162367
v -0.410632 1.180879 0.162367
v -0.527299 1.180879 0.162367
v -0.060632 0.094592 0.162367
v -0.177299 0.094592 0.162367
v -0.293965 0.094592 0.162367
v -0.410632 0.094592 0.162367
v -0.527299 0.094592 0.162367
v -0.060632 0.234592 0.162367
v -0.527299 0.234592 0.162367
v -0.060632 0.374592 0.162367
v -0.527299 0.374592 0.162367
v -0.060632 0.514592 0.162367
v -0.177299 0.514592 0.162367
v -0.293965 0.514592 0.162367
v -0.410632 0.514592 0.162367
v -0.527299 0.514592 0.162367
v -0.527299 0.094592 0.013232
v -0.410632 0.094592 0.013232
v -0.293965 0.094592 0.013232
v -0.177299 0.094592 0.013232
v -0.060632 0.094592 0.013232
v -0.527299 0.234592 0.013232
v -0.410632 0.234592 0.013232
v -0.293965 0.234592 0.013232
v -0.177299 0.234592 0.013232
v -0.060632 0.234592 0.013232
v -0.527299 0.374592 0.013232
v -0.410632 0.374592 0.013232
v -0.293965 0.374592 0.013232
v -0.177299 0.374592 0.013232
v -0.060632 0.374592 0.013232
v -0.527299 0.514592 0.013232
v -0.410632 0.514592 0.013232
v -0.293965 0.514592 0.013232
v -0.177299 0.514592 0.013232
v -0.060632 0.514592 0.013232
v -0.153809 0.864974 0.131713
v -0.223887 0.864974 0.131713
v -0.293965 0.864974 0.131713
v -0.364044 0.864974 0.131713
v -0.434122 0.864974 0.131713
v -0.153809 0.944005 0.131713
v -0.223887 0.944005 0.131713
v -0.293965 0.944005 0.131713
v -0.364044 0.944005 0.131713
v -0.434122 0.944005 0.131713
v -0.153809 1.023037 0.131713
v -0.223887 1.023037 0.131713
v -0.293965 1.023037 0.131713
v -0.364044 1.023037 0.131713
v -0.434122 1.023037 0.131713
v -0.153809 1.102068 0.131713
v -0.223887 1.102068 0.131713
v -0.293965 1.102068 0.131713
v -0.364044 1.102068 0.131713
v -0.434122 1.102068 0.131713
v -0.138721 0.164871 0.131713
v -0.216343 0.164871 0.131713
v -0.293965 0.164871 0.131713
v -0.371588 0.164871 0.131713
v -0.449210 0.164871 0.131713
v -0.138721 0.258018 0.131713
v -0.216343 0.258018 0.131713
v -0.293965 0.258018 0.131713
v -0.371588 0.258018 0.131713
v -0.449210 0.258018 0.131713
v -0.138721 0.351165 0.131713
v -0.216343 0.351165 0.131713
v -0.293965 0.351165 0.131713
v -0.371588 0.351165 0.131713
v -0.449210 0.351165 0.131713
v -0.138721 0.444312 0.131713
v -0.216343 0.444312 0.131713
v -0.293965 0.444312 0.131713
v -0.371588 0.444312 0.131713
v -0.449210 0.444312 0.131713
v -0.002299 0.654592 0.013232
v -0.002299 -0.045408 0.162367
v -0.002299 1.312450 0.013232
v -0.002299 0.786164 0.013232
v -0.002299 0.917735 0.013232
v -0.002299 1.049307 0.013232
v -0.002299 1.180879 0.013232
v -0.002299 0.094592 0.013232
v -0.002299 0.234592 0.013232
v -0.002299 0.374592 0.013232
v -0.002299 0.514592 0.013232
v -0.002299 -0.045408 0.013232
v -0.002299 0.654592 0.155271
v -0.002299 1.312450 0.162367
v -0.002299 0.786164 0.162367
v -0.002299 0.917735 0.162367
v -0.002299 1.049307 0.162367
v -0.002299 1.180879 0.162367
v -0.002299 0.094592 0.162367
v -0.002299 0.234592 0.162367
v -0.002299 0.374592 0.162367
v -0.002299 0.514592 0.162367
v -0.585632 -0.045408 0.013232
v -0.585632 0.654592 0.155271
v -0.585632 1.312450 0.162367
v -0.585632 0.786164 0.162367
v -0.585632 0.917735 0.162367
v -0.585632 1.049307 0.162367
v -0.585632 1.180879 0.162367
v -0.585632 0.094592 0.162367
v -0.585632 0.234592 0.162367
v -0.585632 0.374592 0.162367
v -0.585632 0.514592 0.162367
v -0.585632 0.654592 0.013232
v -0.585632 -0.045408 0.162367
v -0.585632 1.312450 0.013232
v -0.585632 0.786164 0.013232
v -0.585632 0.917735 0.013232
v -0.585632 1.049307 0.013232
v -0.585632 1.180879 0.013232
v -0.585632 0.094592 0.013232
v -0.585632 0.234592 0.013232
v -0.585632 0.374592 0.013232
v -0.585632 0.514592 0.013232
vn -1.0000 -0.0000 -0.0000
vn -0.0000 -0.0000 -1.0000
vn 1.0000 -0.0000 -0.0000
vn -0.0000 0.0506 0.9987
vn -0.0000 -1.0000 -0.0000
vn -0.0000 1.0000 -0.0000
vn -0.0000 -0.0000 1.0000
vn -0.0000 -0.0539 0.9985
vn -0.3654 -0.0000 0.9308
vn -0.0000 0.3625 0.9320
vn -0.0000 -0.3625 0.9320
vn 0.3654 -0.0000 0.9308
vn 0.3125 -0.0000 0.9499
vn -0.3125 -0.0000 0.9499
vn -0.0000 -0.3998 0.9166
vn -0.0000 0.3998 0.9166
vn 0.0181 -0.0618 0.9979
vn -0.0000 -0.0698 0.9976
vn -0.0181 0.0581 0.9981
vn -0.0000 0.0656 0.9978
vn -0.0181 -0.0618 0.9979
vn 0.0181 0.0581 0.9981
vt 0.575000 0.000000
vt 0.625000 0.000000
vt 0.625000 0.250000
vt 0.575000 0.250000
vt 0.575000 0.479167
vt 0.625000 0.479167
vt 0.625000 0.500000
vt 0.575000 0.500000
vt 0.625000 0.750000
vt 0.575000 0.750000
vt 0.575000 0.979167
vt 0.625000 0.979167
vt 0.625000 1.000000
vt 0.575000 1.000000
vt 0.354167 0.500000
vt 0.375000 0.500000
vt 0.375000 0.750000
vt 0.354167 0.750000
vt 0.854167 0.500000
vt 0.875000 0.500000
vt 0.875000 0.750000
vt 0.854167 0.750000
vt 0.625000 0.770833
vt 0.625000 0.270833
vt 0.375000 0.979167
vt 0.425000 0.979167
vt 0.425000 1.000000
vt 0.375000 1.000000
vt 0.475000 0.979167
vt 0.475000 1.000000
vt 0.525000 0.979167
vt 0.525000 1.000000
vt 0.425000 0.500000
vt 0.425000 0.750000
vt 0.475000 0.500000
vt 0.475000 0.750000
vt 0.525000 0.500000
vt 0.525000 0.750000
vt 0.375000 0.479167
vt 0.425000 0.479167
vt 0.475000 0.479167
vt 0.525000 0.479167
vt 0.375000 0.000000
vt 0.425000 0.000000
vt 0.425000 0.250000
vt 0.375000 0.250000
vt 0.475000 0.000000
vt 0.475000 0.250000
vt 0.525000 0.000000
vt 0.525000 0.250000
vt 0.525000 0.270833
vt 0.575000 0.270833
vt 0.575000 0.291667
vt 0.525000 0.291667
vt 0.575000 0.333333
vt 0.525000 0.333333
vt 0.575000 0.375000
vt 0.525000 0.375000
vt 0.575000 0.416667
vt 0.525000 0.416667
vt 0.575000 0.458333
vt 0.525000 0.458333
vt 0.475000 0.270833
vt 0.475000 0.291667
vt 0.475000 0.333333
vt 0.475000 0.375000
vt 0.475000 0.416667
vt 0.475000 0.458333
vt 0.425000 0.270833
vt 0.425000 0.291667
vt 0.425000 0.333333
vt 0.425000 0.375000
vt 0.425000 0.416667
vt 0.425000 0.458333
vt 0.375000 0.270833
vt 0.375000 0.291667
vt 0.375000 0.333333
vt 0.375000 0.375000
vt 0.375000 0.416667
vt 0.375000 0.458333
vt 0.525000 0.770833
vt 0.575000 0.770833
vt 0.575000 0.791667
vt 0.525000 0.791667
vt 0.475000 0.791667
vt 0.625000 0.958333
vt 0.625000 0.916667
vt 0.625000 0.833333
vt 0.625000 0.875000
vt 0.575000 0.958333
vt 0.525000 0.958333
vt 0.475000 0.770833
vt 0.625000 0.791667
vt 0.425000 0.770833
vt 0.425000 0.791667
vt 0.475000 0.958333
vt 0.425000 0.958333
vt 0.375000 0.770833
vt 0.375000 0.791667
vt 0.425000 0.833333
vt 0.375000 0.833333
vt 0.425000 0.875000
vt 0.375000 0.875000
vt 0.425000 0.916667
vt 0.375000 0.916667
vt 0.375000 0.958333
vt 0.575000 0.916667
vt 0.575000 0.875000
vt 0.575000 0.833333
vt 0.625000 0.458333
vt 0.625000 0.416667
vt 0.625000 0.375000
vt 0.625000 0.333333
vt 0.625000 0.291667
vt 0.645833 0.500000
vt 0.666667 0.500000
vt 0.666667 0.750000
vt 0.645833 0.750000
vt 0.708333 0.500000
vt 0.708333 0.750000
vt 0.750000 0.500000
vt 0.750000 0.750000
vt 0.791667 0.500000
vt 0.791667 0.750000
vt 0.833333 0.500000
vt 0.833333 0.750000
vt 0.145833 0.500000
vt 0.166667 0.500000
vt 0.166667 0.750000
vt 0.145833 0.750000
vt 0.208333 0.500000
vt 0.208333 0.750000
vt 0.250000 0.500000
vt 0.250000 0.750000
vt 0.291667 0.500000
vt 0.291667 0.750000
vt 0.333333 0.500000
vt 0.333333 0.750000
vt 0.525000 0.833333
vt 0.525000 0.875000
vt 0.525000 0.916667
vt 0.475000 0.833333
vt 0.475000 0.875000
vt 0.475000 0.916667
vt 0.125000 0.500000
vt 0.125000 0.750000
s 0
usemtl Material.031
f 32/1/1 2/2/1 4/3/1 33/4/1
f 193/5/2 183/6/2 8/7/2 37/8/2
f 37/8/3 8/7/3 6/9/3 41/10/3
f 215/11/4 206/12/4 2/13/4 32/14/4
f 194/15/5 7/16/5 5/17/5 184/18/5
f 17/9/3 16/7/3 11/7/3 12/9/3
f 218/19/6 10/20/6 9/21/6 207/22/6
f 25/3/1 24/2/1 9/2/1 10/3/1
f 200/23/7 17/9/7 12/9/7 196/23/7
f 222/24/2 25/3/2 10/3/2 218/24/2
f 216/24/2 4/3/2 28/3/2 219/24/2
f 219/24/2 28/3/2 27/3/2 220/24/2
f 220/24/2 27/3/2 26/3/2 221/24/2
f 221/24/2 26/3/2 25/3/2 222/24/2
f 195/23/8 6/9/8 20/9/8 197/23/8
f 197/23/7 20/9/7 19/9/7 198/23/7
f 198/23/7 19/9/7 18/9/7 199/23/7
f 199/23/7 18/9/7 17/9/7 200/23/7
f 4/3/1 2/2/1 21/2/1 28/3/1
f 28/3/1 21/2/1 22/2/1 27/3/1
f 27/3/1 22/2/1 23/2/1 26/3/1
f 26/3/1 23/2/1 24/2/1 25/3/1
f 6/9/3 8/7/3 13/7/3 20/9/3
f 20/9/3 13/7/3 14/7/3 19/9/3
f 19/9/3 14/7/3 15/7/3 18/9/3
f 18/9/3 15/7/3 16/7/3 17/9/3
f 217/25/7 212/26/7 29/27/7 1/28/7
f 212/26/7 213/29/7 30/30/7 29/27/7
f 213/29/7 214/31/7 31/32/7 30/30/7
f 214/31/7 215/11/7 32/14/7 31/32/7
f 7/16/3 40/33/3 44/34/3 5/17/3
f 40/33/3 39/35/3 43/36/3 44/34/3
f 39/35/3 38/37/3 42/38/3 43/36/3
f 38/37/3 37/8/3 41/10/3 42/38/3
f 194/39/2 190/40/2 40/33/2 7/16/2
f 190/40/2 191/41/2 39/35/2 40/33/2
f 191/41/2 192/42/2 38/37/2 39/35/2
f 192/42/2 193/5/2 37/8/2 38/37/2
f 1/43/1 29/44/1 36/45/1 3/46/1
f 29/44/1 30/47/1 35/48/1 36/45/1
f 30/47/1 31/49/1 34/50/1 35/48/1
f 31/49/1 32/1/1 33/4/1 34/50/1
f 225/51/2 226/52/2 138/53/2 133/54/2
f 133/54/2 138/53/2 139/55/2 134/56/2
f 134/56/2 139/55/2 140/57/2 135/58/2
f 135/58/2 140/57/2 141/59/2 136/60/2
f 136/60/2 141/59/2 142/61/2 137/62/2
f 224/63/2 225/51/2 133/54/2 128/64/2
f 128/64/2 133/54/2 134/56/2 129/65/2
f 129/65/2 134/56/2 135/58/2 130/66/2
f 130/66/2 135/58/2 136/60/2 131/67/2
f 131/67/2 136/60/2 137/62/2 132/68/2
f 223/69/2 224/63/2 128/64/2 123/70/2
f 123/70/2 128/64/2 129/65/2 124/71/2
f 124/71/2 129/65/2 130/66/2 125/72/2
f 125/72/2 130/66/2 131/67/2 126/73/2
f 126/73/2 131/67/2 132/68/2 127/74/2
f 205/75/2 223/69/2 123/70/2 49/76/2
f 49/76/2 123/70/2 124/71/2 48/77/2
f 48/77/2 124/71/2 125/72/2 47/78/2
f 47/78/2 125/72/2 126/73/2 46/79/2
f 46/79/2 126/73/2 127/74/2 45/80/2
f 203/81/7 204/82/7 118/83/7 116/84/7
f 114/85/9 116/84/9 173/84/9 168/85/9
f 99/86/10 98/87/10 146/87/10 147/86/10
f 105/88/11 106/89/11 160/89/11 159/88/11
f 122/90/12 117/91/12 177/91/12 182/90/12
f 202/92/7 203/81/7 116/84/7 114/85/7
f 98/87/10 97/89/10 145/89/10 146/87/10
f 101/86/13 99/86/13 147/86/13 152/86/13
f 104/93/11 105/88/11 159/88/11 158/93/11
f 97/89/10 96/88/10 144/88/10 145/89/10
f 201/94/7 202/92/7 114/85/7 109/95/7
f 100/93/14 102/93/14 153/93/14 148/93/14
f 96/88/10 95/93/10 143/93/10 144/88/10
f 115/96/12 113/97/12 167/97/12 172/96/12
f 116/84/9 118/83/9 178/83/9 173/84/9
f 184/98/7 201/94/7 109/95/7 59/99/7
f 59/99/7 109/95/7 110/100/7 58/101/7
f 58/101/7 110/100/7 111/102/7 57/103/7
f 57/103/7 111/102/7 112/104/7 56/105/7
f 56/105/7 112/104/7 113/97/7 55/106/7
f 210/12/7 103/86/7 108/86/7 211/12/7
f 121/107/15 122/90/15 182/90/15 181/107/15
f 120/108/15 121/107/15 181/107/15 180/108/15
f 103/86/13 101/86/13 152/86/13 157/86/13
f 113/97/16 112/104/16 166/104/16 167/97/16
f 209/12/7 101/86/7 103/86/7 210/12/7
f 119/109/15 120/108/15 180/108/15 179/109/15
f 102/93/14 104/93/14 158/93/14 153/93/14
f 112/104/16 111/102/16 165/102/16 166/104/16
f 109/95/9 114/85/9 168/85/9 163/95/9
f 208/12/7 99/86/7 101/86/7 209/12/7
f 118/83/15 119/109/15 179/109/15 178/83/15
f 111/102/16 110/100/16 164/100/16 165/102/16
f 117/91/12 115/96/12 172/96/12 177/91/12
f 110/100/16 109/95/16 163/95/16 164/100/16
f 206/12/17 64/86/17 99/86/17 208/12/17
f 64/86/18 63/87/18 98/87/18 99/86/18
f 63/87/18 62/89/18 97/89/18 98/87/18
f 62/89/18 61/88/18 96/88/18 97/89/18
f 61/88/18 60/93/18 95/93/18 96/88/18
f 188/6/2 89/110/2 94/110/2 189/6/2
f 89/110/2 88/111/2 93/111/2 94/110/2
f 88/111/2 87/112/2 92/112/2 93/111/2
f 87/112/2 86/113/2 91/113/2 92/112/2
f 86/113/2 85/114/2 90/114/2 91/113/2
f 187/6/2 84/110/2 89/110/2 188/6/2
f 84/110/2 83/111/2 88/111/2 89/110/2
f 83/111/2 82/112/2 87/112/2 88/111/2
f 82/112/2 81/113/2 86/113/2 87/112/2
f 81/113/2 80/114/2 85/114/2 86/113/2
f 186/6/2 79/110/2 84/110/2 187/6/2
f 79/110/2 78/111/2 83/111/2 84/110/2
f 78/111/2 77/112/2 82/112/2 83/111/2
f 77/112/2 76/113/2 81/113/2 82/112/2
f 76/113/2 75/114/2 80/114/2 81/113/2
f 183/6/2 54/110/2 79/110/2 186/6/2
f 54/110/2 53/111/2 78/111/2 79/110/2
f 53/111/2 52/112/2 77/112/2 78/111/2
f 52/112/2 51/113/2 76/113/2 77/112/2
f 51/113/2 50/114/2 75/114/2 76/113/2
f 189/6/2 94/110/2 69/110/2 185/6/2
f 94/110/2 93/111/2 68/111/2 69/110/2
f 93/111/2 92/112/2 67/112/2 68/111/2
f 92/112/2 91/113/2 66/113/2 67/112/2
f 91/113/2 90/114/2 65/114/2 66/113/2
f 211/12/7 108/86/7 74/86/7 207/12/7
f 108/86/7 107/87/7 73/87/7 74/86/7
f 107/87/7 106/89/7 72/89/7 73/87/7
f 106/89/7 105/88/7 71/88/7 72/89/7
f 105/88/7 104/93/7 70/93/7 71/88/7
f 185/115/6 69/116/6 70/117/6 196/118/6
f 69/116/6 68/119/6 71/120/6 70/117/6
f 68/119/6 67/121/6 72/122/6 71/120/6
f 67/121/6 66/123/6 73/124/6 72/122/6
f 66/123/6 65/125/6 74/126/6 73/124/6
f 205/127/5 49/128/5 55/129/5 217/130/5
f 49/128/5 48/131/5 56/132/5 55/129/5
f 48/131/5 47/133/5 57/134/5 56/132/5
f 47/133/5 46/135/5 58/136/5 57/134/5
f 46/135/5 45/137/5 59/138/5 58/136/5
f 204/82/19 195/23/19 60/93/19 118/83/19
f 118/83/20 60/93/20 61/88/20 119/109/20
f 119/109/20 61/88/20 62/89/20 120/108/20
f 120/108/20 62/89/20 63/87/20 121/107/20
f 121/107/20 63/87/20 64/86/20 122/90/20
f 226/52/2 216/24/2 50/114/2 138/53/2
f 138/53/2 50/114/2 51/113/2 139/55/2
f 139/55/2 51/113/2 52/112/2 140/57/2
f 140/57/2 52/112/2 53/111/2 141/59/2
f 141/59/2 53/111/2 54/110/2 142/61/2
f 173/84/7 178/83/7 179/109/7 174/139/7
f 174/139/7 179/109/7 180/108/7 175/140/7
f 175/140/7 180/108/7 181/107/7 176/141/7
f 176/141/7 181/107/7 182/90/7 177/91/7
f 168/85/7 173/84/7 174/139/7 169/142/7
f 169/142/7 174/139/7 175/140/7 170/143/7
f 170/143/7 175/140/7 176/141/7 171/144/7
f 171/144/7 176/141/7 177/91/7 172/96/7
f 163/95/7 168/85/7 169/142/7 164/100/7
f 164/100/7 169/142/7 170/143/7 165/102/7
f 165/102/7 170/143/7 171/144/7 166/104/7
f 166/104/7 171/144/7 172/96/7 167/97/7
f 157/86/7 156/87/7 161/87/7 162/86/7
f 156/87/7 155/89/7 160/89/7 161/87/7
f 155/89/7 154/88/7 159/88/7 160/89/7
f 154/88/7 153/93/7 158/93/7 159/88/7
f 152/86/7 151/87/7 156/87/7 157/86/7
f 151/87/7 150/89/7 155/89/7 156/87/7
f 150/89/7 149/88/7 154/88/7 155/89/7
f 149/88/7 148/93/7 153/93/7 154/88/7
f 147/86/7 146/87/7 151/87/7 152/86/7
f 146/87/7 145/89/7 150/89/7 151/87/7
f 145/89/7 144/88/7 149/88/7 150/89/7
f 144/88/7 143/93/7 148/93/7 149/88/7
f 106/89/11 107/87/11 161/87/11 160/89/11
f 107/87/11 108/86/11 162/86/11 161/87/11
f 108/86/13 103/86/13 157/86/13 162/86/13
f 95/93/14 100/93/14 148/93/14 143/93/14
f 41/10/4 6/9/4 195/23/4 204/82/4
f 11/7/6 185/115/6 196/118/6 12/9/6
f 16/7/2 189/6/2 185/6/2 11/7/2
f 8/7/2 183/6/2 186/6/2 13/7/2
f 13/7/2 186/6/2 187/6/2 14/7/2
f 14/7/2 187/6/2 188/6/2 15/7/2
f 15/7/2 188/6/2 189/6/2 16/7/2
f 5/17/7 44/34/7 201/94/7 184/98/7
f 44/34/7 43/36/7 202/92/7 201/94/7
f 43/36/7 42/38/7 203/81/7 202/92/7
f 42/38/7 41/10/7 204/82/7 203/81/7
f 137/62/2 142/61/2 193/5/2 192/42/2
f 132/68/2 137/62/2 192/42/2 191/41/2
f 127/74/2 132/68/2 191/41/2 190/40/2
f 45/80/2 127/74/2 190/40/2 194/39/2
f 102/93/7 199/23/7 200/23/7 104/93/7
f 100/93/7 198/23/7 199/23/7 102/93/7
f 95/93/7 197/23/7 198/23/7 100/93/7
f 60/93/21 195/23/21 197/23/21 95/93/21
f 104/93/7 200/23/7 196/23/7 70/93/7
f 45/137/5 194/15/5 184/18/5 59/138/5
f 142/61/2 54/110/2 183/6/2 193/5/2
f 33/4/2 4/3/2 216/24/2 226/52/2
f 3/145/5 205/127/5 217/130/5 1/146/5
f 24/13/7 211/12/7 207/12/7 9/13/7
f 2/13/8 206/12/8 208/12/8 21/13/8
f 21/13/7 208/12/7 209/12/7 22/13/7
f 22/13/7 209/12/7 210/12/7 23/13/7
f 23/13/7 210/12/7 211/12/7 24/13/7
f 3/46/2 36/45/2 223/69/2 205/75/2
f 36/45/2 35/48/2 224/63/2 223/69/2
f 35/48/2 34/50/2 225/51/2 224/63/2
f 34/50/2 33/4/2 226/52/2 225/51/2
f 117/91/7 122/90/7 215/11/7 214/31/7
f 115/96/7 117/91/7 214/31/7 213/29/7
f 113/97/7 115/96/7 213/29/7 212/26/7
f 55/106/7 113/97/7 212/26/7 217/25/7
f 85/114/2 221/24/2 222/24/2 90/114/2
f 80/114/2 220/24/2 221/24/2 85/114/2
f 75/114/2 219/24/2 220/24/2 80/114/2
f 50/114/2 216/24/2 219/24/2 75/114/2
f 90/114/2 222/24/2 218/24/2 65/114/2
f 65/125/6 218/19/6 207/22/6 74/126/6
f 122/90/22 64/86/22 206/12/22 215/11/22
o Cube.001
v -0.627377 0.640092 0.171300
v -0.627377 0.671984 0.171300
v -0.627377 0.640092 0.139407
v -0.627377 0.671984 0.139407
v -0.595484 0.640092 0.171300
v -0.595484 0.671984 0.171300
v -0.595484 0.640092 0.139407
v -0.595484 0.671984 0.139407
v -0.627377 0.640092 0.223625
v -0.627377 0.671984 0.223625
v -0.595484 0.671984 0.223625
v -0.595484 0.640092 0.223625
v -0.627377 0.640092 0.185301
v -0.627377 0.671984 0.185301
v -0.595484 0.640092 0.185301
v -0.595484 0.671984 0.185301
v -0.484668 0.671984 0.223625
v -0.484668 0.640092 0.223625
v -0.484668 0.640092 0.185301
v -0.484668 0.671984 0.185301
vn -1.0000 -0.0000 -0.0000
vn -0.0000 -0.0000 -1.0000
vn 1.0000 -0.0000 -0.0000
vn -0.0000 -1.0000 -0.0000
vn -0.0000 1.0000 -0.0000
vn -0.0000 -0.0000 1.0000
vt 0.375000 0.000000
vt 0.625000 0.000000
vt 0.625000 0.250000
vt 0.375000 0.250000
vt 0.625000 0.500000
vt 0.375000 0.500000
vt 0.625000 0.750000
vt 0.375000 0.750000
vt 0.125000 0.500000
vt 0.125000 0.750000
vt 0.875000 0.500000
vt 0.875000 0.750000
vt 0.625000 1.000000
vt 0.375000 1.000000
s 0
usemtl Material.032
f 227/147/23 228/148/23 230/149/23 229/150/23
f 229/150/24 230/149/24 234/151/24 233/152/24
f 233/152/25 234/151/25 232/153/25 231/154/25
f 240/148/23 239/147/23 235/147/23 236/148/23
f 229/155/26 233/152/26 231/154/26 227/156/26
f 234/151/27 230/157/27 228/158/27 232/153/27
f 238/154/28 237/153/28 236/159/28 235/160/28
f 239/156/26 241/154/26 238/154/26 235/156/26
f 242/153/27 240/158/27 236/158/27 237/153/27
f 242/153/27 237/153/27 243/153/27 246/153/27
f 231/154/25 232/153/25 242/153/25 241/154/25
f 232/153/27 228/158/27 240/158/27 242/153/27
f 227/156/26 231/154/26 241/154/26 239/156/26
f 228/148/23 227/147/23 239/147/23 240/148/23
f 245/154/25 246/153/25 243/153/25 244/154/25
f 237/153/28 238/154/28 244/154/28 243/153/28
f 241/154/24 242/153/24 246/153/24 245/154/24
f 238/154/26 241/154/26 245/154/26 244/154/26
