# Blender 5.0.1
# www.blender.org
mtllib Окно.mtl
o Cube
v -0.848120 0.406038 0.198669
v -0.848120 0.906038 0.198669
v -0.848120 0.406038 0.112038
v -0.848120 0.906038 0.112038
v -0.348120 0.406038 0.198669
v -0.348120 0.906038 0.198669
v -0.348120 0.406038 0.112038
v -0.348120 0.906038 0.112038
v -0.573421 0.406038 0.112038
v -0.622818 0.406038 0.112038
v -0.622818 0.906038 0.112038
v -0.573421 0.906038 0.112038
v -0.622818 0.406038 0.198669
v -0.573421 0.406038 0.198669
v -0.573421 0.906038 0.198669
v -0.622818 0.906038 0.198669
v -0.848120 0.628542 0.198669
v -0.848120 0.683534 0.198669
v -0.848120 0.683534 0.112038
v -0.848120 0.628542 0.112038
v -0.348120 0.683534 0.112038
v -0.348120 0.628542 0.112038
v -0.348120 0.683534 0.198669
v -0.348120 0.628542 0.198669
v -0.573421 0.683534 0.198669
v -0.573421 0.628542 0.198669
v -0.622818 0.683534 0.198669
v -0.622818 0.628542 0.198669
v -0.622818 0.683534 0.112038
v -0.622818 0.628542 0.112038
v -0.573421 0.683534 0.112038
v -0.573421 0.628542 0.112038
v -0.798460 0.406038 0.112038
v -0.798460 0.906038 0.198669
v -0.798460 0.906038 0.112038
v -0.798460 0.406038 0.198669
v -0.798460 0.628542 0.112038
v -0.798460 0.683534 0.112038
v -0.798460 0.628542 0.198669
v -0.798460 0.683534 0.198669
v -0.391969 0.906038 0.112038
v -0.391969 0.406038 0.198669
v -0.391969 0.406038 0.112038
v -0.391969 0.906038 0.198669
v -0.391969 0.628542 0.198669
v -0.391969 0.683534 0.198669
v -0.391969 0.628542 0.112038
v -0.391969 0.683534 0.112038
v -0.848120 0.860871 0.198669
v -0.848120 0.860871 0.112038
v -0.348120 0.860871 0.112038
v -0.348120 0.860871 0.198669
v -0.573421 0.860871 0.198669
v -0.622818 0.860871 0.198669
v -0.622818 0.860871 0.112038
v -0.573421 0.860871 0.112038
v -0.798460 0.860871 0.112038
v -0.798460 0.860871 0.198669
v -0.391969 0.860871 0.198669
v -0.391969 0.860871 0.112038
v -0.848120 0.447623 0.112038
v -0.348120 0.447623 0.112038
v -0.348120 0.447623 0.198669
v -0.573421 0.447623 0.198669
v -0.622818 0.447623 0.198669
v -0.622818 0.447623 0.112038
v -0.573421 0.447623 0.112038
v -0.848120 0.447623 0.198669
v -0.798460 0.447623 0.198669
v -0.798460 0.447623 0.112038
v -0.391969 0.447623 0.112038
v -0.391969 0.447623 0.198669
v -0.573421 0.860871 0.176222
v -0.573421 0.683534 0.176222
v -0.622818 0.860871 0.176222
v -0.622818 0.683534 0.176222
v -0.391969 0.628542 0.176222
v -0.573421 0.628542 0.176222
v -0.391969 0.683534 0.176222
v -0.622818 0.628542 0.176222
v -0.798460 0.628542 0.176222
v -0.798460 0.683534 0.176222
v -0.798460 0.860871 0.176222
v -0.391969 0.860871 0.176222
v -0.573421 0.447623 0.176222
v -0.622818 0.447623 0.176222
v -0.798460 0.447623 0.176222
v -0.391969 0.447623 0.176222
vn -1.0000 -0.0000 -0.0000
vn -0.0000 -0.0000 -1.0000
vn 1.0000 -0.0000 -0.0000
vn -0.0000 -0.0000 1.0000
vn -0.0000 -1.0000 -0.0000
vn -0.0000 1.0000 -0.0000
vt 0.608084 0.000000
vt 0.625000 0.000000
vt 0.625000 0.250000
vt 0.608084 0.250000
vt 0.608084 0.483781
vt 0.625000 0.483781
vt 0.625000 0.500000
vt 0.608084 0.500000
vt 0.625000 0.750000
vt 0.608084 0.750000
vt 0.608084 0.981632
vt 0.625000 0.981632
vt 0.625000 1.000000
vt 0.608084 1.000000
vt 0.358781 0.500000
vt 0.375000 0.500000
vt 0.375000 0.750000
vt 0.358781 0.750000
vt 0.856632 0.500000
vt 0.875000 0.500000
vt 0.875000 0.750000
vt 0.856632 0.750000
vt 0.641219 0.500000
vt 0.708333 0.500000
vt 0.708333 0.750000
vt 0.641219 0.750000
vt 0.791667 0.500000
vt 0.791667 0.750000
vt 0.143368 0.500000
vt 0.208333 0.500000
vt 0.208333 0.750000
vt 0.143368 0.750000
vt 0.291667 0.500000
vt 0.291667 0.750000
vt 0.608084 0.766219
vt 0.625000 0.766219
vt 0.625000 0.833333
vt 0.608084 0.833333
vt 0.625000 0.916667
vt 0.608084 0.916667
vt 0.608084 0.268368
vt 0.625000 0.268368
vt 0.625000 0.333333
vt 0.608084 0.333333
vt 0.625000 0.416667
vt 0.608084 0.416667
vt 0.390575 0.333333
vt 0.458333 0.333333
vt 0.458333 0.416667
vt 0.390575 0.416667
vt 0.541667 0.333333
vt 0.541667 0.416667
vt 0.390575 0.268368
vt 0.458333 0.268368
vt 0.541667 0.268368
vt 0.390575 0.833333
vt 0.458333 0.833333
vt 0.458333 0.916667
vt 0.390575 0.916667
vt 0.541667 0.833333
vt 0.541667 0.916667
vt 0.458333 0.766219
vt 0.541667 0.766219
vt 0.390575 0.981632
vt 0.458333 0.981632
vt 0.458333 1.000000
vt 0.390575 1.000000
vt 0.541667 0.981632
vt 0.541667 1.000000
vt 0.390575 0.500000
vt 0.458333 0.500000
vt 0.458333 0.750000
vt 0.390575 0.750000
vt 0.541667 0.500000
vt 0.541667 0.750000
vt 0.390575 0.483781
vt 0.458333 0.483781
vt 0.541667 0.483781
vt 0.390575 0.000000
vt 0.458333 0.000000
vt 0.458333 0.250000
vt 0.390575 0.250000
vt 0.541667 0.000000
vt 0.541667 0.250000
vt 0.125000 0.500000
vt 0.125000 0.750000
vt 0.390575 0.766219
vt 0.375000 0.766219
vt 0.375000 0.416667
vt 0.375000 0.483781
vt 0.375000 0.250000
vt 0.375000 0.268368
vt 0.375000 0.916667
vt 0.375000 0.981632
vt 0.375000 0.000000
vt 0.375000 1.000000
vt 0.375000 0.833333
vt 0.375000 0.333333
s 0
usemtl Material.033
f 49/1/1 2/2/1 4/3/1 50/4/1
f 60/5/2 41/6/2 8/7/2 51/8/2
f 51/8/3 8/7/3 6/9/3 52/10/3
f 58/11/4 34/12/4 2/13/4 49/14/4
f 43/15/5 7/16/5 5/17/5 42/18/5
f 35/19/6 4/20/6 2/21/6 34/22/6
f 41/23/6 12/24/6 15/25/6 44/26/6
f 12/24/6 11/27/6 16/28/6 15/25/6
f 33/29/5 10/30/5 13/31/5 36/32/5
f 10/30/5 9/33/5 14/34/5 13/31/5
f 59/35/4 44/36/4 15/37/4 53/38/4
f 53/38/4 15/37/4 16/39/4 54/40/4
f 57/41/2 35/42/2 11/43/2 55/44/2
f 55/44/2 11/43/2 12/45/2 56/46/2
f 66/47/2 30/48/2 32/49/2 67/50/2
f 30/48/2 29/51/2 31/52/2 32/49/2
f 70/53/2 37/54/2 30/48/2 66/47/2
f 37/54/2 38/55/2 29/51/2 30/48/2
f 64/56/4 26/57/4 28/58/4 65/59/4
f 26/57/4 25/60/4 27/61/4 28/58/4
f 59/35/5 53/38/5 73/38/5 84/35/5
f 45/62/4 46/63/4 25/60/4 26/57/4
f 69/64/4 39/65/4 17/66/4 68/67/4
f 39/65/4 40/68/4 18/69/4 17/66/4
f 62/70/3 22/71/3 24/72/3 63/73/3
f 22/71/3 21/74/3 23/75/3 24/72/3
f 71/76/2 47/77/2 22/71/2 62/70/2
f 47/77/2 48/78/2 21/74/2 22/71/2
f 68/79/1 17/80/1 20/81/1 61/82/1
f 17/80/1 18/83/1 19/84/1 20/81/1
f 28/58/4 27/61/4 40/68/4 39/65/4
f 28/58/5 39/65/5 81/65/5 80/58/5
f 20/81/2 19/84/2 38/55/2 37/54/2
f 61/82/2 20/81/2 37/54/2 70/53/2
f 50/4/2 4/3/2 35/42/2 57/41/2
f 3/85/5 33/29/5 36/32/5 1/86/5
f 11/27/6 35/19/6 34/22/6 16/28/6
f 54/40/4 16/39/4 34/12/4 58/11/4
f 32/49/2 31/52/2 48/78/2 47/77/2
f 67/50/2 32/49/2 47/77/2 71/76/2
f 24/72/4 23/75/4 46/63/4 45/62/4
f 63/73/4 24/72/4 45/62/4 72/87/4
f 52/10/4 6/9/4 44/36/4 59/35/4
f 8/7/6 41/23/6 44/26/6 6/9/6
f 9/33/5 43/15/5 42/18/5 14/34/5
f 56/46/2 12/45/2 41/6/2 60/5/2
f 31/52/2 56/46/2 60/5/2 48/78/2
f 23/75/4 52/10/4 59/35/4 46/63/4
f 46/63/1 59/35/1 84/35/1 79/63/1
f 19/84/2 50/4/2 57/41/2 38/55/2
f 29/51/2 55/44/2 56/46/2 31/52/2
f 38/55/2 57/41/2 55/44/2 29/51/2
f 25/60/4 53/38/4 54/40/4 27/61/4
f 25/60/6 46/63/6 79/63/6 74/60/6
f 40/68/4 58/11/4 49/14/4 18/69/4
f 21/74/3 51/8/3 52/10/3 23/75/3
f 48/78/2 60/5/2 51/8/2 21/74/2
f 18/83/1 49/1/1 50/4/1 19/84/1
f 5/17/4 63/73/4 72/87/4 42/88/4
f 9/89/2 67/50/2 71/76/2 43/90/2
f 3/91/2 61/82/2 70/53/2 33/92/2
f 13/93/4 65/59/4 69/64/4 36/94/4
f 1/95/1 68/79/1 61/82/1 3/91/1
f 43/90/2 71/76/2 62/70/2 7/16/2
f 7/16/3 62/70/3 63/73/3 5/17/3
f 36/94/4 69/64/4 68/67/4 1/96/4
f 42/88/4 72/87/4 64/56/4 14/97/4
f 14/97/4 64/56/4 65/59/4 13/93/4
f 33/92/2 70/53/2 66/47/2 10/98/2
f 10/98/2 66/47/2 67/50/2 9/89/2
f 40/68/6 27/61/6 76/61/6 82/68/6
f 26/57/3 64/56/3 85/56/3 78/57/3
f 27/61/1 54/40/1 75/40/1 76/61/1
f 58/11/3 40/68/3 82/68/3 83/11/3
f 72/87/1 45/62/1 77/62/1 88/87/1
f 65/59/1 28/58/1 80/58/1 86/59/1
f 54/40/5 58/11/5 83/11/5 75/40/5
f 64/56/6 72/87/6 88/87/6 85/56/6
f 69/64/6 65/59/6 86/59/6 87/64/6
f 45/62/5 26/57/5 78/57/5 77/62/5
f 39/65/3 69/64/3 87/64/3 81/65/3
f 53/38/3 25/60/3 74/60/3 73/38/3
usemtl Material.034
f 88/87/4 77/62/4 78/57/4 85/56/4
f 86/59/4 80/58/4 81/65/4 87/64/4
f 76/61/4 75/40/4 83/11/4 82/68/4
f 79/63/4 84/35/4 73/38/4 74/60/4
