# Blender 5.0.1
# www.blender.org
mtllib Гном хз.mtl
o Cube
v -0.032314 -0.016439 -0.105011
v -0.032314 -0.014810 -0.087325
v -0.126243 -0.014810 -0.105011
v -0.032314 0.049818 -0.087325
v -0.032314 0.067504 -0.105011
v -0.126243 0.049818 -0.105011
v -0.032314 -0.016439 -0.169638
v -0.126243 -0.014810 -0.169638
v -0.032314 -0.014810 -0.187325
v -0.032314 0.067504 -0.169638
v -0.032314 0.049818 -0.187325
v -0.126243 0.049818 -0.169638
v 0.032314 -0.016439 -0.105011
v 0.050000 -0.014810 -0.105011
v 0.032314 -0.014810 -0.087325
v 0.032314 0.067504 -0.105011
v 0.032314 0.049818 -0.087325
v 0.050000 0.049818 -0.105011
v 0.032314 -0.016439 -0.169638
v 0.032314 -0.014810 -0.187325
v 0.050000 -0.014810 -0.169638
v 0.032314 0.067504 -0.169638
v 0.050000 0.049818 -0.169638
v 0.032314 0.049818 -0.187325
v -0.032314 -0.016439 0.047252
v -0.032314 -0.014810 0.029566
v -0.126243 -0.014810 0.047252
v -0.032314 0.049818 0.029566
v -0.032314 0.067504 0.047252
v -0.126243 0.049818 0.047252
v -0.032314 -0.016439 0.111879
v -0.126243 -0.014810 0.111879
v -0.032314 -0.014810 0.129566
v -0.032314 0.067504 0.111879
v -0.032314 0.049818 0.129566
v -0.126243 0.049818 0.111879
v 0.032314 -0.016439 0.047252
v 0.050000 -0.014810 0.047252
v 0.032314 -0.014810 0.029566
v 0.032314 0.067504 0.047252
v 0.032314 0.049818 0.029566
v 0.050000 0.049818 0.047252
v 0.032314 -0.016439 0.111879
v 0.032314 -0.014810 0.129566
v 0.050000 -0.014810 0.111879
v 0.032314 0.067504 0.111879
v 0.050000 0.049818 0.111879
v 0.032314 0.049818 0.129566
vn -0.0173 -0.9956 0.0917
vn -0.1320 0.7009 0.7009
vn -0.0173 -0.9956 -0.0917
vn -0.1320 0.7009 -0.7009
vn 0.0913 -0.9916 0.0913
vn 0.5774 0.5774 0.5774
vn 0.0913 -0.9916 -0.0913
vn 0.5774 0.5774 -0.5774
vn -0.0173 -0.9998 -0.0000
vn -0.1850 -0.0000 0.9827
vn -0.1850 0.9827 -0.0000
vn -0.1850 -0.0000 -0.9827
vn -0.0000 -0.9958 -0.0917
vn -0.0000 0.7071 -0.7071
vn 0.7071 -0.0000 -0.7071
vn 0.0917 -0.9958 -0.0000
vn 0.7071 0.7071 -0.0000
vn 0.7071 -0.0000 0.7071
vn -0.0000 -0.9958 0.0917
vn -0.0000 0.7071 0.7071
vn -0.0000 -1.0000 -0.0000
vn -1.0000 -0.0000 -0.0000
vn -0.0000 -0.0000 1.0000
vn -0.0000 1.0000 -0.0000
vn -0.0000 -0.0000 -1.0000
vn 1.0000 -0.0000 -0.0000
vn 0.5774 0.5773 -0.5774
vn 0.5773 0.5774 0.5773
vt 0.169216 0.705784
vt 0.169216 0.750000
vt 0.125000 0.705784
vt 0.580784 0.000000
vt 0.625000 0.044216
vt 0.580784 0.044216
vt 0.169216 0.544216
vt 0.125000 0.544216
vt 0.169216 0.500000
vt 0.625000 0.235261
vt 0.580784 0.283162
vt 0.580784 0.205784
vt 0.330784 0.705785
vt 0.408162 0.705784
vt 0.375000 0.772108
vt 0.647108 0.750000
vt 0.580784 0.794216
vt 0.580784 0.716838
vt 0.330784 0.544216
vt 0.375000 0.477892
vt 0.408162 0.544216
vt 0.647108 0.500000
vt 0.580784 0.533162
vt 0.580784 0.455784
vt 0.419216 0.000000
vt 0.419216 0.044216
vt 0.419216 0.294216
vt 0.419216 0.205784
vt 0.625000 0.955784
vt 0.580784 0.955784
vt 0.419216 0.955784
vt 0.830784 0.544216
vt 0.830784 0.705785
s 0
usemtl Material.001
f 1/1/1 2/2/1 3/3/1
f 4/4/2 5/5/2 6/6/2
f 7/7/3 8/8/3 9/9/3
f 10/10/4 11/11/4 12/12/4
f 13/13/5 14/14/5 15/15/5
f 16/16/6 17/17/6 18/18/6
f 19/19/7 20/20/7 21/21/7
f 22/22/8 23/23/8 24/24/8
f 7/7/9 1/1/9 3/3/9 8/8/9
f 2/25/10 4/4/10 6/6/10 3/26/10
f 5/5/11 10/10/11 12/12/11 6/6/11
f 11/11/12 9/27/12 8/28/12 12/12/12
f 19/19/13 7/7/13 9/9/13 20/20/13
f 10/10/14 22/22/14 24/24/14 11/11/14
f 23/23/15 21/21/15 20/20/15 24/24/15
f 13/13/16 19/19/16 21/21/16 14/14/16
f 22/22/17 16/16/17 18/18/17 23/23/17
f 17/17/18 15/15/18 14/14/18 18/18/18
f 1/1/19 13/13/19 15/15/19 2/2/19
f 16/16/20 5/29/20 4/30/20 17/17/20
f 7/7/21 19/19/21 13/13/21 1/1/21
f 3/26/22 6/6/22 12/12/22 8/28/22
f 15/15/23 17/17/23 4/30/23 2/31/23
f 22/22/24 10/32/24 5/33/24 16/16/24
f 9/27/25 11/11/25 24/24/25 20/20/25
f 21/21/26 23/23/26 18/18/26 14/14/26
f 25/1/3 27/3/3 26/2/3
f 28/4/4 30/6/4 29/5/4
f 31/7/1 33/9/1 32/8/1
f 34/10/2 36/12/2 35/11/2
f 37/13/7 39/15/7 38/14/7
f 40/16/27 42/18/27 41/17/27
f 43/19/5 45/21/5 44/20/5
f 46/22/28 48/24/28 47/23/28
f 31/7/9 32/8/9 27/3/9 25/1/9
f 26/25/12 27/26/12 30/6/12 28/4/12
f 29/5/11 30/6/11 36/12/11 34/10/11
f 35/11/10 36/12/10 32/28/10 33/27/10
f 43/19/19 44/20/19 33/9/19 31/7/19
f 34/10/20 35/11/20 48/24/20 46/22/20
f 47/23/18 48/24/18 44/20/18 45/21/18
f 37/13/16 38/14/16 45/21/16 43/19/16
f 46/22/17 47/23/17 42/18/17 40/16/17
f 41/17/15 42/18/15 38/14/15 39/15/15
f 25/1/13 26/2/13 39/15/13 37/13/13
f 40/16/14 41/17/14 28/30/14 29/29/14
f 31/7/21 25/1/21 37/13/21 43/19/21
f 27/26/22 32/28/22 36/12/22 30/6/22
f 39/15/25 26/31/25 28/30/25 41/17/25
f 46/22/24 40/16/24 29/33/24 34/32/24
f 33/27/23 44/20/23 48/24/23 35/11/23
f 45/21/26 38/14/26 42/18/26 47/23/26
o Cube.002
v -0.155371 0.048109 0.150955
v -0.149423 0.069773 0.166807
v -0.167315 0.069773 0.143060
v -0.113627 0.219422 0.119299
v -0.109212 0.241086 0.089693
v -0.131519 0.219422 0.095552
v -0.155371 0.048109 -0.208714
v -0.167315 0.069773 -0.200819
v -0.149423 0.069773 -0.224566
v -0.109212 0.241086 -0.147452
v -0.113627 0.219422 -0.177058
v -0.131519 0.219422 -0.153311
v 0.115630 0.048109 0.150955
v 0.127573 0.069773 0.143060
v 0.109681 0.069773 0.166807
v 0.069470 0.241086 0.089693
v 0.073885 0.219422 0.119299
v 0.091777 0.219422 0.095552
v 0.115630 0.048109 -0.208714
v 0.109681 0.069773 -0.224566
v 0.127573 0.069773 -0.200819
v 0.069470 0.241086 -0.147452
v 0.091777 0.219422 -0.153311
v 0.073885 0.219422 -0.177058
vn -0.7798 -0.2158 0.5876
vn -0.5689 0.7018 0.4287
vn -0.7798 -0.2158 -0.5876
vn -0.5689 0.7018 -0.4287
vn 0.7798 -0.2158 0.5876
vn 0.5689 0.7018 0.4287
vn 0.7798 -0.2158 -0.5876
vn 0.5689 0.7018 -0.4287
vn -0.8757 -0.4828 -0.0000
vn -0.7461 0.3569 0.5621
vn -0.6967 0.7174 -0.0000
vn -0.7461 0.3569 -0.5621
vn -0.0000 -0.5905 -0.8070
vn -0.0000 0.8070 -0.5905
vn 0.7461 0.3569 -0.5621
vn 0.8757 -0.4828 -0.0000
vn 0.6967 0.7174 -0.0000
vn 0.7461 0.3569 0.5621
vn -0.0000 -0.5905 0.8070
vn -0.0000 0.8070 0.5905
vn -0.0000 -1.0000 -0.0000
vn -0.9726 0.2326 -0.0000
vn -0.0000 0.3026 0.9531
vn -0.0000 1.0000 -0.0000
vn -0.0000 0.3026 -0.9531
vn 0.9726 0.2326 -0.0000
vt 0.139026 0.735974
vt 0.143898 0.747878
vt 0.127122 0.731102
vt 0.596935 0.981360
vt 0.625000 0.979893
vt 0.605063 1.000000
vt 0.139026 0.514026
vt 0.127122 0.518898
vt 0.143898 0.502122
vt 0.625000 0.256702
vt 0.596935 0.268640
vt 0.598967 0.236020
vt 0.360974 0.735974
vt 0.394988 0.733546
vt 0.379584 0.756759
vt 0.635053 0.750000
vt 0.596935 0.768640
vt 0.598967 0.736020
vt 0.360974 0.514026
vt 0.379584 0.493241
vt 0.394988 0.516454
vt 0.635053 0.510053
vt 0.596935 0.518640
vt 0.598967 0.486020
vt 0.411193 0.000000
vt 0.605063 0.000000
vt 0.596935 0.018640
vt 0.403065 0.015639
vt 0.625000 0.020107
vt 0.403065 0.265639
vt 0.403065 0.234361
vt 0.403065 0.984361
vt 0.854893 0.520107
vt 0.854893 0.729893
s 0
usemtl Material.002
f 49/34/29 50/35/29 51/36/29
f 52/37/30 53/38/30 54/39/30
f 55/40/31 56/41/31 57/42/31
f 58/43/32 59/44/32 60/45/32
f 61/46/33 62/47/33 63/48/33
f 64/49/34 65/50/34 66/51/34
f 67/52/35 68/53/35 69/54/35
f 70/55/36 71/56/36 72/57/36
f 55/40/37 49/34/37 51/36/37 56/41/37
f 50/58/38 52/59/38 54/60/38 51/61/38
f 53/62/39 58/43/39 60/45/39 54/60/39
f 59/44/40 57/63/40 56/64/40 60/45/40
f 67/52/41 55/40/41 57/42/41 68/53/41
f 58/43/42 70/55/42 72/57/42 59/44/42
f 71/56/43 69/54/43 68/53/43 72/57/43
f 61/46/44 67/52/44 69/54/44 62/47/44
f 70/55/45 64/49/45 66/51/45 71/56/45
f 65/50/46 63/48/46 62/47/46 66/51/46
f 49/34/47 61/46/47 63/48/47 50/35/47
f 64/49/48 53/38/48 52/37/48 65/50/48
f 55/40/49 67/52/49 61/46/49 49/34/49
f 51/61/50 54/60/50 60/45/50 56/64/50
f 63/48/51 65/50/51 52/37/51 50/65/51
f 70/55/52 58/66/52 53/67/52 64/49/52
f 57/63/53 59/44/53 72/57/53 68/53/53
f 69/54/54 71/56/54 66/51/54 62/47/54
o Cube.001
v -0.030625 0.153762 -0.188371
v -0.030885 0.155497 -0.181882
v -0.035643 0.157630 -0.186124
v -0.033695 0.197910 -0.157404
v -0.033979 0.204395 -0.159149
v -0.038452 0.200043 -0.161646
v -0.030753 0.178274 -0.230857
v -0.035771 0.182142 -0.228610
v -0.031038 0.184759 -0.232602
v -0.034107 0.228907 -0.201635
v -0.033847 0.227172 -0.208124
v -0.038580 0.224555 -0.204133
v 0.018344 0.156259 -0.187077
v 0.022817 0.160611 -0.184580
v 0.018084 0.157994 -0.180588
v 0.014990 0.206892 -0.157856
v 0.015275 0.200407 -0.156111
v 0.020008 0.203024 -0.160102
v 0.018216 0.180771 -0.229564
v 0.017932 0.187256 -0.231309
v 0.022689 0.185123 -0.227066
v 0.014863 0.231404 -0.200342
v 0.019880 0.227536 -0.202588
v 0.015122 0.229669 -0.206831
v -0.030625 0.153762 0.130612
v -0.030885 0.155497 0.124123
v -0.035643 0.157630 0.128365
v -0.033695 0.197910 0.099645
v -0.033979 0.204395 0.101390
v -0.038452 0.200043 0.103887
v -0.030753 0.178274 0.173098
v -0.035771 0.182142 0.170851
v -0.031038 0.184759 0.174843
v -0.034107 0.228907 0.143876
v -0.033847 0.227172 0.150365
v -0.038580 0.224555 0.146374
v 0.018344 0.156259 0.129318
v 0.022817 0.160611 0.126821
v 0.018084 0.157994 0.122830
v 0.014990 0.206892 0.100097
v 0.015275 0.200407 0.098352
v 0.020008 0.203024 0.102343
v 0.018216 0.180771 0.171805
v 0.017932 0.187256 0.173550
v 0.022689 0.185123 0.169307
v 0.014863 0.231404 0.142583
v 0.019880 0.227536 0.144829
v 0.015122 0.229669 0.149072
vn -0.5418 -0.8171 0.1967
vn -0.6080 0.1813 0.7730
vn -0.5448 -0.2401 -0.8034
vn -0.6110 0.7584 -0.2272
vn 0.6110 -0.7584 0.2272
vn 0.5448 0.2401 0.8034
vn 0.6080 -0.1813 -0.7730
vn 0.5418 0.8171 -0.1967
vn -0.6654 -0.6474 -0.3715
vn -0.7041 -0.3894 0.5938
vn -0.7464 0.5754 0.3342
vn -0.7078 0.3174 -0.6311
vn 0.0387 -0.2581 -0.9654
vn -0.0423 0.9648 -0.2596
vn 0.7041 0.3894 -0.5938
vn 0.7464 -0.5754 -0.3342
vn 0.6654 0.6474 0.3715
vn 0.7078 -0.3174 0.6311
vn 0.0423 -0.9648 0.2596
vn -0.0387 0.2581 0.9654
vn 0.0573 -0.8647 -0.4990
vn -0.9984 -0.0509 -0.0264
vn 0.0026 -0.4997 0.8662
vn -0.0573 0.8647 0.4990
vn -0.0026 0.4997 -0.8662
vn 0.9984 0.0509 0.0264
vn -0.5418 -0.8171 -0.1967
vn -0.6080 0.1813 -0.7730
vn -0.5448 -0.2401 0.8034
vn -0.6110 0.7584 0.2272
vn 0.6110 -0.7584 -0.2272
vn 0.5448 0.2401 -0.8034
vn 0.6080 -0.1813 0.7730
vn 0.5418 0.8171 0.1967
vn -0.6654 -0.6474 0.3715
vn -0.7041 -0.3894 -0.5938
vn -0.7464 0.5754 -0.3342
vn -0.7078 0.3174 0.6311
vn 0.0387 -0.2581 0.9654
vn -0.0423 0.9648 0.2596
vn 0.7041 0.3894 0.5938
vn 0.7464 -0.5754 0.3342
vn 0.6654 0.6474 -0.3715
vn 0.7078 -0.3174 -0.6311
vn 0.0423 -0.9648 -0.2596
vn -0.0387 0.2581 -0.9654
vn 0.0573 -0.8647 0.4990
vn -0.9984 -0.0509 0.0264
vn 0.0026 -0.4997 -0.8662
vn -0.0573 0.8647 -0.4990
vn -0.0026 0.4997 0.8662
vn 0.9984 0.0509 -0.0264
vt 0.145293 0.729707
vt 0.145293 0.750000
vt 0.125000 0.729707
vt 0.604707 0.979707
vt 0.625000 0.979707
vt 0.604707 1.000000
vt 0.145293 0.520293
vt 0.125000 0.520293
vt 0.145293 0.500000
vt 0.625000 0.256764
vt 0.604707 0.270293
vt 0.604707 0.234781
vt 0.354707 0.729707
vt 0.390219 0.729707
vt 0.375000 0.760146
vt 0.635146 0.750000
vt 0.604707 0.770293
vt 0.604707 0.734781
vt 0.354707 0.520293
vt 0.375000 0.489854
vt 0.390219 0.520293
vt 0.635146 0.510146
vt 0.604707 0.520293
vt 0.604707 0.484781
vt 0.395293 0.000000
vt 0.604707 0.000000
vt 0.604707 0.020293
vt 0.395293 0.020293
vt 0.625000 0.020293
vt 0.395293 0.270293
vt 0.395293 0.229707
vt 0.395293 0.979707
vt 0.854707 0.520293
vt 0.854707 0.729707
s 0
usemtl Material.002
f 73/68/55 74/69/55 75/70/55
f 76/71/56 77/72/56 78/73/56
f 79/74/57 80/75/57 81/76/57
f 82/77/58 83/78/58 84/79/58
f 85/80/59 86/81/59 87/82/59
f 88/83/60 89/84/60 90/85/60
f 91/86/61 92/87/61 93/88/61
f 94/89/62 95/90/62 96/91/62
f 79/74/63 73/68/63 75/70/63 80/75/63
f 74/92/64 76/93/64 78/94/64 75/95/64
f 77/96/65 82/77/65 84/79/65 78/94/65
f 83/78/66 81/97/66 80/98/66 84/79/66
f 91/86/67 79/74/67 81/76/67 92/87/67
f 82/77/68 94/89/68 96/91/68 83/78/68
f 95/90/69 93/88/69 92/87/69 96/91/69
f 85/80/70 91/86/70 93/88/70 86/81/70
f 94/89/71 88/83/71 90/85/71 95/90/71
f 89/84/72 87/82/72 86/81/72 90/85/72
f 73/68/73 85/80/73 87/82/73 74/69/73
f 88/83/74 77/72/74 76/71/74 89/84/74
f 79/74/75 91/86/75 85/80/75 73/68/75
f 75/95/76 78/94/76 84/79/76 80/98/76
f 87/82/77 89/84/77 76/71/77 74/99/77
f 94/89/78 82/100/78 77/101/78 88/83/78
f 81/97/79 83/78/79 96/91/79 92/87/79
f 93/88/80 95/90/80 90/85/80 86/81/80
f 97/68/81 99/70/81 98/69/81
f 100/71/82 102/73/82 101/72/82
f 103/74/83 105/76/83 104/75/83
f 106/77/84 108/79/84 107/78/84
f 109/80/85 111/82/85 110/81/85
f 112/83/86 114/85/86 113/84/86
f 115/86/87 117/88/87 116/87/87
f 118/89/88 120/91/88 119/90/88
f 103/74/89 104/75/89 99/70/89 97/68/89
f 98/92/90 99/95/90 102/94/90 100/93/90
f 101/96/91 102/94/91 108/79/91 106/77/91
f 107/78/92 108/79/92 104/98/92 105/97/92
f 115/86/93 116/87/93 105/76/93 103/74/93
f 106/77/94 107/78/94 120/91/94 118/89/94
f 119/90/95 120/91/95 116/87/95 117/88/95
f 109/80/96 110/81/96 117/88/96 115/86/96
f 118/89/97 119/90/97 114/85/97 112/83/97
f 113/84/98 114/85/98 110/81/98 111/82/98
f 97/68/99 98/69/99 111/82/99 109/80/99
f 112/83/100 113/84/100 100/71/100 101/72/100
f 103/74/101 97/68/101 109/80/101 115/86/101
f 99/95/102 104/98/102 108/79/102 102/94/102
f 111/82/103 98/99/103 100/71/103 113/84/103
f 118/89/104 112/83/104 101/101/104 106/100/104
f 105/97/105 116/87/105 120/91/105 107/78/105
f 117/88/106 110/81/106 114/85/106 119/90/106
o Cube.003
v -0.022951 0.130744 -0.208553
v -0.023147 0.132057 -0.203640
v -0.026749 0.133672 -0.206852
v -0.025274 0.164166 -0.185109
v -0.025490 0.169076 -0.186430
v -0.028876 0.165781 -0.188321
v -0.023047 0.149301 -0.240717
v -0.026846 0.152229 -0.239016
v -0.023263 0.154210 -0.242038
v -0.025586 0.187632 -0.218595
v -0.025389 0.186319 -0.223507
v -0.028973 0.184338 -0.220485
v 0.014122 0.132634 -0.207574
v 0.017508 0.135929 -0.205683
v 0.013925 0.133947 -0.202661
v 0.011583 0.170966 -0.185451
v 0.011799 0.166056 -0.184130
v 0.015382 0.168038 -0.187152
v 0.014025 0.151191 -0.239738
v 0.013810 0.156101 -0.241059
v 0.017412 0.154486 -0.237847
v 0.011486 0.189523 -0.217616
v 0.015285 0.186595 -0.219316
v 0.011683 0.188210 -0.222528
v -0.022951 0.130744 0.150794
v -0.023147 0.132057 0.145881
v -0.026749 0.133672 0.149093
v -0.025274 0.164166 0.127350
v -0.025490 0.169076 0.128671
v -0.028876 0.165781 0.130562
v -0.023047 0.149301 0.182958
v -0.026846 0.152229 0.181258
v -0.023263 0.154210 0.184279
v -0.025586 0.187632 0.160836
v -0.025389 0.186319 0.165748
v -0.028973 0.184338 0.162726
v 0.014122 0.132634 0.149815
v 0.017508 0.135929 0.147924
v 0.013925 0.133948 0.144902
v 0.011583 0.170966 0.127692
v 0.011799 0.166056 0.126371
v 0.015382 0.168038 0.129393
v 0.014025 0.151191 0.181979
v 0.013810 0.156101 0.183300
v 0.017412 0.154486 0.180089
v 0.011486 0.189523 0.159857
v 0.015285 0.186595 0.161557
v 0.011683 0.188210 0.164769
vn -0.5418 -0.8171 0.1967
vn -0.6080 0.1813 0.7730
vn -0.5448 -0.2401 -0.8034
vn -0.6110 0.7584 -0.2272
vn 0.6110 -0.7584 0.2272
vn 0.5448 0.2401 0.8034
vn 0.6080 -0.1813 -0.7730
vn 0.5418 0.8171 -0.1967
vn -0.6654 -0.6474 -0.3715
vn -0.7041 -0.3894 0.5938
vn -0.7464 0.5754 0.3342
vn -0.7078 0.3174 -0.6311
vn 0.0387 -0.2581 -0.9654
vn -0.0423 0.9648 -0.2596
vn 0.7041 0.3894 -0.5938
vn 0.7464 -0.5754 -0.3342
vn 0.6654 0.6474 0.3715
vn 0.7078 -0.3174 0.6311
vn 0.0423 -0.9648 0.2596
vn -0.0387 0.2581 0.9654
vn 0.0573 -0.8647 -0.4990
vn -0.9984 -0.0509 -0.0264
vn 0.0026 -0.4997 0.8662
vn -0.0573 0.8647 0.4990
vn -0.0026 0.4997 -0.8662
vn 0.9984 0.0509 0.0264
vn -0.5418 -0.8171 -0.1967
vn -0.6080 0.1813 -0.7730
vn -0.5448 -0.2401 0.8034
vn -0.6110 0.7584 0.2272
vn 0.6110 -0.7584 -0.2272
vn 0.5448 0.2401 -0.8034
vn 0.6080 -0.1813 0.7730
vn 0.5418 0.8171 0.1967
vn -0.6654 -0.6474 0.3715
vn -0.7041 -0.3894 -0.5938
vn -0.7464 0.5754 -0.3342
vn -0.7078 0.3174 0.6311
vn 0.0387 -0.2581 0.9654
vn -0.0423 0.9648 0.2596
vn 0.7041 0.3894 0.5938
vn 0.7464 -0.5754 0.3342
vn 0.6654 0.6474 -0.3715
vn 0.7078 -0.3174 -0.6311
vn 0.0423 -0.9648 -0.2596
vn -0.0387 0.2581 -0.9654
vn 0.0573 -0.8647 0.4990
vn -0.9984 -0.0509 0.0264
vn 0.0026 -0.4997 -0.8662
vn -0.0573 0.8647 -0.4990
vn -0.0026 0.4997 0.8662
vn 0.9984 0.0509 -0.0264
vt 0.145293 0.729707
vt 0.145293 0.750000
vt 0.125000 0.729707
vt 0.604707 0.979707
vt 0.625000 0.979707
vt 0.604707 1.000000
vt 0.145293 0.520293
vt 0.125000 0.520293
vt 0.145293 0.500000
vt 0.625000 0.256764
vt 0.604707 0.270293
vt 0.604707 0.234781
vt 0.354707 0.729707
vt 0.390219 0.729707
vt 0.375000 0.760146
vt 0.635146 0.750000
vt 0.604707 0.770293
vt 0.604707 0.734781
vt 0.354707 0.520293
vt 0.375000 0.489854
vt 0.390219 0.520293
vt 0.635146 0.510146
vt 0.604707 0.520293
vt 0.604707 0.484781
vt 0.395293 0.000000
vt 0.604707 0.000000
vt 0.604707 0.020293
vt 0.395293 0.020293
vt 0.625000 0.020293
vt 0.395293 0.270293
vt 0.395293 0.229707
vt 0.395293 0.979707
vt 0.854707 0.520293
vt 0.854707 0.729707
s 0
usemtl Material.003
f 121/102/107 122/103/107 123/104/107
f 124/105/108 125/106/108 126/107/108
f 127/108/109 128/109/109 129/110/109
f 130/111/110 131/112/110 132/113/110
f 133/114/111 134/115/111 135/116/111
f 136/117/112 137/118/112 138/119/112
f 139/120/113 140/121/113 141/122/113
f 142/123/114 143/124/114 144/125/114
f 127/108/115 121/102/115 123/104/115 128/109/115
f 122/126/116 124/127/116 126/128/116 123/129/116
f 125/130/117 130/111/117 132/113/117 126/128/117
f 131/112/118 129/131/118 128/132/118 132/113/118
f 139/120/119 127/108/119 129/110/119 140/121/119
f 130/111/120 142/123/120 144/125/120 131/112/120
f 143/124/121 141/122/121 140/121/121 144/125/121
f 133/114/122 139/120/122 141/122/122 134/115/122
f 142/123/123 136/117/123 138/119/123 143/124/123
f 137/118/124 135/116/124 134/115/124 138/119/124
f 121/102/125 133/114/125 135/116/125 122/103/125
f 136/117/126 125/106/126 124/105/126 137/118/126
f 127/108/127 139/120/127 133/114/127 121/102/127
f 123/129/128 126/128/128 132/113/128 128/132/128
f 135/116/129 137/118/129 124/105/129 122/133/129
f 142/123/130 130/134/130 125/135/130 136/117/130
f 129/131/131 131/112/131 144/125/131 140/121/131
f 141/122/132 143/124/132 138/119/132 134/115/132
f 145/102/133 147/104/133 146/103/133
f 148/105/134 150/107/134 149/106/134
f 151/108/135 153/110/135 152/109/135
f 154/111/136 156/113/136 155/112/136
f 157/114/137 159/116/137 158/115/137
f 160/117/138 162/119/138 161/118/138
f 163/120/139 165/122/139 164/121/139
f 166/123/140 168/125/140 167/124/140
f 151/108/141 152/109/141 147/104/141 145/102/141
f 146/126/142 147/129/142 150/128/142 148/127/142
f 149/130/143 150/128/143 156/113/143 154/111/143
f 155/112/144 156/113/144 152/132/144 153/131/144
f 163/120/145 164/121/145 153/110/145 151/108/145
f 154/111/146 155/112/146 168/125/146 166/123/146
f 167/124/147 168/125/147 164/121/147 165/122/147
f 157/114/148 158/115/148 165/122/148 163/120/148
f 166/123/149 167/124/149 162/119/149 160/117/149
f 161/118/150 162/119/150 158/115/150 159/116/150
f 145/102/151 146/103/151 159/116/151 157/114/151
f 160/117/152 161/118/152 148/105/152 149/106/152
f 151/108/153 145/102/153 157/114/153 163/120/153
f 147/129/154 152/132/154 156/113/154 150/128/154
f 159/116/155 146/133/155 148/105/155 161/118/155
f 166/123/156 160/117/156 149/135/156 154/134/156
f 153/131/157 164/121/157 168/125/157 155/112/157
f 165/122/158 158/115/158 162/119/158 167/124/158
o Cube.004
v -0.095466 0.239251 0.046807
v -0.095466 0.248586 0.056143
v -0.104267 0.248586 0.046807
v -0.095466 0.288589 0.056143
v -0.095466 0.297924 0.046807
v -0.104267 0.288589 0.046807
v -0.095466 0.239251 -0.108382
v -0.104267 0.248586 -0.108382
v -0.095466 0.248586 -0.117717
v -0.095466 0.297924 -0.108382
v -0.095466 0.288589 -0.117717
v -0.104267 0.288589 -0.108382
v 0.050856 0.239251 0.046807
v 0.059658 0.248586 0.046807
v 0.050856 0.248586 0.056143
v 0.050856 0.297924 0.046807
v 0.050856 0.288589 0.056143
v 0.059658 0.288589 0.046807
v 0.050856 0.239251 -0.108382
v 0.050856 0.248586 -0.117717
v 0.059658 0.248586 -0.108382
v 0.050856 0.297924 -0.108382
v 0.059658 0.288589 -0.108382
v 0.050856 0.288589 -0.117717
vn -0.6000 -0.5657 0.5657
vn -0.6000 0.5657 0.5657
vn -0.6000 -0.5657 -0.5657
vn -0.6000 0.5657 -0.5657
vn 0.6000 -0.5657 0.5657
vn 0.6000 0.5657 0.5657
vn 0.6000 -0.5657 -0.5657
vn 0.6000 0.5657 -0.5657
vn -0.7276 -0.6860 -0.0000
vn -0.7276 -0.0000 0.6860
vn -0.7276 0.6860 -0.0000
vn -0.7276 -0.0000 -0.6860
vn -0.0000 -0.7071 -0.7071
vn -0.0000 0.7071 -0.7071
vn 0.7276 -0.0000 -0.6860
vn 0.7276 -0.6860 -0.0000
vn 0.7276 0.6860 -0.0000
vn 0.7276 -0.0000 0.6860
vn -0.0000 -0.7071 0.7071
vn -0.0000 0.7071 0.7071
vn -0.0000 -1.0000 -0.0000
vn -1.0000 -0.0000 -0.0000
vn -0.0000 -0.0000 1.0000
vn -0.0000 1.0000 -0.0000
vn -0.0000 -0.0000 -1.0000
vn 1.0000 -0.0000 -0.0000
vt 0.138423 0.736577
vt 0.138423 0.750000
vt 0.125000 0.736577
vt 0.585224 0.986577
vt 0.625000 0.986577
vt 0.585224 1.000000
vt 0.138423 0.513423
vt 0.125000 0.513423
vt 0.138423 0.500000
vt 0.625000 0.254474
vt 0.585224 0.263423
vt 0.585224 0.239933
vt 0.361577 0.736577
vt 0.404832 0.736577
vt 0.388176 0.756712
vt 0.631712 0.750000
vt 0.585224 0.763423
vt 0.585224 0.739933
vt 0.361577 0.513423
vt 0.388176 0.493288
vt 0.404832 0.513423
vt 0.631712 0.506712
vt 0.585224 0.513423
vt 0.585224 0.489933
vt 0.414776 0.000000
vt 0.585224 0.000000
vt 0.585224 0.013423
vt 0.414776 0.013423
vt 0.625000 0.013423
vt 0.414776 0.263423
vt 0.414776 0.236577
vt 0.414776 0.986577
vt 0.861577 0.513423
vt 0.861577 0.736577
s 0
usemtl Material.003
f 169/136/159 170/137/159 171/138/159
f 172/139/160 173/140/160 174/141/160
f 175/142/161 176/143/161 177/144/161
f 178/145/162 179/146/162 180/147/162
f 181/148/163 182/149/163 183/150/163
f 184/151/164 185/152/164 186/153/164
f 187/154/165 188/155/165 189/156/165
f 190/157/166 191/158/166 192/159/166
f 175/142/167 169/136/167 171/138/167 176/143/167
f 170/160/168 172/161/168 174/162/168 171/163/168
f 173/164/169 178/145/169 180/147/169 174/162/169
f 179/146/170 177/165/170 176/166/170 180/147/170
f 187/154/171 175/142/171 177/144/171 188/155/171
f 178/145/172 190/157/172 192/159/172 179/146/172
f 191/158/173 189/156/173 188/155/173 192/159/173
f 181/148/174 187/154/174 189/156/174 182/149/174
f 190/157/175 184/151/175 186/153/175 191/158/175
f 185/152/176 183/150/176 182/149/176 186/153/176
f 169/136/177 181/148/177 183/150/177 170/137/177
f 184/151/178 173/140/178 172/139/178 185/152/178
f 175/142/179 187/154/179 181/148/179 169/136/179
f 171/163/180 174/162/180 180/147/180 176/166/180
f 183/150/181 185/152/181 172/139/181 170/167/181
f 190/157/182 178/168/182 173/169/182 184/151/182
f 177/165/183 179/146/183 192/159/183 188/155/183
f 189/156/184 191/158/184 186/153/184 182/149/184
o Cone
v -0.023567 0.273871 -0.196175
v 0.007623 0.271990 -0.193310
v 0.037654 0.270150 -0.184400
v 0.065371 0.268422 -0.169787
v 0.089711 0.266872 -0.150033
v 0.109736 0.265560 -0.125896
v 0.124678 0.264537 -0.098304
v 0.133963 0.263841 -0.068317
v 0.137234 0.263500 -0.037089
v 0.134364 0.263526 -0.005818
v 0.125465 0.263919 0.024293
v 0.110878 0.264664 0.052087
v 0.091164 0.265731 0.076496
v 0.067081 0.267080 0.096582
v 0.039553 0.268659 0.111574
v 0.009640 0.270408 0.120894
v -0.021511 0.272258 0.124185
v -0.052701 0.274140 0.121321
v -0.082731 0.275980 0.112411
v -0.110449 0.277708 0.097798
v -0.134788 0.279258 0.078044
v -0.154813 0.280569 0.053907
v -0.169756 0.281593 0.026315
v -0.179040 0.282288 -0.003672
v -0.182311 0.282629 -0.034900
v -0.179442 0.282603 -0.066171
v -0.170542 0.282210 -0.096282
v -0.155956 0.281466 -0.124076
v -0.136242 0.280398 -0.148485
v -0.112158 0.279049 -0.168571
v -0.084631 0.277470 -0.183563
v -0.054717 0.275722 -0.192883
v 0.000384 0.539877 -0.034214
v -0.023628 0.267724 -0.196179
v 0.007561 0.265843 -0.193315
v 0.037592 0.264002 -0.184405
v 0.065310 0.262274 -0.169792
v 0.089649 0.260725 -0.150038
v 0.109674 0.259413 -0.125901
v 0.124617 0.258389 -0.098309
v 0.133901 0.257694 -0.068322
v 0.137172 0.257353 -0.037094
v 0.134302 0.257379 -0.005823
v 0.125403 0.257772 0.024288
v 0.110816 0.258516 0.052082
v 0.091102 0.259584 0.076491
v 0.067019 0.260933 0.096577
v 0.039491 0.262512 0.111569
v 0.009578 0.264260 0.120889
v -0.021573 0.266111 0.124181
v -0.052762 0.267992 0.121316
v -0.082793 0.269832 0.112406
v -0.110511 0.271560 0.097793
v -0.134850 0.273110 0.078039
v -0.154875 0.274422 0.053902
v -0.169817 0.275445 0.026310
v -0.179102 0.276141 -0.003677
v -0.182373 0.276482 -0.034905
v -0.179503 0.276456 -0.066176
v -0.170604 0.276063 -0.096287
v -0.156017 0.275318 -0.124081
v -0.136303 0.274251 -0.148490
v -0.112220 0.272902 -0.168576
v -0.084692 0.271323 -0.183568
v -0.054779 0.269574 -0.192888
v -0.023565 0.277784 -0.186274
v 0.005696 0.276019 -0.183587
v 0.033870 0.274292 -0.175228
v 0.059873 0.272671 -0.161518
v 0.082707 0.271217 -0.142985
v 0.101494 0.269986 -0.120341
v 0.115513 0.269026 -0.094455
v 0.124223 0.268374 -0.066323
v 0.127292 0.268054 -0.037026
v 0.124599 0.268079 -0.007689
v 0.116251 0.268447 0.020560
v 0.102566 0.269146 0.046635
v 0.084071 0.270147 0.069535
v 0.061477 0.271412 0.088379
v 0.035652 0.272894 0.102443
v 0.007588 0.274534 0.111187
v -0.021636 0.276270 0.114275
v -0.050897 0.278035 0.111588
v -0.079071 0.279762 0.103229
v -0.105074 0.281383 0.089520
v -0.127908 0.282837 0.070987
v -0.146695 0.284067 0.048342
v -0.160714 0.285027 0.022457
v -0.169424 0.285680 -0.005675
v -0.172492 0.286000 -0.034973
v -0.169800 0.285975 -0.064310
v -0.161452 0.285607 -0.092558
v -0.147767 0.284908 -0.118634
v -0.129272 0.283907 -0.141533
v -0.106678 0.282641 -0.160378
v -0.080853 0.281160 -0.174442
v -0.052789 0.279520 -0.183186
vn 0.1091 0.5098 -0.8534
vn 0.2747 0.4965 -0.8234
vn 0.4316 0.4836 -0.7615
vn 0.5736 0.4718 -0.6697
vn 0.6950 0.4614 -0.5515
vn 0.7909 0.4528 -0.4115
vn 0.8576 0.4465 -0.2552
vn 0.8923 0.4427 -0.0886
vn 0.8935 0.4416 0.0816
vn 0.8613 0.4431 0.2488
vn 0.7968 0.4473 0.4062
vn 0.7028 0.4539 0.5478
vn 0.5829 0.4627 0.6679
vn 0.4421 0.4734 0.7619
vn 0.2858 0.4854 0.8262
vn 0.1203 0.4983 0.8586
vn -0.0479 0.5117 0.8578
vn -0.2124 0.5249 0.8243
vn -0.3668 0.5374 0.7593
vn -0.5054 0.5489 0.6658
vn -0.6230 0.5589 0.5473
vn -0.7154 0.5670 0.4084
vn -0.7791 0.5729 0.2545
vn -0.8120 0.5764 0.0913
vn -0.8129 0.5775 -0.0751
vn -0.7818 0.5761 -0.2386
vn -0.7198 0.5722 -0.3931
vn -0.6291 0.5659 -0.5329
vn -0.5131 0.5575 -0.6526
vn -0.3758 0.5474 -0.7478
vn -0.4662 0.0040 0.8847
vn -0.2225 0.5357 -0.8146
vn -0.0588 0.5230 -0.8503
vn -0.1072 -0.6972 0.7088
vn -0.9589 0.0099 -0.2835
vn 0.8792 -0.0085 -0.4764
vn 0.6403 -0.0070 0.7681
vn -0.6300 0.0057 0.7766
vn -0.8853 0.0093 -0.4649
vn 0.9552 -0.0094 -0.2960
vn 0.0914 -0.0001 -0.9958
vn 0.4780 -0.0055 0.8783
vn -0.7694 0.0072 0.6387
vn -0.7778 0.0083 -0.6285
vn 0.9945 -0.0099 -0.1043
vn 0.2973 -0.0037 0.9548
vn -0.8792 0.0085 0.4764
vn 0.2843 -0.0021 -0.9587
vn -0.6403 0.0070 -0.7681
vn 0.9958 -0.0101 0.0914
vn 0.1050 -0.0018 0.9945
vn -0.9552 0.0094 0.2960
vn 0.4662 -0.0040 -0.8847
vn -0.4780 0.0055 -0.8783
vn 0.9589 -0.0099 0.2835
vn -0.0914 0.0001 0.9958
vn -0.9945 0.0099 0.1043
vn 0.6300 -0.0057 -0.7766
vn -0.2973 0.0037 -0.9548
vn 0.8853 -0.0093 0.4649
vn -0.2843 0.0021 0.9587
vn -0.9958 0.0101 -0.0914
vn 0.7694 -0.0072 -0.6387
vn -0.1050 0.0018 -0.9945
vn 0.7778 -0.0083 0.6285
vn -0.0598 -0.9982 -0.0046
vn 0.5284 -0.7148 0.4580
vn -0.2518 -0.6898 -0.6788
vn -0.2437 -0.6932 0.6783
vn 0.4257 -0.7122 0.5582
vn -0.1163 -0.6937 -0.7108
vn -0.3711 -0.6893 0.6223
vn 0.3055 -0.7089 0.6357
vn 0.0236 -0.6978 -0.7159
vn -0.4845 -0.6857 0.5432
vn 0.1730 -0.7053 0.6875
vn 0.1627 -0.7019 -0.6934
vn -0.5803 -0.6825 0.4443
vn 0.0336 -0.7013 0.7120
vn 0.2954 -0.7058 -0.6438
vn -0.6550 -0.6800 0.3295
vn 0.4164 -0.7094 -0.5686
vn -0.7064 -0.6781 0.2030
vn 0.5204 -0.7126 -0.4705
vn -0.7327 -0.6770 0.0693
vn 0.6032 -0.7151 -0.3532
vn -0.7333 -0.6766 -0.0667
vn 0.6610 -0.7170 -0.2213
vn -0.7081 -0.6771 -0.2004
vn 0.6913 -0.7181 -0.0802
vn -0.6579 -0.6783 -0.3271
vn 0.6926 -0.7185 0.0642
vn -0.5844 -0.6803 -0.4423
vn 0.6649 -0.7180 0.2059
vn -0.4900 -0.6829 -0.5417
vn 0.6093 -0.7168 0.3390
vn -0.3779 -0.6862 -0.6216
vt 0.250000 0.490000
vt 0.250000 0.250000
vt 0.296822 0.485388
vt 0.341844 0.471731
vt 0.383337 0.449553
vt 0.419706 0.419706
vt 0.449553 0.383337
vt 0.471731 0.341844
vt 0.485388 0.296822
vt 0.490000 0.250000
vt 0.485388 0.203178
vt 0.471731 0.158156
vt 0.449553 0.116663
vt 0.419706 0.080294
vt 0.383337 0.050447
vt 0.341844 0.028269
vt 0.296822 0.014612
vt 0.250000 0.010000
vt 0.203178 0.014612
vt 0.158156 0.028269
vt 0.116663 0.050447
vt 0.080294 0.080294
vt 0.050447 0.116663
vt 0.028269 0.158156
vt 0.014612 0.203178
vt 0.010000 0.250000
vt 0.014612 0.296822
vt 0.028269 0.341844
vt 0.050447 0.383337
vt 0.080294 0.419706
vt 0.116663 0.449553
vt 0.158156 0.471731
vt 0.203178 0.485388
vt 0.750000 0.490000
vt 0.796822 0.485388
vt 0.841844 0.471731
vt 0.883337 0.449553
vt 0.919706 0.419706
vt 0.949553 0.383337
vt 0.971731 0.341844
vt 0.985388 0.296822
vt 0.990000 0.250000
vt 0.985388 0.203178
vt 0.971731 0.158156
vt 0.949553 0.116663
vt 0.919706 0.080294
vt 0.883337 0.050447
vt 0.841844 0.028269
vt 0.796822 0.014612
vt 0.750000 0.010000
vt 0.703178 0.014612
vt 0.658156 0.028269
vt 0.616663 0.050447
vt 0.580294 0.080294
vt 0.550447 0.116663
vt 0.528269 0.158156
vt 0.514612 0.203178
vt 0.510000 0.250000
vt 0.514612 0.296822
vt 0.528269 0.341844
vt 0.550447 0.383337
vt 0.580294 0.419706
vt 0.616663 0.449553
vt 0.658156 0.471731
vt 0.703178 0.485388
s 0
usemtl Material.004
f 193/170/185 225/171/185 194/172/185
f 194/172/186 225/171/186 195/173/186
f 195/173/187 225/171/187 196/174/187
f 196/174/188 225/171/188 197/175/188
f 197/175/189 225/171/189 198/176/189
f 198/176/190 225/171/190 199/177/190
f 199/177/191 225/171/191 200/178/191
f 200/178/192 225/171/192 201/179/192
f 201/179/193 225/171/193 202/180/193
f 202/180/194 225/171/194 203/181/194
f 203/181/195 225/171/195 204/182/195
f 204/182/196 225/171/196 205/183/196
f 205/183/197 225/171/197 206/184/197
f 206/184/198 225/171/198 207/185/198
f 207/185/199 225/171/199 208/186/199
f 208/186/200 225/171/200 209/187/200
f 209/187/201 225/171/201 210/188/201
f 210/188/202 225/171/202 211/189/202
f 211/189/203 225/171/203 212/190/203
f 212/190/204 225/171/204 213/191/204
f 213/191/205 225/171/205 214/192/205
f 214/192/206 225/171/206 215/193/206
f 215/193/207 225/171/207 216/194/207
f 216/194/208 225/171/208 217/195/208
f 217/195/209 225/171/209 218/196/209
f 218/196/210 225/171/210 219/197/210
f 219/197/211 225/171/211 220/198/211
f 220/198/212 225/171/212 221/199/212
f 221/199/213 225/171/213 222/200/213
f 222/200/214 225/171/214 223/201/214
f 211/189/215 212/190/215 245/190/215 244/189/215
f 223/201/216 225/171/216 224/202/216
f 224/202/217 225/171/217 193/170/217
f 226/170/218 227/172/218 259/172/218 258/170/218
f 218/196/219 219/197/219 252/197/219 251/196/219
f 198/176/220 199/177/220 232/177/220 231/176/220
f 205/183/221 206/184/221 239/184/221 238/183/221
f 212/190/222 213/191/222 246/191/222 245/190/222
f 219/197/223 220/198/223 253/198/223 252/197/223
f 199/177/224 200/178/224 233/178/224 232/177/224
f 193/170/225 194/172/225 227/172/225 226/170/225
f 206/184/226 207/185/226 240/185/226 239/184/226
f 213/191/227 214/192/227 247/192/227 246/191/227
f 220/198/228 221/199/228 254/199/228 253/198/228
f 200/178/229 201/179/229 234/179/229 233/178/229
f 207/185/230 208/186/230 241/186/230 240/185/230
f 214/192/231 215/193/231 248/193/231 247/192/231
f 194/172/232 195/173/232 228/173/232 227/172/232
f 221/199/233 222/200/233 255/200/233 254/199/233
f 201/179/234 202/180/234 235/180/234 234/179/234
f 208/186/235 209/187/235 242/187/235 241/186/235
f 215/193/236 216/194/236 249/194/236 248/193/236
f 195/173/237 196/174/237 229/174/237 228/173/237
f 222/200/238 223/201/238 256/201/238 255/200/238
f 202/180/239 203/181/239 236/181/239 235/180/239
f 209/187/240 210/188/240 243/188/240 242/187/240
f 216/194/241 217/195/241 250/195/241 249/194/241
f 196/174/242 197/175/242 230/175/242 229/174/242
f 223/201/243 224/202/243 257/202/243 256/201/243
f 203/181/244 204/182/244 237/182/244 236/181/244
f 210/188/245 211/189/245 244/189/245 243/188/245
f 217/195/246 218/196/246 251/196/246 250/195/246
f 197/175/247 198/176/247 231/176/247 230/175/247
f 224/202/248 193/170/248 226/170/248 257/202/248
f 204/182/249 205/183/249 238/183/249 237/182/249
f 258/203/250 259/204/250 260/205/250 261/206/250 262/207/250 263/208/250 264/209/250 265/210/250 266/211/250 267/212/250 268/213/250 269/214/250 270/215/250 271/216/250 272/217/250 273/218/250 274/219/250 275/220/250 276/221/250 277/222/250 278/223/250 279/224/250 280/225/250 281/226/250 282/227/250 283/228/250 284/229/250 285/230/250 286/231/250 287/232/250 288/233/250 289/234/250
f 253/198/251 254/199/251 286/199/251 285/198/251
f 240/185/252 241/186/252 273/186/252 272/185/252
f 227/172/253 228/173/253 260/173/253 259/172/253
f 254/199/254 255/200/254 287/200/254 286/199/254
f 241/186/255 242/187/255 274/187/255 273/186/255
f 228/173/256 229/174/256 261/174/256 260/173/256
f 255/200/257 256/201/257 288/201/257 287/200/257
f 242/187/258 243/188/258 275/188/258 274/187/258
f 229/174/259 230/175/259 262/175/259 261/174/259
f 256/201/260 257/202/260 289/202/260 288/201/260
f 243/188/261 244/189/261 276/189/261 275/188/261
f 230/175/262 231/176/262 263/176/262 262/175/262
f 257/202/263 226/170/263 258/170/263 289/202/263
f 244/189/264 245/190/264 277/190/264 276/189/264
f 231/176/265 232/177/265 264/177/265 263/176/265
f 245/190/266 246/191/266 278/191/266 277/190/266
f 232/177/267 233/178/267 265/178/267 264/177/267
f 246/191/268 247/192/268 279/192/268 278/191/268
f 233/178/269 234/179/269 266/179/269 265/178/269
f 247/192/270 248/193/270 280/193/270 279/192/270
f 234/179/271 235/180/271 267/180/271 266/179/271
f 248/193/272 249/194/272 281/194/272 280/193/272
f 235/180/273 236/181/273 268/181/273 267/180/273
f 249/194/274 250/195/274 282/195/274 281/194/274
f 236/181/275 237/182/275 269/182/275 268/181/275
f 250/195/276 251/196/276 283/196/276 282/195/276
f 237/182/277 238/183/277 270/183/277 269/182/277
f 251/196/278 252/197/278 284/197/278 283/196/278
f 238/183/279 239/184/279 271/184/279 270/183/279
f 252/197/280 253/198/280 285/198/280 284/197/280
f 239/184/281 240/185/281 272/185/281 271/184/281
o Cube.005
v -0.117964 0.247676 -0.055191
v -0.117964 0.251841 -0.051025
v -0.122129 0.251841 -0.055191
v -0.117964 0.279235 -0.051025
v -0.117964 0.283401 -0.055191
v -0.122129 0.279235 -0.055191
v -0.117964 0.247676 -0.082585
v -0.122129 0.251841 -0.082585
v -0.117964 0.251841 -0.086750
v -0.117964 0.283401 -0.082585
v -0.117964 0.279235 -0.086750
v -0.122129 0.279235 -0.082585
v -0.090570 0.247676 -0.055191
v -0.086404 0.251841 -0.055191
v -0.090570 0.251841 -0.051025
v -0.090570 0.283401 -0.055191
v -0.090570 0.279235 -0.051025
v -0.086404 0.279235 -0.055191
v -0.090570 0.247676 -0.082585
v -0.090570 0.251841 -0.086750
v -0.086404 0.251841 -0.082585
v -0.090570 0.283401 -0.082585
v -0.086404 0.279235 -0.082585
v -0.090570 0.279235 -0.086750
v -0.117964 0.247676 -0.006383
v -0.117964 0.251841 -0.010549
v -0.122129 0.251841 -0.006383
v -0.117964 0.279235 -0.010549
v -0.117964 0.283401 -0.006383
v -0.122129 0.279235 -0.006383
v -0.117964 0.247676 0.021011
v -0.122129 0.251841 0.021011
v -0.117964 0.251841 0.025176
v -0.117964 0.283401 0.021011
v -0.117964 0.279235 0.025176
v -0.122129 0.279235 0.021011
v -0.090570 0.247676 -0.006383
v -0.086404 0.251841 -0.006383
v -0.090570 0.251841 -0.010549
v -0.090570 0.283401 -0.006383
v -0.090570 0.279235 -0.010549
v -0.086404 0.279235 -0.006383
v -0.090570 0.247676 0.021011
v -0.090570 0.251841 0.025176
v -0.086404 0.251841 0.021011
v -0.090570 0.283401 0.021011
v -0.086404 0.279235 0.021011
v -0.090570 0.279235 0.025176
vn -0.5774 -0.5774 0.5773
vn -0.5774 0.5774 0.5773
vn -0.5774 -0.5774 -0.5773
vn -0.5774 0.5774 -0.5773
vn 0.5774 -0.5774 0.5774
vn 0.5773 0.5774 0.5774
vn 0.5774 -0.5774 -0.5773
vn 0.5773 0.5774 -0.5774
vn -0.7071 -0.7071 -0.0000
vn -0.7071 -0.0000 0.7071
vn -0.7071 0.7071 -0.0000
vn -0.7071 -0.0000 -0.7071
vn -0.0000 -0.7071 -0.7071
vn -0.0000 0.7071 -0.7071
vn 0.7071 -0.0000 -0.7071
vn 0.7071 -0.7071 -0.0000
vn 0.7071 0.7071 -0.0000
vn 0.7071 -0.0000 0.7071
vn -0.0000 -0.7071 0.7071
vn -0.0000 0.7071 0.7071
vn -0.0000 -1.0000 -0.0000
vn -1.0000 -0.0000 -0.0000
vn -0.0000 -0.0000 1.0000
vn -0.0000 1.0000 -0.0000
vn -0.0000 -0.0000 -1.0000
vn 1.0000 -0.0000 -0.0000
vn -0.5774 -0.5773 0.5774
vn -0.5774 0.5773 0.5774
vn 0.5774 -0.5773 -0.5774
vn 0.5774 0.5773 -0.5774
vn 0.5773 -0.5774 0.5773
vt 0.154149 0.720851
vt 0.154149 0.750000
vt 0.125000 0.720851
vt 0.595851 0.970851
vt 0.625000 0.970851
vt 0.595851 1.000000
vt 0.154149 0.529149
vt 0.125000 0.529149
vt 0.154149 0.500000
vt 0.625000 0.259716
vt 0.595851 0.279149
vt 0.595851 0.228138
vt 0.345851 0.720851
vt 0.396862 0.720851
vt 0.375000 0.764575
vt 0.639575 0.750000
vt 0.595851 0.779149
vt 0.595851 0.728138
vt 0.345851 0.529149
vt 0.375000 0.485425
vt 0.396862 0.529149
vt 0.639575 0.514575
vt 0.595851 0.529149
vt 0.595851 0.478138
vt 0.404149 0.000000
vt 0.595851 0.000000
vt 0.595851 0.029149
vt 0.404149 0.029149
vt 0.625000 0.029149
vt 0.404149 0.279149
vt 0.404149 0.220851
vt 0.404149 0.970851
vt 0.845851 0.529149
vt 0.845851 0.720851
s 0
usemtl Material.001
f 290/235/282 291/236/282 292/237/282
f 293/238/283 294/239/283 295/240/283
f 296/241/284 297/242/284 298/243/284
f 299/244/285 300/245/285 301/246/285
f 302/247/286 303/248/286 304/249/286
f 305/250/287 306/251/287 307/252/287
f 308/253/288 309/254/288 310/255/288
f 311/256/289 312/257/289 313/258/289
f 296/241/290 290/235/290 292/237/290 297/242/290
f 291/259/291 293/260/291 295/261/291 292/262/291
f 294/263/292 299/244/292 301/246/292 295/261/292
f 300/245/293 298/264/293 297/265/293 301/246/293
f 308/253/294 296/241/294 298/243/294 309/254/294
f 299/244/295 311/256/295 313/258/295 300/245/295
f 312/257/296 310/255/296 309/254/296 313/258/296
f 302/247/297 308/253/297 310/255/297 303/248/297
f 311/256/298 305/250/298 307/252/298 312/257/298
f 306/251/299 304/249/299 303/248/299 307/252/299
f 290/235/300 302/247/300 304/249/300 291/236/300
f 305/250/301 294/239/301 293/238/301 306/251/301
f 296/241/302 308/253/302 302/247/302 290/235/302
f 292/262/303 295/261/303 301/246/303 297/265/303
f 304/249/304 306/251/304 293/238/304 291/266/304
f 311/256/305 299/267/305 294/268/305 305/250/305
f 298/264/306 300/245/306 313/258/306 309/254/306
f 310/255/307 312/257/307 307/252/307 303/248/307
f 314/235/284 316/237/284 315/236/284
f 317/238/285 319/240/285 318/239/285
f 320/241/308 322/243/308 321/242/308
f 323/244/309 325/246/309 324/245/309
f 326/247/310 328/249/310 327/248/310
f 329/250/311 331/252/311 330/251/311
f 332/253/312 334/255/312 333/254/312
f 335/256/287 337/258/287 336/257/287
f 320/241/290 321/242/290 316/237/290 314/235/290
f 315/259/293 316/262/293 319/261/293 317/260/293
f 318/263/292 319/261/292 325/246/292 323/244/292
f 324/245/291 325/246/291 321/265/291 322/264/291
f 332/253/300 333/254/300 322/243/300 320/241/300
f 323/244/301 324/245/301 337/258/301 335/256/301
f 336/257/299 337/258/299 333/254/299 334/255/299
f 326/247/297 327/248/297 334/255/297 332/253/297
f 335/256/298 336/257/298 331/252/298 329/250/298
f 330/251/296 331/252/296 327/248/296 328/249/296
f 314/235/294 315/236/294 328/249/294 326/247/294
f 329/250/295 330/251/295 317/238/295 318/239/295
f 320/241/302 314/235/302 326/247/302 332/253/302
f 316/262/303 321/265/303 325/246/303 319/261/303
f 328/249/306 315/266/306 317/238/306 330/251/306
f 335/256/305 329/250/305 318/268/305 323/267/305
f 322/264/304 333/254/304 337/258/304 324/245/304
f 334/255/307 327/248/307 331/252/307 336/257/307
