# Blender 5.0.1
# www.blender.org
mtllib Скамейка.mtl
o Cube
v -1.098938 0.505965 0.494973
v -1.190576 0.505965 0.403335
v -1.144757 0.505965 0.482695
v -1.178299 0.505965 0.449154
v -1.190576 0.670861 0.403335
v -1.098938 0.670861 0.494973
v -1.178299 0.670861 0.449154
v -1.144757 0.670861 0.482695
v -1.190576 0.505965 -0.354965
v -1.098938 0.505965 -0.446603
v -1.178299 0.505965 -0.400784
v -1.144757 0.505965 -0.434326
v -1.098938 0.670861 -0.446603
v -1.190576 0.670861 -0.354965
v -1.144757 0.670861 -0.434326
v -1.178299 0.670861 -0.400784
v 0.809424 0.505965 0.403335
v 0.717786 0.505965 0.494973
v 0.797147 0.505965 0.449154
v 0.763605 0.505965 0.482695
v 0.717786 0.670861 0.494973
v 0.809424 0.670861 0.403335
v 0.763605 0.670861 0.482695
v 0.797147 0.670861 0.449154
v 0.717786 0.505965 -0.446603
v 0.809424 0.505965 -0.354965
v 0.763605 0.505965 -0.434326
v 0.797147 0.505965 -0.400784
v 0.809424 0.670861 -0.354965
v 0.717786 0.670861 -0.446603
v 0.797147 0.670861 -0.400784
v 0.763605 0.670861 -0.434326
vn -0.2588 -0.0000 0.9659
vn -0.7071 -0.0000 0.7071
vn -0.9659 -0.0000 0.2588
vn -0.2588 -0.0000 -0.9659
vn -0.7071 -0.0000 -0.7071
vn -0.9659 -0.0000 -0.2588
vn 0.9659 -0.0000 -0.2588
vn 0.7071 -0.0000 -0.7071
vn 0.2588 -0.0000 -0.9659
vn 0.2588 -0.0000 0.9659
vn 0.7071 -0.0000 0.7071
vn 0.9659 -0.0000 0.2588
vn -0.0000 -1.0000 -0.0000
vn -1.0000 -0.0000 -0.0000
vn -0.0000 -0.0000 1.0000
vn -0.0000 1.0000 -0.0000
vn -0.0000 -0.0000 -1.0000
vn 1.0000 -0.0000 -0.0000
vt 0.375000 0.988545
vt 0.625000 0.988545
vt 0.625000 1.000000
vt 0.375000 1.000000
vt 0.375000 0.000000
vt 0.625000 0.000000
vt 0.625000 0.012165
vt 0.375000 0.012165
vt 0.625000 0.024331
vt 0.375000 0.024331
vt 0.625000 0.261455
vt 0.375000 0.261455
vt 0.375000 0.255727
vt 0.625000 0.255727
vt 0.375000 0.237835
vt 0.625000 0.237835
vt 0.375000 0.225669
vt 0.625000 0.225669
vt 0.625000 0.524331
vt 0.375000 0.524331
vt 0.374488 0.512165
vt 0.625512 0.512165
vt 0.373091 0.497268
vt 0.626909 0.497268
vt 0.371182 0.492364
vt 0.628818 0.492364
vt 0.628818 0.757636
vt 0.371182 0.757636
vt 0.373091 0.752732
vt 0.626909 0.752732
vt 0.374488 0.737835
vt 0.625512 0.737835
vt 0.375000 0.725669
vt 0.625000 0.725669
vt 0.125000 0.524331
vt 0.126535 0.512165
vt 0.130727 0.503260
vt 0.136455 0.500000
vt 0.136455 0.750000
vt 0.130727 0.746740
vt 0.126535 0.737835
vt 0.125000 0.725669
vt 0.863545 0.500000
vt 0.869273 0.503260
vt 0.873465 0.512165
vt 0.875000 0.524331
vt 0.875000 0.725669
vt 0.873465 0.737835
vt 0.869273 0.746740
vt 0.863545 0.750000
s 0
usemtl Material.001
f 1/1/1 6/2/1 8/3/1 3/4/1
f 3/5/2 8/6/2 7/7/2 4/8/2
f 4/8/3 7/7/3 5/9/3 2/10/3
f 13/11/4 10/12/4 12/13/4 15/14/4
f 15/14/5 12/13/5 11/15/5 16/16/5
f 16/16/6 11/15/6 9/17/6 14/18/6
f 29/19/7 26/20/7 28/21/7 31/22/7
f 31/22/8 28/21/8 27/23/8 32/24/8
f 32/24/9 27/23/9 25/25/9 30/26/9
f 21/27/10 18/28/10 20/29/10 23/30/10
f 23/30/11 20/29/11 19/31/11 24/32/11
f 24/32/12 19/31/12 17/33/12 22/34/12
f 9/35/13 11/36/13 12/37/13 10/38/13 25/25/13 27/23/13 28/21/13 26/20/13 17/33/13 19/31/13 20/29/13 18/28/13 1/39/13 3/40/13 4/41/13 2/42/13
f 2/10/14 5/9/14 14/18/14 9/17/14
f 18/28/15 21/27/15 6/2/15 1/1/15
f 29/19/16 31/22/16 32/24/16 30/26/16 13/43/16 15/44/16 16/45/16 14/46/16 5/47/16 7/48/16 8/49/16 6/50/16 21/27/16 23/30/16 24/32/16 22/34/16
f 10/12/17 13/11/17 30/26/17 25/25/17
f 26/20/18 29/19/18 22/34/18 17/33/18
o Cube.001
v -1.096164 0.780362 -0.587647
v -1.190576 0.873231 -0.604646
v -1.143370 0.792804 -0.589924
v -1.177927 0.826797 -0.596147
v -1.190576 0.898692 -0.465552
v -1.096164 0.805822 -0.448553
v -1.177927 0.852257 -0.457053
v -1.143370 0.818265 -0.450831
v -1.190576 1.371587 -0.695868
v -1.096164 1.464456 -0.712867
v -1.177927 1.418021 -0.704368
v -1.143370 1.452014 -0.710590
v -1.096164 1.489916 -0.573773
v -1.190576 1.397047 -0.556774
v -1.143370 1.477474 -0.571496
v -1.177927 1.443482 -0.565274
v 0.809424 0.873231 -0.604646
v 0.715012 0.780362 -0.587647
v 0.796775 0.826797 -0.596147
v 0.762218 0.792804 -0.589924
v 0.715012 0.805822 -0.448553
v 0.809424 0.898692 -0.465552
v 0.762218 0.818265 -0.450831
v 0.796775 0.852257 -0.457053
v 0.715012 1.464456 -0.712867
v 0.809424 1.371587 -0.695868
v 0.762218 1.452014 -0.710590
v 0.796775 1.418021 -0.704368
v 0.809424 1.397047 -0.556774
v 0.715012 1.489916 -0.573773
v 0.796775 1.443482 -0.565274
v 0.762218 1.477474 -0.571496
vn -0.2588 -0.9501 0.1739
vn -0.7071 -0.6956 0.1273
vn -0.9659 -0.2546 0.0466
vn -0.2588 0.9501 -0.1739
vn -0.7071 0.6956 -0.1273
vn -0.9659 0.2546 -0.0466
vn 0.9659 0.2546 -0.0466
vn 0.7071 0.6956 -0.1273
vn 0.2588 0.9501 -0.1739
vn 0.2588 -0.9501 0.1739
vn 0.7071 -0.6956 0.1273
vn 0.9659 -0.2546 0.0466
vn -0.0000 -0.1801 -0.9837
vn -1.0000 -0.0000 -0.0000
vn -0.0000 -0.9837 0.1801
vn -0.0000 0.1801 0.9837
vn -0.0000 0.9837 -0.1801
vn 1.0000 -0.0000 -0.0000
vt 0.375000 0.988198
vt 0.625000 0.988198
vt 0.625000 1.000000
vt 0.375000 1.000000
vt 0.375000 0.000000
vt 0.625000 0.000000
vt 0.625000 0.016969
vt 0.375000 0.016969
vt 0.625000 0.033939
vt 0.375000 0.033939
vt 0.625000 0.261802
vt 0.375000 0.261802
vt 0.375000 0.255901
vt 0.625000 0.255901
vt 0.375000 0.233031
vt 0.625000 0.233031
vt 0.375000 0.216061
vt 0.625000 0.216061
vt 0.625000 0.533939
vt 0.375000 0.533939
vt 0.374473 0.516969
vt 0.625527 0.516969
vt 0.373033 0.497582
vt 0.626967 0.497582
vt 0.371066 0.492132
vt 0.628934 0.492132
vt 0.628934 0.757868
vt 0.371066 0.757868
vt 0.373033 0.752418
vt 0.626967 0.752418
vt 0.374473 0.733031
vt 0.625527 0.733031
vt 0.375000 0.716061
vt 0.625000 0.716061
vt 0.125000 0.533939
vt 0.126581 0.516969
vt 0.130901 0.504547
vt 0.136802 0.500000
vt 0.136802 0.750000
vt 0.130901 0.745453
vt 0.126581 0.733031
vt 0.125000 0.716061
vt 0.863198 0.500000
vt 0.869099 0.504547
vt 0.873419 0.516969
vt 0.875000 0.533939
vt 0.875000 0.716061
vt 0.873419 0.733031
vt 0.869099 0.745453
vt 0.863198 0.750000
s 0
usemtl Material.001
f 33/51/19 38/52/19 40/53/19 35/54/19
f 35/55/20 40/56/20 39/57/20 36/58/20
f 36/58/21 39/57/21 37/59/21 34/60/21
f 45/61/22 42/62/22 44/63/22 47/64/22
f 47/64/23 44/63/23 43/65/23 48/66/23
f 48/66/24 43/65/24 41/67/24 46/68/24
f 61/69/25 58/70/25 60/71/25 63/72/25
f 63/72/26 60/71/26 59/73/26 64/74/26
f 64/74/27 59/73/27 57/75/27 62/76/27
f 53/77/28 50/78/28 52/79/28 55/80/28
f 55/80/29 52/79/29 51/81/29 56/82/29
f 56/82/30 51/81/30 49/83/30 54/84/30
f 41/85/31 43/86/31 44/87/31 42/88/31 57/75/31 59/73/31 60/71/31 58/70/31 49/83/31 51/81/31 52/79/31 50/78/31 33/89/31 35/90/31 36/91/31 34/92/31
f 34/60/32 37/59/32 46/68/32 41/67/32
f 50/78/33 53/77/33 38/52/33 33/51/33
f 61/69/34 63/72/34 64/74/34 62/76/34 45/93/34 47/94/34 48/95/34 46/96/34 37/97/34 39/98/34 40/99/34 38/100/34 53/77/34 55/80/34 56/82/34 54/84/34
f 42/62/35 45/61/35 62/76/35 57/75/35
f 58/70/36 61/69/36 54/84/36 49/83/36
o Cube.002
v -1.087817 -0.049916 0.442115
v -1.087817 0.505965 0.442115
v -1.087817 -0.049916 0.298714
v -1.087817 0.505965 0.298714
v -0.944416 -0.049916 0.442115
v -0.944416 0.505965 0.442115
v -0.944416 -0.049916 0.298714
v -0.944416 0.505965 0.298714
v 0.706665 -0.049916 0.442115
v 0.706665 0.505965 0.442115
v 0.706665 -0.049916 0.298714
v 0.706665 0.505965 0.298714
v 0.563264 -0.049916 0.442115
v 0.563264 0.505965 0.442115
v 0.563264 -0.049916 0.298714
v 0.563264 0.505965 0.298714
v -1.087817 -0.049916 -0.393746
v -1.087817 0.505965 -0.393746
v -1.087817 -0.049916 -0.250344
v -1.087817 0.505965 -0.250344
v -0.944416 -0.049916 -0.393746
v -0.944416 0.505965 -0.393746
v -0.944416 -0.049916 -0.250344
v -0.944416 0.505965 -0.250344
v 0.706665 -0.049916 -0.393746
v 0.706665 0.505965 -0.393746
v 0.706665 -0.049916 -0.250344
v 0.706665 0.505965 -0.250344
v 0.563264 -0.049916 -0.393746
v 0.563264 0.505965 -0.393746
v 0.563264 -0.049916 -0.250344
v 0.563264 0.505965 -0.250344
vn -1.0000 -0.0000 -0.0000
vn -0.0000 -0.0000 -1.0000
vn 1.0000 -0.0000 -0.0000
vn -0.0000 -0.0000 1.0000
vn -0.0000 -1.0000 -0.0000
vn -0.0000 1.0000 -0.0000
vt 0.375000 0.000000
vt 0.625000 0.000000
vt 0.625000 0.250000
vt 0.375000 0.250000
vt 0.625000 0.500000
vt 0.375000 0.500000
vt 0.625000 0.750000
vt 0.375000 0.750000
vt 0.625000 1.000000
vt 0.375000 1.000000
vt 0.125000 0.500000
vt 0.125000 0.750000
vt 0.875000 0.500000
vt 0.875000 0.750000
s 0
usemtl Material.004
f 65/101/37 66/102/37 68/103/37 67/104/37
f 67/104/38 68/103/38 72/105/38 71/106/38
f 71/106/39 72/105/39 70/107/39 69/108/39
f 69/108/40 70/107/40 66/109/40 65/110/40
f 67/111/41 71/106/41 69/108/41 65/112/41
f 72/105/42 68/113/42 66/114/42 70/107/42
f 73/101/39 75/104/39 76/103/39 74/102/39
f 75/104/38 79/106/38 80/105/38 76/103/38
f 79/106/37 77/108/37 78/107/37 80/105/37
f 77/108/40 73/110/40 74/109/40 78/107/40
f 75/111/41 73/112/41 77/108/41 79/106/41
f 80/105/42 78/107/42 74/114/42 76/113/42
f 81/101/37 83/104/37 84/103/37 82/102/37
f 83/104/40 87/106/40 88/105/40 84/103/40
f 87/106/39 85/108/39 86/107/39 88/105/39
f 85/108/38 81/110/38 82/109/38 86/107/38
f 83/111/41 81/112/41 85/108/41 87/106/41
f 88/105/42 86/107/42 82/114/42 84/113/42
f 89/101/39 90/102/39 92/103/39 91/104/39
f 91/104/40 92/103/40 96/105/40 95/106/40
f 95/106/37 96/105/37 94/107/37 93/108/37
f 93/108/38 94/107/38 90/109/38 89/110/38
f 91/111/41 95/106/41 93/108/41 89/112/41
f 96/105/42 92/113/42 90/114/42 94/107/42
o Cube.003
v -0.852616 0.541448 -0.398694
v -0.852616 0.637283 -0.398694
v -0.852616 0.541448 -0.494529
v -0.852616 0.637283 -0.494529
v -0.756781 0.541448 -0.398694
v -0.756781 0.637283 -0.398694
v -0.756781 0.541448 -0.494529
v -0.756781 0.637283 -0.494529
v -0.852616 0.541448 -0.446611
v -0.852616 0.637283 -0.446611
v -0.756781 0.541448 -0.446611
v -0.756781 0.637283 -0.446611
v -0.852616 0.770694 -0.575364
v -0.852616 0.770694 -0.623282
v -0.756781 0.770694 -0.623282
v -0.756781 0.770694 -0.575364
v -0.852616 0.988266 -0.575364
v -0.852616 0.988266 -0.623282
v -0.756781 0.988266 -0.623282
v -0.756781 0.988266 -0.575364
v 0.471464 0.541448 -0.398694
v 0.471464 0.637283 -0.398694
v 0.471464 0.541448 -0.494529
v 0.471464 0.637283 -0.494529
v 0.375629 0.541448 -0.398694
v 0.375629 0.637283 -0.398694
v 0.375629 0.541448 -0.494529
v 0.375629 0.637283 -0.494529
v 0.471464 0.541448 -0.446611
v 0.471464 0.637283 -0.446611
v 0.375629 0.541448 -0.446611
v 0.375629 0.637283 -0.446611
v 0.471464 0.770694 -0.575364
v 0.471464 0.770694 -0.623282
v 0.375629 0.770694 -0.623282
v 0.375629 0.770694 -0.575364
v 0.471464 0.988266 -0.575364
v 0.471464 0.988266 -0.623282
v 0.375629 0.988266 -0.623282
v 0.375629 0.988266 -0.575364
vn -1.0000 -0.0000 -0.0000
vn -0.0000 -0.0000 -1.0000
vn 1.0000 -0.0000 -0.0000
vn -0.0000 -0.0000 1.0000
vn -0.0000 -1.0000 -0.0000
vn -0.0000 1.0000 -0.0000
vn -0.0000 -0.6944 -0.7196
vn -0.0000 0.6944 0.7196
vt 0.375000 0.125000
vt 0.625000 0.125000
vt 0.625000 0.250000
vt 0.375000 0.250000
vt 0.625000 0.500000
vt 0.375000 0.500000
vt 0.375000 0.625000
vt 0.625000 0.625000
vt 0.625000 0.750000
vt 0.375000 0.750000
vt 0.625000 1.000000
vt 0.375000 1.000000
vt 0.125000 0.625000
vt 0.125000 0.750000
vt 0.875000 0.625000
vt 0.875000 0.750000
vt 0.125000 0.500000
vt 0.375000 0.000000
vt 0.625000 0.000000
vt 0.875000 0.500000
s 0
usemtl Material.004
f 105/115/43 106/116/43 100/117/43 99/118/43
f 99/118/44 100/117/44 104/119/44 103/120/44
f 107/121/45 108/122/45 102/123/45 101/124/45
f 101/124/46 102/123/46 98/125/46 97/126/46
f 105/127/47 107/121/47 101/124/47 97/128/47
f 108/122/48 106/129/48 98/130/48 102/123/48
f 108/122/45 104/119/45 111/119/45 112/122/45
f 99/131/47 103/120/47 107/121/47 105/127/47
f 103/120/45 104/119/45 108/122/45 107/121/45
f 97/132/43 98/133/43 106/116/43 105/115/43
f 109/129/46 112/122/46 116/122/46 113/129/46
f 100/117/43 106/116/43 109/116/43 110/117/43
f 104/119/49 100/117/49 110/117/49 111/119/49
f 106/129/50 108/122/50 112/122/50 109/129/50
f 115/119/48 114/134/48 113/129/48 116/122/48
f 111/119/44 110/117/44 114/117/44 115/119/44
f 112/122/45 111/119/45 115/119/45 116/122/45
f 110/117/43 109/116/43 113/116/43 114/117/43
f 125/115/45 119/118/45 120/117/45 126/116/45
f 119/118/44 123/120/44 124/119/44 120/117/44
f 127/121/43 121/124/43 122/123/43 128/122/43
f 121/124/46 117/126/46 118/125/46 122/123/46
f 125/127/47 117/128/47 121/124/47 127/121/47
f 128/122/48 122/123/48 118/130/48 126/129/48
f 128/122/43 132/122/43 131/119/43 124/119/43
f 119/131/47 125/127/47 127/121/47 123/120/47
f 123/120/43 127/121/43 128/122/43 124/119/43
f 117/132/45 125/115/45 126/116/45 118/133/45
f 129/129/46 133/129/46 136/122/46 132/122/46
f 120/117/45 130/117/45 129/116/45 126/116/45
f 124/119/49 131/119/49 130/117/49 120/117/49
f 126/129/50 129/129/50 132/122/50 128/122/50
f 135/119/48 136/122/48 133/129/48 134/134/48
f 131/119/44 135/119/44 134/117/44 130/117/44
f 132/122/43 136/122/43 135/119/43 131/119/43
f 130/117/45 134/117/45 133/116/45 129/116/45
