# Blender 5.0.1
# www.blender.org
mtllib Фонарь.mtl
o Circle
v -0.000000 -0.004423 -0.065415
v -0.012762 -0.004423 -0.064159
v -0.025033 -0.004423 -0.060436
v -0.036343 -0.004423 -0.054391
v -0.046256 -0.004423 -0.046256
v -0.054391 -0.004423 -0.036343
v -0.060436 -0.004423 -0.025033
v -0.064159 -0.004423 -0.012762
v -0.065415 -0.004423 -0.000000
v -0.064159 -0.004423 0.012762
v -0.060436 -0.004423 0.025033
v -0.054391 -0.004423 0.036343
v -0.046256 -0.004423 0.046256
v -0.036343 -0.004423 0.054391
v -0.025033 -0.004423 0.060436
v -0.012762 -0.004423 0.064159
v -0.000000 -0.004423 0.065415
v 0.012762 -0.004423 0.064159
v 0.025033 -0.004423 0.060436
v 0.036343 -0.004423 0.054391
v 0.046256 -0.004423 0.046256
v 0.054391 -0.004423 0.036343
v 0.060436 -0.004423 0.025033
v 0.064159 -0.004423 0.012762
v 0.065415 -0.004423 -0.000000
v 0.064159 -0.004423 -0.012762
v 0.060436 -0.004423 -0.025033
v 0.054391 -0.004423 -0.036343
v 0.046256 -0.004423 -0.046256
v 0.036343 -0.004423 -0.054391
v 0.025033 -0.004423 -0.060436
v 0.012762 -0.004423 -0.064159
v -0.000000 1.995577 -0.065415
v -0.012762 1.995577 -0.064159
v -0.025033 1.995577 -0.060436
v -0.036343 1.995577 -0.054391
v -0.046256 1.995577 -0.046256
v -0.054391 1.995577 -0.036343
v -0.060436 1.995577 -0.025033
v -0.064159 1.995577 -0.012762
v -0.065415 1.995577 -0.000000
v -0.064159 1.995577 0.012762
v -0.060436 1.995577 0.025033
v -0.054391 1.995577 0.036343
v -0.046256 1.995577 0.046256
v -0.036343 1.995577 0.054391
v -0.025033 1.995577 0.060436
v -0.012762 1.995577 0.064159
v -0.000000 1.995577 0.065415
v 0.012762 1.995577 0.064159
v 0.025033 1.995577 0.060436
v 0.036343 1.995577 0.054391
v 0.046256 1.995577 0.046256
v 0.054391 1.995577 0.036343
v 0.060436 1.995577 0.025033
v 0.064159 1.995577 0.012762
v 0.065415 1.995577 -0.000000
v 0.064159 1.995577 -0.012762
v 0.060436 1.995577 -0.025033
v 0.054391 1.995577 -0.036343
v 0.046256 1.995577 -0.046256
v 0.036343 1.995577 -0.054391
v 0.025033 1.995577 -0.060436
v 0.012762 1.995577 -0.064159
vn -0.9952 -0.0000 -0.0980
vn 0.8819 -0.0000 -0.4714
vn -0.9952 -0.0000 0.0980
vn 0.7730 -0.0000 -0.6344
vn -0.9569 -0.0000 0.2903
vn 0.6344 -0.0000 -0.7730
vn -0.8819 -0.0000 0.4714
vn 0.4714 -0.0000 -0.8819
vn 0.0980 -0.0000 0.9952
vn -0.7730 -0.0000 0.6344
vn 0.2903 -0.0000 -0.9569
vn 0.2903 -0.0000 0.9569
vn -0.6344 -0.0000 0.7730
vn 0.0980 -0.0000 -0.9952
vn 0.4714 -0.0000 0.8819
vn -0.4714 -0.0000 0.8819
vn -0.0980 -0.0000 -0.9952
vn 0.6344 -0.0000 0.7730
vn -0.2903 -0.0000 0.9569
vn -0.2903 -0.0000 -0.9569
vn 0.7730 -0.0000 0.6344
vn -0.0980 -0.0000 0.9952
vn -0.4714 -0.0000 -0.8819
vn 0.8819 -0.0000 0.4714
vn -0.6344 -0.0000 -0.7730
vn 0.9569 -0.0000 0.2903
vn -0.7730 -0.0000 -0.6344
vn 0.9952 -0.0000 0.0980
vn -0.8819 -0.0000 -0.4714
vn 0.9952 -0.0000 -0.0980
vn -0.9569 -0.0000 -0.2903
vn 0.9569 -0.0000 -0.2903
vt 0.000000 0.000000
s 0
usemtl Material.006
f 25/1/1 24/1/1 56/1/1 57/1/1
f 12/1/2 11/1/2 43/1/2 44/1/2
f 26/1/3 25/1/3 57/1/3 58/1/3
f 13/1/4 12/1/4 44/1/4 45/1/4
f 27/1/5 26/1/5 58/1/5 59/1/5
f 14/1/6 13/1/6 45/1/6 46/1/6
f 28/1/7 27/1/7 59/1/7 60/1/7
f 15/1/8 14/1/8 46/1/8 47/1/8
f 2/1/9 1/1/9 33/1/9 34/1/9
f 29/1/10 28/1/10 60/1/10 61/1/10
f 16/1/11 15/1/11 47/1/11 48/1/11
f 3/1/12 2/1/12 34/1/12 35/1/12
f 30/1/13 29/1/13 61/1/13 62/1/13
f 17/1/14 16/1/14 48/1/14 49/1/14
f 4/1/15 3/1/15 35/1/15 36/1/15
f 31/1/16 30/1/16 62/1/16 63/1/16
f 18/1/17 17/1/17 49/1/17 50/1/17
f 5/1/18 4/1/18 36/1/18 37/1/18
f 32/1/19 31/1/19 63/1/19 64/1/19
f 19/1/20 18/1/20 50/1/20 51/1/20
f 6/1/21 5/1/21 37/1/21 38/1/21
f 1/1/22 32/1/22 64/1/22 33/1/22
f 20/1/23 19/1/23 51/1/23 52/1/23
f 7/1/24 6/1/24 38/1/24 39/1/24
f 21/1/25 20/1/25 52/1/25 53/1/25
f 8/1/26 7/1/26 39/1/26 40/1/26
f 22/1/27 21/1/27 53/1/27 54/1/27
f 9/1/28 8/1/28 40/1/28 41/1/28
f 23/1/29 22/1/29 54/1/29 55/1/29
f 10/1/30 9/1/30 41/1/30 42/1/30
f 24/1/31 23/1/31 55/1/31 56/1/31
f 11/1/32 10/1/32 42/1/32 43/1/32
o Sphere
v -0.000000 2.244746 0.000000
v -0.000000 2.241086 -0.037152
v -0.000000 2.212651 -0.105801
v -0.000000 2.188968 -0.134659
v -0.000000 2.127186 -0.175941
v -0.000000 2.054309 -0.190437
v -0.000000 1.981432 -0.175941
v -0.000000 1.948508 -0.158342
v -0.000000 1.919650 -0.134659
v -0.000000 1.895967 -0.105801
v -0.000000 1.863872 0.000000
v 0.007248 2.241086 -0.036438
v 0.014218 2.230250 -0.071477
v 0.020641 2.212651 -0.103768
v 0.026271 2.188968 -0.132072
v 0.030891 2.160110 -0.155300
v 0.034324 2.127186 -0.172560
v 0.036439 2.091461 -0.183189
v 0.037152 2.054309 -0.186778
v 0.036439 2.017157 -0.183189
v 0.034324 1.981432 -0.172560
v 0.030891 1.948508 -0.155300
v 0.026271 1.919650 -0.132072
v 0.020641 1.895967 -0.103768
v 0.014218 1.878368 -0.071477
v 0.007248 1.867531 -0.036438
v 0.014218 2.241086 -0.034324
v 0.027889 2.230250 -0.067330
v 0.040488 2.212651 -0.097747
v 0.051532 2.188968 -0.124409
v 0.060595 2.160110 -0.146289
v 0.067330 2.127186 -0.162548
v 0.071477 2.091461 -0.172560
v 0.072877 2.054309 -0.175941
v 0.071477 2.017157 -0.172560
v 0.067330 1.981432 -0.162548
v 0.060595 1.948508 -0.146289
v 0.051532 1.919650 -0.124409
v 0.040488 1.895967 -0.097747
v 0.027889 1.878368 -0.067330
v 0.014218 1.867531 -0.034324
v 0.020641 2.241086 -0.030891
v 0.040488 2.230250 -0.060595
v 0.058780 2.212651 -0.087970
v 0.074813 2.188968 -0.111965
v 0.087970 2.160110 -0.131657
v 0.097747 2.127186 -0.146289
v 0.103768 2.091461 -0.155300
v 0.105801 2.054309 -0.158342
v 0.103768 2.017157 -0.155300
v 0.097747 1.981432 -0.146289
v 0.087970 1.948508 -0.131657
v 0.074813 1.919650 -0.111965
v 0.058780 1.895967 -0.087970
v 0.040488 1.878368 -0.060595
v 0.020641 1.867531 -0.030891
v 0.026271 2.241086 -0.026271
v 0.051532 2.230250 -0.051532
v 0.074813 2.212651 -0.074813
v 0.095218 2.188968 -0.095218
v 0.111965 2.160110 -0.111965
v 0.124409 2.127186 -0.124409
v 0.132072 2.091461 -0.132072
v 0.134659 2.054309 -0.134659
v 0.132072 2.017157 -0.132072
v 0.124409 1.981432 -0.124409
v 0.111965 1.948508 -0.111965
v 0.095218 1.919650 -0.095218
v 0.074813 1.895967 -0.074813
v 0.051532 1.878368 -0.051532
v 0.026271 1.867531 -0.026271
v 0.030891 2.241086 -0.020641
v 0.060595 2.230250 -0.040488
v 0.087970 2.212651 -0.058780
v 0.111965 2.188968 -0.074813
v 0.131657 2.160110 -0.087970
v 0.146289 2.127186 -0.097747
v 0.155300 2.091461 -0.103768
v 0.158342 2.054309 -0.105801
v 0.155300 2.017157 -0.103768
v 0.146289 1.981432 -0.097747
v 0.131657 1.948508 -0.087970
v 0.111965 1.919650 -0.074813
v 0.087970 1.895967 -0.058780
v 0.060595 1.878368 -0.040488
v 0.030891 1.867531 -0.020641
v 0.034324 2.241086 -0.014218
v 0.067330 2.230250 -0.027889
v 0.097747 2.212651 -0.040488
v 0.124409 2.188968 -0.051532
v 0.146289 2.160110 -0.060595
v 0.162548 2.127186 -0.067330
v 0.172560 2.091461 -0.071477
v 0.175941 2.054309 -0.072877
v 0.172560 2.017157 -0.071477
v 0.162548 1.981432 -0.067330
v 0.146289 1.948508 -0.060595
v 0.124409 1.919650 -0.051532
v 0.097747 1.895967 -0.040488
v 0.067330 1.878368 -0.027889
v 0.034324 1.867531 -0.014218
v 0.036438 2.241086 -0.007248
v 0.071477 2.230250 -0.014218
v 0.103768 2.212651 -0.020641
v 0.132072 2.188968 -0.026271
v 0.155300 2.160110 -0.030891
v 0.172560 2.127186 -0.034324
v 0.183189 2.091461 -0.036438
v 0.186778 2.054309 -0.037152
v 0.183189 2.017157 -0.036438
v 0.172560 1.981432 -0.034324
v 0.155300 1.948508 -0.030891
v 0.132072 1.919650 -0.026271
v 0.103768 1.895967 -0.020641
v 0.071477 1.878368 -0.014218
v 0.036438 1.867531 -0.007248
v 0.037152 2.241086 0.000000
v 0.072877 2.230250 0.000000
v 0.105801 2.212651 0.000000
v 0.134659 2.188968 0.000000
v 0.158342 2.160110 0.000000
v 0.175941 2.127186 0.000000
v 0.186778 2.091461 0.000000
v 0.190437 2.054309 0.000000
v 0.186778 2.017157 0.000000
v 0.175941 1.981432 0.000000
v 0.158342 1.948508 0.000000
v 0.134659 1.919650 0.000000
v 0.105801 1.895967 0.000000
v 0.072877 1.878368 0.000000
v 0.037152 1.867531 0.000000
v 0.036438 2.241086 0.007248
v 0.071477 2.230250 0.014218
v 0.103768 2.212651 0.020641
v 0.132072 2.188968 0.026271
v 0.155300 2.160110 0.030891
v 0.172560 2.127186 0.034324
v 0.183189 2.091461 0.036439
v 0.186778 2.054309 0.037152
v 0.183189 2.017157 0.036439
v 0.172560 1.981432 0.034324
v 0.155300 1.948508 0.030891
v 0.132072 1.919650 0.026271
v 0.103768 1.895967 0.020641
v 0.071477 1.878368 0.014218
v 0.036438 1.867531 0.007248
v 0.034324 2.241086 0.014218
v 0.067330 2.230250 0.027889
v 0.097747 2.212651 0.040488
v 0.124409 2.188968 0.051532
v 0.146289 2.160110 0.060595
v 0.162548 2.127186 0.067330
v 0.172560 2.091461 0.071477
v 0.175941 2.054309 0.072877
v 0.172560 2.017157 0.071477
v 0.162548 1.981432 0.067330
v 0.146289 1.948508 0.060595
v 0.124409 1.919650 0.051532
v 0.097747 1.895967 0.040488
v 0.067330 1.878368 0.027889
v 0.034324 1.867531 0.014218
v 0.030891 2.241086 0.020641
v 0.060595 2.230250 0.040488
v 0.087970 2.212651 0.058780
v 0.111965 2.188968 0.074813
v 0.131657 2.160110 0.087970
v 0.146289 2.127186 0.097747
v 0.155300 2.091461 0.103768
v 0.158342 2.054309 0.105801
v 0.155300 2.017157 0.103768
v 0.146289 1.981432 0.097747
v 0.131657 1.948508 0.087970
v 0.111965 1.919650 0.074813
v 0.087970 1.895967 0.058780
v 0.060595 1.878368 0.040488
v 0.030891 1.867531 0.020641
v 0.026271 2.241086 0.026271
v 0.051532 2.230250 0.051532
v 0.074813 2.212651 0.074813
v 0.095218 2.188968 0.095218
v 0.111965 2.160110 0.111965
v 0.124409 2.127186 0.124409
v 0.132072 2.091461 0.132072
v 0.134659 2.054309 0.134659
v 0.132072 2.017157 0.132072
v 0.124409 1.981432 0.124409
v 0.111965 1.948508 0.111965
v 0.095218 1.919650 0.095218
v 0.074813 1.895967 0.074813
v 0.051532 1.878368 0.051532
v 0.026271 1.867531 0.026271
v 0.020641 2.241086 0.030891
v 0.040488 2.230250 0.060595
v 0.058780 2.212651 0.087970
v 0.074813 2.188968 0.111965
v 0.087970 2.160110 0.131657
v 0.097747 2.127186 0.146289
v 0.103768 2.091461 0.155300
v 0.105801 2.054309 0.158342
v 0.103768 2.017157 0.155300
v 0.097747 1.981432 0.146289
v 0.087970 1.948508 0.131657
v 0.074813 1.919650 0.111965
v 0.058780 1.895967 0.087970
v 0.040488 1.878368 0.060595
v 0.020641 1.867531 0.030891
v 0.014218 2.241086 0.034324
v 0.027889 2.230250 0.067330
v 0.040488 2.212651 0.097747
v 0.051532 2.188968 0.124409
v 0.060595 2.160110 0.146289
v 0.067330 2.127186 0.162548
v 0.071477 2.091461 0.172560
v 0.072877 2.054309 0.175941
v 0.071477 2.017157 0.172560
v 0.067330 1.981432 0.162548
v 0.060595 1.948508 0.146289
v 0.051532 1.919650 0.124409
v 0.040488 1.895967 0.097747
v 0.027889 1.878368 0.067330
v 0.014218 1.867531 0.034324
v 0.007248 2.241086 0.036438
v 0.014218 2.230250 0.071477
v 0.020641 2.212651 0.103768
v 0.026271 2.188968 0.132072
v 0.030891 2.160110 0.155300
v 0.034324 2.127186 0.172560
v 0.036438 2.091461 0.183189
v 0.037152 2.054309 0.186778
v 0.036438 2.017157 0.183189
v 0.034324 1.981432 0.172560
v 0.030891 1.948508 0.155300
v 0.026271 1.919650 0.132072
v 0.020641 1.895967 0.103768
v 0.014218 1.878368 0.071477
v 0.007248 1.867531 0.036438
v -0.000000 2.241086 0.037152
v -0.000000 2.230250 0.072877
v -0.000000 2.212651 0.105801
v -0.000000 2.188968 0.134659
v -0.000000 2.160110 0.158342
v -0.000000 2.127186 0.175941
v -0.000000 2.091461 0.186778
v -0.000000 2.054309 0.190437
v -0.000000 2.017157 0.186778
v -0.000000 1.981432 0.175941
v -0.000000 1.948508 0.158342
v -0.000000 1.919650 0.134659
v -0.000000 1.895967 0.105801
v -0.000000 1.878368 0.072877
v -0.000000 1.867531 0.037152
v -0.007248 2.241086 0.036438
v -0.014218 2.230250 0.071477
v -0.020641 2.212651 0.103768
v -0.026271 2.188968 0.132072
v -0.030891 2.160110 0.155300
v -0.034324 2.127186 0.172560
v -0.036439 2.091461 0.183189
v -0.037152 2.054309 0.186778
v -0.036439 2.017157 0.183189
v -0.034324 1.981432 0.172560
v -0.030891 1.948508 0.155300
v -0.026271 1.919650 0.132072
v -0.020641 1.895967 0.103768
v -0.014218 1.878368 0.071477
v -0.007248 1.867531 0.036438
v -0.014218 2.241086 0.034324
v -0.027889 2.230250 0.067330
v -0.040488 2.212651 0.097747
v -0.051532 2.188968 0.124409
v -0.060595 2.160110 0.146289
v -0.067330 2.127186 0.162548
v -0.071477 2.091461 0.172560
v -0.072877 2.054309 0.175941
v -0.071477 2.017157 0.172560
v -0.067330 1.981432 0.162548
v -0.060595 1.948508 0.146289
v -0.051532 1.919650 0.124409
v -0.040488 1.895967 0.097747
v -0.027889 1.878368 0.067330
v -0.014218 1.867531 0.034324
v -0.020641 2.241086 0.030891
v -0.040488 2.230250 0.060595
v -0.058780 2.212651 0.087970
v -0.074813 2.188968 0.111965
v -0.087970 2.160110 0.131657
v -0.097747 2.127186 0.146289
v -0.103768 2.091461 0.155300
v -0.105801 2.054309 0.158342
v -0.103768 2.017157 0.155300
v -0.097747 1.981432 0.146289
v -0.087970 1.948508 0.131657
v -0.074813 1.919650 0.111965
v -0.058780 1.895967 0.087970
v -0.040488 1.878368 0.060595
v -0.020641 1.867531 0.030891
v -0.026271 2.241086 0.026271
v -0.051532 2.230250 0.051532
v -0.074813 2.212651 0.074813
v -0.095218 2.188968 0.095218
v -0.111965 2.160110 0.111965
v -0.124409 2.127186 0.124409
v -0.132072 2.091461 0.132072
v -0.134659 2.054309 0.134659
v -0.132072 2.017157 0.132072
v -0.124409 1.981432 0.124409
v -0.111965 1.948508 0.111965
v -0.095218 1.919650 0.095218
v -0.074813 1.895967 0.074813
v -0.051532 1.878368 0.051532
v -0.026271 1.867531 0.026271
v -0.030891 2.241086 0.020641
v -0.060595 2.230250 0.040488
v -0.087970 2.212651 0.058780
v -0.111965 2.188968 0.074813
v -0.131657 2.160110 0.087970
v -0.146289 2.127186 0.097747
v -0.155300 2.091461 0.103768
v -0.158342 2.054309 0.105801
v -0.155300 2.017157 0.103768
v -0.146289 1.981432 0.097747
v -0.131657 1.948508 0.087970
v -0.111965 1.919650 0.074813
v -0.087970 1.895967 0.058780
v -0.060595 1.878368 0.040488
v -0.030891 1.867531 0.020641
v -0.034324 2.241086 0.014218
v -0.067330 2.230250 0.027889
v -0.097747 2.212651 0.040488
v -0.124409 2.188968 0.051532
v -0.146289 2.160110 0.060595
v -0.162548 2.127186 0.067329
v -0.172560 2.091461 0.071477
v -0.175941 2.054309 0.072877
v -0.172560 2.017157 0.071477
v -0.162548 1.981432 0.067329
v -0.146289 1.948508 0.060595
v -0.124409 1.919650 0.051532
v -0.097747 1.895967 0.040488
v -0.067330 1.878368 0.027889
v -0.034324 1.867531 0.014218
v -0.036438 2.241086 0.007248
v -0.071477 2.230250 0.014218
v -0.103768 2.212651 0.020641
v -0.132072 2.188968 0.026271
v -0.155300 2.160110 0.030891
v -0.172560 2.127186 0.034324
v -0.183189 2.091461 0.036438
v -0.186777 2.054309 0.037152
v -0.183189 2.017157 0.036438
v -0.172560 1.981432 0.034324
v -0.155300 1.948508 0.030891
v -0.132072 1.919650 0.026271
v -0.103768 1.895967 0.020641
v -0.071477 1.878368 0.014218
v -0.036438 1.867531 0.007248
v -0.037152 2.241086 -0.000000
v -0.072877 2.230250 -0.000000
v -0.105801 2.212651 -0.000000
v -0.134659 2.188968 -0.000000
v -0.158342 2.160110 -0.000000
v -0.175940 2.127186 -0.000000
v -0.186778 2.091461 -0.000000
v -0.190437 2.054309 -0.000000
v -0.186778 2.017157 -0.000000
v -0.175940 1.981432 -0.000000
v -0.158342 1.948508 -0.000000
v -0.134659 1.919650 -0.000000
v -0.105801 1.895967 -0.000000
v -0.072877 1.878368 -0.000000
v -0.037152 1.867531 -0.000000
v -0.036438 2.241086 -0.007248
v -0.071477 2.230250 -0.014218
v -0.103768 2.212651 -0.020641
v -0.132072 2.188968 -0.026271
v -0.155300 2.160110 -0.030891
v -0.172560 2.127186 -0.034324
v -0.183189 2.091461 -0.036439
v -0.186777 2.054309 -0.037152
v -0.183189 2.017157 -0.036439
v -0.172560 1.981432 -0.034324
v -0.155300 1.948508 -0.030891
v -0.132072 1.919650 -0.026271
v -0.103768 1.895967 -0.020641
v -0.071477 1.878368 -0.014218
v -0.036438 1.867531 -0.007248
v -0.034324 2.241086 -0.014218
v -0.067330 2.230250 -0.027889
v -0.097747 2.212651 -0.040488
v -0.124409 2.188968 -0.051532
v -0.146289 2.160110 -0.060595
v -0.162548 2.127186 -0.067330
v -0.172560 2.091461 -0.071477
v -0.175940 2.054309 -0.072877
v -0.172560 2.017157 -0.071477
v -0.162548 1.981432 -0.067330
v -0.146289 1.948508 -0.060595
v -0.124409 1.919650 -0.051532
v -0.097747 1.895967 -0.040488
v -0.067330 1.878368 -0.027889
v -0.034324 1.867531 -0.014218
v -0.030891 2.241086 -0.020641
v -0.060595 2.230250 -0.040488
v -0.087970 2.212651 -0.058780
v -0.111965 2.188968 -0.074813
v -0.131657 2.160110 -0.087970
v -0.146289 2.127186 -0.097747
v -0.155300 2.091461 -0.103768
v -0.158342 2.054309 -0.105801
v -0.155300 2.017157 -0.103768
v -0.146289 1.981432 -0.097747
v -0.131657 1.948508 -0.087970
v -0.111965 1.919650 -0.074813
v -0.087970 1.895967 -0.058780
v -0.060595 1.878368 -0.040488
v -0.030891 1.867531 -0.020641
v -0.026271 2.241086 -0.026271
v -0.051532 2.230250 -0.051532
v -0.074813 2.212651 -0.074813
v -0.095218 2.188968 -0.095218
v -0.111965 2.160110 -0.111965
v -0.124409 2.127186 -0.124409
v -0.132072 2.091461 -0.132072
v -0.134659 2.054309 -0.134659
v -0.132072 2.017157 -0.132072
v -0.124409 1.981432 -0.124409
v -0.111965 1.948508 -0.111965
v -0.095218 1.919650 -0.095218
v -0.074813 1.895967 -0.074813
v -0.051532 1.878368 -0.051532
v -0.026271 1.867531 -0.026271
v -0.020641 2.241086 -0.030891
v -0.040488 2.230250 -0.060595
v -0.058780 2.212651 -0.087970
v -0.074813 2.188968 -0.111965
v -0.087970 2.160110 -0.131657
v -0.097747 2.127186 -0.146289
v -0.103768 2.091461 -0.155300
v -0.105801 2.054309 -0.158342
v -0.103768 2.017157 -0.155300
v -0.097747 1.981432 -0.146289
v -0.087970 1.948508 -0.131657
v -0.074813 1.919650 -0.111965
v -0.058780 1.895967 -0.087970
v -0.040488 1.878368 -0.060595
v -0.020641 1.867531 -0.030891
v -0.014218 2.241086 -0.034324
v -0.027889 2.230250 -0.067330
v -0.040488 2.212651 -0.097747
v -0.051532 2.188968 -0.124409
v -0.060595 2.160110 -0.146289
v -0.067329 2.127186 -0.162548
v -0.071477 2.091461 -0.172560
v -0.072877 2.054309 -0.175940
v -0.071477 2.017157 -0.172560
v -0.067329 1.981432 -0.162548
v -0.060595 1.948508 -0.146289
v -0.051532 1.919650 -0.124409
v -0.040488 1.895967 -0.097747
v -0.027889 1.878368 -0.067330
v -0.014218 1.867531 -0.034324
v -0.007248 2.241086 -0.036438
v -0.014218 2.230250 -0.071477
v -0.020641 2.212651 -0.103768
v -0.026271 2.188968 -0.132072
v -0.030891 2.160110 -0.155300
v -0.034324 2.127186 -0.172560
v -0.036438 2.091461 -0.183189
v -0.037152 2.054309 -0.186777
v -0.036438 2.017157 -0.183189
v -0.034324 1.981432 -0.172560
v -0.030891 1.948508 -0.155300
v -0.026271 1.919650 -0.132072
v -0.020641 1.895967 -0.103768
v -0.014218 1.878368 -0.071477
v -0.007248 1.867531 -0.036438
v 0.000000 2.230250 -0.072877
v 0.000000 2.160110 -0.158342
v 0.000000 2.091461 -0.186778
v 0.000000 2.017157 -0.186778
v 0.000000 1.878368 -0.072877
v 0.000000 1.867531 -0.037152
vn 0.0286 -0.9565 -0.2902
vn 0.0975 0.0976 -0.9904
vn 0.0097 0.9951 -0.0980
vn 0.0097 -0.9951 -0.0980
vn 0.0975 -0.0976 -0.9904
vn 0.0286 0.9565 -0.2902
vn 0.0938 -0.2890 -0.9527
vn 0.0464 0.8810 -0.4709
vn 0.0865 -0.4696 -0.8786
vn 0.0624 0.7715 -0.6332
vn 0.0759 -0.6326 -0.7708
vn 0.0759 0.6326 -0.7708
vn 0.0624 -0.7715 -0.6332
vn 0.0865 0.4696 -0.8786
vn 0.0464 -0.8810 -0.4709
vn 0.0938 0.2890 -0.9527
vn 0.1374 -0.8810 -0.4528
vn 0.2779 0.2890 -0.9161
vn 0.0846 -0.9565 -0.2790
vn 0.2889 0.0975 -0.9524
vn 0.0286 0.9951 -0.0942
vn 0.0286 -0.9951 -0.0942
vn 0.2889 -0.0975 -0.9524
vn 0.0846 0.9565 -0.2790
vn 0.2779 -0.2890 -0.9161
vn 0.1374 0.8810 -0.4528
vn 0.2563 -0.4696 -0.8448
vn 0.1847 0.7715 -0.6088
vn 0.2248 -0.6326 -0.7412
vn 0.2248 0.6326 -0.7412
vn 0.1847 -0.7715 -0.6088
vn 0.2563 0.4696 -0.8448
vn 0.2231 0.8810 -0.4173
vn 0.4162 -0.4696 -0.7786
vn 0.2999 0.7715 -0.5611
vn 0.3651 -0.6326 -0.6831
vn 0.3651 0.6326 -0.6831
vn 0.2999 -0.7715 -0.5611
vn 0.4162 0.4696 -0.7786
vn 0.2230 -0.8810 -0.4173
vn 0.4513 0.2890 -0.8443
vn 0.1374 -0.9565 -0.2571
vn 0.4691 0.0975 -0.8777
vn 0.0464 0.9951 -0.0869
vn 0.0464 -0.9951 -0.0869
vn 0.4691 -0.0975 -0.8777
vn 0.1374 0.9565 -0.2571
vn 0.4513 -0.2890 -0.8443
vn 0.6073 0.2890 -0.7400
vn 0.1850 -0.9565 -0.2254
vn 0.6314 0.0975 -0.7693
vn 0.0625 0.9951 -0.0761
vn 0.0625 -0.9951 -0.0761
vn 0.6314 -0.0975 -0.7693
vn 0.1850 0.9565 -0.2254
vn 0.6073 -0.2890 -0.7400
vn 0.3002 0.8810 -0.3658
vn 0.5601 -0.4696 -0.6825
vn 0.4036 0.7715 -0.4918
vn 0.4913 -0.6326 -0.5987
vn 0.4913 0.6326 -0.5987
vn 0.4036 -0.7715 -0.4918
vn 0.5601 0.4696 -0.6825
vn 0.3002 -0.8810 -0.3658
vn 0.6825 -0.4696 -0.5601
vn 0.4918 0.7715 -0.4036
vn 0.5987 -0.6326 -0.4913
vn 0.5987 0.6326 -0.4913
vn 0.4918 -0.7715 -0.4036
vn 0.6825 0.4696 -0.5601
vn 0.3658 -0.8810 -0.3002
vn 0.7400 0.2890 -0.6073
vn 0.2254 -0.9565 -0.1850
vn 0.7693 0.0975 -0.6314
vn 0.0761 0.9951 -0.0625
vn 0.0761 -0.9951 -0.0625
vn 0.7693 -0.0975 -0.6314
vn 0.2254 0.9565 -0.1850
vn 0.7400 -0.2890 -0.6073
vn 0.3658 0.8810 -0.3002
vn 0.2571 -0.9565 -0.1374
vn 0.8777 0.0975 -0.4691
vn 0.0869 0.9951 -0.0464
vn 0.0869 -0.9951 -0.0464
vn 0.8777 -0.0975 -0.4691
vn 0.2571 0.9565 -0.1374
vn 0.8443 -0.2890 -0.4513
vn 0.4173 0.8810 -0.2230
vn 0.7786 -0.4696 -0.4162
vn 0.5611 0.7715 -0.2999
vn 0.6831 -0.6326 -0.3651
vn 0.6831 0.6326 -0.3651
vn 0.5611 -0.7715 -0.2999
vn 0.7786 0.4696 -0.4162
vn 0.4173 -0.8810 -0.2230
vn 0.8443 0.2890 -0.4513
vn 0.7412 -0.6326 -0.2248
vn 0.7412 0.6326 -0.2248
vn 0.6088 -0.7715 -0.1847
vn 0.8448 0.4696 -0.2563
vn 0.4528 -0.8810 -0.1374
vn 0.9161 0.2890 -0.2779
vn 0.2790 -0.9565 -0.0846
vn 0.9524 0.0975 -0.2889
vn 0.0942 0.9951 -0.0286
vn 0.0942 -0.9951 -0.0286
vn 0.9524 -0.0975 -0.2889
vn 0.2790 0.9565 -0.0846
vn 0.9161 -0.2890 -0.2779
vn 0.4528 0.8810 -0.1374
vn 0.8448 -0.4696 -0.2563
vn 0.6088 0.7715 -0.1847
vn 0.0980 0.9951 -0.0097
vn 0.0980 -0.9951 -0.0097
vn 0.9904 -0.0975 -0.0975
vn 0.2902 0.9565 -0.0286
vn 0.9527 -0.2890 -0.0938
vn 0.4709 0.8810 -0.0464
vn 0.8786 -0.4696 -0.0865
vn 0.6332 0.7715 -0.0624
vn 0.7708 -0.6326 -0.0759
vn 0.7708 0.6326 -0.0759
vn 0.6332 -0.7715 -0.0624
vn 0.8786 0.4696 -0.0865
vn 0.4709 -0.8810 -0.0464
vn 0.9527 0.2890 -0.0938
vn 0.2902 -0.9565 -0.0286
vn 0.9904 0.0975 -0.0975
vn 0.7708 0.6326 0.0759
vn 0.6332 -0.7715 0.0624
vn 0.8786 0.4696 0.0865
vn 0.4709 -0.8810 0.0464
vn 0.9527 0.2890 0.0938
vn 0.2902 -0.9565 0.0286
vn 0.9904 0.0975 0.0975
vn 0.0980 0.9951 0.0097
vn 0.0980 -0.9951 0.0097
vn 0.9904 -0.0975 0.0975
vn 0.2902 0.9565 0.0286
vn 0.9527 -0.2890 0.0938
vn 0.4709 0.8810 0.0464
vn 0.8786 -0.4696 0.0865
vn 0.6332 0.7715 0.0624
vn 0.7708 -0.6326 0.0759
vn 0.9524 -0.0975 0.2889
vn 0.2790 0.9565 0.0846
vn 0.9161 -0.2890 0.2779
vn 0.4528 0.8810 0.1374
vn 0.8448 -0.4696 0.2563
vn 0.6088 0.7715 0.1847
vn 0.7412 -0.6326 0.2248
vn 0.7412 0.6326 0.2248
vn 0.6088 -0.7715 0.1847
vn 0.8448 0.4696 0.2563
vn 0.4528 -0.8810 0.1374
vn 0.9161 0.2890 0.2779
vn 0.2790 -0.9565 0.0846
vn 0.9524 0.0975 0.2889
vn 0.0942 0.9951 0.0286
vn 0.0942 -0.9951 0.0286
vn 0.5611 -0.7715 0.2999
vn 0.7786 0.4696 0.4162
vn 0.4173 -0.8810 0.2230
vn 0.8443 0.2890 0.4513
vn 0.2571 -0.9565 0.1374
vn 0.8777 0.0975 0.4691
vn 0.0869 0.9951 0.0464
vn 0.0869 -0.9951 0.0464
vn 0.8777 -0.0975 0.4691
vn 0.2571 0.9565 0.1374
vn 0.8443 -0.2890 0.4513
vn 0.4173 0.8810 0.2230
vn 0.7786 -0.4696 0.4162
vn 0.5611 0.7715 0.2999
vn 0.6831 -0.6326 0.3651
vn 0.6831 0.6326 0.3651
vn 0.2254 0.9565 0.1850
vn 0.7400 -0.2890 0.6073
vn 0.3658 0.8810 0.3002
vn 0.6825 -0.4696 0.5601
vn 0.4918 0.7715 0.4036
vn 0.5987 -0.6326 0.4913
vn 0.5987 0.6326 0.4913
vn 0.4918 -0.7715 0.4036
vn 0.6825 0.4696 0.5601
vn 0.3658 -0.8810 0.3002
vn 0.7400 0.2890 0.6073
vn 0.2254 -0.9565 0.1850
vn 0.7693 0.0975 0.6314
vn 0.0761 0.9951 0.0625
vn 0.0761 -0.9951 0.0625
vn 0.7693 -0.0975 0.6314
vn 0.5601 0.4696 0.6825
vn 0.3002 -0.8810 0.3658
vn 0.6073 0.2890 0.7400
vn 0.1850 -0.9565 0.2254
vn 0.6314 0.0975 0.7693
vn 0.0625 0.9951 0.0761
vn 0.0625 -0.9951 0.0761
vn 0.6314 -0.0975 0.7693
vn 0.1850 0.9565 0.2254
vn 0.6073 -0.2890 0.7400
vn 0.3002 0.8810 0.3658
vn 0.5601 -0.4696 0.6825
vn 0.4036 0.7715 0.4918
vn 0.4913 -0.6326 0.5987
vn 0.4913 0.6326 0.5987
vn 0.4036 -0.7715 0.4918
vn 0.4513 -0.2890 0.8443
vn 0.2230 0.8810 0.4173
vn 0.4162 -0.4696 0.7786
vn 0.2999 0.7715 0.5611
vn 0.3651 -0.6326 0.6831
vn 0.3651 0.6326 0.6831
vn 0.2999 -0.7715 0.5611
vn 0.4162 0.4696 0.7786
vn 0.2230 -0.8810 0.4173
vn 0.4513 0.2890 0.8443
vn 0.1374 -0.9565 0.2571
vn 0.4691 0.0975 0.8777
vn 0.0464 0.9951 0.0869
vn 0.0464 -0.9951 0.0869
vn 0.4691 -0.0975 0.8777
vn 0.1374 0.9565 0.2571
vn 0.1374 -0.8810 0.4528
vn 0.2779 0.2890 0.9161
vn 0.0846 -0.9565 0.2790
vn 0.2889 0.0975 0.9524
vn 0.0286 0.9951 0.0942
vn 0.0286 -0.9951 0.0942
vn 0.2889 -0.0975 0.9524
vn 0.0846 0.9565 0.2790
vn 0.2779 -0.2890 0.9161
vn 0.1374 0.8810 0.4528
vn 0.2563 -0.4696 0.8448
vn 0.1847 0.7715 0.6088
vn 0.2248 -0.6326 0.7412
vn 0.2248 0.6326 0.7412
vn 0.1847 -0.7715 0.6088
vn 0.2563 0.4696 0.8448
vn 0.0865 -0.4696 0.8786
vn 0.0624 0.7715 0.6332
vn 0.0759 -0.6326 0.7708
vn 0.0759 0.6326 0.7708
vn 0.0624 -0.7715 0.6332
vn 0.0865 0.4696 0.8786
vn 0.0464 -0.8810 0.4709
vn 0.0938 0.2890 0.9527
vn 0.0286 -0.9565 0.2902
vn 0.0975 0.0975 0.9904
vn 0.0097 0.9951 0.0980
vn 0.0097 -0.9951 0.0980
vn 0.0975 -0.0975 0.9904
vn 0.0286 0.9565 0.2902
vn 0.0938 -0.2890 0.9527
vn 0.0464 0.8810 0.4709
vn -0.0286 -0.9565 0.2902
vn -0.0975 0.0975 0.9904
vn -0.0097 0.9951 0.0980
vn -0.0097 -0.9951 0.0980
vn -0.0975 -0.0975 0.9904
vn -0.0286 0.9565 0.2902
vn -0.0938 -0.2890 0.9527
vn -0.0464 0.8810 0.4709
vn -0.0865 -0.4696 0.8786
vn -0.0624 0.7715 0.6332
vn -0.0759 -0.6326 0.7708
vn -0.0759 0.6326 0.7708
vn -0.0624 -0.7715 0.6332
vn -0.0865 0.4696 0.8786
vn -0.0464 -0.8810 0.4709
vn -0.0938 0.2890 0.9527
vn -0.1847 0.7715 0.6088
vn -0.2248 -0.6326 0.7412
vn -0.2248 0.6326 0.7412
vn -0.1847 -0.7715 0.6088
vn -0.2563 0.4696 0.8448
vn -0.1374 -0.8810 0.4528
vn -0.2779 0.2890 0.9161
vn -0.0846 -0.9565 0.2790
vn -0.2889 0.0975 0.9524
vn -0.0286 0.9951 0.0942
vn -0.0286 -0.9951 0.0942
vn -0.2889 -0.0975 0.9524
vn -0.0846 0.9565 0.2790
vn -0.2779 -0.2890 0.9161
vn -0.1374 0.8810 0.4528
vn -0.2563 -0.4696 0.8448
vn -0.4691 0.0975 0.8777
vn -0.0464 0.9951 0.0869
vn -0.0464 -0.9951 0.0869
vn -0.4691 -0.0975 0.8777
vn -0.1374 0.9565 0.2571
vn -0.4513 -0.2890 0.8443
vn -0.2230 0.8810 0.4173
vn -0.4162 -0.4696 0.7786
vn -0.2999 0.7715 0.5611
vn -0.3651 -0.6326 0.6831
vn -0.3651 0.6326 0.6831
vn -0.2999 -0.7715 0.5611
vn -0.4162 0.4696 0.7786
vn -0.2230 -0.8810 0.4173
vn -0.4513 0.2890 0.8443
vn -0.1374 -0.9565 0.2571
vn -0.4913 -0.6326 0.5987
vn -0.4913 0.6326 0.5987
vn -0.4036 -0.7715 0.4918
vn -0.5601 0.4696 0.6825
vn -0.3002 -0.8810 0.3658
vn -0.6073 0.2890 0.7400
vn -0.1850 -0.9565 0.2254
vn -0.6314 0.0975 0.7693
vn -0.0625 0.9951 0.0761
vn -0.0625 -0.9951 0.0761
vn -0.6314 -0.0975 0.7693
vn -0.1850 0.9565 0.2254
vn -0.6073 -0.2890 0.7400
vn -0.3002 0.8810 0.3658
vn -0.5601 -0.4696 0.6825
vn -0.4036 0.7715 0.4918
vn -0.0761 0.9951 0.0625
vn -0.0761 -0.9951 0.0625
vn -0.7693 -0.0975 0.6314
vn -0.2254 0.9565 0.1850
vn -0.7400 -0.2890 0.6073
vn -0.3658 0.8810 0.3002
vn -0.6825 -0.4696 0.5601
vn -0.4918 0.7715 0.4036
vn -0.5987 -0.6326 0.4913
vn -0.5987 0.6326 0.4913
vn -0.4918 -0.7715 0.4036
vn -0.6825 0.4696 0.5601
vn -0.3658 -0.8810 0.3002
vn -0.7400 0.2890 0.6073
vn -0.2254 -0.9565 0.1850
vn -0.7693 0.0975 0.6314
vn -0.6831 0.6326 0.3651
vn -0.5611 -0.7715 0.2999
vn -0.7786 0.4696 0.4162
vn -0.4173 -0.8810 0.2230
vn -0.8443 0.2890 0.4513
vn -0.2571 -0.9565 0.1374
vn -0.8777 0.0975 0.4691
vn -0.0869 0.9951 0.0464
vn -0.0869 -0.9951 0.0464
vn -0.8777 -0.0975 0.4691
vn -0.2571 0.9565 0.1374
vn -0.8443 -0.2890 0.4513
vn -0.4173 0.8810 0.2230
vn -0.7786 -0.4696 0.4162
vn -0.5611 0.7715 0.2999
vn -0.6831 -0.6326 0.3651
vn -0.9524 -0.0975 0.2889
vn -0.2790 0.9565 0.0846
vn -0.9161 -0.2890 0.2779
vn -0.4528 0.8810 0.1374
vn -0.8448 -0.4696 0.2563
vn -0.6088 0.7715 0.1847
vn -0.7412 -0.6326 0.2248
vn -0.7412 0.6326 0.2248
vn -0.6088 -0.7715 0.1847
vn -0.8448 0.4696 0.2563
vn -0.4528 -0.8810 0.1374
vn -0.9161 0.2890 0.2779
vn -0.2790 -0.9565 0.0846
vn -0.9524 0.0975 0.2889
vn -0.0942 0.9951 0.0286
vn -0.0942 -0.9951 0.0286
vn -0.6332 -0.7715 0.0624
vn -0.8786 0.4696 0.0865
vn -0.4709 -0.8810 0.0464
vn -0.9527 0.2890 0.0938
vn -0.2902 -0.9565 0.0286
vn -0.9904 0.0975 0.0975
vn -0.0980 0.9951 0.0097
vn -0.0980 -0.9951 0.0097
vn -0.9904 -0.0975 0.0975
vn -0.2902 0.9565 0.0286
vn -0.9527 -0.2890 0.0938
vn -0.4709 0.8810 0.0464
vn -0.8786 -0.4696 0.0865
vn -0.6332 0.7715 0.0624
vn -0.7708 -0.6326 0.0759
vn -0.7708 0.6326 0.0759
vn -0.9527 -0.2890 -0.0938
vn -0.4709 0.8810 -0.0464
vn -0.8786 -0.4696 -0.0865
vn -0.6332 0.7715 -0.0624
vn -0.7708 -0.6326 -0.0759
vn -0.7708 0.6326 -0.0759
vn -0.6332 -0.7715 -0.0624
vn -0.8786 0.4696 -0.0865
vn -0.4709 -0.8810 -0.0464
vn -0.9527 0.2890 -0.0938
vn -0.2902 -0.9565 -0.0286
vn -0.9904 0.0975 -0.0976
vn -0.0980 0.9951 -0.0097
vn -0.0980 -0.9951 -0.0097
vn -0.9904 -0.0975 -0.0976
vn -0.2902 0.9565 -0.0286
vn -0.4528 -0.8810 -0.1374
vn -0.9161 0.2890 -0.2779
vn -0.2790 -0.9565 -0.0846
vn -0.9524 0.0975 -0.2889
vn -0.0942 0.9951 -0.0286
vn -0.0942 -0.9951 -0.0286
vn -0.9524 -0.0975 -0.2889
vn -0.2790 0.9565 -0.0846
vn -0.9161 -0.2890 -0.2779
vn -0.4528 0.8810 -0.1374
vn -0.8448 -0.4696 -0.2563
vn -0.6088 0.7715 -0.1847
vn -0.7412 -0.6326 -0.2248
vn -0.7412 0.6326 -0.2248
vn -0.6088 -0.7715 -0.1847
vn -0.8448 0.4696 -0.2563
vn -0.4173 0.8810 -0.2231
vn -0.7786 -0.4696 -0.4162
vn -0.5611 0.7715 -0.2999
vn -0.6831 -0.6326 -0.3651
vn -0.6831 0.6326 -0.3651
vn -0.5611 -0.7715 -0.2999
vn -0.7786 0.4696 -0.4162
vn -0.4173 -0.8810 -0.2230
vn -0.8443 0.2890 -0.4513
vn -0.2571 -0.9565 -0.1374
vn -0.8777 0.0975 -0.4691
vn -0.0869 0.9951 -0.0464
vn -0.0869 -0.9951 -0.0464
vn -0.8777 -0.0975 -0.4691
vn -0.2571 0.9565 -0.1374
vn -0.8443 -0.2890 -0.4513
vn -0.7400 0.2890 -0.6073
vn -0.2254 -0.9565 -0.1850
vn -0.7693 0.0975 -0.6314
vn -0.0761 0.9951 -0.0625
vn -0.0761 -0.9951 -0.0625
vn -0.7693 -0.0975 -0.6314
vn -0.2254 0.9565 -0.1850
vn -0.7400 -0.2890 -0.6073
vn -0.3658 0.8810 -0.3002
vn -0.6825 -0.4696 -0.5601
vn -0.4918 0.7715 -0.4036
vn -0.5987 -0.6326 -0.4913
vn -0.5987 0.6326 -0.4913
vn -0.4918 -0.7715 -0.4036
vn -0.6825 0.4696 -0.5601
vn -0.3658 -0.8810 -0.3002
vn -0.5601 -0.4696 -0.6825
vn -0.4036 0.7715 -0.4918
vn -0.4913 -0.6326 -0.5987
vn -0.4913 0.6326 -0.5987
vn -0.4036 -0.7715 -0.4918
vn -0.5601 0.4696 -0.6825
vn -0.3002 -0.8810 -0.3658
vn -0.6073 0.2890 -0.7400
vn -0.1850 -0.9565 -0.2254
vn -0.6314 0.0975 -0.7693
vn -0.0625 0.9951 -0.0761
vn -0.0625 -0.9951 -0.0761
vn -0.6314 -0.0975 -0.7693
vn -0.1850 0.9565 -0.2254
vn -0.6073 -0.2890 -0.7400
vn -0.3002 0.8810 -0.3658
vn -0.1374 -0.9565 -0.2571
vn -0.4691 0.0975 -0.8777
vn -0.0464 0.9951 -0.0869
vn -0.0464 -0.9951 -0.0869
vn -0.4691 -0.0975 -0.8777
vn -0.1374 0.9565 -0.2571
vn -0.4513 -0.2890 -0.8443
vn -0.2230 0.8810 -0.4173
vn -0.4162 -0.4696 -0.7786
vn -0.2999 0.7715 -0.5611
vn -0.3651 -0.6326 -0.6831
vn -0.3651 0.6326 -0.6831
vn -0.2999 -0.7715 -0.5611
vn -0.4162 0.4696 -0.7786
vn -0.2231 -0.8810 -0.4173
vn -0.4513 0.2890 -0.8443
vn -0.1847 0.7715 -0.6088
vn -0.2248 -0.6326 -0.7412
vn -0.2248 0.6326 -0.7412
vn -0.1847 -0.7715 -0.6088
vn -0.2563 0.4696 -0.8448
vn -0.1374 -0.8810 -0.4528
vn -0.2779 0.2890 -0.9161
vn -0.0846 -0.9565 -0.2790
vn -0.2889 0.0975 -0.9524
vn -0.0286 0.9951 -0.0942
vn -0.0286 -0.9951 -0.0942
vn -0.2889 -0.0975 -0.9524
vn -0.0846 0.9565 -0.2790
vn -0.2779 -0.2890 -0.9161
vn -0.1374 0.8810 -0.4528
vn -0.2563 -0.4696 -0.8448
vn -0.0976 0.0976 -0.9904
vn -0.0097 0.9951 -0.0980
vn -0.0097 -0.9951 -0.0980
vn -0.0976 -0.0976 -0.9904
vn -0.0286 0.9565 -0.2902
vn -0.0938 -0.2890 -0.9527
vn -0.0464 0.8810 -0.4709
vn -0.0865 -0.4696 -0.8786
vn -0.0624 0.7715 -0.6332
vn -0.0759 -0.6326 -0.7708
vn -0.0759 0.6326 -0.7708
vn -0.0624 -0.7715 -0.6332
vn -0.0865 0.4696 -0.8786
vn -0.0464 -0.8810 -0.4709
vn -0.0938 0.2890 -0.9527
vn -0.0286 -0.9565 -0.2902
vt 0.750000 0.062500
vt 0.750000 0.125000
vt 0.718750 0.125000
vt 0.718750 0.062500
vt 0.750000 0.500000
vt 0.750000 0.562500
vt 0.718750 0.562500
vt 0.718750 0.500000
vt 0.750000 0.937500
vt 0.734375 1.000000
vt 0.718750 0.937500
vt 0.734375 0.000000
vt 0.750000 0.437500
vt 0.718750 0.437500
vt 0.750000 0.875000
vt 0.718750 0.875000
vt 0.750000 0.375000
vt 0.718750 0.375000
vt 0.750000 0.812500
vt 0.718750 0.812500
vt 0.750000 0.312500
vt 0.718750 0.312500
vt 0.750000 0.750000
vt 0.718750 0.750000
vt 0.750000 0.250000
vt 0.718750 0.250000
vt 0.750000 0.687500
vt 0.718750 0.687500
vt 0.750000 0.187500
vt 0.718750 0.187500
vt 0.750000 0.625000
vt 0.718750 0.625000
vt 0.687500 0.187500
vt 0.687500 0.125000
vt 0.687500 0.625000
vt 0.687500 0.562500
vt 0.687500 0.062500
vt 0.687500 0.500000
vt 0.703125 1.000000
vt 0.687500 0.937500
vt 0.703125 0.000000
vt 0.687500 0.437500
vt 0.687500 0.875000
vt 0.687500 0.375000
vt 0.687500 0.812500
vt 0.687500 0.312500
vt 0.687500 0.750000
vt 0.687500 0.250000
vt 0.687500 0.687500
vt 0.656250 0.875000
vt 0.656250 0.812500
vt 0.656250 0.375000
vt 0.656250 0.312500
vt 0.656250 0.750000
vt 0.656250 0.250000
vt 0.656250 0.687500
vt 0.656250 0.187500
vt 0.656250 0.625000
vt 0.656250 0.125000
vt 0.656250 0.562500
vt 0.656250 0.062500
vt 0.656250 0.500000
vt 0.671875 1.000000
vt 0.656250 0.937500
vt 0.671875 0.000000
vt 0.656250 0.437500
vt 0.625000 0.625000
vt 0.625000 0.562500
vt 0.625000 0.125000
vt 0.625000 0.062500
vt 0.625000 0.500000
vt 0.640625 1.000000
vt 0.625000 0.937500
vt 0.640625 0.000000
vt 0.625000 0.437500
vt 0.625000 0.875000
vt 0.625000 0.375000
vt 0.625000 0.812500
vt 0.625000 0.312500
vt 0.625000 0.750000
vt 0.625000 0.250000
vt 0.625000 0.687500
vt 0.625000 0.187500
vt 0.593750 0.375000
vt 0.593750 0.312500
vt 0.593750 0.812500
vt 0.593750 0.750000
vt 0.593750 0.250000
vt 0.593750 0.687500
vt 0.593750 0.187500
vt 0.593750 0.625000
vt 0.593750 0.125000
vt 0.593750 0.562500
vt 0.593750 0.062500
vt 0.593750 0.500000
vt 0.609375 1.000000
vt 0.593750 0.937500
vt 0.609375 0.000000
vt 0.593750 0.437500
vt 0.593750 0.875000
vt 0.562500 0.125000
vt 0.562500 0.062500
vt 0.562500 0.562500
vt 0.562500 0.500000
vt 0.578125 1.000000
vt 0.562500 0.937500
vt 0.578125 0.000000
vt 0.562500 0.437500
vt 0.562500 0.875000
vt 0.562500 0.375000
vt 0.562500 0.812500
vt 0.562500 0.312500
vt 0.562500 0.750000
vt 0.562500 0.250000
vt 0.562500 0.687500
vt 0.562500 0.187500
vt 0.562500 0.625000
vt 0.531250 0.312500
vt 0.531250 0.250000
vt 0.531250 0.750000
vt 0.531250 0.687500
vt 0.531250 0.187500
vt 0.531250 0.625000
vt 0.531250 0.125000
vt 0.531250 0.562500
vt 0.531250 0.062500
vt 0.531250 0.500000
vt 0.546875 1.000000
vt 0.531250 0.937500
vt 0.546875 0.000000
vt 0.531250 0.437500
vt 0.531250 0.875000
vt 0.531250 0.375000
vt 0.531250 0.812500
vt 0.515625 1.000000
vt 0.500000 0.937500
vt 0.515625 0.000000
vt 0.500000 0.062500
vt 0.500000 0.500000
vt 0.500000 0.437500
vt 0.500000 0.875000
vt 0.500000 0.375000
vt 0.500000 0.812500
vt 0.500000 0.312500
vt 0.500000 0.750000
vt 0.500000 0.250000
vt 0.500000 0.687500
vt 0.500000 0.187500
vt 0.500000 0.625000
vt 0.500000 0.125000
vt 0.500000 0.562500
vt 0.468750 0.750000
vt 0.468750 0.687500
vt 0.468750 0.250000
vt 0.468750 0.187500
vt 0.468750 0.625000
vt 0.468750 0.125000
vt 0.468750 0.562500
vt 0.468750 0.062500
vt 0.468750 0.500000
vt 0.484375 1.000000
vt 0.468750 0.937500
vt 0.484375 0.000000
vt 0.468750 0.437500
vt 0.468750 0.875000
vt 0.468750 0.375000
vt 0.468750 0.812500
vt 0.468750 0.312500
vt 0.437500 0.500000
vt 0.437500 0.437500
vt 0.437500 0.937500
vt 0.437500 0.875000
vt 0.437500 0.375000
vt 0.437500 0.812500
vt 0.437500 0.312500
vt 0.437500 0.750000
vt 0.437500 0.250000
vt 0.437500 0.687500
vt 0.437500 0.187500
vt 0.437500 0.625000
vt 0.437500 0.125000
vt 0.437500 0.562500
vt 0.437500 0.062500
vt 0.453125 1.000000
vt 0.453125 0.000000
vt 0.406250 0.250000
vt 0.406250 0.187500
vt 0.406250 0.687500
vt 0.406250 0.625000
vt 0.406250 0.125000
vt 0.406250 0.562500
vt 0.406250 0.062500
vt 0.406250 0.500000
vt 0.421875 1.000000
vt 0.406250 0.937500
vt 0.421875 0.000000
vt 0.406250 0.437500
vt 0.406250 0.875000
vt 0.406250 0.375000
vt 0.406250 0.812500
vt 0.406250 0.312500
vt 0.406250 0.750000
vt 0.375000 0.937500
vt 0.375000 0.875000
vt 0.375000 0.437500
vt 0.375000 0.375000
vt 0.375000 0.812500
vt 0.375000 0.312500
vt 0.375000 0.750000
vt 0.375000 0.250000
vt 0.375000 0.687500
vt 0.375000 0.187500
vt 0.375000 0.625000
vt 0.375000 0.125000
vt 0.375000 0.562500
vt 0.375000 0.062500
vt 0.375000 0.500000
vt 0.390625 1.000000
vt 0.390625 0.000000
vt 0.343750 0.687500
vt 0.343750 0.625000
vt 0.343750 0.187500
vt 0.343750 0.125000
vt 0.343750 0.562500
vt 0.343750 0.062500
vt 0.343750 0.500000
vt 0.359375 1.000000
vt 0.343750 0.937500
vt 0.359375 0.000000
vt 0.343750 0.437500
vt 0.343750 0.875000
vt 0.343750 0.375000
vt 0.343750 0.812500
vt 0.343750 0.312500
vt 0.343750 0.750000
vt 0.343750 0.250000
vt 0.312500 0.437500
vt 0.312500 0.375000
vt 0.312500 0.875000
vt 0.312500 0.812500
vt 0.312500 0.312500
vt 0.312500 0.750000
vt 0.312500 0.250000
vt 0.312500 0.687500
vt 0.312500 0.187500
vt 0.312500 0.625000
vt 0.312500 0.125000
vt 0.312500 0.562500
vt 0.312500 0.062500
vt 0.312500 0.500000
vt 0.328125 1.000000
vt 0.312500 0.937500
vt 0.328125 0.000000
vt 0.281250 0.187500
vt 0.281250 0.125000
vt 0.281250 0.625000
vt 0.281250 0.562500
vt 0.281250 0.062500
vt 0.281250 0.500000
vt 0.296875 1.000000
vt 0.281250 0.937500
vt 0.296875 0.000000
vt 0.281250 0.437500
vt 0.281250 0.875000
vt 0.281250 0.375000
vt 0.281250 0.812500
vt 0.281250 0.312500
vt 0.281250 0.750000
vt 0.281250 0.250000
vt 0.281250 0.687500
vt 0.250000 0.375000
vt 0.250000 0.312500
vt 0.250000 0.812500
vt 0.250000 0.750000
vt 0.250000 0.250000
vt 0.250000 0.687500
vt 0.250000 0.187500
vt 0.250000 0.625000
vt 0.250000 0.125000
vt 0.250000 0.562500
vt 0.250000 0.062500
vt 0.250000 0.500000
vt 0.265625 1.000000
vt 0.250000 0.937500
vt 0.265625 0.000000
vt 0.250000 0.437500
vt 0.250000 0.875000
vt 0.218750 0.125000
vt 0.218750 0.062500
vt 0.218750 0.562500
vt 0.218750 0.500000
vt 0.234375 1.000000
vt 0.218750 0.937500
vt 0.234375 0.000000
vt 0.218750 0.437500
vt 0.218750 0.875000
vt 0.218750 0.375000
vt 0.218750 0.812500
vt 0.218750 0.312500
vt 0.218750 0.750000
vt 0.218750 0.250000
vt 0.218750 0.687500
vt 0.218750 0.187500
vt 0.218750 0.625000
vt 0.187500 0.812500
vt 0.187500 0.750000
vt 0.187500 0.312500
vt 0.187500 0.250000
vt 0.187500 0.687500
vt 0.187500 0.187500
vt 0.187500 0.625000
vt 0.187500 0.125000
vt 0.187500 0.562500
vt 0.187500 0.062500
vt 0.187500 0.500000
vt 0.203125 1.000000
vt 0.187500 0.937500
vt 0.203125 0.000000
vt 0.187500 0.437500
vt 0.187500 0.875000
vt 0.187500 0.375000
vt 0.156250 0.562500
vt 0.156250 0.500000
vt 0.171875 1.000000
vt 0.156250 0.937500
vt 0.171875 0.000000
vt 0.156250 0.062500
vt 0.156250 0.437500
vt 0.156250 0.875000
vt 0.156250 0.375000
vt 0.156250 0.812500
vt 0.156250 0.312500
vt 0.156250 0.750000
vt 0.156250 0.250000
vt 0.156250 0.687500
vt 0.156250 0.187500
vt 0.156250 0.625000
vt 0.156250 0.125000
vt 0.125000 0.312500
vt 0.125000 0.250000
vt 0.125000 0.750000
vt 0.125000 0.687500
vt 0.125000 0.187500
vt 0.125000 0.625000
vt 0.125000 0.125000
vt 0.125000 0.562500
vt 0.125000 0.062500
vt 0.125000 0.500000
vt 0.140625 1.000000
vt 0.125000 0.937500
vt 0.140625 0.000000
vt 0.125000 0.437500
vt 0.125000 0.875000
vt 0.125000 0.375000
vt 0.125000 0.812500
vt 0.109375 1.000000
vt 0.093750 0.937500
vt 0.109375 0.000000
vt 0.093750 0.062500
vt 0.093750 0.500000
vt 0.093750 0.437500
vt 0.093750 0.875000
vt 0.093750 0.375000
vt 0.093750 0.812500
vt 0.093750 0.312500
vt 0.093750 0.750000
vt 0.093750 0.250000
vt 0.093750 0.687500
vt 0.093750 0.187500
vt 0.093750 0.625000
vt 0.093750 0.125000
vt 0.093750 0.562500
vt 0.062500 0.750000
vt 0.062500 0.687500
vt 0.062500 0.250000
vt 0.062500 0.187500
vt 0.062500 0.625000
vt 0.062500 0.125000
vt 0.062500 0.562500
vt 0.062500 0.062500
vt 0.062500 0.500000
vt 0.078125 1.000000
vt 0.062500 0.937500
vt 0.078125 0.000000
vt 0.062500 0.437500
vt 0.062500 0.875000
vt 0.062500 0.375000
vt 0.062500 0.812500
vt 0.062500 0.312500
vt 0.031250 0.500000
vt 0.031250 0.437500
vt 0.031250 0.937500
vt 0.031250 0.875000
vt 0.031250 0.375000
vt 0.031250 0.812500
vt 0.031250 0.312500
vt 0.031250 0.750000
vt 0.031250 0.250000
vt 0.031250 0.687500
vt 0.031250 0.187500
vt 0.031250 0.625000
vt 0.031250 0.125000
vt 0.031250 0.562500
vt 0.031250 0.062500
vt 0.046875 1.000000
vt 0.046875 0.000000
vt 0.000000 0.250000
vt 0.000000 0.187500
vt 0.000000 0.687500
vt 0.000000 0.625000
vt 0.000000 0.125000
vt 0.000000 0.562500
vt 0.000000 0.062500
vt 0.000000 0.500000
vt 0.015625 1.000000
vt 0.000000 0.937500
vt 0.015625 0.000000
vt 0.000000 0.437500
vt 0.000000 0.875000
vt 0.000000 0.375000
vt 0.000000 0.812500
vt 0.000000 0.312500
vt 0.000000 0.750000
vt 1.000000 0.375000
vt 1.000000 0.437500
vt 0.968750 0.437500
vt 0.968750 0.375000
vt 1.000000 0.812500
vt 1.000000 0.875000
vt 0.968750 0.875000
vt 0.968750 0.812500
vt 1.000000 0.312500
vt 0.968750 0.312500
vt 1.000000 0.750000
vt 0.968750 0.750000
vt 1.000000 0.250000
vt 0.968750 0.250000
vt 1.000000 0.687500
vt 0.968750 0.687500
vt 1.000000 0.187500
vt 0.968750 0.187500
vt 1.000000 0.625000
vt 0.968750 0.625000
vt 1.000000 0.125000
vt 0.968750 0.125000
vt 1.000000 0.562500
vt 0.968750 0.562500
vt 1.000000 0.062500
vt 0.968750 0.062500
vt 1.000000 0.500000
vt 0.968750 0.500000
vt 1.000000 0.937500
vt 0.984375 1.000000
vt 0.968750 0.937500
vt 0.984375 0.000000
vt 0.937500 0.187500
vt 0.937500 0.125000
vt 0.937500 0.625000
vt 0.937500 0.562500
vt 0.937500 0.062500
vt 0.937500 0.500000
vt 0.953125 1.000000
vt 0.937500 0.937500
vt 0.953125 0.000000
vt 0.937500 0.437500
vt 0.937500 0.875000
vt 0.937500 0.375000
vt 0.937500 0.812500
vt 0.937500 0.312500
vt 0.937500 0.750000
vt 0.937500 0.250000
vt 0.937500 0.687500
vt 0.906250 0.875000
vt 0.906250 0.812500
vt 0.906250 0.375000
vt 0.906250 0.312500
vt 0.906250 0.750000
vt 0.906250 0.250000
vt 0.906250 0.687500
vt 0.906250 0.187500
vt 0.906250 0.625000
vt 0.906250 0.125000
vt 0.906250 0.562500
vt 0.906250 0.062500
vt 0.906250 0.500000
vt 0.921875 1.000000
vt 0.906250 0.937500
vt 0.921875 0.000000
vt 0.906250 0.437500
vt 0.875000 0.625000
vt 0.875000 0.562500
vt 0.875000 0.125000
vt 0.875000 0.062500
vt 0.875000 0.500000
vt 0.890625 1.000000
vt 0.875000 0.937500
vt 0.890625 0.000000
vt 0.875000 0.437500
vt 0.875000 0.875000
vt 0.875000 0.375000
vt 0.875000 0.812500
vt 0.875000 0.312500
vt 0.875000 0.750000
vt 0.875000 0.250000
vt 0.875000 0.687500
vt 0.875000 0.187500
vt 0.843750 0.375000
vt 0.843750 0.312500
vt 0.843750 0.812500
vt 0.843750 0.750000
vt 0.843750 0.250000
vt 0.843750 0.687500
vt 0.843750 0.187500
vt 0.843750 0.625000
vt 0.843750 0.125000
vt 0.843750 0.562500
vt 0.843750 0.062500
vt 0.843750 0.500000
vt 0.859375 1.000000
vt 0.843750 0.937500
vt 0.859375 0.000000
vt 0.843750 0.437500
vt 0.843750 0.875000
vt 0.812500 0.125000
vt 0.812500 0.062500
vt 0.812500 0.562500
vt 0.812500 0.500000
vt 0.828125 1.000000
vt 0.812500 0.937500
vt 0.828125 0.000000
vt 0.812500 0.437500
vt 0.812500 0.875000
vt 0.812500 0.375000
vt 0.812500 0.812500
vt 0.812500 0.312500
vt 0.812500 0.750000
vt 0.812500 0.250000
vt 0.812500 0.687500
vt 0.812500 0.187500
vt 0.812500 0.625000
vt 0.781250 0.812500
vt 0.781250 0.750000
vt 0.781250 0.312500
vt 0.781250 0.250000
vt 0.781250 0.687500
vt 0.781250 0.187500
vt 0.781250 0.625000
vt 0.781250 0.125000
vt 0.781250 0.562500
vt 0.781250 0.062500
vt 0.781250 0.500000
vt 0.796875 1.000000
vt 0.781250 0.937500
vt 0.796875 0.000000
vt 0.781250 0.437500
vt 0.781250 0.875000
vt 0.781250 0.375000
vt 0.765625 1.000000
vt 0.765625 0.000000
s 0
usemtl Material.005
f 546/2/33 545/3/33 89/4/33 90/5/33
f 70/6/34 543/7/34 82/8/34 83/9/34
f 66/10/35 65/11/35 76/12/35
f 75/13/36 546/2/36 90/5/36
f 544/14/37 70/6/37 83/9/37 84/15/37
f 541/16/38 66/10/38 76/12/38 77/17/38
f 71/18/39 544/14/39 84/15/39 85/19/39
f 67/20/40 541/16/40 77/17/40 78/21/40
f 72/22/41 71/18/41 85/19/41 86/23/41
f 68/24/42 67/20/42 78/21/42 79/25/42
f 73/26/43 72/22/43 86/23/43 87/27/43
f 542/28/44 68/24/44 79/25/44 80/29/44
f 74/30/45 73/26/45 87/27/45 88/31/45
f 69/32/46 542/28/46 80/29/46 81/33/46
f 545/3/47 74/30/47 88/31/47 89/4/47
f 543/7/48 69/32/48 81/33/48 82/8/48
f 89/4/49 88/31/49 103/34/49 104/35/49
f 82/8/50 81/33/50 96/36/50 97/37/50
f 90/5/51 89/4/51 104/35/51 105/38/51
f 83/9/52 82/8/52 97/37/52 98/39/52
f 76/12/53 65/40/53 91/41/53
f 75/42/54 90/5/54 105/38/54
f 84/15/55 83/9/55 98/39/55 99/43/55
f 77/17/56 76/12/56 91/41/56 92/44/56
f 85/19/57 84/15/57 99/43/57 100/45/57
f 78/21/58 77/17/58 92/44/58 93/46/58
f 86/23/59 85/19/59 100/45/59 101/47/59
f 79/25/60 78/21/60 93/46/60 94/48/60
f 87/27/61 86/23/61 101/47/61 102/49/61
f 80/29/62 79/25/62 94/48/62 95/50/62
f 88/31/63 87/27/63 102/49/63 103/34/63
f 81/33/64 80/29/64 95/50/64 96/36/64
f 93/46/65 92/44/65 107/51/65 108/52/65
f 101/47/66 100/45/66 115/53/66 116/54/66
f 94/48/67 93/46/67 108/52/67 109/55/67
f 102/49/68 101/47/68 116/54/68 117/56/68
f 95/50/69 94/48/69 109/55/69 110/57/69
f 103/34/70 102/49/70 117/56/70 118/58/70
f 96/36/71 95/50/71 110/57/71 111/59/71
f 104/35/72 103/34/72 118/58/72 119/60/72
f 97/37/73 96/36/73 111/59/73 112/61/73
f 105/38/74 104/35/74 119/60/74 120/62/74
f 98/39/75 97/37/75 112/61/75 113/63/75
f 91/41/76 65/64/76 106/65/76
f 75/66/77 105/38/77 120/62/77
f 99/43/78 98/39/78 113/63/78 114/67/78
f 92/44/79 91/41/79 106/65/79 107/51/79
f 100/45/80 99/43/80 114/67/80 115/53/80
f 112/61/81 111/59/81 126/68/81 127/69/81
f 120/62/82 119/60/82 134/70/82 135/71/82
f 113/63/83 112/61/83 127/69/83 128/72/83
f 106/65/84 65/73/84 121/74/84
f 75/75/85 120/62/85 135/71/85
f 114/67/86 113/63/86 128/72/86 129/76/86
f 107/51/87 106/65/87 121/74/87 122/77/87
f 115/53/88 114/67/88 129/76/88 130/78/88
f 108/52/89 107/51/89 122/77/89 123/79/89
f 116/54/90 115/53/90 130/78/90 131/80/90
f 109/55/91 108/52/91 123/79/91 124/81/91
f 117/56/92 116/54/92 131/80/92 132/82/92
f 110/57/93 109/55/93 124/81/93 125/83/93
f 118/58/94 117/56/94 132/82/94 133/84/94
f 111/59/95 110/57/95 125/83/95 126/68/95
f 119/60/96 118/58/96 133/84/96 134/70/96
f 131/80/97 130/78/97 145/85/97 146/86/97
f 124/81/98 123/79/98 138/87/98 139/88/98
f 132/82/99 131/80/99 146/86/99 147/89/99
f 125/83/100 124/81/100 139/88/100 140/90/100
f 133/84/101 132/82/101 147/89/101 148/91/101
f 126/68/102 125/83/102 140/90/102 141/92/102
f 134/70/103 133/84/103 148/91/103 149/93/103
f 127/69/104 126/68/104 141/92/104 142/94/104
f 135/71/105 134/70/105 149/93/105 150/95/105
f 128/72/106 127/69/106 142/94/106 143/96/106
f 121/74/107 65/97/107 136/98/107
f 75/99/108 135/71/108 150/95/108
f 129/76/109 128/72/109 143/96/109 144/100/109
f 122/77/110 121/74/110 136/98/110 137/101/110
f 130/78/111 129/76/111 144/100/111 145/85/111
f 123/79/112 122/77/112 137/101/112 138/87/112
f 150/95/113 149/93/113 164/102/113 165/103/113
f 143/96/114 142/94/114 157/104/114 158/105/114
f 136/98/115 65/106/115 151/107/115
f 75/108/116 150/95/116 165/103/116
f 144/100/117 143/96/117 158/105/117 159/109/117
f 137/101/118 136/98/118 151/107/118 152/110/118
f 145/85/119 144/100/119 159/109/119 160/111/119
f 138/87/120 137/101/120 152/110/120 153/112/120
f 146/86/121 145/85/121 160/111/121 161/113/121
f 139/88/122 138/87/122 153/112/122 154/114/122
f 147/89/123 146/86/123 161/113/123 162/115/123
f 140/90/124 139/88/124 154/114/124 155/116/124
f 148/91/125 147/89/125 162/115/125 163/117/125
f 141/92/126 140/90/126 155/116/126 156/118/126
f 149/93/127 148/91/127 163/117/127 164/102/127
f 142/94/128 141/92/128 156/118/128 157/104/128
f 162/115/129 161/113/129 176/119/129 177/120/129
f 155/116/130 154/114/130 169/121/130 170/122/130
f 163/117/131 162/115/131 177/120/131 178/123/131
f 156/118/132 155/116/132 170/122/132 171/124/132
f 164/102/133 163/117/133 178/123/133 179/125/133
f 157/104/134 156/118/134 171/124/134 172/126/134
f 165/103/135 164/102/135 179/125/135 180/127/135
f 158/105/136 157/104/136 172/126/136 173/128/136
f 151/107/137 65/129/137 166/130/137
f 75/131/138 165/103/138 180/127/138
f 159/109/139 158/105/139 173/128/139 174/132/139
f 152/110/140 151/107/140 166/130/140 167/133/140
f 160/111/141 159/109/141 174/132/141 175/134/141
f 153/112/142 152/110/142 167/133/142 168/135/142
f 161/113/143 160/111/143 175/134/143 176/119/143
f 154/114/144 153/112/144 168/135/144 169/121/144
f 166/130/145 65/136/145 181/137/145
f 75/138/146 180/127/146 195/139/146
f 174/132/147 173/128/147 188/140/147 189/141/147
f 167/133/148 166/130/148 181/137/148 182/142/148
f 175/134/149 174/132/149 189/141/149 190/143/149
f 168/135/150 167/133/150 182/142/150 183/144/150
f 176/119/151 175/134/151 190/143/151 191/145/151
f 169/121/152 168/135/152 183/144/152 184/146/152
f 177/120/153 176/119/153 191/145/153 192/147/153
f 170/122/154 169/121/154 184/146/154 185/148/154
f 178/123/155 177/120/155 192/147/155 193/149/155
f 171/124/156 170/122/156 185/148/156 186/150/156
f 179/125/157 178/123/157 193/149/157 194/151/157
f 172/126/158 171/124/158 186/150/158 187/152/158
f 180/127/159 179/125/159 194/151/159 195/139/159
f 173/128/160 172/126/160 187/152/160 188/140/160
f 185/148/161 184/146/161 199/153/161 200/154/161
f 193/149/162 192/147/162 207/155/162 208/156/162
f 186/150/163 185/148/163 200/154/163 201/157/163
f 194/151/164 193/149/164 208/156/164 209/158/164
f 187/152/165 186/150/165 201/157/165 202/159/165
f 195/139/166 194/151/166 209/158/166 210/160/166
f 188/140/167 187/152/167 202/159/167 203/161/167
f 181/137/168 65/162/168 196/163/168
f 75/164/169 195/139/169 210/160/169
f 189/141/170 188/140/170 203/161/170 204/165/170
f 182/142/171 181/137/171 196/163/171 197/166/171
f 190/143/172 189/141/172 204/165/172 205/167/172
f 183/144/173 182/142/173 197/166/173 198/168/173
f 191/145/174 190/143/174 205/167/174 206/169/174
f 184/146/175 183/144/175 198/168/175 199/153/175
f 192/147/176 191/145/176 206/169/176 207/155/176
f 204/165/177 203/161/177 218/170/177 219/171/177
f 197/166/178 196/163/178 211/172/178 212/173/178
f 205/167/179 204/165/179 219/171/179 220/174/179
f 198/168/180 197/166/180 212/173/180 213/175/180
f 206/169/181 205/167/181 220/174/181 221/176/181
f 199/153/182 198/168/182 213/175/182 214/177/182
f 207/155/183 206/169/183 221/176/183 222/178/183
f 200/154/184 199/153/184 214/177/184 215/179/184
f 208/156/185 207/155/185 222/178/185 223/180/185
f 201/157/186 200/154/186 215/179/186 216/181/186
f 209/158/187 208/156/187 223/180/187 224/182/187
f 202/159/188 201/157/188 216/181/188 217/183/188
f 210/160/189 209/158/189 224/182/189 225/184/189
f 203/161/190 202/159/190 217/183/190 218/170/190
f 196/163/191 65/185/191 211/172/191
f 75/186/192 210/160/192 225/184/192
f 223/180/193 222/178/193 237/187/193 238/188/193
f 216/181/194 215/179/194 230/189/194 231/190/194
f 224/182/195 223/180/195 238/188/195 239/191/195
f 217/183/196 216/181/196 231/190/196 232/192/196
f 225/184/197 224/182/197 239/191/197 240/193/197
f 218/170/198 217/183/198 232/192/198 233/194/198
f 211/172/199 65/195/199 226/196/199
f 75/197/200 225/184/200 240/193/200
f 219/171/201 218/170/201 233/194/201 234/198/201
f 212/173/202 211/172/202 226/196/202 227/199/202
f 220/174/203 219/171/203 234/198/203 235/200/203
f 213/175/204 212/173/204 227/199/204 228/201/204
f 221/176/205 220/174/205 235/200/205 236/202/205
f 214/177/206 213/175/206 228/201/206 229/203/206
f 222/178/207 221/176/207 236/202/207 237/187/207
f 215/179/208 214/177/208 229/203/208 230/189/208
f 227/199/209 226/196/209 241/204/209 242/205/209
f 235/200/210 234/198/210 249/206/210 250/207/210
f 228/201/211 227/199/211 242/205/211 243/208/211
f 236/202/212 235/200/212 250/207/212 251/209/212
f 229/203/213 228/201/213 243/208/213 244/210/213
f 237/187/214 236/202/214 251/209/214 252/211/214
f 230/189/215 229/203/215 244/210/215 245/212/215
f 238/188/216 237/187/216 252/211/216 253/213/216
f 231/190/217 230/189/217 245/212/217 246/214/217
f 239/191/218 238/188/218 253/213/218 254/215/218
f 232/192/219 231/190/219 246/214/219 247/216/219
f 240/193/220 239/191/220 254/215/220 255/217/220
f 233/194/221 232/192/221 247/216/221 248/218/221
f 226/196/222 65/219/222 241/204/222
f 75/220/223 240/193/223 255/217/223
f 234/198/224 233/194/224 248/218/224 249/206/224
f 246/214/225 245/212/225 260/221/225 261/222/225
f 254/215/226 253/213/226 268/223/226 269/224/226
f 247/216/227 246/214/227 261/222/227 262/225/227
f 255/217/228 254/215/228 269/224/228 270/226/228
f 248/218/229 247/216/229 262/225/229 263/227/229
f 241/204/230 65/228/230 256/229/230
f 75/230/231 255/217/231 270/226/231
f 249/206/232 248/218/232 263/227/232 264/231/232
f 242/205/233 241/204/233 256/229/233 257/232/233
f 250/207/234 249/206/234 264/231/234 265/233/234
f 243/208/235 242/205/235 257/232/235 258/234/235
f 251/209/236 250/207/236 265/233/236 266/235/236
f 244/210/237 243/208/237 258/234/237 259/236/237
f 252/211/238 251/209/238 266/235/238 267/237/238
f 245/212/239 244/210/239 259/236/239 260/221/239
f 253/213/240 252/211/240 267/237/240 268/223/240
f 265/233/241 264/231/241 279/238/241 280/239/241
f 258/234/242 257/232/242 272/240/242 273/241/242
f 266/235/243 265/233/243 280/239/243 281/242/243
f 259/236/244 258/234/244 273/241/244 274/243/244
f 267/237/245 266/235/245 281/242/245 282/244/245
f 260/221/246 259/236/246 274/243/246 275/245/246
f 268/223/247 267/237/247 282/244/247 283/246/247
f 261/222/248 260/221/248 275/245/248 276/247/248
f 269/224/249 268/223/249 283/246/249 284/248/249
f 262/225/250 261/222/250 276/247/250 277/249/250
f 270/226/251 269/224/251 284/248/251 285/250/251
f 263/227/252 262/225/252 277/249/252 278/251/252
f 256/229/253 65/252/253 271/253/253
f 75/254/254 270/226/254 285/250/254
f 264/231/255 263/227/255 278/251/255 279/238/255
f 257/232/256 256/229/256 271/253/256 272/240/256
f 284/248/257 283/246/257 298/255/257 299/256/257
f 277/249/258 276/247/258 291/257/258 292/258/258
f 285/250/259 284/248/259 299/256/259 300/259/259
f 278/251/260 277/249/260 292/258/260 293/260/260
f 271/253/261 65/261/261 286/262/261
f 75/263/262 285/250/262 300/259/262
f 279/238/263 278/251/263 293/260/263 294/264/263
f 272/240/264 271/253/264 286/262/264 287/265/264
f 280/239/265 279/238/265 294/264/265 295/266/265
f 273/241/266 272/240/266 287/265/266 288/267/266
f 281/242/267 280/239/267 295/266/267 296/268/267
f 274/243/268 273/241/268 288/267/268 289/269/268
f 282/244/269 281/242/269 296/268/269 297/270/269
f 275/245/270 274/243/270 289/269/270 290/271/270
f 283/246/271 282/244/271 297/270/271 298/255/271
f 276/247/272 275/245/272 290/271/272 291/257/272
f 296/268/273 295/266/273 310/272/273 311/273/273
f 289/269/274 288/267/274 303/274/274 304/275/274
f 297/270/275 296/268/275 311/273/275 312/276/275
f 290/271/276 289/269/276 304/275/276 305/277/276
f 298/255/277 297/270/277 312/276/277 313/278/277
f 291/257/278 290/271/278 305/277/278 306/279/278
f 299/256/279 298/255/279 313/278/279 314/280/279
f 292/258/280 291/257/280 306/279/280 307/281/280
f 300/259/281 299/256/281 314/280/281 315/282/281
f 293/260/282 292/258/282 307/281/282 308/283/282
f 286/262/283 65/284/283 301/285/283
f 75/286/284 300/259/284 315/282/284
f 294/264/285 293/260/285 308/283/285 309/287/285
f 287/265/286 286/262/286 301/285/286 302/288/286
f 295/266/287 294/264/287 309/287/287 310/272/287
f 288/267/288 287/265/288 302/288/288 303/274/288
f 315/282/289 314/280/289 329/289/289 330/290/289
f 308/283/290 307/281/290 322/291/290 323/292/290
f 301/285/291 65/293/291 316/294/291
f 75/295/292 315/282/292 330/290/292
f 309/287/293 308/283/293 323/292/293 324/296/293
f 302/288/294 301/285/294 316/294/294 317/297/294
f 310/272/295 309/287/295 324/296/295 325/298/295
f 303/274/296 302/288/296 317/297/296 318/299/296
f 311/273/297 310/272/297 325/298/297 326/300/297
f 304/275/298 303/274/298 318/299/298 319/301/298
f 312/276/299 311/273/299 326/300/299 327/302/299
f 305/277/300 304/275/300 319/301/300 320/303/300
f 313/278/301 312/276/301 327/302/301 328/304/301
f 306/279/302 305/277/302 320/303/302 321/305/302
f 314/280/303 313/278/303 328/304/303 329/289/303
f 307/281/304 306/279/304 321/305/304 322/291/304
f 319/301/305 318/299/305 333/306/305 334/307/305
f 327/302/306 326/300/306 341/308/306 342/309/306
f 320/303/307 319/301/307 334/307/307 335/310/307
f 328/304/308 327/302/308 342/309/308 343/311/308
f 321/305/309 320/303/309 335/310/309 336/312/309
f 329/289/310 328/304/310 343/311/310 344/313/310
f 322/291/311 321/305/311 336/312/311 337/314/311
f 330/290/312 329/289/312 344/313/312 345/315/312
f 323/292/313 322/291/313 337/314/313 338/316/313
f 316/294/314 65/317/314 331/318/314
f 75/319/315 330/290/315 345/315/315
f 324/296/316 323/292/316 338/316/316 339/320/316
f 317/297/317 316/294/317 331/318/317 332/321/317
f 325/298/318 324/296/318 339/320/318 340/322/318
f 318/299/319 317/297/319 332/321/319 333/306/319
f 326/300/320 325/298/320 340/322/320 341/308/320
f 338/316/321 337/314/321 352/323/321 353/324/321
f 331/318/322 65/325/322 346/326/322
f 75/327/323 345/315/323 360/328/323
f 339/320/324 338/316/324 353/324/324 354/329/324
f 332/321/325 331/318/325 346/326/325 347/330/325
f 340/322/326 339/320/326 354/329/326 355/331/326
f 333/306/327 332/321/327 347/330/327 348/332/327
f 341/308/328 340/322/328 355/331/328 356/333/328
f 334/307/329 333/306/329 348/332/329 349/334/329
f 342/309/330 341/308/330 356/333/330 357/335/330
f 335/310/331 334/307/331 349/334/331 350/336/331
f 343/311/332 342/309/332 357/335/332 358/337/332
f 336/312/333 335/310/333 350/336/333 351/338/333
f 344/313/334 343/311/334 358/337/334 359/339/334
f 337/314/335 336/312/335 351/338/335 352/323/335
f 345/315/336 344/313/336 359/339/336 360/328/336
f 357/335/337 356/333/337 371/340/337 372/341/337
f 350/336/338 349/334/338 364/342/338 365/343/338
f 358/337/339 357/335/339 372/341/339 373/344/339
f 351/338/340 350/336/340 365/343/340 366/345/340
f 359/339/341 358/337/341 373/344/341 374/346/341
f 352/323/342 351/338/342 366/345/342 367/347/342
f 360/328/343 359/339/343 374/346/343 375/348/343
f 353/324/344 352/323/344 367/347/344 368/349/344
f 346/326/345 65/350/345 361/351/345
f 75/352/346 360/328/346 375/348/346
f 354/329/347 353/324/347 368/349/347 369/353/347
f 347/330/348 346/326/348 361/351/348 362/354/348
f 355/331/349 354/329/349 369/353/349 370/355/349
f 348/332/350 347/330/350 362/354/350 363/356/350
f 356/333/351 355/331/351 370/355/351 371/340/351
f 349/334/352 348/332/352 363/356/352 364/342/352
f 361/351/353 65/357/353 376/358/353
f 75/359/354 375/348/354 390/360/354
f 369/353/355 368/349/355 383/361/355 384/362/355
f 362/354/356 361/351/356 376/358/356 377/363/356
f 370/355/357 369/353/357 384/362/357 385/364/357
f 363/356/358 362/354/358 377/363/358 378/365/358
f 371/340/359 370/355/359 385/364/359 386/366/359
f 364/342/360 363/356/360 378/365/360 379/367/360
f 372/341/361 371/340/361 386/366/361 387/368/361
f 365/343/362 364/342/362 379/367/362 380/369/362
f 373/344/363 372/341/363 387/368/363 388/370/363
f 366/345/364 365/343/364 380/369/364 381/371/364
f 374/346/365 373/344/365 388/370/365 389/372/365
f 367/347/366 366/345/366 381/371/366 382/373/366
f 375/348/367 374/346/367 389/372/367 390/360/367
f 368/349/368 367/347/368 382/373/368 383/361/368
f 380/369/369 379/367/369 394/374/369 395/375/369
f 388/370/370 387/368/370 402/376/370 403/377/370
f 381/371/371 380/369/371 395/375/371 396/378/371
f 389/372/372 388/370/372 403/377/372 404/379/372
f 382/373/373 381/371/373 396/378/373 397/380/373
f 390/360/374 389/372/374 404/379/374 405/381/374
f 383/361/375 382/373/375 397/380/375 398/382/375
f 376/358/376 65/383/376 391/384/376
f 75/385/377 390/360/377 405/381/377
f 384/362/378 383/361/378 398/382/378 399/386/378
f 377/363/379 376/358/379 391/384/379 392/387/379
f 385/364/380 384/362/380 399/386/380 400/388/380
f 378/365/381 377/363/381 392/387/381 393/389/381
f 386/366/382 385/364/382 400/388/382 401/390/382
f 379/367/383 378/365/383 393/389/383 394/374/383
f 387/368/384 386/366/384 401/390/384 402/376/384
f 399/386/385 398/382/385 413/391/385 414/392/385
f 392/387/386 391/384/386 406/393/386 407/394/386
f 400/388/387 399/386/387 414/392/387 415/395/387
f 393/389/388 392/387/388 407/394/388 408/396/388
f 401/390/389 400/388/389 415/395/389 416/397/389
f 394/374/390 393/389/390 408/396/390 409/398/390
f 402/376/391 401/390/391 416/397/391 417/399/391
f 395/375/392 394/374/392 409/398/392 410/400/392
f 403/377/393 402/376/393 417/399/393 418/401/393
f 396/378/394 395/375/394 410/400/394 411/402/394
f 404/379/395 403/377/395 418/401/395 419/403/395
f 397/380/396 396/378/396 411/402/396 412/404/396
f 405/381/397 404/379/397 419/403/397 420/405/397
f 398/382/398 397/380/398 412/404/398 413/391/398
f 391/384/399 65/406/399 406/393/399
f 75/407/400 405/381/400 420/405/400
f 418/401/401 417/399/401 432/408/401 433/409/401
f 411/402/402 410/400/402 425/410/402 426/411/402
f 419/403/403 418/401/403 433/409/403 434/412/403
f 412/404/404 411/402/404 426/411/404 427/413/404
f 420/405/405 419/403/405 434/412/405 435/414/405
f 413/391/406 412/404/406 427/413/406 428/415/406
f 406/393/407 65/416/407 421/417/407
f 75/418/408 420/405/408 435/414/408
f 414/392/409 413/391/409 428/415/409 429/419/409
f 407/394/410 406/393/410 421/417/410 422/420/410
f 415/395/411 414/392/411 429/419/411 430/421/411
f 408/396/412 407/394/412 422/420/412 423/422/412
f 416/397/413 415/395/413 430/421/413 431/423/413
f 409/398/414 408/396/414 423/422/414 424/424/414
f 417/399/415 416/397/415 431/423/415 432/408/415
f 410/400/416 409/398/416 424/424/416 425/410/416
f 430/425/417 429/426/417 444/427/417 445/428/417
f 423/429/418 422/430/418 437/431/418 438/432/418
f 431/433/419 430/425/419 445/428/419 446/434/419
f 424/435/420 423/429/420 438/432/420 439/436/420
f 432/437/421 431/433/421 446/434/421 447/438/421
f 425/439/422 424/435/422 439/436/422 440/440/422
f 433/441/423 432/437/423 447/438/423 448/442/423
f 426/443/424 425/439/424 440/440/424 441/444/424
f 434/445/425 433/441/425 448/442/425 449/446/425
f 427/447/426 426/443/426 441/444/426 442/448/426
f 435/449/427 434/445/427 449/446/427 450/450/427
f 428/451/428 427/447/428 442/448/428 443/452/428
f 421/453/429 65/454/429 436/455/429
f 75/456/430 435/449/430 450/450/430
f 429/426/431 428/451/431 443/452/431 444/427/431
f 422/430/432 421/453/432 436/455/432 437/431/432
f 449/446/433 448/442/433 463/457/433 464/458/433
f 442/448/434 441/444/434 456/459/434 457/460/434
f 450/450/435 449/446/435 464/458/435 465/461/435
f 443/452/436 442/448/436 457/460/436 458/462/436
f 436/455/437 65/463/437 451/464/437
f 75/465/438 450/450/438 465/461/438
f 444/427/439 443/452/439 458/462/439 459/466/439
f 437/431/440 436/455/440 451/464/440 452/467/440
f 445/428/441 444/427/441 459/466/441 460/468/441
f 438/432/442 437/431/442 452/467/442 453/469/442
f 446/434/443 445/428/443 460/468/443 461/470/443
f 439/436/444 438/432/444 453/469/444 454/471/444
f 447/438/445 446/434/445 461/470/445 462/472/445
f 440/440/446 439/436/446 454/471/446 455/473/446
f 448/442/447 447/438/447 462/472/447 463/457/447
f 441/444/448 440/440/448 455/473/448 456/459/448
f 453/469/449 452/467/449 467/474/449 468/475/449
f 461/470/450 460/468/450 475/476/450 476/477/450
f 454/471/451 453/469/451 468/475/451 469/478/451
f 462/472/452 461/470/452 476/477/452 477/479/452
f 455/473/453 454/471/453 469/478/453 470/480/453
f 463/457/454 462/472/454 477/479/454 478/481/454
f 456/459/455 455/473/455 470/480/455 471/482/455
f 464/458/456 463/457/456 478/481/456 479/483/456
f 457/460/457 456/459/457 471/482/457 472/484/457
f 465/461/458 464/458/458 479/483/458 480/485/458
f 458/462/459 457/460/459 472/484/459 473/486/459
f 451/464/460 65/487/460 466/488/460
f 75/489/461 465/461/461 480/485/461
f 459/466/462 458/462/462 473/486/462 474/490/462
f 452/467/463 451/464/463 466/488/463 467/474/463
f 460/468/464 459/466/464 474/490/464 475/476/464
f 472/484/465 471/482/465 486/491/465 487/492/465
f 480/485/466 479/483/466 494/493/466 495/494/466
f 473/486/467 472/484/467 487/492/467 488/495/467
f 466/488/468 65/496/468 481/497/468
f 75/498/469 480/485/469 495/494/469
f 474/490/470 473/486/470 488/495/470 489/499/470
f 467/474/471 466/488/471 481/497/471 482/500/471
f 475/476/472 474/490/472 489/499/472 490/501/472
f 468/475/473 467/474/473 482/500/473 483/502/473
f 476/477/474 475/476/474 490/501/474 491/503/474
f 469/478/475 468/475/475 483/502/475 484/504/475
f 477/479/476 476/477/476 491/503/476 492/505/476
f 470/480/477 469/478/477 484/504/477 485/506/477
f 478/481/478 477/479/478 492/505/478 493/507/478
f 471/482/479 470/480/479 485/506/479 486/491/479
f 479/483/480 478/481/480 493/507/480 494/493/480
f 491/503/481 490/501/481 505/508/481 506/509/481
f 484/504/482 483/502/482 498/510/482 499/511/482
f 492/505/483 491/503/483 506/509/483 507/512/483
f 485/506/484 484/504/484 499/511/484 500/513/484
f 493/507/485 492/505/485 507/512/485 508/514/485
f 486/491/486 485/506/486 500/513/486 501/515/486
f 494/493/487 493/507/487 508/514/487 509/516/487
f 487/492/488 486/491/488 501/515/488 502/517/488
f 495/494/489 494/493/489 509/516/489 510/518/489
f 488/495/490 487/492/490 502/517/490 503/519/490
f 481/497/491 65/520/491 496/521/491
f 75/522/492 495/494/492 510/518/492
f 489/499/493 488/495/493 503/519/493 504/523/493
f 482/500/494 481/497/494 496/521/494 497/524/494
f 490/501/495 489/499/495 504/523/495 505/508/495
f 483/502/496 482/500/496 497/524/496 498/510/496
f 510/518/497 509/516/497 524/525/497 525/526/497
f 503/519/498 502/517/498 517/527/498 518/528/498
f 496/521/499 65/529/499 511/530/499
f 75/531/500 510/518/500 525/526/500
f 504/523/501 503/519/501 518/528/501 519/532/501
f 497/524/502 496/521/502 511/530/502 512/533/502
f 505/508/503 504/523/503 519/532/503 520/534/503
f 498/510/504 497/524/504 512/533/504 513/535/504
f 506/509/505 505/508/505 520/534/505 521/536/505
f 499/511/506 498/510/506 513/535/506 514/537/506
f 507/512/507 506/509/507 521/536/507 522/538/507
f 500/513/508 499/511/508 514/537/508 515/539/508
f 508/514/509 507/512/509 522/538/509 523/540/509
f 501/515/510 500/513/510 515/539/510 516/541/510
f 509/516/511 508/514/511 523/540/511 524/525/511
f 502/517/512 501/515/512 516/541/512 517/527/512
f 514/537/513 513/535/513 528/542/513 529/543/513
f 522/538/514 521/536/514 536/544/514 537/545/514
f 515/539/515 514/537/515 529/543/515 530/546/515
f 523/540/516 522/538/516 537/545/516 538/547/516
f 516/541/517 515/539/517 530/546/517 531/548/517
f 524/525/518 523/540/518 538/547/518 539/549/518
f 517/527/519 516/541/519 531/548/519 532/550/519
f 525/526/520 524/525/520 539/549/520 540/551/520
f 518/528/521 517/527/521 532/550/521 533/552/521
f 511/530/522 65/553/522 526/554/522
f 75/555/523 525/526/523 540/551/523
f 519/532/524 518/528/524 533/552/524 534/556/524
f 512/533/525 511/530/525 526/554/525 527/557/525
f 520/534/526 519/532/526 534/556/526 535/558/526
f 513/535/527 512/533/527 527/557/527 528/542/527
f 521/536/528 520/534/528 535/558/528 536/544/528
f 533/552/529 532/550/529 543/7/529 70/6/529
f 526/554/530 65/559/530 66/10/530
f 75/560/531 540/551/531 546/2/531
f 534/556/532 533/552/532 70/6/532 544/14/532
f 527/557/533 526/554/533 66/10/533 541/16/533
f 535/558/534 534/556/534 544/14/534 71/18/534
f 528/542/535 527/557/535 541/16/535 67/20/535
f 536/544/536 535/558/536 71/18/536 72/22/536
f 529/543/537 528/542/537 67/20/537 68/24/537
f 537/545/538 536/544/538 72/22/538 73/26/538
f 530/546/539 529/543/539 68/24/539 542/28/539
f 538/547/540 537/545/540 73/26/540 74/30/540
f 531/548/541 530/546/541 542/28/541 69/32/541
f 539/549/542 538/547/542 74/30/542 545/3/542
f 532/550/543 531/548/543 69/32/543 543/7/543
f 540/551/544 539/549/544 545/3/544 546/2/544
