# Blender 5.0.1
# www.blender.org
mtllib Дерево.mtl
o Circle
v 0.000000 0.000000 -0.541048
v -0.105553 0.000000 -0.530652
v -0.207050 0.000000 -0.499863
v -0.300590 0.000000 -0.449865
v -0.382579 0.000000 -0.382579
v -0.449865 0.000000 -0.300590
v -0.499863 0.000000 -0.207050
v -0.530652 0.000000 -0.105553
v -0.541048 0.000000 0.000000
v -0.530652 0.000000 0.105553
v -0.499863 0.000000 0.207050
v -0.449865 0.000000 0.300590
v -0.382579 0.000000 0.382579
v -0.300590 0.000000 0.449865
v -0.207050 0.000000 0.499863
v -0.105553 0.000000 0.530652
v 0.000000 0.000000 0.541048
v 0.105553 0.000000 0.530652
v 0.207050 0.000000 0.499863
v 0.300590 0.000000 0.449865
v 0.382579 0.000000 0.382579
v 0.449865 0.000000 0.300590
v 0.499863 0.000000 0.207050
v 0.530652 0.000000 0.105553
v 0.541048 0.000000 0.000000
v 0.530652 0.000000 -0.105553
v 0.499863 0.000000 -0.207050
v 0.449865 0.000000 -0.300590
v 0.382579 0.000000 -0.382579
v 0.300590 0.000000 -0.449865
v 0.207050 0.000000 -0.499863
v 0.105553 0.000000 -0.530652
v -0.000000 -0.061478 -0.285805
v -0.055758 -0.061478 -0.280313
v -0.109373 -0.061478 -0.264049
v -0.158785 -0.061478 -0.237638
v -0.202095 -0.061478 -0.202095
v -0.237638 -0.061478 -0.158785
v -0.264049 -0.061478 -0.109373
v -0.280313 -0.061478 -0.055758
v -0.285805 -0.061478 0.000000
v -0.280313 -0.061478 0.055758
v -0.264049 -0.061478 0.109373
v -0.237638 -0.061478 0.158785
v -0.202095 -0.061478 0.202095
v -0.158785 -0.061478 0.237638
v -0.109373 -0.061478 0.264049
v -0.055758 -0.061478 0.280313
v -0.000000 -0.061478 0.285805
v 0.055758 -0.061478 0.280313
v 0.109373 -0.061478 0.264049
v 0.158785 -0.061478 0.237638
v 0.202095 -0.061478 0.202095
v 0.237638 -0.061478 0.158785
v 0.264049 -0.061478 0.109373
v 0.280313 -0.061478 0.055758
v 0.285805 -0.061478 0.000000
v 0.280313 -0.061478 -0.055758
v 0.264049 -0.061478 -0.109373
v 0.237638 -0.061478 -0.158785
v 0.202095 -0.061478 -0.202095
v 0.158785 -0.061478 -0.237638
v 0.109373 -0.061478 -0.264049
v 0.055758 -0.061478 -0.280313
v -0.000000 0.331271 -0.541048
v -0.105528 0.333582 -0.530652
v -0.207001 0.335804 -0.499863
v -0.300518 0.337852 -0.449865
v -0.382487 0.339647 -0.382579
v -0.449757 0.341120 -0.300590
v -0.499743 0.342215 -0.207050
v -0.530525 0.342889 -0.105553
v -0.540918 0.343117 0.000000
v -0.530525 0.342889 0.105553
v -0.499743 0.342215 0.207050
v -0.449757 0.341120 0.300590
v -0.382487 0.339647 0.382579
v -0.300518 0.337852 0.449865
v -0.207001 0.335804 0.499863
v -0.105528 0.333582 0.530652
v 0.000000 0.331271 0.541048
v 0.105528 0.328960 0.530652
v 0.207001 0.326738 0.499863
v 0.300518 0.324690 0.449865
v 0.382487 0.322895 0.382579
v 0.449757 0.321421 0.300590
v 0.499743 0.320327 0.207050
v 0.530525 0.319653 0.105553
v 0.540918 0.319425 -0.000000
v 0.530525 0.319653 -0.105553
v 0.499743 0.320327 -0.207050
v 0.449757 0.321421 -0.300590
v 0.382487 0.322895 -0.382579
v 0.300518 0.324690 -0.449865
v 0.207001 0.326738 -0.499863
v 0.105528 0.328960 -0.530652
v 0.040276 2.478812 -0.271705
v 0.094238 2.481821 -0.277028
v -0.011612 2.475919 -0.255941
v -0.059433 2.473252 -0.230341
v -0.101347 2.470915 -0.195889
v -0.135746 2.468996 -0.153909
v -0.161307 2.467571 -0.106014
v -0.177047 2.466694 -0.054045
v -0.182361 2.466397 0.000000
v -0.177047 2.466694 0.054046
v -0.161307 2.467571 0.106015
v -0.135746 2.468996 0.153909
v -0.101347 2.470915 0.195889
v -0.059433 2.473252 0.230341
v -0.011612 2.475919 0.255941
v 0.040276 2.478812 0.271706
v 0.094238 2.481821 0.277029
v 0.148199 2.484830 0.271706
v 0.200087 2.487724 0.255941
v 0.247908 2.490391 0.230341
v 0.289823 2.492728 0.195889
v 0.324221 2.494646 0.153909
v 0.349782 2.496071 0.106015
v 0.365522 2.496949 0.054046
v 0.370836 2.497246 0.000000
v 0.365522 2.496949 -0.054045
v 0.349782 2.496071 -0.106014
v 0.324221 2.494646 -0.153909
v 0.289823 2.492728 -0.195889
v 0.247908 2.490391 -0.230341
v 0.200087 2.487724 -0.255941
v 0.148199 2.484830 -0.271705
v -0.226128 4.467979 -0.047712
v -0.216751 4.469446 -0.048647
v -0.235144 4.466568 -0.044944
v -0.243454 4.465268 -0.040448
v -0.250737 4.464128 -0.034399
v -0.256714 4.463193 -0.027027
v -0.261156 4.462498 -0.018616
v -0.263891 4.462070 -0.009490
v -0.264814 4.461926 0.000001
v -0.263891 4.462070 0.009491
v -0.261156 4.462498 0.018617
v -0.256714 4.463193 0.027028
v -0.250737 4.464128 0.034400
v -0.243454 4.465268 0.040450
v -0.235144 4.466568 0.044945
v -0.226128 4.467979 0.047713
v -0.216751 4.469446 0.048648
v -0.207375 4.470913 0.047713
v -0.198358 4.472324 0.044945
v -0.190049 4.473624 0.040450
v -0.182766 4.474763 0.034400
v -0.176789 4.475699 0.027028
v -0.172347 4.476394 0.018617
v -0.169612 4.476821 0.009491
v -0.168689 4.476966 0.000001
v -0.169612 4.476821 -0.009490
v -0.172347 4.476394 -0.018616
v -0.176789 4.475699 -0.027027
v -0.182766 4.474763 -0.034399
v -0.190049 4.473624 -0.040448
v -0.198358 4.472324 -0.044944
v -0.207375 4.470913 -0.047712
v -0.225918 4.503827 -0.055916
v -0.220857 4.504618 -0.056421
v -0.230783 4.503065 -0.054422
v -0.235268 4.502363 -0.051996
v -0.239198 4.501748 -0.048731
v -0.242424 4.501244 -0.044753
v -0.244821 4.500869 -0.040214
v -0.246297 4.500638 -0.035290
v -0.246795 4.500560 -0.030168
v -0.246297 4.500638 -0.025046
v -0.244821 4.500869 -0.020121
v -0.242424 4.501244 -0.015582
v -0.239198 4.501748 -0.011604
v -0.235268 4.502363 -0.008339
v -0.230783 4.503065 -0.005913
v -0.225918 4.503827 -0.004419
v -0.220857 4.504618 -0.003915
v -0.215797 4.505410 -0.004419
v -0.210932 4.506171 -0.005913
v -0.206447 4.506873 -0.008339
v -0.202517 4.507487 -0.011604
v -0.199291 4.507993 -0.015582
v -0.196894 4.508367 -0.020121
v -0.195418 4.508598 -0.025046
v -0.194920 4.508676 -0.030168
v -0.195418 4.508598 -0.035290
v -0.196894 4.508367 -0.040214
v -0.199291 4.507993 -0.044753
v -0.202517 4.507487 -0.048731
v -0.206447 4.506873 -0.051996
v -0.210932 4.506171 -0.054422
v -0.215797 4.505410 -0.055916
vn -0.1492 -0.9719 -0.1818
vn 0.0683 -0.9719 -0.2251
vn 0.0683 -0.9719 0.2251
vn -0.1818 -0.9719 -0.1492
vn 0.0231 -0.9719 -0.2341
vn 0.1109 -0.9719 0.2075
vn -0.2075 -0.9719 -0.1109
vn 0.1492 -0.9719 0.1818
vn -0.2251 -0.9719 -0.0683
vn 0.1818 -0.9719 0.1492
vn -0.2341 -0.9719 -0.0231
vn 0.2075 -0.9719 0.1109
vn -0.2341 -0.9719 0.0231
vn 0.2251 -0.9719 0.0683
vn -0.2251 -0.9719 0.0683
vn 0.2341 -0.9719 0.0231
vn -0.2075 -0.9719 0.1109
vn 0.2341 -0.9719 -0.0231
vn -0.1818 -0.9719 0.1492
vn 0.2251 -0.9719 -0.0683
vn -0.1492 -0.9719 0.1818
vn 0.2075 -0.9719 -0.1109
vn -0.1109 -0.9719 0.2075
vn -0.0231 -0.9719 -0.2341
vn 0.1818 -0.9719 -0.1492
vn -0.0683 -0.9719 0.2251
vn -0.0683 -0.9719 -0.2251
vn 0.1492 -0.9719 -0.1818
vn -0.0231 -0.9719 0.2341
vn -0.1109 -0.9719 -0.2075
vn 0.1109 -0.9719 -0.2075
vn 0.0231 -0.9719 0.2341
vn -0.0000 -1.0000 -0.0000
vn 0.8819 0.0003 0.4714
vn -0.9952 0.0004 0.0980
vn 0.9570 0.0004 0.2903
vn -0.9569 0.0003 0.2903
vn 0.9952 0.0004 0.0980
vn -0.8819 0.0003 0.4714
vn 0.9952 0.0004 -0.0980
vn -0.7730 0.0002 0.6343
vn 0.9570 0.0004 -0.2903
vn -0.6344 0.0002 0.7730
vn 0.8819 0.0003 -0.4714
vn -0.4714 0.0001 0.8819
vn -0.0980 -0.0000 -0.9952
vn 0.7730 0.0002 -0.6343
vn -0.2903 -0.0000 0.9569
vn -0.2903 -0.0000 -0.9569
vn 0.6344 0.0002 -0.7730
vn -0.0980 -0.0000 0.9952
vn -0.4714 0.0001 -0.8819
vn 0.4714 0.0001 -0.8819
vn 0.0980 -0.0000 0.9952
vn -0.6344 0.0002 -0.7730
vn 0.2903 -0.0000 -0.9569
vn 0.2903 -0.0000 0.9569
vn -0.7730 0.0002 -0.6343
vn 0.0980 -0.0000 -0.9952
vn 0.4714 0.0001 0.8819
vn -0.8819 0.0003 -0.4714
vn 0.6344 0.0002 0.7730
vn -0.9569 0.0003 -0.2903
vn 0.7730 0.0002 0.6343
vn -0.9952 0.0004 -0.0980
vn 0.9540 0.0792 0.2893
vn -0.9441 0.1640 0.2860
vn 0.9922 0.0775 0.0977
vn -0.8708 0.1606 0.4647
vn 0.9922 0.0775 -0.0977
vn -0.7641 0.1558 0.6261
vn 0.9540 0.0792 -0.2893
vn -0.6279 0.1496 0.7638
vn 0.8790 0.0824 -0.4697
vn -0.4673 0.1423 0.8726
vn -0.0979 0.1257 -0.9872
vn 0.7701 0.0872 -0.6319
vn -0.2884 0.1342 0.9481
vn -0.2884 0.1342 -0.9481
vn 0.6316 0.0933 -0.7696
vn -0.0979 0.1257 0.9872
vn -0.4673 0.1423 -0.8726
vn 0.4689 0.1004 -0.8775
vn 0.0969 0.1169 0.9884
vn -0.6279 0.1496 -0.7638
vn 0.2883 0.1084 -0.9514
vn 0.2883 0.1084 0.9514
vn -0.7641 0.1558 -0.6261
vn 0.0969 0.1169 -0.9884
vn 0.4689 0.1004 0.8775
vn -0.8708 0.1606 -0.4647
vn 0.6316 0.0933 0.7696
vn -0.9441 0.1640 -0.2860
vn 0.7701 0.0872 0.6319
vn -0.9814 0.1657 -0.0965
vn 0.8790 0.0824 0.4697
vn -0.9814 0.1657 0.0965
vn 0.9237 0.2561 -0.2848
vn -0.6361 0.0148 0.7714
vn 0.8518 0.2450 -0.4631
vn -0.4744 0.0400 0.8794
vn -0.1047 0.0974 -0.9897
vn 0.7469 0.2289 -0.6243
vn -0.2948 0.0679 0.9531
vn -0.2948 0.0679 -0.9531
vn 0.6128 0.2083 -0.7623
vn -0.1047 0.0974 0.9897
vn -0.4744 0.0400 -0.8794
vn 0.4544 0.1838 -0.8716
vn 0.0886 0.1273 0.9879
vn -0.6361 0.0148 -0.7714
vn 0.2774 0.1565 -0.9479
vn 0.2774 0.1565 0.9479
vn -0.7738 -0.0067 -0.6334
vn 0.0886 0.1273 -0.9879
vn 0.4544 0.1838 0.8716
vn -0.8819 -0.0235 -0.4708
vn 0.6128 0.2083 0.7623
vn -0.9564 -0.0352 -0.2900
vn 0.7469 0.2289 0.6243
vn -0.9943 -0.0411 -0.0979
vn 0.8518 0.2450 0.4631
vn -0.9943 -0.0411 0.0979
vn 0.9237 0.2561 0.2848
vn -0.9564 -0.0352 0.2900
vn 0.9603 0.2617 0.0961
vn -0.8819 -0.0235 0.4708
vn 0.9603 0.2617 -0.0961
vn -0.7738 -0.0067 0.6334
vn -0.2559 -0.2142 -0.9427
vn -0.1546 0.9880 -0.0000
vn 0.6342 0.0447 -0.7719
vn -0.1823 0.8105 0.5566
vn -0.4473 -0.1744 -0.8772
vn 0.4827 -0.0653 -0.8734
vn -0.0735 0.8262 0.5586
vn -0.6261 -0.1025 -0.7730
vn 0.3113 -0.1473 -0.9388
vn 0.0372 0.8361 0.5473
vn -0.7766 -0.0018 -0.6299
vn 0.1281 -0.1998 -0.9714
vn 0.1508 0.8398 0.5216
vn -0.8820 0.1188 -0.4560
vn 0.2676 0.8357 0.4796
vn -0.9316 0.2459 -0.2677
vn 0.3873 0.8216 0.4182
vn -0.9267 0.3662 -0.0846
vn 0.5077 0.7942 0.3338
vn -0.8787 0.4710 0.0783
vn 0.6245 0.7487 0.2223
vn -0.8020 0.5577 0.2142
vn 0.7286 0.6801 0.0813
vn -0.7088 0.6274 0.3225
vn 0.8068 0.5843 -0.0874
vn -0.6075 0.6827 0.4059
vn 0.8433 0.4621 -0.2744
vn -0.5026 0.7267 0.4682
vn 0.8261 0.3216 -0.4628
vn -0.3965 0.7616 0.5126
vn -0.0622 -0.2223 -0.9730
vn 0.7533 0.1773 -0.6333
vn -0.2898 0.7892 0.5415
vt 0.000000 0.000000
s 0
usemtl Material.001
f 5/1/1 4/1/1 36/1/1 37/1/1
f 32/1/2 31/1/2 63/1/2 64/1/2
f 19/1/3 18/1/3 50/1/3 51/1/3
f 6/1/4 5/1/4 37/1/4 38/1/4
f 1/1/5 32/1/5 64/1/5 33/1/5
f 20/1/6 19/1/6 51/1/6 52/1/6
f 7/1/7 6/1/7 38/1/7 39/1/7
f 21/1/8 20/1/8 52/1/8 53/1/8
f 8/1/9 7/1/9 39/1/9 40/1/9
f 22/1/10 21/1/10 53/1/10 54/1/10
f 9/1/11 8/1/11 40/1/11 41/1/11
f 23/1/12 22/1/12 54/1/12 55/1/12
f 10/1/13 9/1/13 41/1/13 42/1/13
f 24/1/14 23/1/14 55/1/14 56/1/14
f 11/1/15 10/1/15 42/1/15 43/1/15
f 25/1/16 24/1/16 56/1/16 57/1/16
f 12/1/17 11/1/17 43/1/17 44/1/17
f 26/1/18 25/1/18 57/1/18 58/1/18
f 13/1/19 12/1/19 44/1/19 45/1/19
f 27/1/20 26/1/20 58/1/20 59/1/20
f 14/1/21 13/1/21 45/1/21 46/1/21
f 28/1/22 27/1/22 59/1/22 60/1/22
f 15/1/23 14/1/23 46/1/23 47/1/23
f 2/1/24 1/1/24 33/1/24 34/1/24
f 29/1/25 28/1/25 60/1/25 61/1/25
f 16/1/26 15/1/26 47/1/26 48/1/26
f 3/1/27 2/1/27 34/1/27 35/1/27
f 30/1/28 29/1/28 61/1/28 62/1/28
f 17/1/29 16/1/29 48/1/29 49/1/29
f 4/1/30 3/1/30 35/1/30 36/1/30
f 31/1/31 30/1/31 62/1/31 63/1/31
f 18/1/32 17/1/32 49/1/32 50/1/32
f 34/1/33 33/1/33 64/1/33 63/1/33 62/1/33 61/1/33 60/1/33 59/1/33 58/1/33 57/1/33 56/1/33 55/1/33 54/1/33 53/1/33 52/1/33 51/1/33 50/1/33 49/1/33 48/1/33 47/1/33 46/1/33 45/1/33 44/1/33 43/1/33 42/1/33 41/1/33 40/1/33 39/1/33 38/1/33 37/1/33 36/1/33 35/1/33
f 22/1/34 23/1/34 87/1/34 86/1/34
f 9/1/35 10/1/35 74/1/35 73/1/35
f 23/1/36 24/1/36 88/1/36 87/1/36
f 10/1/37 11/1/37 75/1/37 74/1/37
f 24/1/38 25/1/38 89/1/38 88/1/38
f 11/1/39 12/1/39 76/1/39 75/1/39
f 25/1/40 26/1/40 90/1/40 89/1/40
f 12/1/41 13/1/41 77/1/41 76/1/41
f 26/1/42 27/1/42 91/1/42 90/1/42
f 13/1/43 14/1/43 78/1/43 77/1/43
f 27/1/44 28/1/44 92/1/44 91/1/44
f 14/1/45 15/1/45 79/1/45 78/1/45
f 1/1/46 2/1/46 66/1/46 65/1/46
f 28/1/47 29/1/47 93/1/47 92/1/47
f 15/1/48 16/1/48 80/1/48 79/1/48
f 2/1/49 3/1/49 67/1/49 66/1/49
f 29/1/50 30/1/50 94/1/50 93/1/50
f 16/1/51 17/1/51 81/1/51 80/1/51
f 3/1/52 4/1/52 68/1/52 67/1/52
f 30/1/53 31/1/53 95/1/53 94/1/53
f 17/1/54 18/1/54 82/1/54 81/1/54
f 4/1/55 5/1/55 69/1/55 68/1/55
f 31/1/56 32/1/56 96/1/56 95/1/56
f 18/1/57 19/1/57 83/1/57 82/1/57
f 5/1/58 6/1/58 70/1/58 69/1/58
f 32/1/59 1/1/59 65/1/59 96/1/59
f 19/1/60 20/1/60 84/1/60 83/1/60
f 6/1/61 7/1/61 71/1/61 70/1/61
f 20/1/62 21/1/62 85/1/62 84/1/62
f 7/1/63 8/1/63 72/1/63 71/1/63
f 21/1/64 22/1/64 86/1/64 85/1/64
f 8/1/65 9/1/65 73/1/65 72/1/65
f 87/1/66 88/1/66 120/1/66 119/1/66
f 74/1/67 75/1/67 107/1/67 106/1/67
f 88/1/68 89/1/68 121/1/68 120/1/68
f 75/1/69 76/1/69 108/1/69 107/1/69
f 89/1/70 90/1/70 122/1/70 121/1/70
f 76/1/71 77/1/71 109/1/71 108/1/71
f 90/1/72 91/1/72 123/1/72 122/1/72
f 77/1/73 78/1/73 110/1/73 109/1/73
f 91/1/74 92/1/74 124/1/74 123/1/74
f 78/1/75 79/1/75 111/1/75 110/1/75
f 65/1/76 66/1/76 97/1/76 98/1/76
f 92/1/77 93/1/77 125/1/77 124/1/77
f 79/1/78 80/1/78 112/1/78 111/1/78
f 66/1/79 67/1/79 99/1/79 97/1/79
f 93/1/80 94/1/80 126/1/80 125/1/80
f 80/1/81 81/1/81 113/1/81 112/1/81
f 67/1/82 68/1/82 100/1/82 99/1/82
f 94/1/83 95/1/83 127/1/83 126/1/83
f 81/1/84 82/1/84 114/1/84 113/1/84
f 68/1/85 69/1/85 101/1/85 100/1/85
f 95/1/86 96/1/86 128/1/86 127/1/86
f 82/1/87 83/1/87 115/1/87 114/1/87
f 69/1/88 70/1/88 102/1/88 101/1/88
f 96/1/89 65/1/89 98/1/89 128/1/89
f 83/1/90 84/1/90 116/1/90 115/1/90
f 70/1/91 71/1/91 103/1/91 102/1/91
f 84/1/92 85/1/92 117/1/92 116/1/92
f 71/1/93 72/1/93 104/1/93 103/1/93
f 85/1/94 86/1/94 118/1/94 117/1/94
f 72/1/95 73/1/95 105/1/95 104/1/95
f 86/1/96 87/1/96 119/1/96 118/1/96
f 73/1/97 74/1/97 106/1/97 105/1/97
f 122/1/98 123/1/98 155/1/98 154/1/98
f 109/1/99 110/1/99 142/1/99 141/1/99
f 123/1/100 124/1/100 156/1/100 155/1/100
f 110/1/101 111/1/101 143/1/101 142/1/101
f 98/1/102 97/1/102 129/1/102 130/1/102
f 124/1/103 125/1/103 157/1/103 156/1/103
f 111/1/104 112/1/104 144/1/104 143/1/104
f 97/1/105 99/1/105 131/1/105 129/1/105
f 125/1/106 126/1/106 158/1/106 157/1/106
f 112/1/107 113/1/107 145/1/107 144/1/107
f 99/1/108 100/1/108 132/1/108 131/1/108
f 126/1/109 127/1/109 159/1/109 158/1/109
f 113/1/110 114/1/110 146/1/110 145/1/110
f 100/1/111 101/1/111 133/1/111 132/1/111
f 127/1/112 128/1/112 160/1/112 159/1/112
f 114/1/113 115/1/113 147/1/113 146/1/113
f 101/1/114 102/1/114 134/1/114 133/1/114
f 128/1/115 98/1/115 130/1/115 160/1/115
f 115/1/116 116/1/116 148/1/116 147/1/116
f 102/1/117 103/1/117 135/1/117 134/1/117
f 116/1/118 117/1/118 149/1/118 148/1/118
f 103/1/119 104/1/119 136/1/119 135/1/119
f 117/1/120 118/1/120 150/1/120 149/1/120
f 104/1/121 105/1/121 137/1/121 136/1/121
f 118/1/122 119/1/122 151/1/122 150/1/122
f 105/1/123 106/1/123 138/1/123 137/1/123
f 119/1/124 120/1/124 152/1/124 151/1/124
f 106/1/125 107/1/125 139/1/125 138/1/125
f 120/1/126 121/1/126 153/1/126 152/1/126
f 107/1/127 108/1/127 140/1/127 139/1/127
f 121/1/128 122/1/128 154/1/128 153/1/128
f 108/1/129 109/1/129 141/1/129 140/1/129
f 129/1/130 131/1/130 163/1/130 161/1/130
f 161/1/131 163/1/131 164/1/131 165/1/131 166/1/131 167/1/131 168/1/131 169/1/131 170/1/131 171/1/131 172/1/131 173/1/131 174/1/131 175/1/131 176/1/131 177/1/131 178/1/131 179/1/131 180/1/131 181/1/131 182/1/131 183/1/131 184/1/131 185/1/131 186/1/131 187/1/131 188/1/131 189/1/131 190/1/131 191/1/131 192/1/131 162/1/131
f 157/1/132 158/1/132 190/1/132 189/1/132
f 144/1/133 145/1/133 177/1/133 176/1/133
f 131/1/134 132/1/134 164/1/134 163/1/134
f 158/1/135 159/1/135 191/1/135 190/1/135
f 145/1/136 146/1/136 178/1/136 177/1/136
f 132/1/137 133/1/137 165/1/137 164/1/137
f 159/1/138 160/1/138 192/1/138 191/1/138
f 146/1/139 147/1/139 179/1/139 178/1/139
f 133/1/140 134/1/140 166/1/140 165/1/140
f 160/1/141 130/1/141 162/1/141 192/1/141
f 147/1/142 148/1/142 180/1/142 179/1/142
f 134/1/143 135/1/143 167/1/143 166/1/143
f 148/1/144 149/1/144 181/1/144 180/1/144
f 135/1/145 136/1/145 168/1/145 167/1/145
f 149/1/146 150/1/146 182/1/146 181/1/146
f 136/1/147 137/1/147 169/1/147 168/1/147
f 150/1/148 151/1/148 183/1/148 182/1/148
f 137/1/149 138/1/149 170/1/149 169/1/149
f 151/1/150 152/1/150 184/1/150 183/1/150
f 138/1/151 139/1/151 171/1/151 170/1/151
f 152/1/152 153/1/152 185/1/152 184/1/152
f 139/1/153 140/1/153 172/1/153 171/1/153
f 153/1/154 154/1/154 186/1/154 185/1/154
f 140/1/155 141/1/155 173/1/155 172/1/155
f 154/1/156 155/1/156 187/1/156 186/1/156
f 141/1/157 142/1/157 174/1/157 173/1/157
f 155/1/158 156/1/158 188/1/158 187/1/158
f 142/1/159 143/1/159 175/1/159 174/1/159
f 130/1/160 129/1/160 161/1/160 162/1/160
f 156/1/161 157/1/161 189/1/161 188/1/161
f 143/1/162 144/1/162 176/1/162 175/1/162
o Sphere
v 0.002706 5.096217 0.163548
v -0.002837 4.273647 -0.581540
v -0.024253 3.507178 -0.983555
v -0.035830 3.046644 -1.204354
v -0.036380 2.808511 -1.245081
v -0.033860 2.572807 -1.237160
v -0.019068 2.146655 -1.077920
v -0.003351 1.549413 -0.089465
v 0.048069 5.028372 -0.077974
v 0.091246 4.703713 -0.328720
v 0.130813 4.272540 -0.569223
v 0.159144 3.847431 -0.785636
v 0.175769 3.505521 -0.965122
v 0.190020 3.276215 -1.096061
v 0.200112 3.044690 -1.182609
v 0.204184 2.806518 -1.222911
v 0.202082 2.570853 -1.215416
v 0.195028 2.349130 -1.159835
v 0.180954 2.144999 -1.059486
v 0.158329 1.962000 -0.919273
v 0.126334 1.803653 -0.745436
v 0.086075 1.675785 -0.544719
v 0.042197 1.589754 -0.323269
v 0.093252 5.027341 -0.064599
v 0.179876 4.701690 -0.302485
v 0.259483 4.269603 -0.531135
v 0.323574 3.845074 -0.736823
v 0.369862 3.504298 -0.907348
v 0.406214 3.275954 -1.031599
v 0.429952 3.045101 -1.114010
v 0.438573 2.807032 -1.152945
v 0.431628 2.570653 -1.146965
v 0.410741 2.347870 -1.095616
v 0.374605 2.142855 -1.001936
v 0.322607 1.959328 -0.870537
v 0.255096 1.800908 -0.707301
v 0.174704 1.673762 -0.518483
v 0.087380 1.588723 -0.309894
v 0.134950 5.025707 -0.042689
v 0.261669 4.698484 -0.259506
v 0.378228 4.264949 -0.468739
v 0.476433 3.842739 -0.656537
v 0.551565 3.505642 -0.811952
v 0.609269 3.279841 -0.925014
v 0.645996 3.050229 -1.000617
v 0.658923 2.812412 -1.037293
v 0.647217 2.574833 -1.033802
v 0.612690 2.349455 -0.989590
v 0.555124 2.141725 -0.907136
v 0.475030 1.956086 -0.790470
v 0.373997 1.796579 -0.644826
v 0.256497 1.670557 -0.475504
v 0.129077 1.587089 -0.287984
v 0.171560 5.023532 -0.013084
v 0.333482 4.694220 -0.201435
v 0.482484 4.258758 -0.384433
v 0.610710 3.842635 -0.548804
v 0.711340 3.515971 -0.684857
v 0.788464 3.290641 -0.782616
v 0.837268 3.058017 -0.848443
v 0.854272 2.818474 -0.881760
v 0.838452 2.578843 -0.881342
v 0.791569 2.350610 -0.846612
v 0.714561 2.139540 -0.779243
v 0.609133 1.951137 -0.682457
v 0.478269 1.790417 -0.560513
v 0.328311 1.666292 -0.417433
v 0.165687 1.584915 -0.258379
v 0.201676 5.020902 0.023076
v 0.392556 4.689059 -0.130503
v 0.568246 4.251266 -0.281457
v 0.719371 3.849234 -0.419399
v 0.840682 3.537319 -0.532748
v 0.933394 3.314822 -0.612818
v 0.992030 3.078725 -0.667167
v 1.012534 2.835708 -0.696298
v 0.994372 2.587596 -0.698301
v 0.938461 2.349681 -0.673427
v 0.845533 2.133776 -0.623805
v 0.718953 1.942986 -0.551057
v 0.564031 1.782925 -0.457537
v 0.387384 1.661131 -0.346502
v 0.195803 1.582284 -0.222219
v 0.224139 5.017915 0.064403
v 0.436620 4.683201 -0.049438
v 0.632151 4.243181 -0.163848
v 0.798043 3.857636 -0.273046
v 0.933992 3.561606 -0.361296
v 1.037826 3.343620 -0.421952
v 1.103170 3.107491 -0.464210
v 1.126120 2.860592 -0.488818
v 1.106634 2.603615 -0.493540
v 1.044810 2.353038 -0.479176
v 0.941588 2.124644 -0.447754
v 0.800373 1.932161 -0.401268
v 0.628002 1.774420 -0.339848
v 0.431449 1.655273 -0.265436
v 0.218267 1.579297 -0.180892
v 0.238088 5.014688 0.109308
v 0.463981 4.676871 0.038646
v 0.671498 4.236352 -0.036416
v 0.845515 3.865378 -0.113969
v 0.988428 3.581337 -0.176050
v 1.098368 3.367782 -0.216264
v 1.167406 3.133457 -0.245903
v 1.191917 2.883078 -0.265702
v 1.172286 2.617911 -0.273317
v 1.107911 2.356684 -0.270073
v 0.999823 2.118540 -0.257819
v 0.850930 1.920468 -0.238510
v 0.667724 1.765230 -0.211969
v 0.458810 1.648943 -0.177352
v 0.232215 1.576070 -0.135987
v 0.242985 5.011344 0.156065
v 0.473588 4.670311 0.130365
v 0.685044 4.229360 0.096259
v 0.860940 3.867918 0.052728
v 1.005208 3.592875 0.018345
v 1.116631 3.383010 -0.000720
v 1.186605 3.150813 -0.017308
v 1.211984 2.897676 -0.032041
v 1.192990 2.625782 -0.042925
v 1.128560 2.356880 -0.051682
v 1.019480 2.111946 -0.059989
v 0.868554 1.909150 -0.069188
v 0.681671 1.755708 -0.078815
v 0.468417 1.642383 -0.085634
v 0.237113 1.572726 -0.089230
v 0.238644 5.008012 0.202879
v 0.465071 4.663775 0.222192
v 0.672513 4.220917 0.229374
v 0.844335 3.861308 0.221368
v 0.985113 3.588696 0.215964
v 1.094035 3.380052 0.218543
v 1.162503 3.148388 0.215325
v 1.187703 2.893360 0.205498
v 1.169631 2.618677 0.190594
v 1.107004 2.347366 0.168823
v 1.000479 2.100872 0.138935
v 0.852722 1.897667 0.100375
v 0.669307 1.746219 0.054498
v 0.459900 1.635847 0.006194
v 0.232771 1.569394 -0.042416
v 0.225229 5.004820 0.247949
v 0.438758 4.657514 0.310600
v 0.634313 4.211826 0.357723
v 0.795715 3.849738 0.384725
v 0.927942 3.575091 0.408051
v 1.030509 3.364935 0.431979
v 1.095065 3.132340 0.441907
v 1.118943 2.876998 0.436520
v 1.102193 2.602629 0.417176
v 1.043479 2.332248 0.382259
v 0.943308 2.087267 0.331023
v 0.804102 1.886097 0.263731
v 0.631106 1.737128 0.182847
v 0.433587 1.629586 0.094602
v 0.219357 1.566202 0.002654
v 0.203258 5.001890 0.289543
v 0.395660 4.651767 0.392191
v 0.571909 4.202437 0.476372
v 0.716947 3.833652 0.536521
v 0.835891 3.552583 0.587225
v 0.928496 3.338240 0.631385
v 0.986881 3.103285 0.653732
v 1.008348 2.849217 0.652144
v 0.993267 2.578254 0.628114
v 0.940425 2.312110 0.580424
v 0.850163 2.071654 0.508890
v 0.724561 1.874884 0.414604
v 0.568537 1.728786 0.301298
v 0.390488 1.623839 0.176193
v 0.197385 1.563272 0.044248
v 0.173574 4.999336 0.326064
v 0.337432 4.646756 0.463830
v 0.487778 4.192633 0.580854
v 0.611684 3.809734 0.671668
v 0.713472 3.515906 0.747760
v 0.792853 3.295079 0.810219
v 0.843073 3.056276 0.843806
v 0.861229 2.804385 0.845356
v 0.847953 2.540730 0.816392
v 0.802396 2.283982 0.756410
v 0.724866 2.053109 0.665992
v 0.617099 1.864824 0.547127
v 0.484004 1.721511 0.405301
v 0.332261 1.618828 0.247831
v 0.167701 1.560718 0.080769
v 0.137318 4.997254 0.356108
v 0.266314 4.642673 0.522762
v 0.384905 4.184345 0.666859
v 0.483359 3.782752 0.784243
v 0.564190 3.474023 0.882058
v 0.627233 3.246945 0.959745
v 0.667298 3.004885 1.002597
v 0.681460 2.755459 1.006600
v 0.670434 2.500327 0.973102
v 0.633693 2.255275 0.902257
v 0.571559 2.036589 0.795486
v 0.485690 1.857277 0.656021
v 0.380756 1.715584 0.490858
v 0.261143 1.614745 0.306764
v 0.131446 1.558637 0.110813
v 0.095884 4.995727 0.378520
v 0.185037 4.639676 0.566725
v 0.266976 4.179573 0.730762
v 0.336156 3.758461 0.869027
v 0.392617 3.435882 0.983567
v 0.436621 3.204379 1.072572
v 0.464661 2.961485 1.122034
v 0.474257 2.714972 1.127665
v 0.465998 2.468264 1.090392
v 0.439570 2.234833 1.010893
v 0.395317 2.027866 0.891424
v 0.335510 1.851738 0.737253
v 0.262761 1.711233 0.554682
v 0.179866 1.611748 0.350727
v 0.090011 1.557109 0.133225
v 0.050863 4.994811 0.392438
v 0.096726 4.637880 0.594028
v 0.138768 4.176965 0.770399
v 0.175025 3.742239 0.921919
v 0.204380 3.409044 1.047233
v 0.227216 3.176110 1.143019
v 0.241542 2.936621 1.195846
v 0.246187 2.693269 1.202231
v 0.241165 2.454199 1.162158
v 0.226682 2.228509 1.077183
v 0.203440 2.023962 0.950745
v 0.172332 1.848418 0.787702
v 0.134553 1.708624 0.594319
v 0.091555 1.609951 0.378029
v 0.044990 1.556193 0.147143
v 0.003986 4.994542 0.397329
v 0.004774 4.637352 0.603621
v 0.005274 4.176199 0.784327
v 0.005654 3.737894 0.940284
v 0.006000 3.399021 1.069758
v 0.006296 3.168078 1.167460
v 0.006318 2.932485 1.220961
v 0.006048 2.690981 1.227473
v 0.005499 2.452848 1.186746
v 0.004689 2.227236 1.100345
v 0.003652 2.022816 0.971589
v 0.002426 1.847444 0.805429
v 0.001058 1.707858 0.608247
v -0.000398 1.609424 0.387623
v -0.001887 1.555924 0.152034
v -0.042946 4.994930 0.393004
v -0.087286 4.638115 0.595137
v -0.128376 4.177306 0.772010
v -0.164450 3.739303 0.924608
v -0.192608 3.399847 1.051483
v -0.213414 3.168443 1.147258
v -0.227437 2.933170 1.199459
v -0.233238 2.692232 1.205444
v -0.229612 2.454320 1.165094
v -0.217491 2.229035 1.079870
v -0.196370 2.024473 0.953156
v -0.167679 1.848853 0.789752
v -0.132592 1.708965 0.595930
v -0.092457 1.610187 0.379139
v -0.048818 1.556312 0.147709
v -0.088128 4.995962 0.379629
v -0.175916 4.640138 0.568901
v -0.257046 4.180243 0.733921
v -0.326853 3.742249 0.876281
v -0.372200 3.396711 0.995913
v -0.409470 3.162930 1.085899
v -0.435741 2.927417 1.134300
v -0.447272 2.687323 1.138827
v -0.441239 2.450495 1.099568
v -0.421446 2.228106 1.017638
v -0.385702 2.026990 0.896510
v -0.331444 1.852591 0.741275
v -0.261261 1.711902 0.557841
v -0.181087 1.612209 0.352903
v -0.094001 1.557344 0.134334
v -0.129826 4.997596 0.357719
v -0.257708 4.643343 0.525922
v -0.375791 4.184896 0.671525
v -0.470527 3.743844 0.797690
v -0.527701 3.390784 0.904984
v -0.577119 3.153364 0.985431
v -0.612770 2.916712 1.027750
v -0.628431 2.676793 1.030115
v -0.621063 2.441413 0.992709
v -0.596475 2.222824 0.916355
v -0.550680 2.026563 0.804534
v -0.479342 1.856635 0.662217
v -0.380006 1.716556 0.495445
v -0.262880 1.615415 0.309924
v -0.135699 1.558978 0.112424
v -0.166436 4.999770 0.328114
v -0.329522 4.647609 0.467851
v -0.480047 4.191089 0.587219
v -0.593082 3.745840 0.691509
v -0.659094 3.385751 0.781533
v -0.717045 3.144249 0.848931
v -0.759467 2.905963 0.883045
v -0.777963 2.665812 0.882580
v -0.770197 2.432079 0.847735
v -0.743086 2.217589 0.779116
v -0.690160 2.026224 0.680190
v -0.605185 1.860541 0.555673
v -0.484191 1.722706 0.411147
v -0.334693 1.619680 0.251853
v -0.172309 1.561152 0.082819
v -0.196552 5.002401 0.291954
v -0.388595 4.652769 0.396920
v -0.565809 4.198581 0.484243
v -0.693851 3.750509 0.561372
v -0.768056 3.385711 0.629561
v -0.832493 3.140940 0.680689
v -0.879684 2.901092 0.704700
v -0.900182 2.660640 0.700780
v -0.892631 2.428493 0.669145
v -0.863912 2.217401 0.610281
v -0.804877 2.029524 0.527582
v -0.708072 1.866439 0.425301
v -0.569194 1.729758 0.308255
v -0.393767 1.624841 0.180922
v -0.202424 1.563783 0.046659
v -0.219015 5.005387 0.250627
v -0.432660 4.658628 0.315855
v -0.629781 4.207086 0.366555
v -0.772044 3.759461 0.411939
v -0.856383 3.394137 0.454246
v -0.928070 3.148812 0.486174
v -0.979541 2.908516 0.498380
v -1.001773 2.668081 0.490443
v -0.993914 2.436746 0.462668
v -0.961824 2.226629 0.415507
v -0.895355 2.039198 0.352029
v -0.787003 1.875819 0.275787
v -0.632719 1.738004 0.190616
v -0.437831 1.630699 0.099856
v -0.224888 1.566770 0.005332
v -0.232964 5.008615 0.205722
v -0.460021 4.664958 0.227770
v -0.669503 4.216276 0.238676
v -0.822601 3.771158 0.249180
v -0.915832 3.407891 0.262862
v -0.994125 3.164095 0.273519
v -1.049665 2.924740 0.272628
v -1.073271 2.684623 0.260268
v -1.064039 2.452970 0.236915
v -1.027880 2.241911 0.202852
v -0.954804 2.052952 0.160646
v -0.837560 1.887516 0.113028
v -0.672441 1.747194 0.062737
v -0.465192 1.637029 0.011772
v -0.238837 1.569997 -0.039573
v -0.237861 5.011959 0.158965
v -0.469628 4.671517 0.136052
v -0.683450 4.225798 0.105522
v -0.843579 3.785150 0.079350
v -0.944118 3.426444 0.062764
v -1.028122 3.186200 0.050898
v -1.087363 2.949140 0.036117
v -1.111930 2.709629 0.019099
v -1.100310 2.476542 0.000562
v -1.059542 2.262662 -0.019511
v -0.980939 2.070257 -0.039215
v -0.857800 1.901080 -0.056720
v -0.686835 1.756976 -0.070466
v -0.474799 1.643589 -0.079946
v -0.243734 1.573341 -0.086330
v -0.233520 5.015291 0.112151
v -0.461111 4.678053 0.044224
v -0.671085 4.235287 -0.027791
v -0.836228 3.802094 -0.091251
v -0.945002 3.451899 -0.138895
v -1.034729 3.217748 -0.173795
v -1.096718 2.983989 -0.202674
v -1.121822 2.745367 -0.224409
v -1.107449 2.510105 -0.237984
v -1.060771 2.291088 -0.243609
v -0.976069 2.092372 -0.240239
v -0.848330 1.916794 -0.227088
v -0.675229 1.766904 -0.203863
v -0.466282 1.650125 -0.171774
v -0.239392 1.576673 -0.133144
v -0.220105 5.018483 0.067081
v -0.434798 4.684315 -0.044184
v -0.632884 4.244378 -0.156140
v -0.797746 3.819548 -0.255728
v -0.912469 3.479803 -0.333704
v -1.004651 3.252277 -0.390925
v -1.066635 3.021718 -0.433383
v -1.091187 2.783856 -0.459642
v -1.074928 2.546419 -0.468424
v -1.024007 2.321737 -0.460001
v -0.935448 2.115582 -0.434154
v -0.806560 1.932340 -0.391201
v -0.637100 1.776037 -0.332220
v -0.439969 1.656386 -0.260182
v -0.225978 1.579865 -0.178214
v -0.198134 5.021412 0.025487
v -0.391699 4.690062 -0.125774
v -0.570315 4.252721 -0.274591
v -0.725570 3.834496 -0.407313
v -0.841435 3.504363 -0.513632
v -0.931135 3.281965 -0.591559
v -0.989399 3.054073 -0.646409
v -1.011526 2.816980 -0.676642
v -0.994515 2.577945 -0.680948
v -0.942419 2.348581 -0.659470
v -0.854543 2.135460 -0.612836
v -0.730161 1.944837 -0.542319
v -0.574531 1.784380 -0.450671
v -0.396871 1.662133 -0.341773
v -0.204007 1.582795 -0.219808
v -0.168450 5.023967 -0.011034
v -0.333472 4.695072 -0.197413
v -0.485783 4.259995 -0.378594
v -0.619623 3.843963 -0.539975
v -0.730494 3.517384 -0.672028
v -0.812029 3.297072 -0.768283
v -0.862767 3.070047 -0.833990
v -0.880457 2.832950 -0.867560
v -0.863944 2.593272 -0.867851
v -0.813913 2.362225 -0.834563
v -0.731933 2.146841 -0.769181
v -0.622571 1.954096 -0.674689
v -0.489998 1.791654 -0.554674
v -0.338644 1.667144 -0.413411
v -0.174323 1.585349 -0.256329
v -0.132194 5.026048 -0.041078
v -0.262354 4.699155 -0.256346
v -0.382535 4.265923 -0.464151
v -0.489748 3.848314 -0.649644
v -0.581926 3.517627 -0.802523
v -0.648951 3.295770 -0.913909
v -0.689343 3.067929 -0.988636
v -0.702569 2.830475 -1.025073
v -0.688624 2.591491 -1.022074
v -0.646906 2.362523 -0.979179
v -0.580032 2.150261 -0.898550
v -0.491828 1.960255 -0.783919
v -0.386750 1.797581 -0.640231
v -0.267525 1.671226 -0.472344
v -0.138067 1.587430 -0.286373
v -0.090760 5.027576 -0.063490
v -0.181077 4.702152 -0.300308
v -0.264539 4.270274 -0.527974
v -0.341655 3.849514 -0.731930
v -0.410403 3.513597 -0.900603
v -0.459614 3.288693 -1.023520
v -0.488723 3.059626 -1.105190
v -0.498027 2.821994 -1.143915
v -0.487503 2.584231 -1.138375
v -0.456193 2.358307 -1.088096
v -0.406845 2.149692 -0.995789
v -0.343058 1.962862 -0.865863
v -0.268770 1.801902 -0.704062
v -0.186249 1.674224 -0.516306
v -0.096632 1.588958 -0.308785
v -0.045739 5.028492 -0.077408
v -0.092766 4.703949 -0.327611
v -0.136331 4.272882 -0.567612
v -0.180202 3.849246 -0.783250
v -0.222515 3.509204 -0.961940
v -0.252001 3.281406 -1.092259
v -0.268805 3.050888 -1.178406
v -0.273873 2.812932 -1.218601
v -0.267129 2.576441 -1.211361
v -0.247474 2.353321 -1.156275
v -0.217773 2.147761 -1.056528
v -0.181169 1.963500 -0.916964
v -0.140718 1.804186 -0.743778
v -0.097937 1.676021 -0.543609
v -0.051612 1.589874 -0.322703
v 0.001138 5.028761 -0.082299
v -0.000814 4.704476 -0.337204
v -0.010960 3.848840 -0.801313
v -0.032231 3.278056 -1.116543
v -0.027224 2.350970 -1.180316
v -0.011775 1.963409 -0.934949
v -0.007315 1.804760 -0.757752
v -0.005985 1.676548 -0.553203
v -0.004735 1.590143 -0.327594
vn 0.0840 0.4913 -0.8669
vn 0.0786 -0.4442 -0.8925
vn 0.0854 0.4565 -0.8856
vn 0.0675 -0.6121 -0.7879
vn 0.0850 0.4664 -0.8805
vn 0.0553 -0.7432 -0.6668
vn 0.0837 0.4981 -0.8631
vn 0.0419 -0.8464 -0.5308
vn 0.0888 0.3522 -0.9317
vn 0.0252 -0.9335 -0.3577
vn 0.0918 0.1677 -0.9816
vn 0.0324 0.9638 -0.2647
vn 0.0074 -0.9857 -0.1686
vn 0.0915 -0.0325 -0.9953
vn 0.0774 0.6158 -0.7841
vn 0.0870 -0.2448 -0.9657
vn 0.2370 0.6134 -0.7534
vn 0.2764 -0.2412 -0.9303
vn 0.2579 0.4886 -0.8335
vn 0.2527 -0.4397 -0.8618
vn 0.2610 0.4521 -0.8529
vn 0.2182 -0.6093 -0.7623
vn 0.2573 0.4595 -0.8501
vn 0.1776 -0.7428 -0.6456
vn 0.2501 0.4925 -0.8336
vn 0.1335 -0.8476 -0.5136
vn 0.2679 0.3479 -0.8984
vn 0.0814 -0.9344 -0.3469
vn 0.2818 0.1648 -0.9452
vn 0.0967 0.9628 -0.2523
vn 0.0263 -0.9859 -0.1650
vn 0.2858 -0.0328 -0.9577
vn 0.4004 0.4882 -0.7755
vn 0.2199 -0.8497 -0.4792
vn 0.4308 0.3430 -0.8347
vn 0.1343 -0.9360 -0.3254
vn 0.4557 0.1598 -0.8757
vn 0.1573 0.9609 -0.2277
vn 0.0442 -0.9865 -0.1577
vn 0.4651 -0.0360 -0.8845
vn 0.3876 0.6088 -0.6922
vn 0.4539 -0.2392 -0.8584
vn 0.4219 0.4836 -0.7669
vn 0.4190 -0.4352 -0.7969
vn 0.4250 0.4472 -0.7870
vn 0.3637 -0.6057 -0.7077
vn 0.4154 0.4535 -0.7885
vn 0.2956 -0.7417 -0.6021
vn 0.6076 -0.2408 -0.7569
vn 0.5698 0.4764 -0.6696
vn 0.5626 -0.4328 -0.7044
vn 0.5689 0.4444 -0.6920
vn 0.4910 -0.6026 -0.6292
vn 0.5464 0.4538 -0.7039
vn 0.4006 -0.7407 -0.5393
vn 0.5259 0.4840 -0.6994
vn 0.2966 -0.8531 -0.4292
vn 0.5761 0.3348 -0.7457
vn 0.1820 -0.9383 -0.2940
vn 0.6121 0.1522 -0.7760
vn 0.2120 0.9583 -0.1917
vn 0.0603 -0.9873 -0.1471
vn 0.6232 -0.0423 -0.7809
vn 0.5233 0.6022 -0.6029
vn 0.3625 -0.8578 -0.3643
vn 0.6988 0.3237 -0.6379
vn 0.2227 -0.9412 -0.2539
vn 0.7456 0.1422 -0.6511
vn 0.2585 0.9549 -0.1458
vn 0.0741 -0.9883 -0.1336
vn 0.7617 -0.0510 -0.6459
vn 0.6390 0.5938 -0.4890
vn 0.7416 -0.2435 -0.6251
vn 0.6958 0.4673 -0.5455
vn 0.6839 -0.4331 -0.5871
vn 0.6871 0.4464 -0.5732
vn 0.5968 -0.6022 -0.5302
vn 0.6544 0.4614 -0.5991
vn 0.4888 -0.7428 -0.4575
vn 0.6326 0.4810 -0.6070
vn 0.7946 0.4569 -0.3998
vn 0.7899 -0.4287 -0.4384
vn 0.7857 0.4496 -0.4249
vn 0.6833 -0.6047 -0.4092
vn 0.7547 0.4709 -0.4568
vn 0.5580 -0.7489 -0.3574
vn 0.7382 0.4806 -0.4733
vn 0.4145 -0.8634 -0.2877
vn 0.8128 0.3138 -0.4908
vn 0.2547 -0.9447 -0.2067
vn 0.8624 0.1302 -0.4892
vn 0.2952 0.9510 -0.0917
vn 0.0849 -0.9894 -0.1176
vn 0.8779 -0.0591 -0.4751
vn 0.7301 0.5841 -0.3546
vn 0.8556 -0.2429 -0.4570
vn 0.9035 0.3042 -0.3019
vn 0.2769 -0.9485 -0.1542
vn 0.9491 0.1167 -0.2924
vn 0.3206 0.9467 -0.0316
vn 0.0924 -0.9907 -0.0999
vn 0.9582 -0.0652 -0.2787
vn 0.7932 0.5733 -0.2052
vn 0.9327 -0.2393 -0.2697
vn 0.8622 0.4462 -0.2396
vn 0.8683 -0.4183 -0.2666
vn 0.8550 0.4485 -0.2605
vn 0.7529 -0.6035 -0.2627
vn 0.8332 0.4743 -0.2844
vn 0.6064 -0.7572 -0.2428
vn 0.8263 0.4787 -0.2968
vn 0.4505 -0.8695 -0.2024
vn 0.9077 -0.4088 -0.0942
vn 0.8942 0.4404 -0.0800
vn 0.7946 -0.5971 -0.1098
vn 0.8785 0.4679 -0.0966
vn 0.6328 -0.7652 -0.1188
vn 0.8751 0.4723 -0.1056
vn 0.4691 -0.8760 -0.1118
vn 0.9506 0.2933 -0.1017
vn 0.2884 -0.9525 -0.0983
vn 0.9903 0.1044 -0.0913
vn 0.3338 0.9421 0.0324
vn 0.0963 -0.9921 -0.0810
vn 0.9941 -0.0686 -0.0840
vn 0.8259 0.5619 -0.0463
vn 0.9684 -0.2344 -0.0850
vn 0.8980 0.4350 -0.0664
vn 0.2887 -0.9565 -0.0413
vn 0.9902 0.0936 0.1032
vn 0.3342 0.9374 0.0977
vn 0.0964 -0.9934 -0.0618
vn 0.9925 -0.0720 0.0986
vn 0.8268 0.5504 0.1159
vn 0.9686 -0.2327 0.0873
vn 0.8992 0.4228 0.1123
vn 0.9116 -0.4053 0.0683
vn 0.8985 0.4256 0.1080
vn 0.8027 -0.5951 0.0394
vn 0.8854 0.4534 0.1021
vn 0.6351 -0.7724 0.0056
vn 0.8822 0.4606 0.0982
vn 0.4697 -0.8826 -0.0193
vn 0.9544 0.2805 0.1020
vn 0.7769 -0.6007 0.1887
vn 0.8540 0.4353 0.2850
vn 0.6125 -0.7802 0.1270
vn 0.8485 0.4465 0.2842
vn 0.4521 -0.8891 0.0716
vn 0.9182 0.2673 0.2922
vn 0.2779 -0.9605 0.0147
vn 0.9535 0.0831 0.2897
vn 0.3218 0.9329 0.1618
vn 0.0927 -0.9948 -0.0429
vn 0.9570 -0.0781 0.2793
vn 0.7961 0.5391 0.2751
vn 0.9356 -0.2370 0.2617
vn 0.8658 0.4102 0.2867
vn 0.8819 -0.4095 0.2335
vn 0.8668 0.4078 0.2869
vn 0.2971 0.9286 0.2223
vn 0.0854 -0.9960 -0.0250
vn 0.8901 -0.0875 0.4474
vn 0.7347 0.5285 0.4253
vn 0.8712 -0.2465 0.4246
vn 0.7989 0.3980 0.4510
vn 0.8204 -0.4200 0.3881
vn 0.8007 0.3900 0.4547
vn 0.7196 -0.6120 0.3280
vn 0.7872 0.4164 0.4549
vn 0.5653 -0.7889 0.2410
vn 0.7789 0.4312 0.4553
vn 0.4171 -0.8951 0.1573
vn 0.8466 0.2549 0.4673
vn 0.2563 -0.9642 0.0675
vn 0.8839 0.0724 0.4620
vn 0.6858 0.3977 0.6096
vn 0.4954 -0.7978 0.3436
vn 0.6741 0.4160 0.6104
vn 0.3660 -0.9006 0.2345
vn 0.7434 0.2439 0.6228
vn 0.2248 -0.9676 0.1151
vn 0.7878 0.0617 0.6128
vn 0.2610 0.9248 0.2768
vn 0.0748 -0.9972 -0.0089
vn 0.8000 -0.1011 0.5914
vn 0.6452 0.5189 0.5607
vn 0.7839 -0.2633 0.5623
vn 0.7010 0.3868 0.5991
vn 0.7336 -0.4393 0.5184
vn 0.7017 0.3730 0.6071
vn 0.6337 -0.6314 0.4469
vn 0.6765 -0.1192 0.7267
vn 0.5309 0.5109 0.6761
vn 0.6620 -0.2889 0.6916
vn 0.5767 0.3773 0.7246
vn 0.6110 -0.4694 0.6374
vn 0.5763 0.3583 0.7345
vn 0.5155 -0.6576 0.5493
vn 0.5595 0.3819 0.7356
vn 0.4052 -0.8051 0.4332
vn 0.5463 0.4034 0.7341
vn 0.3008 -0.9052 0.3003
vn 0.6128 0.2350 0.7545
vn 0.1847 -0.9704 0.1556
vn 0.6602 0.0509 0.7494
vn 0.2150 0.9215 0.3233
vn 0.0612 -0.9981 0.0048
vn 0.3019 -0.8099 0.5030
vn 0.4014 0.3942 0.8267
vn 0.2240 -0.9087 0.3522
vn 0.4578 0.2279 0.8594
vn 0.1373 -0.9726 0.1876
vn 0.4995 0.0407 0.8654
vn 0.1608 0.9190 0.3599
vn 0.0452 -0.9989 0.0155
vn 0.5145 -0.1391 0.8462
vn 0.3963 0.5047 0.7670
vn 0.4988 -0.3191 0.8058
vn 0.4311 0.3702 0.8229
vn 0.4476 -0.5044 0.7384
vn 0.4296 0.3466 0.8338
vn 0.3737 -0.6770 0.6341
vn 0.4137 0.3698 0.8319
vn 0.2464 0.5004 0.8300
vn 0.2969 -0.3454 0.8903
vn 0.2681 0.3655 0.8913
vn 0.2641 -0.5263 0.8082
vn 0.2666 0.3384 0.9024
vn 0.2281 -0.6840 0.6929
vn 0.2547 0.3614 0.8970
vn 0.1870 -0.8131 0.5513
vn 0.2456 0.3887 0.8880
vn 0.1385 -0.9111 0.3881
vn 0.2837 0.2227 0.9327
vn 0.0847 -0.9741 0.2097
vn 0.3092 0.0323 0.9504
vn 0.1005 0.9173 0.3853
vn 0.0275 -0.9994 0.0230
vn 0.3149 -0.1576 0.9360
vn 0.0862 0.3872 0.9180
vn 0.0477 -0.9123 0.4067
vn 0.0995 0.2202 0.9704
vn 0.0287 -0.9748 0.2212
vn 0.1049 0.0274 0.9941
vn 0.0363 0.9165 0.3984
vn 0.0085 -0.9996 0.0269
vn 0.1040 -0.1672 0.9804
vn 0.0871 0.4984 0.8626
vn 0.0990 -0.3562 0.9292
vn 0.0946 0.3633 0.9269
vn 0.0909 -0.5311 0.8424
vn 0.0943 0.3342 0.9378
vn 0.0794 -0.6859 0.7233
vn 0.0895 0.3565 0.9300
vn 0.0648 -0.8147 0.5763
vn -0.0882 -0.3563 0.9302
vn -0.0825 0.3635 0.9279
vn -0.0821 -0.5309 0.8435
vn -0.0838 0.3340 0.9388
vn -0.0724 -0.6857 0.7243
vn -0.0836 0.3553 0.9310
vn -0.0599 -0.8145 0.5770
vn -0.0833 0.3878 0.9180
vn -0.0451 -0.9122 0.4073
vn -0.0888 0.2207 0.9713
vn -0.0285 -0.9747 0.2215
vn -0.0915 0.0269 0.9954
vn -0.0292 0.9166 0.3988
vn -0.0108 -0.9996 0.0270
vn -0.0913 -0.1678 0.9816
vn -0.0755 0.4986 0.8636
vn -0.1362 -0.9108 0.3898
vn -0.2967 0.2238 0.9284
vn -0.0846 -0.9739 0.2108
vn -0.2984 0.0316 0.9539
vn -0.0935 0.9176 0.3864
vn -0.0297 -0.9993 0.0234
vn -0.2894 -0.1640 0.9431
vn -0.2351 0.5010 0.8329
vn -0.2712 -0.3536 0.8952
vn -0.2564 0.3662 0.8945
vn -0.2473 -0.5302 0.8110
vn -0.2618 0.3362 0.9047
vn -0.2191 -0.6847 0.6951
vn -0.2723 0.3515 0.8957
vn -0.1824 -0.8126 0.5535
vn -0.2823 0.3860 0.8783
vn -0.4148 -0.5220 0.7453
vn -0.4394 0.3367 0.8328
vn -0.3569 -0.6819 0.6385
vn -0.4683 0.3344 0.8179
vn -0.2952 -0.8101 0.5066
vn -0.4857 0.3750 0.7896
vn -0.2221 -0.9081 0.3549
vn -0.5113 0.2263 0.8291
vn -0.1376 -0.9722 0.1893
vn -0.5165 0.0415 0.8553
vn -0.1541 0.9194 0.3618
vn -0.0476 -0.9987 0.0161
vn -0.5006 -0.1526 0.8521
vn -0.3857 0.5057 0.7717
vn -0.4655 -0.3401 0.8171
vn -0.4205 0.3712 0.8279
vn -0.1853 -0.9699 0.1579
vn -0.7033 0.0528 0.7089
vn -0.2087 0.9221 0.3259
vn -0.0637 -0.9980 0.0055
vn -0.6890 -0.1320 0.7127
vn -0.5214 0.5123 0.6824
vn -0.6483 -0.3102 0.6954
vn -0.5683 0.3784 0.7306
vn -0.5798 -0.4982 0.6447
vn -0.6000 0.3301 0.7287
vn -0.4921 -0.6706 0.5551
vn -0.6406 0.3056 0.7044
vn -0.3984 -0.8061 0.4377
vn -0.6568 0.3530 0.6663
vn -0.2994 -0.9044 0.3040
vn -0.6904 0.2242 0.6878
vn -0.7316 0.3197 0.6021
vn -0.6129 -0.6494 0.4502
vn -0.7695 0.2747 0.5766
vn -0.4902 -0.7980 0.3505
vn -0.7755 0.3268 0.5401
vn -0.3649 -0.8998 0.2392
vn -0.8094 0.2180 0.5452
vn -0.2259 -0.9670 0.1178
vn -0.8288 0.0622 0.5562
vn -0.2553 0.9254 0.2800
vn -0.0775 -0.9970 -0.0080
vn -0.8214 -0.1069 0.5602
vn -0.6371 0.5206 0.5684
vn -0.7875 -0.2694 0.5543
vn -0.6943 0.3875 0.6064
vn -0.7177 -0.4616 0.5214
vn -0.8972 0.0690 0.4362
vn -0.2920 0.9294 0.2259
vn -0.0883 -0.9958 -0.0240
vn -0.8971 -0.0854 0.4334
vn -0.7282 0.5303 0.4341
vn -0.8750 -0.2331 0.4242
vn -0.7936 0.3981 0.4601
vn -0.8151 -0.4256 0.3929
vn -0.8296 0.3136 0.4620
vn -0.7065 -0.6253 0.3315
vn -0.8550 0.2541 0.4520
vn -0.5647 -0.7867 0.2492
vn -0.8462 0.3086 0.4344
vn -0.4169 -0.8943 0.1623
vn -0.8751 0.2126 0.4348
vn -0.2580 -0.9636 0.0706
vn -0.7724 -0.6040 0.1965
vn -0.9201 0.2476 0.3036
vn -0.6172 -0.7750 0.1360
vn -0.9036 0.3034 0.3025
vn -0.4532 -0.8881 0.0769
vn -0.9283 0.2143 0.3038
vn -0.2801 -0.9598 0.0180
vn -0.9505 0.0780 0.3008
vn -0.3174 0.9337 0.1657
vn -0.0958 -0.9945 -0.0417
vn -0.9542 -0.0674 0.2915
vn -0.7913 0.5411 0.2847
vn -0.9387 -0.2055 0.2768
vn -0.8623 0.4098 0.2973
vn -0.8842 -0.3969 0.2461
vn -0.8992 0.3164 0.3021
vn -0.3306 0.9383 0.1017
vn -0.0996 -0.9932 -0.0606
vn -0.9871 -0.0577 0.1490
vn -0.8240 0.5525 0.1258
vn -0.9733 -0.1922 0.1256
vn -0.8979 0.4222 0.1242
vn -0.9201 -0.3808 0.0916
vn -0.9351 0.3283 0.1333
vn -0.8062 -0.5893 0.0519
vn -0.9551 0.2557 0.1497
vn -0.6443 -0.7646 0.0147
vn -0.9348 0.3130 0.1678
vn -0.4720 -0.8815 -0.0137
vn -0.9589 0.2253 0.1726
vn -0.2916 -0.9558 -0.0378
vn -0.9821 0.0885 0.1661
vn -0.9593 0.2819 0.0154
vn -0.6440 -0.7572 -0.1086
vn -0.9392 0.3379 0.0617
vn -0.4726 -0.8749 -0.1062
vn -0.9677 0.2428 0.0681
vn -0.2920 -0.9517 -0.0948
vn -0.9936 0.0988 0.0541
vn -0.3310 0.9429 0.0364
vn -0.0998 -0.9918 -0.0798
vn -0.9980 -0.0572 0.0270
vn -0.8249 0.5641 -0.0364
vn -0.9803 -0.1975 -0.0087
vn -0.8990 0.4349 -0.0524
vn -0.9223 -0.3828 -0.0534
vn -0.9357 0.3514 -0.0301
vn -0.8058 -0.5852 -0.0907
vn -0.9880 -0.0573 -0.1432
vn -0.7942 0.5754 -0.1956
vn -0.9603 -0.2124 -0.1807
vn -0.8654 0.4472 -0.2259
vn -0.8909 -0.3972 -0.2202
vn -0.9009 0.3847 -0.2010
vn -0.7711 -0.5892 -0.2412
vn -0.9336 0.3285 -0.1431
vn -0.6167 -0.7522 -0.2320
vn -0.9215 0.3795 -0.0825
vn -0.4551 -0.8684 -0.1970
vn -0.9593 0.2693 -0.0854
vn -0.2811 -0.9477 -0.1508
vn -0.9874 0.1140 -0.1100
vn -0.3186 0.9475 -0.0277
vn -0.0961 -0.9905 -0.0988
vn -0.5658 -0.7468 -0.3494
vn -0.8631 0.4290 -0.2667
vn -0.4201 -0.8623 -0.2827
vn -0.9100 0.2995 -0.2867
vn -0.2596 -0.9440 -0.2036
vn -0.9376 0.1305 -0.3222
vn -0.2939 0.9518 -0.0882
vn -0.0888 -0.9892 -0.1166
vn -0.9329 -0.0554 -0.3560
vn -0.7328 0.5860 -0.3458
vn -0.8946 -0.2283 -0.3841
vn -0.7986 0.4587 -0.3895
vn -0.8170 -0.4133 -0.4021
vn -0.8269 0.4177 -0.3766
vn -0.7015 -0.5945 -0.3930
vn -0.8625 0.3867 -0.3265
vn -0.7798 -0.2417 -0.5775
vn -0.7011 0.4691 -0.5370
vn -0.7048 -0.4274 -0.5662
vn -0.7147 0.4395 -0.5441
vn -0.6064 -0.5962 -0.5261
vn -0.7358 0.4407 -0.5142
vn -0.4955 -0.7402 -0.4545
vn -0.7443 0.4733 -0.4712
vn -0.3690 -0.8569 -0.3599
vn -0.7964 0.3258 -0.5094
vn -0.2281 -0.9407 -0.2512
vn -0.8237 0.1430 -0.5487
vn -0.2578 0.9556 -0.1427
vn -0.0782 -0.9881 -0.1327
vn -0.8190 -0.0519 -0.5714
vn -0.6433 0.5955 -0.4812
vn -0.3038 -0.8523 -0.4257
vn -0.6237 0.3420 -0.7029
vn -0.1879 -0.9378 -0.2918
vn -0.6554 0.1518 -0.7399
vn -0.2118 0.9588 -0.1892
vn -0.0646 -0.9871 -0.1464
vn -0.6613 -0.0463 -0.7487
vn -0.5290 0.6035 -0.5966
vn -0.6377 -0.2480 -0.7293
vn -0.5766 0.4778 -0.6627
vn -0.5833 -0.4368 -0.6848
vn -0.5850 0.4499 -0.6748
vn -0.5042 -0.5997 -0.6214
vn -0.5816 0.4681 -0.6653
vn -0.4100 -0.7363 -0.5383
vn -0.5741 0.4981 -0.6499
vn -0.4299 0.4847 -0.7618
vn -0.4464 -0.4428 -0.7776
vn -0.4356 0.4562 -0.7760
vn -0.3837 -0.6066 -0.6963
vn -0.4295 0.4744 -0.7685
vn -0.3089 -0.7378 -0.6002
vn -0.4189 0.5048 -0.7548
vn -0.2271 -0.8488 -0.4775
vn -0.4597 0.3494 -0.8164
vn -0.1406 -0.9356 -0.3237
vn -0.4911 0.1588 -0.8565
vn -0.1576 0.9614 -0.2258
vn -0.0486 -0.9864 -0.1572
vn -0.5023 -0.0412 -0.8637
vn -0.3944 0.6098 -0.6875
vn -0.4880 -0.2497 -0.8364
vn -0.2828 0.3538 -0.8916
vn -0.0879 -0.9342 -0.3459
vn -0.3057 0.1648 -0.9377
vn -0.0972 0.9631 -0.2511
vn -0.0308 -0.9859 -0.1646
vn -0.3163 -0.0371 -0.9479
vn -0.2445 0.6140 -0.7505
vn -0.3093 -0.2504 -0.9174
vn -0.2667 0.4893 -0.8304
vn -0.2828 -0.4474 -0.8485
vn -0.2695 0.4592 -0.8464
vn -0.2421 -0.6122 -0.7528
vn -0.2644 0.4748 -0.8394
vn -0.1938 -0.7414 -0.6425
vn -0.2561 0.5054 -0.8240
vn -0.1427 -0.8468 -0.5124
vn -0.1001 -0.4475 -0.8887
vn -0.0939 0.4591 -0.8834
vn -0.0860 -0.6137 -0.7849
vn -0.0916 0.4718 -0.8770
vn -0.0691 -0.7432 -0.6655
vn -0.0880 0.5028 -0.8599
vn -0.0513 -0.8462 -0.5304
vn -0.0972 0.3545 -0.9300
vn -0.0319 -0.9334 -0.3573
vn -0.1061 0.1678 -0.9801
vn -0.0331 0.9639 -0.2643
vn -0.0119 -0.9856 -0.1685
vn -0.1109 -0.0341 -0.9932
vn -0.0852 0.6161 -0.7831
vn -0.1091 -0.2486 -0.9625
vn -0.0932 0.4915 -0.8659
vt 0.750000 0.812500
vt 0.750000 0.875000
vt 0.718750 0.875000
vt 0.718750 0.812500
vt 0.750000 0.312500
vt 0.750000 0.375000
vt 0.718750 0.375000
vt 0.718750 0.312500
vt 0.750000 0.750000
vt 0.718750 0.750000
vt 0.750000 0.250000
vt 0.718750 0.250000
vt 0.750000 0.687500
vt 0.718750 0.687500
vt 0.750000 0.187500
vt 0.718750 0.187500
vt 0.750000 0.625000
vt 0.718750 0.625000
vt 0.750000 0.125000
vt 0.718750 0.125000
vt 0.750000 0.562500
vt 0.718750 0.562500
vt 0.750000 0.062500
vt 0.718750 0.062500
vt 0.750000 0.500000
vt 0.718750 0.500000
vt 0.750000 0.937500
vt 0.734375 1.000000
vt 0.718750 0.937500
vt 0.734375 0.000000
vt 0.750000 0.437500
vt 0.718750 0.437500
vt 0.687500 0.937500
vt 0.687500 0.875000
vt 0.687500 0.437500
vt 0.687500 0.375000
vt 0.687500 0.812500
vt 0.687500 0.312500
vt 0.687500 0.750000
vt 0.687500 0.250000
vt 0.687500 0.687500
vt 0.687500 0.187500
vt 0.687500 0.625000
vt 0.687500 0.125000
vt 0.687500 0.562500
vt 0.687500 0.062500
vt 0.687500 0.500000
vt 0.703125 1.000000
vt 0.703125 0.000000
vt 0.656250 0.687500
vt 0.656250 0.625000
vt 0.656250 0.187500
vt 0.656250 0.125000
vt 0.656250 0.562500
vt 0.656250 0.062500
vt 0.656250 0.500000
vt 0.671875 1.000000
vt 0.656250 0.937500
vt 0.671875 0.000000
vt 0.656250 0.437500
vt 0.656250 0.875000
vt 0.656250 0.375000
vt 0.656250 0.812500
vt 0.656250 0.312500
vt 0.656250 0.750000
vt 0.656250 0.250000
vt 0.625000 0.437500
vt 0.625000 0.375000
vt 0.625000 0.875000
vt 0.625000 0.812500
vt 0.625000 0.312500
vt 0.625000 0.750000
vt 0.625000 0.250000
vt 0.625000 0.687500
vt 0.625000 0.187500
vt 0.625000 0.625000
vt 0.625000 0.125000
vt 0.625000 0.562500
vt 0.625000 0.062500
vt 0.625000 0.500000
vt 0.640625 1.000000
vt 0.625000 0.937500
vt 0.640625 0.000000
vt 0.593750 0.187500
vt 0.593750 0.125000
vt 0.593750 0.625000
vt 0.593750 0.562500
vt 0.593750 0.062500
vt 0.593750 0.500000
vt 0.609375 1.000000
vt 0.593750 0.937500
vt 0.609375 0.000000
vt 0.593750 0.437500
vt 0.593750 0.875000
vt 0.593750 0.375000
vt 0.593750 0.812500
vt 0.593750 0.312500
vt 0.593750 0.750000
vt 0.593750 0.250000
vt 0.593750 0.687500
vt 0.562500 0.875000
vt 0.562500 0.812500
vt 0.562500 0.375000
vt 0.562500 0.312500
vt 0.562500 0.750000
vt 0.562500 0.250000
vt 0.562500 0.687500
vt 0.562500 0.187500
vt 0.562500 0.625000
vt 0.562500 0.125000
vt 0.562500 0.562500
vt 0.562500 0.062500
vt 0.562500 0.500000
vt 0.578125 1.000000
vt 0.562500 0.937500
vt 0.578125 0.000000
vt 0.562500 0.437500
vt 0.531250 0.625000
vt 0.531250 0.562500
vt 0.531250 0.125000
vt 0.531250 0.062500
vt 0.531250 0.500000
vt 0.546875 1.000000
vt 0.531250 0.937500
vt 0.546875 0.000000
vt 0.531250 0.437500
vt 0.531250 0.875000
vt 0.531250 0.375000
vt 0.531250 0.812500
vt 0.531250 0.312500
vt 0.531250 0.750000
vt 0.531250 0.250000
vt 0.531250 0.687500
vt 0.531250 0.187500
vt 0.500000 0.375000
vt 0.500000 0.312500
vt 0.500000 0.812500
vt 0.500000 0.750000
vt 0.500000 0.250000
vt 0.500000 0.687500
vt 0.500000 0.187500
vt 0.500000 0.625000
vt 0.500000 0.125000
vt 0.500000 0.562500
vt 0.500000 0.062500
vt 0.500000 0.500000
vt 0.515625 1.000000
vt 0.500000 0.937500
vt 0.515625 0.000000
vt 0.500000 0.437500
vt 0.500000 0.875000
vt 0.468750 0.125000
vt 0.468750 0.062500
vt 0.468750 0.562500
vt 0.468750 0.500000
vt 0.484375 1.000000
vt 0.468750 0.937500
vt 0.484375 0.000000
vt 0.468750 0.437500
vt 0.468750 0.875000
vt 0.468750 0.375000
vt 0.468750 0.812500
vt 0.468750 0.312500
vt 0.468750 0.750000
vt 0.468750 0.250000
vt 0.468750 0.687500
vt 0.468750 0.187500
vt 0.468750 0.625000
vt 0.437500 0.312500
vt 0.437500 0.250000
vt 0.437500 0.750000
vt 0.437500 0.687500
vt 0.437500 0.187500
vt 0.437500 0.625000
vt 0.437500 0.125000
vt 0.437500 0.562500
vt 0.437500 0.062500
vt 0.437500 0.500000
vt 0.453125 1.000000
vt 0.437500 0.937500
vt 0.453125 0.000000
vt 0.437500 0.437500
vt 0.437500 0.875000
vt 0.437500 0.375000
vt 0.437500 0.812500
vt 0.421875 1.000000
vt 0.406250 0.937500
vt 0.421875 0.000000
vt 0.406250 0.062500
vt 0.406250 0.500000
vt 0.406250 0.437500
vt 0.406250 0.875000
vt 0.406250 0.375000
vt 0.406250 0.812500
vt 0.406250 0.312500
vt 0.406250 0.750000
vt 0.406250 0.250000
vt 0.406250 0.687500
vt 0.406250 0.187500
vt 0.406250 0.625000
vt 0.406250 0.125000
vt 0.406250 0.562500
vt 0.375000 0.750000
vt 0.375000 0.687500
vt 0.375000 0.250000
vt 0.375000 0.187500
vt 0.375000 0.625000
vt 0.375000 0.125000
vt 0.375000 0.562500
vt 0.375000 0.062500
vt 0.375000 0.500000
vt 0.390625 1.000000
vt 0.375000 0.937500
vt 0.390625 0.000000
vt 0.375000 0.437500
vt 0.375000 0.875000
vt 0.375000 0.375000
vt 0.375000 0.812500
vt 0.375000 0.312500
vt 0.343750 0.500000
vt 0.343750 0.437500
vt 0.343750 0.937500
vt 0.343750 0.875000
vt 0.343750 0.375000
vt 0.343750 0.812500
vt 0.343750 0.312500
vt 0.343750 0.750000
vt 0.343750 0.250000
vt 0.343750 0.687500
vt 0.343750 0.187500
vt 0.343750 0.625000
vt 0.343750 0.125000
vt 0.343750 0.562500
vt 0.343750 0.062500
vt 0.359375 1.000000
vt 0.359375 0.000000
vt 0.312500 0.250000
vt 0.312500 0.187500
vt 0.312500 0.687500
vt 0.312500 0.625000
vt 0.312500 0.125000
vt 0.312500 0.562500
vt 0.312500 0.062500
vt 0.312500 0.500000
vt 0.328125 1.000000
vt 0.312500 0.937500
vt 0.328125 0.000000
vt 0.312500 0.437500
vt 0.312500 0.875000
vt 0.312500 0.375000
vt 0.312500 0.812500
vt 0.312500 0.312500
vt 0.312500 0.750000
vt 0.281250 0.937500
vt 0.281250 0.875000
vt 0.281250 0.437500
vt 0.281250 0.375000
vt 0.281250 0.812500
vt 0.281250 0.312500
vt 0.281250 0.750000
vt 0.281250 0.250000
vt 0.281250 0.687500
vt 0.281250 0.187500
vt 0.281250 0.625000
vt 0.281250 0.125000
vt 0.281250 0.562500
vt 0.281250 0.062500
vt 0.281250 0.500000
vt 0.296875 1.000000
vt 0.296875 0.000000
vt 0.250000 0.687500
vt 0.250000 0.625000
vt 0.250000 0.187500
vt 0.250000 0.125000
vt 0.250000 0.562500
vt 0.250000 0.062500
vt 0.250000 0.500000
vt 0.265625 1.000000
vt 0.250000 0.937500
vt 0.265625 0.000000
vt 0.250000 0.437500
vt 0.250000 0.875000
vt 0.250000 0.375000
vt 0.250000 0.812500
vt 0.250000 0.312500
vt 0.250000 0.750000
vt 0.250000 0.250000
vt 0.218750 0.437500
vt 0.218750 0.375000
vt 0.218750 0.875000
vt 0.218750 0.812500
vt 0.218750 0.312500
vt 0.218750 0.750000
vt 0.218750 0.250000
vt 0.218750 0.687500
vt 0.218750 0.187500
vt 0.218750 0.625000
vt 0.218750 0.125000
vt 0.218750 0.562500
vt 0.218750 0.062500
vt 0.218750 0.500000
vt 0.234375 1.000000
vt 0.218750 0.937500
vt 0.234375 0.000000
vt 0.187500 0.187500
vt 0.187500 0.125000
vt 0.187500 0.625000
vt 0.187500 0.562500
vt 0.187500 0.062500
vt 0.187500 0.500000
vt 0.203125 1.000000
vt 0.187500 0.937500
vt 0.203125 0.000000
vt 0.187500 0.437500
vt 0.187500 0.875000
vt 0.187500 0.375000
vt 0.187500 0.812500
vt 0.187500 0.312500
vt 0.187500 0.750000
vt 0.187500 0.250000
vt 0.187500 0.687500
vt 0.156250 0.375000
vt 0.156250 0.312500
vt 0.156250 0.812500
vt 0.156250 0.750000
vt 0.156250 0.250000
vt 0.156250 0.687500
vt 0.156250 0.187500
vt 0.156250 0.625000
vt 0.156250 0.125000
vt 0.156250 0.562500
vt 0.156250 0.062500
vt 0.156250 0.500000
vt 0.171875 1.000000
vt 0.156250 0.937500
vt 0.171875 0.000000
vt 0.156250 0.437500
vt 0.156250 0.875000
vt 0.125000 0.125000
vt 0.125000 0.062500
vt 0.125000 0.562500
vt 0.125000 0.500000
vt 0.140625 1.000000
vt 0.125000 0.937500
vt 0.140625 0.000000
vt 0.125000 0.437500
vt 0.125000 0.875000
vt 0.125000 0.375000
vt 0.125000 0.812500
vt 0.125000 0.312500
vt 0.125000 0.750000
vt 0.125000 0.250000
vt 0.125000 0.687500
vt 0.125000 0.187500
vt 0.125000 0.625000
vt 0.093750 0.812500
vt 0.093750 0.750000
vt 0.093750 0.312500
vt 0.093750 0.250000
vt 0.093750 0.687500
vt 0.093750 0.187500
vt 0.093750 0.625000
vt 0.093750 0.125000
vt 0.093750 0.562500
vt 0.093750 0.062500
vt 0.093750 0.500000
vt 0.109375 1.000000
vt 0.093750 0.937500
vt 0.109375 0.000000
vt 0.093750 0.437500
vt 0.093750 0.875000
vt 0.093750 0.375000
vt 0.062500 0.562500
vt 0.062500 0.500000
vt 0.078125 1.000000
vt 0.062500 0.937500
vt 0.078125 0.000000
vt 0.062500 0.062500
vt 0.062500 0.437500
vt 0.062500 0.875000
vt 0.062500 0.375000
vt 0.062500 0.812500
vt 0.062500 0.312500
vt 0.062500 0.750000
vt 0.062500 0.250000
vt 0.062500 0.687500
vt 0.062500 0.187500
vt 0.062500 0.625000
vt 0.062500 0.125000
vt 0.031250 0.312500
vt 0.031250 0.250000
vt 0.031250 0.750000
vt 0.031250 0.687500
vt 0.031250 0.187500
vt 0.031250 0.625000
vt 0.031250 0.125000
vt 0.031250 0.562500
vt 0.031250 0.062500
vt 0.031250 0.500000
vt 0.046875 1.000000
vt 0.031250 0.937500
vt 0.046875 0.000000
vt 0.031250 0.437500
vt 0.031250 0.875000
vt 0.031250 0.375000
vt 0.031250 0.812500
vt 0.015625 1.000000
vt 0.000000 0.937500
vt 0.015625 0.000000
vt 0.000000 0.062500
vt 0.000000 0.500000
vt 0.000000 0.437500
vt 0.000000 0.875000
vt 0.000000 0.375000
vt 0.000000 0.812500
vt 0.000000 0.312500
vt 0.000000 0.750000
vt 0.000000 0.250000
vt 0.000000 0.687500
vt 0.000000 0.187500
vt 0.000000 0.625000
vt 0.000000 0.125000
vt 0.000000 0.562500
vt 1.000000 0.687500
vt 1.000000 0.750000
vt 0.968750 0.750000
vt 0.968750 0.687500
vt 1.000000 0.187500
vt 1.000000 0.250000
vt 0.968750 0.250000
vt 0.968750 0.187500
vt 1.000000 0.625000
vt 0.968750 0.625000
vt 1.000000 0.125000
vt 0.968750 0.125000
vt 1.000000 0.562500
vt 0.968750 0.562500
vt 1.000000 0.062500
vt 0.968750 0.062500
vt 1.000000 0.500000
vt 0.968750 0.500000
vt 1.000000 0.937500
vt 0.984375 1.000000
vt 0.968750 0.937500
vt 0.984375 0.000000
vt 1.000000 0.437500
vt 0.968750 0.437500
vt 1.000000 0.875000
vt 0.968750 0.875000
vt 1.000000 0.375000
vt 0.968750 0.375000
vt 1.000000 0.812500
vt 0.968750 0.812500
vt 1.000000 0.312500
vt 0.968750 0.312500
vt 0.937500 0.500000
vt 0.937500 0.437500
vt 0.937500 0.937500
vt 0.937500 0.875000
vt 0.937500 0.375000
vt 0.937500 0.812500
vt 0.937500 0.312500
vt 0.937500 0.750000
vt 0.937500 0.250000
vt 0.937500 0.687500
vt 0.937500 0.187500
vt 0.937500 0.625000
vt 0.937500 0.125000
vt 0.937500 0.562500
vt 0.937500 0.062500
vt 0.953125 1.000000
vt 0.953125 0.000000
vt 0.906250 0.250000
vt 0.906250 0.187500
vt 0.906250 0.687500
vt 0.906250 0.625000
vt 0.906250 0.125000
vt 0.906250 0.562500
vt 0.906250 0.062500
vt 0.906250 0.500000
vt 0.921875 1.000000
vt 0.906250 0.937500
vt 0.921875 0.000000
vt 0.906250 0.437500
vt 0.906250 0.875000
vt 0.906250 0.375000
vt 0.906250 0.812500
vt 0.906250 0.312500
vt 0.906250 0.750000
vt 0.875000 0.437500
vt 0.875000 0.375000
vt 0.875000 0.875000
vt 0.875000 0.812500
vt 0.875000 0.312500
vt 0.875000 0.750000
vt 0.875000 0.250000
vt 0.875000 0.687500
vt 0.875000 0.187500
vt 0.875000 0.625000
vt 0.875000 0.125000
vt 0.875000 0.562500
vt 0.875000 0.062500
vt 0.875000 0.500000
vt 0.890625 1.000000
vt 0.875000 0.937500
vt 0.890625 0.000000
vt 0.843750 0.187500
vt 0.843750 0.125000
vt 0.843750 0.625000
vt 0.843750 0.562500
vt 0.843750 0.062500
vt 0.843750 0.500000
vt 0.859375 1.000000
vt 0.843750 0.937500
vt 0.859375 0.000000
vt 0.843750 0.437500
vt 0.843750 0.875000
vt 0.843750 0.375000
vt 0.843750 0.812500
vt 0.843750 0.312500
vt 0.843750 0.750000
vt 0.843750 0.250000
vt 0.843750 0.687500
vt 0.812500 0.875000
vt 0.812500 0.812500
vt 0.812500 0.375000
vt 0.812500 0.312500
vt 0.812500 0.750000
vt 0.812500 0.250000
vt 0.812500 0.687500
vt 0.812500 0.187500
vt 0.812500 0.625000
vt 0.812500 0.125000
vt 0.812500 0.562500
vt 0.812500 0.062500
vt 0.812500 0.500000
vt 0.828125 1.000000
vt 0.812500 0.937500
vt 0.828125 0.000000
vt 0.812500 0.437500
vt 0.781250 0.625000
vt 0.781250 0.562500
vt 0.781250 0.125000
vt 0.781250 0.062500
vt 0.781250 0.500000
vt 0.796875 1.000000
vt 0.781250 0.937500
vt 0.796875 0.000000
vt 0.781250 0.437500
vt 0.781250 0.875000
vt 0.781250 0.375000
vt 0.781250 0.812500
vt 0.781250 0.312500
vt 0.781250 0.750000
vt 0.781250 0.250000
vt 0.781250 0.687500
vt 0.781250 0.187500
vt 0.765625 1.000000
vt 0.765625 0.000000
s 0
usemtl Material.002
f 194/2/163 667/3/163 202/4/163 203/5/163
f 199/6/164 670/7/164 210/8/164 211/9/164
f 668/10/165 194/2/165 203/5/165 204/11/165
f 671/12/166 199/6/166 211/9/166 212/13/166
f 195/14/167 668/10/167 204/11/167 205/15/167
f 672/16/168 671/12/168 212/13/168 213/17/168
f 669/18/169 195/14/169 205/15/169 206/19/169
f 673/20/170 672/16/170 213/17/170 214/21/170
f 196/22/171 669/18/171 206/19/171 207/23/171
f 674/24/172 673/20/172 214/21/172 215/25/172
f 197/26/173 196/22/173 207/23/173 208/27/173
f 666/28/174 193/29/174 201/30/174
f 200/31/175 674/24/175 215/25/175
f 198/32/176 197/26/176 208/27/176 209/33/176
f 667/3/177 666/28/177 201/30/177 202/4/177
f 670/7/178 198/32/178 209/33/178 210/8/178
f 202/4/179 201/30/179 216/34/179 217/35/179
f 210/8/180 209/33/180 224/36/180 225/37/180
f 203/5/181 202/4/181 217/35/181 218/38/181
f 211/9/182 210/8/182 225/37/182 226/39/182
f 204/11/183 203/5/183 218/38/183 219/40/183
f 212/13/184 211/9/184 226/39/184 227/41/184
f 205/15/185 204/11/185 219/40/185 220/42/185
f 213/17/186 212/13/186 227/41/186 228/43/186
f 206/19/187 205/15/187 220/42/187 221/44/187
f 214/21/188 213/17/188 228/43/188 229/45/188
f 207/23/189 206/19/189 221/44/189 222/46/189
f 215/25/190 214/21/190 229/45/190 230/47/190
f 208/27/191 207/23/191 222/46/191 223/48/191
f 201/30/192 193/49/192 216/34/192
f 200/50/193 215/25/193 230/47/193
f 209/33/194 208/27/194 223/48/194 224/36/194
f 221/44/195 220/42/195 235/51/195 236/52/195
f 229/45/196 228/43/196 243/53/196 244/54/196
f 222/46/197 221/44/197 236/52/197 237/55/197
f 230/47/198 229/45/198 244/54/198 245/56/198
f 223/48/199 222/46/199 237/55/199 238/57/199
f 216/34/200 193/58/200 231/59/200
f 200/60/201 230/47/201 245/56/201
f 224/36/202 223/48/202 238/57/202 239/61/202
f 217/35/203 216/34/203 231/59/203 232/62/203
f 225/37/204 224/36/204 239/61/204 240/63/204
f 218/38/205 217/35/205 232/62/205 233/64/205
f 226/39/206 225/37/206 240/63/206 241/65/206
f 219/40/207 218/38/207 233/64/207 234/66/207
f 227/41/208 226/39/208 241/65/208 242/67/208
f 220/42/209 219/40/209 234/66/209 235/51/209
f 228/43/210 227/41/210 242/67/210 243/53/210
f 240/63/211 239/61/211 254/68/211 255/69/211
f 233/64/212 232/62/212 247/70/212 248/71/212
f 241/65/213 240/63/213 255/69/213 256/72/213
f 234/66/214 233/64/214 248/71/214 249/73/214
f 242/67/215 241/65/215 256/72/215 257/74/215
f 235/51/216 234/66/216 249/73/216 250/75/216
f 243/53/217 242/67/217 257/74/217 258/76/217
f 236/52/218 235/51/218 250/75/218 251/77/218
f 244/54/219 243/53/219 258/76/219 259/78/219
f 237/55/220 236/52/220 251/77/220 252/79/220
f 245/56/221 244/54/221 259/78/221 260/80/221
f 238/57/222 237/55/222 252/79/222 253/81/222
f 231/59/223 193/82/223 246/83/223
f 200/84/224 245/56/224 260/80/224
f 239/61/225 238/57/225 253/81/225 254/68/225
f 232/62/226 231/59/226 246/83/226 247/70/226
f 259/78/227 258/76/227 273/85/227 274/86/227
f 252/79/228 251/77/228 266/87/228 267/88/228
f 260/80/229 259/78/229 274/86/229 275/89/229
f 253/81/230 252/79/230 267/88/230 268/90/230
f 246/83/231 193/91/231 261/92/231
f 200/93/232 260/80/232 275/89/232
f 254/68/233 253/81/233 268/90/233 269/94/233
f 247/70/234 246/83/234 261/92/234 262/95/234
f 255/69/235 254/68/235 269/94/235 270/96/235
f 248/71/236 247/70/236 262/95/236 263/97/236
f 256/72/237 255/69/237 270/96/237 271/98/237
f 249/73/238 248/71/238 263/97/238 264/99/238
f 257/74/239 256/72/239 271/98/239 272/100/239
f 250/75/240 249/73/240 264/99/240 265/101/240
f 258/76/241 257/74/241 272/100/241 273/85/241
f 251/77/242 250/75/242 265/101/242 266/87/242
f 263/97/243 262/95/243 277/102/243 278/103/243
f 271/98/244 270/96/244 285/104/244 286/105/244
f 264/99/245 263/97/245 278/103/245 279/106/245
f 272/100/246 271/98/246 286/105/246 287/107/246
f 265/101/247 264/99/247 279/106/247 280/108/247
f 273/85/248 272/100/248 287/107/248 288/109/248
f 266/87/249 265/101/249 280/108/249 281/110/249
f 274/86/250 273/85/250 288/109/250 289/111/250
f 267/88/251 266/87/251 281/110/251 282/112/251
f 275/89/252 274/86/252 289/111/252 290/113/252
f 268/90/253 267/88/253 282/112/253 283/114/253
f 261/92/254 193/115/254 276/116/254
f 200/117/255 275/89/255 290/113/255
f 269/94/256 268/90/256 283/114/256 284/118/256
f 262/95/257 261/92/257 276/116/257 277/102/257
f 270/96/258 269/94/258 284/118/258 285/104/258
f 282/112/259 281/110/259 296/119/259 297/120/259
f 290/113/260 289/111/260 304/121/260 305/122/260
f 283/114/261 282/112/261 297/120/261 298/123/261
f 276/116/262 193/124/262 291/125/262
f 200/126/263 290/113/263 305/122/263
f 284/118/264 283/114/264 298/123/264 299/127/264
f 277/102/265 276/116/265 291/125/265 292/128/265
f 285/104/266 284/118/266 299/127/266 300/129/266
f 278/103/267 277/102/267 292/128/267 293/130/267
f 286/105/268 285/104/268 300/129/268 301/131/268
f 279/106/269 278/103/269 293/130/269 294/132/269
f 287/107/270 286/105/270 301/131/270 302/133/270
f 280/108/271 279/106/271 294/132/271 295/134/271
f 288/109/272 287/107/272 302/133/272 303/135/272
f 281/110/273 280/108/273 295/134/273 296/119/273
f 289/111/274 288/109/274 303/135/274 304/121/274
f 301/131/275 300/129/275 315/136/275 316/137/275
f 294/132/276 293/130/276 308/138/276 309/139/276
f 302/133/277 301/131/277 316/137/277 317/140/277
f 295/134/278 294/132/278 309/139/278 310/141/278
f 303/135/279 302/133/279 317/140/279 318/142/279
f 296/119/280 295/134/280 310/141/280 311/143/280
f 304/121/281 303/135/281 318/142/281 319/144/281
f 297/120/282 296/119/282 311/143/282 312/145/282
f 305/122/283 304/121/283 319/144/283 320/146/283
f 298/123/284 297/120/284 312/145/284 313/147/284
f 291/125/285 193/148/285 306/149/285
f 200/150/286 305/122/286 320/146/286
f 299/127/287 298/123/287 313/147/287 314/151/287
f 292/128/288 291/125/288 306/149/288 307/152/288
f 300/129/289 299/127/289 314/151/289 315/136/289
f 293/130/290 292/128/290 307/152/290 308/138/290
f 320/146/291 319/144/291 334/153/291 335/154/291
f 313/147/292 312/145/292 327/155/292 328/156/292
f 306/149/293 193/157/293 321/158/293
f 200/159/294 320/146/294 335/154/294
f 314/151/295 313/147/295 328/156/295 329/160/295
f 307/152/296 306/149/296 321/158/296 322/161/296
f 315/136/297 314/151/297 329/160/297 330/162/297
f 308/138/298 307/152/298 322/161/298 323/163/298
f 316/137/299 315/136/299 330/162/299 331/164/299
f 309/139/300 308/138/300 323/163/300 324/165/300
f 317/140/301 316/137/301 331/164/301 332/166/301
f 310/141/302 309/139/302 324/165/302 325/167/302
f 318/142/303 317/140/303 332/166/303 333/168/303
f 311/143/304 310/141/304 325/167/304 326/169/304
f 319/144/305 318/142/305 333/168/305 334/153/305
f 312/145/306 311/143/306 326/169/306 327/155/306
f 332/166/307 331/164/307 346/170/307 347/171/307
f 325/167/308 324/165/308 339/172/308 340/173/308
f 333/168/309 332/166/309 347/171/309 348/174/309
f 326/169/310 325/167/310 340/173/310 341/175/310
f 334/153/311 333/168/311 348/174/311 349/176/311
f 327/155/312 326/169/312 341/175/312 342/177/312
f 335/154/313 334/153/313 349/176/313 350/178/313
f 328/156/314 327/155/314 342/177/314 343/179/314
f 321/158/315 193/180/315 336/181/315
f 200/182/316 335/154/316 350/178/316
f 329/160/317 328/156/317 343/179/317 344/183/317
f 322/161/318 321/158/318 336/181/318 337/184/318
f 330/162/319 329/160/319 344/183/319 345/185/319
f 323/163/320 322/161/320 337/184/320 338/186/320
f 331/164/321 330/162/321 345/185/321 346/170/321
f 324/165/322 323/163/322 338/186/322 339/172/322
f 336/181/323 193/187/323 351/188/323
f 200/189/324 350/178/324 365/190/324
f 344/183/325 343/179/325 358/191/325 359/192/325
f 337/184/326 336/181/326 351/188/326 352/193/326
f 345/185/327 344/183/327 359/192/327 360/194/327
f 338/186/328 337/184/328 352/193/328 353/195/328
f 346/170/329 345/185/329 360/194/329 361/196/329
f 339/172/330 338/186/330 353/195/330 354/197/330
f 347/171/331 346/170/331 361/196/331 362/198/331
f 340/173/332 339/172/332 354/197/332 355/199/332
f 348/174/333 347/171/333 362/198/333 363/200/333
f 341/175/334 340/173/334 355/199/334 356/201/334
f 349/176/335 348/174/335 363/200/335 364/202/335
f 342/177/336 341/175/336 356/201/336 357/203/336
f 350/178/337 349/176/337 364/202/337 365/190/337
f 343/179/338 342/177/338 357/203/338 358/191/338
f 355/199/339 354/197/339 369/204/339 370/205/339
f 363/200/340 362/198/340 377/206/340 378/207/340
f 356/201/341 355/199/341 370/205/341 371/208/341
f 364/202/342 363/200/342 378/207/342 379/209/342
f 357/203/343 356/201/343 371/208/343 372/210/343
f 365/190/344 364/202/344 379/209/344 380/211/344
f 358/191/345 357/203/345 372/210/345 373/212/345
f 351/188/346 193/213/346 366/214/346
f 200/215/347 365/190/347 380/211/347
f 359/192/348 358/191/348 373/212/348 374/216/348
f 352/193/349 351/188/349 366/214/349 367/217/349
f 360/194/350 359/192/350 374/216/350 375/218/350
f 353/195/351 352/193/351 367/217/351 368/219/351
f 361/196/352 360/194/352 375/218/352 376/220/352
f 354/197/353 353/195/353 368/219/353 369/204/353
f 362/198/354 361/196/354 376/220/354 377/206/354
f 374/216/355 373/212/355 388/221/355 389/222/355
f 367/217/356 366/214/356 381/223/356 382/224/356
f 375/218/357 374/216/357 389/222/357 390/225/357
f 368/219/358 367/217/358 382/224/358 383/226/358
f 376/220/359 375/218/359 390/225/359 391/227/359
f 369/204/360 368/219/360 383/226/360 384/228/360
f 377/206/361 376/220/361 391/227/361 392/229/361
f 370/205/362 369/204/362 384/228/362 385/230/362
f 378/207/363 377/206/363 392/229/363 393/231/363
f 371/208/364 370/205/364 385/230/364 386/232/364
f 379/209/365 378/207/365 393/231/365 394/233/365
f 372/210/366 371/208/366 386/232/366 387/234/366
f 380/211/367 379/209/367 394/233/367 395/235/367
f 373/212/368 372/210/368 387/234/368 388/221/368
f 366/214/369 193/236/369 381/223/369
f 200/237/370 380/211/370 395/235/370
f 393/231/371 392/229/371 407/238/371 408/239/371
f 386/232/372 385/230/372 400/240/372 401/241/372
f 394/233/373 393/231/373 408/239/373 409/242/373
f 387/234/374 386/232/374 401/241/374 402/243/374
f 395/235/375 394/233/375 409/242/375 410/244/375
f 388/221/376 387/234/376 402/243/376 403/245/376
f 381/223/377 193/246/377 396/247/377
f 200/248/378 395/235/378 410/244/378
f 389/222/379 388/221/379 403/245/379 404/249/379
f 382/224/380 381/223/380 396/247/380 397/250/380
f 390/225/381 389/222/381 404/249/381 405/251/381
f 383/226/382 382/224/382 397/250/382 398/252/382
f 391/227/383 390/225/383 405/251/383 406/253/383
f 384/228/384 383/226/384 398/252/384 399/254/384
f 392/229/385 391/227/385 406/253/385 407/238/385
f 385/230/386 384/228/386 399/254/386 400/240/386
f 397/250/387 396/247/387 411/255/387 412/256/387
f 405/251/388 404/249/388 419/257/388 420/258/388
f 398/252/389 397/250/389 412/256/389 413/259/389
f 406/253/390 405/251/390 420/258/390 421/260/390
f 399/254/391 398/252/391 413/259/391 414/261/391
f 407/238/392 406/253/392 421/260/392 422/262/392
f 400/240/393 399/254/393 414/261/393 415/263/393
f 408/239/394 407/238/394 422/262/394 423/264/394
f 401/241/395 400/240/395 415/263/395 416/265/395
f 409/242/396 408/239/396 423/264/396 424/266/396
f 402/243/397 401/241/397 416/265/397 417/267/397
f 410/244/398 409/242/398 424/266/398 425/268/398
f 403/245/399 402/243/399 417/267/399 418/269/399
f 396/247/400 193/270/400 411/255/400
f 200/271/401 410/244/401 425/268/401
f 404/249/402 403/245/402 418/269/402 419/257/402
f 416/265/403 415/263/403 430/272/403 431/273/403
f 424/266/404 423/264/404 438/274/404 439/275/404
f 417/267/405 416/265/405 431/273/405 432/276/405
f 425/268/406 424/266/406 439/275/406 440/277/406
f 418/269/407 417/267/407 432/276/407 433/278/407
f 411/255/408 193/279/408 426/280/408
f 200/281/409 425/268/409 440/277/409
f 419/257/410 418/269/410 433/278/410 434/282/410
f 412/256/411 411/255/411 426/280/411 427/283/411
f 420/258/412 419/257/412 434/282/412 435/284/412
f 413/259/413 412/256/413 427/283/413 428/285/413
f 421/260/414 420/258/414 435/284/414 436/286/414
f 414/261/415 413/259/415 428/285/415 429/287/415
f 422/262/416 421/260/416 436/286/416 437/288/416
f 415/263/417 414/261/417 429/287/417 430/272/417
f 423/264/418 422/262/418 437/288/418 438/274/418
f 435/284/419 434/282/419 449/289/419 450/290/419
f 428/285/420 427/283/420 442/291/420 443/292/420
f 436/286/421 435/284/421 450/290/421 451/293/421
f 429/287/422 428/285/422 443/292/422 444/294/422
f 437/288/423 436/286/423 451/293/423 452/295/423
f 430/272/424 429/287/424 444/294/424 445/296/424
f 438/274/425 437/288/425 452/295/425 453/297/425
f 431/273/426 430/272/426 445/296/426 446/298/426
f 439/275/427 438/274/427 453/297/427 454/299/427
f 432/276/428 431/273/428 446/298/428 447/300/428
f 440/277/429 439/275/429 454/299/429 455/301/429
f 433/278/430 432/276/430 447/300/430 448/302/430
f 426/280/431 193/303/431 441/304/431
f 200/305/432 440/277/432 455/301/432
f 434/282/433 433/278/433 448/302/433 449/289/433
f 427/283/434 426/280/434 441/304/434 442/291/434
f 454/299/435 453/297/435 468/306/435 469/307/435
f 447/300/436 446/298/436 461/308/436 462/309/436
f 455/301/437 454/299/437 469/307/437 470/310/437
f 448/302/438 447/300/438 462/309/438 463/311/438
f 441/304/439 193/312/439 456/313/439
f 200/314/440 455/301/440 470/310/440
f 449/289/441 448/302/441 463/311/441 464/315/441
f 442/291/442 441/304/442 456/313/442 457/316/442
f 450/290/443 449/289/443 464/315/443 465/317/443
f 443/292/444 442/291/444 457/316/444 458/318/444
f 451/293/445 450/290/445 465/317/445 466/319/445
f 444/294/446 443/292/446 458/318/446 459/320/446
f 452/295/447 451/293/447 466/319/447 467/321/447
f 445/296/448 444/294/448 459/320/448 460/322/448
f 453/297/449 452/295/449 467/321/449 468/306/449
f 446/298/450 445/296/450 460/322/450 461/308/450
f 466/319/451 465/317/451 480/323/451 481/324/451
f 459/320/452 458/318/452 473/325/452 474/326/452
f 467/321/453 466/319/453 481/324/453 482/327/453
f 460/322/454 459/320/454 474/326/454 475/328/454
f 468/306/455 467/321/455 482/327/455 483/329/455
f 461/308/456 460/322/456 475/328/456 476/330/456
f 469/307/457 468/306/457 483/329/457 484/331/457
f 462/309/458 461/308/458 476/330/458 477/332/458
f 470/310/459 469/307/459 484/331/459 485/333/459
f 463/311/460 462/309/460 477/332/460 478/334/460
f 456/313/461 193/335/461 471/336/461
f 200/337/462 470/310/462 485/333/462
f 464/315/463 463/311/463 478/334/463 479/338/463
f 457/316/464 456/313/464 471/336/464 472/339/464
f 465/317/465 464/315/465 479/338/465 480/323/465
f 458/318/466 457/316/466 472/339/466 473/325/466
f 485/333/467 484/331/467 499/340/467 500/341/467
f 478/334/468 477/332/468 492/342/468 493/343/468
f 471/336/469 193/344/469 486/345/469
f 200/346/470 485/333/470 500/341/470
f 479/338/471 478/334/471 493/343/471 494/347/471
f 472/339/472 471/336/472 486/345/472 487/348/472
f 480/323/473 479/338/473 494/347/473 495/349/473
f 473/325/474 472/339/474 487/348/474 488/350/474
f 481/324/475 480/323/475 495/349/475 496/351/475
f 474/326/476 473/325/476 488/350/476 489/352/476
f 482/327/477 481/324/477 496/351/477 497/353/477
f 475/328/478 474/326/478 489/352/478 490/354/478
f 483/329/479 482/327/479 497/353/479 498/355/479
f 476/330/480 475/328/480 490/354/480 491/356/480
f 484/331/481 483/329/481 498/355/481 499/340/481
f 477/332/482 476/330/482 491/356/482 492/342/482
f 489/352/483 488/350/483 503/357/483 504/358/483
f 497/353/484 496/351/484 511/359/484 512/360/484
f 490/354/485 489/352/485 504/358/485 505/361/485
f 498/355/486 497/353/486 512/360/486 513/362/486
f 491/356/487 490/354/487 505/361/487 506/363/487
f 499/340/488 498/355/488 513/362/488 514/364/488
f 492/342/489 491/356/489 506/363/489 507/365/489
f 500/341/490 499/340/490 514/364/490 515/366/490
f 493/343/491 492/342/491 507/365/491 508/367/491
f 486/345/492 193/368/492 501/369/492
f 200/370/493 500/341/493 515/366/493
f 494/347/494 493/343/494 508/367/494 509/371/494
f 487/348/495 486/345/495 501/369/495 502/372/495
f 495/349/496 494/347/496 509/371/496 510/373/496
f 488/350/497 487/348/497 502/372/497 503/357/497
f 496/351/498 495/349/498 510/373/498 511/359/498
f 508/367/499 507/365/499 522/374/499 523/375/499
f 501/369/500 193/376/500 516/377/500
f 200/378/501 515/366/501 530/379/501
f 509/371/502 508/367/502 523/375/502 524/380/502
f 502/372/503 501/369/503 516/377/503 517/381/503
f 510/373/504 509/371/504 524/380/504 525/382/504
f 503/357/505 502/372/505 517/381/505 518/383/505
f 511/359/506 510/373/506 525/382/506 526/384/506
f 504/358/507 503/357/507 518/383/507 519/385/507
f 512/360/508 511/359/508 526/384/508 527/386/508
f 505/361/509 504/358/509 519/385/509 520/387/509
f 513/362/510 512/360/510 527/386/510 528/388/510
f 506/363/511 505/361/511 520/387/511 521/389/511
f 514/364/512 513/362/512 528/388/512 529/390/512
f 507/365/513 506/363/513 521/389/513 522/374/513
f 515/366/514 514/364/514 529/390/514 530/379/514
f 527/386/515 526/384/515 541/391/515 542/392/515
f 520/387/516 519/385/516 534/393/516 535/394/516
f 528/388/517 527/386/517 542/392/517 543/395/517
f 521/389/518 520/387/518 535/394/518 536/396/518
f 529/390/519 528/388/519 543/395/519 544/397/519
f 522/374/520 521/389/520 536/396/520 537/398/520
f 530/379/521 529/390/521 544/397/521 545/399/521
f 523/375/522 522/374/522 537/398/522 538/400/522
f 516/377/523 193/401/523 531/402/523
f 200/403/524 530/379/524 545/399/524
f 524/380/525 523/375/525 538/400/525 539/404/525
f 517/381/526 516/377/526 531/402/526 532/405/526
f 525/382/527 524/380/527 539/404/527 540/406/527
f 518/383/528 517/381/528 532/405/528 533/407/528
f 526/384/529 525/382/529 540/406/529 541/391/529
f 519/385/530 518/383/530 533/407/530 534/393/530
f 531/402/531 193/408/531 546/409/531
f 200/410/532 545/399/532 560/411/532
f 539/404/533 538/400/533 553/412/533 554/413/533
f 532/405/534 531/402/534 546/409/534 547/414/534
f 540/406/535 539/404/535 554/413/535 555/415/535
f 533/407/536 532/405/536 547/414/536 548/416/536
f 541/391/537 540/406/537 555/415/537 556/417/537
f 534/393/538 533/407/538 548/416/538 549/418/538
f 542/392/539 541/391/539 556/417/539 557/419/539
f 535/394/540 534/393/540 549/418/540 550/420/540
f 543/395/541 542/392/541 557/419/541 558/421/541
f 536/396/542 535/394/542 550/420/542 551/422/542
f 544/397/543 543/395/543 558/421/543 559/423/543
f 537/398/544 536/396/544 551/422/544 552/424/544
f 545/399/545 544/397/545 559/423/545 560/411/545
f 538/400/546 537/398/546 552/424/546 553/412/546
f 550/425/547 549/426/547 564/427/547 565/428/547
f 558/429/548 557/430/548 572/431/548 573/432/548
f 551/433/549 550/425/549 565/428/549 566/434/549
f 559/435/550 558/429/550 573/432/550 574/436/550
f 552/437/551 551/433/551 566/434/551 567/438/551
f 560/439/552 559/435/552 574/436/552 575/440/552
f 553/441/553 552/437/553 567/438/553 568/442/553
f 546/443/554 193/444/554 561/445/554
f 200/446/555 560/439/555 575/440/555
f 554/447/556 553/441/556 568/442/556 569/448/556
f 547/449/557 546/443/557 561/445/557 562/450/557
f 555/451/558 554/447/558 569/448/558 570/452/558
f 548/453/559 547/449/559 562/450/559 563/454/559
f 556/455/560 555/451/560 570/452/560 571/456/560
f 549/426/561 548/453/561 563/454/561 564/427/561
f 557/430/562 556/455/562 571/456/562 572/431/562
f 569/448/563 568/442/563 583/457/563 584/458/563
f 562/450/564 561/445/564 576/459/564 577/460/564
f 570/452/565 569/448/565 584/458/565 585/461/565
f 563/454/566 562/450/566 577/460/566 578/462/566
f 571/456/567 570/452/567 585/461/567 586/463/567
f 564/427/568 563/454/568 578/462/568 579/464/568
f 572/431/569 571/456/569 586/463/569 587/465/569
f 565/428/570 564/427/570 579/464/570 580/466/570
f 573/432/571 572/431/571 587/465/571 588/467/571
f 566/434/572 565/428/572 580/466/572 581/468/572
f 574/436/573 573/432/573 588/467/573 589/469/573
f 567/438/574 566/434/574 581/468/574 582/470/574
f 575/440/575 574/436/575 589/469/575 590/471/575
f 568/442/576 567/438/576 582/470/576 583/457/576
f 561/445/577 193/472/577 576/459/577
f 200/473/578 575/440/578 590/471/578
f 588/467/579 587/465/579 602/474/579 603/475/579
f 581/468/580 580/466/580 595/476/580 596/477/580
f 589/469/581 588/467/581 603/475/581 604/478/581
f 582/470/582 581/468/582 596/477/582 597/479/582
f 590/471/583 589/469/583 604/478/583 605/480/583
f 583/457/584 582/470/584 597/479/584 598/481/584
f 576/459/585 193/482/585 591/483/585
f 200/484/586 590/471/586 605/480/586
f 584/458/587 583/457/587 598/481/587 599/485/587
f 577/460/588 576/459/588 591/483/588 592/486/588
f 585/461/589 584/458/589 599/485/589 600/487/589
f 578/462/590 577/460/590 592/486/590 593/488/590
f 586/463/591 585/461/591 600/487/591 601/489/591
f 579/464/592 578/462/592 593/488/592 594/490/592
f 587/465/593 586/463/593 601/489/593 602/474/593
f 580/466/594 579/464/594 594/490/594 595/476/594
f 600/487/595 599/485/595 614/491/595 615/492/595
f 593/488/596 592/486/596 607/493/596 608/494/596
f 601/489/597 600/487/597 615/492/597 616/495/597
f 594/490/598 593/488/598 608/494/598 609/496/598
f 602/474/599 601/489/599 616/495/599 617/497/599
f 595/476/600 594/490/600 609/496/600 610/498/600
f 603/475/601 602/474/601 617/497/601 618/499/601
f 596/477/602 595/476/602 610/498/602 611/500/602
f 604/478/603 603/475/603 618/499/603 619/501/603
f 597/479/604 596/477/604 611/500/604 612/502/604
f 605/480/605 604/478/605 619/501/605 620/503/605
f 598/481/606 597/479/606 612/502/606 613/504/606
f 591/483/607 193/505/607 606/506/607
f 200/507/608 605/480/608 620/503/608
f 599/485/609 598/481/609 613/504/609 614/491/609
f 592/486/610 591/483/610 606/506/610 607/493/610
f 619/501/611 618/499/611 633/508/611 634/509/611
f 612/502/612 611/500/612 626/510/612 627/511/612
f 620/503/613 619/501/613 634/509/613 635/512/613
f 613/504/614 612/502/614 627/511/614 628/513/614
f 606/506/615 193/514/615 621/515/615
f 200/516/616 620/503/616 635/512/616
f 614/491/617 613/504/617 628/513/617 629/517/617
f 607/493/618 606/506/618 621/515/618 622/518/618
f 615/492/619 614/491/619 629/517/619 630/519/619
f 608/494/620 607/493/620 622/518/620 623/520/620
f 616/495/621 615/492/621 630/519/621 631/521/621
f 609/496/622 608/494/622 623/520/622 624/522/622
f 617/497/623 616/495/623 631/521/623 632/523/623
f 610/498/624 609/496/624 624/522/624 625/524/624
f 618/499/625 617/497/625 632/523/625 633/508/625
f 611/500/626 610/498/626 625/524/626 626/510/626
f 623/520/627 622/518/627 637/525/627 638/526/627
f 631/521/628 630/519/628 645/527/628 646/528/628
f 624/522/629 623/520/629 638/526/629 639/529/629
f 632/523/630 631/521/630 646/528/630 647/530/630
f 625/524/631 624/522/631 639/529/631 640/531/631
f 633/508/632 632/523/632 647/530/632 648/532/632
f 626/510/633 625/524/633 640/531/633 641/533/633
f 634/509/634 633/508/634 648/532/634 649/534/634
f 627/511/635 626/510/635 641/533/635 642/535/635
f 635/512/636 634/509/636 649/534/636 650/536/636
f 628/513/637 627/511/637 642/535/637 643/537/637
f 621/515/638 193/538/638 636/539/638
f 200/540/639 635/512/639 650/536/639
f 629/517/640 628/513/640 643/537/640 644/541/640
f 622/518/641 621/515/641 636/539/641 637/525/641
f 630/519/642 629/517/642 644/541/642 645/527/642
f 642/535/643 641/533/643 656/542/643 657/543/643
f 650/536/644 649/534/644 664/544/644 665/545/644
f 643/537/645 642/535/645 657/543/645 658/546/645
f 636/539/646 193/547/646 651/548/646
f 200/549/647 650/536/647 665/545/647
f 644/541/648 643/537/648 658/546/648 659/550/648
f 637/525/649 636/539/649 651/548/649 652/551/649
f 645/527/650 644/541/650 659/550/650 660/552/650
f 638/526/651 637/525/651 652/551/651 653/553/651
f 646/528/652 645/527/652 660/552/652 661/554/652
f 639/529/653 638/526/653 653/553/653 654/555/653
f 647/530/654 646/528/654 661/554/654 662/556/654
f 640/531/655 639/529/655 654/555/655 655/557/655
f 648/532/656 647/530/656 662/556/656 663/558/656
f 641/533/657 640/531/657 655/557/657 656/542/657
f 649/534/658 648/532/658 663/558/658 664/544/658
f 661/554/659 660/552/659 670/7/659 199/6/659
f 654/555/660 653/553/660 194/2/660 668/10/660
f 662/556/661 661/554/661 199/6/661 671/12/661
f 655/557/662 654/555/662 668/10/662 195/14/662
f 663/558/663 662/556/663 671/12/663 672/16/663
f 656/542/664 655/557/664 195/14/664 669/18/664
f 664/544/665 663/558/665 672/16/665 673/20/665
f 657/543/666 656/542/666 669/18/666 196/22/666
f 665/545/667 664/544/667 673/20/667 674/24/667
f 658/546/668 657/543/668 196/22/668 197/26/668
f 651/548/669 193/559/669 666/28/669
f 200/560/670 665/545/670 674/24/670
f 659/550/671 658/546/671 197/26/671 198/32/671
f 652/551/672 651/548/672 666/28/672 667/3/672
f 660/552/673 659/550/673 198/32/673 670/7/673
f 653/553/674 652/551/674 667/3/674 194/2/674
