# Blender 5.0.1
# www.blender.org
mtllib Трава.mtl
o Plane
v -500.062988 24.806202 499.983551
v 499.937012 24.806202 499.983551
v -500.062988 24.806202 -500.016449
v 499.937012 24.806202 -500.016449
vn -0.0000 1.0000 -0.0000
vt 0.000000 0.000000
vt 1.000000 0.000000
vt 1.000000 1.000000
vt 0.000000 1.000000
s 0
usemtl Material.007
f 1/1/1 2/2/1 4/3/1 3/4/1
o Трава1
v -0.076300 0.043090 -0.016436
v -0.049703 0.043090 -0.016436
v -0.076300 0.069687 -0.016436
v -0.049703 0.069687 -0.016436
v -0.072871 0.103085 -0.004333
v -0.061814 0.103085 -0.004333
v -0.072871 0.103085 -0.004333
v -0.061814 0.103085 -0.004333
vn -0.0000 -0.0000 1.0000
vn -0.0000 -0.3407 0.9402
vn -0.0000 1.0000 -0.0000
vt 0.000000 0.000000
vt 1.000000 0.000000
vt 1.000000 1.000000
vt 0.000000 1.000000
s 0
usemtl Material.008
f 5/5/2 6/6/2 8/7/2 7/8/2
f 7/8/3 8/7/3 10/7/3 9/8/3
f 9/8/4 10/7/4 12/7/4 11/8/4
o Трава2
v -0.039492 0.043090 -0.016436
v -0.012895 0.043090 -0.016436
v -0.039492 0.069687 -0.016436
v -0.012895 0.069687 -0.016436
v -0.036064 0.103085 -0.004333
v -0.025006 0.103085 -0.004333
v -0.036064 0.103085 -0.004333
v -0.025006 0.103085 -0.004333
vn -0.0000 -0.0000 1.0000
vn -0.0000 -0.3407 0.9402
vn -0.0000 1.0000 -0.0000
vt 0.000000 0.000000
vt 1.000000 0.000000
vt 1.000000 1.000000
vt 0.000000 1.000000
s 0
usemtl Material.010
f 13/9/5 14/10/5 16/11/5 15/12/5
f 15/12/6 16/11/6 18/11/6 17/12/6
f 17/12/7 18/11/7 20/11/7 19/12/7
