# Blender 5.0.1
# www.blender.org
mtllib Забор.mtl
o Cube
v -0.076279 -0.100000 0.100000
v -0.076279 1.100000 0.100000
v -0.076279 -0.100000 -0.100000
v -0.076279 1.100000 -0.100000
v 0.076279 -0.100000 0.100000
v 0.076279 1.100000 0.100000
v 0.076279 -0.100000 -0.100000
v 0.076279 1.100000 -0.100000
v -0.044427 1.185219 0.058243
v -0.044427 1.185219 -0.058243
v 0.044427 1.185219 -0.058243
v 0.044427 1.185219 0.058243
vn -1.0000 -0.0000 -0.0000
vn -0.0000 -0.0000 -1.0000
vn 1.0000 -0.0000 -0.0000
vn -0.0000 -0.0000 1.0000
vn -0.0000 -1.0000 -0.0000
vn 0.9367 0.3501 -0.0000
vn -0.0000 1.0000 -0.0000
vn -0.9367 0.3501 -0.0000
vn -0.0000 0.4400 0.8980
vn -0.0000 0.4400 -0.8980
vt 0.375000 0.000000
vt 0.625000 0.000000
vt 0.625000 0.250000
vt 0.375000 0.250000
vt 0.625000 0.500000
vt 0.375000 0.500000
vt 0.625000 0.750000
vt 0.375000 0.750000
vt 0.625000 1.000000
vt 0.375000 1.000000
vt 0.125000 0.500000
vt 0.125000 0.750000
vt 0.875000 0.500000
vt 0.875000 0.750000
s 0
usemtl Material.001
f 1/1/1 2/2/1 4/3/1 3/4/1
f 3/4/2 4/3/2 8/5/2 7/6/2
f 7/6/3 8/5/3 6/7/3 5/8/3
f 5/8/4 6/7/4 2/9/4 1/10/4
f 3/11/5 7/6/5 5/8/5 1/12/5
f 6/7/6 8/5/6 11/5/6 12/7/6
f 11/5/7 10/13/7 9/14/7 12/7/7
f 4/3/8 2/2/8 9/2/8 10/3/8
f 2/9/9 6/7/9 12/7/9 9/9/9
f 8/5/10 4/3/10 10/3/10 11/5/10
o Cube.002
v -0.044320 0.600000 0.219328
v -0.044320 0.800000 0.219328
v -0.044320 0.600000 -0.492274
v -0.044320 0.800000 -0.492274
v 0.044320 0.600000 0.219328
v 0.044320 0.800000 0.219328
v 0.044320 0.600000 -0.492274
v 0.044320 0.800000 -0.492274
vn -1.0000 -0.0000 -0.0000
vn -0.0000 -0.0000 -1.0000
vn 1.0000 -0.0000 -0.0000
vn -0.0000 -0.0000 1.0000
vn -0.0000 -1.0000 -0.0000
vn -0.0000 1.0000 -0.0000
vt 0.375000 0.000000
vt 0.625000 0.000000
vt 0.625000 0.250000
vt 0.375000 0.250000
vt 0.625000 0.500000
vt 0.375000 0.500000
vt 0.625000 0.750000
vt 0.375000 0.750000
vt 0.625000 1.000000
vt 0.375000 1.000000
vt 0.125000 0.500000
vt 0.125000 0.750000
vt 0.875000 0.500000
vt 0.875000 0.750000
s 0
usemtl Material.002
f 13/15/11 14/16/11 16/17/11 15/18/11
f 15/18/12 16/17/12 20/19/12 19/20/12
f 19/20/13 20/19/13 18/21/13 17/22/13
f 17/22/14 18/21/14 14/23/14 13/24/14
f 15/25/15 19/20/15 17/22/15 13/26/15
f 20/19/16 16/27/16 14/28/16 18/21/16
o Cube.001
v -0.076279 -0.100000 -0.200000
v -0.076279 1.100000 -0.200000
v -0.076279 -0.100000 -0.400000
v -0.076279 1.100000 -0.400000
v 0.076279 -0.100000 -0.200000
v 0.076279 1.100000 -0.200000
v 0.076279 -0.100000 -0.400000
v 0.076279 1.100000 -0.400000
v -0.044427 1.185219 -0.241757
v -0.044427 1.185219 -0.358243
v 0.044427 1.185219 -0.358243
v 0.044427 1.185219 -0.241757
vn -1.0000 -0.0000 -0.0000
vn -0.0000 -0.0000 -1.0000
vn 1.0000 -0.0000 -0.0000
vn -0.0000 -0.0000 1.0000
vn -0.0000 -1.0000 -0.0000
vn 0.9367 0.3501 -0.0000
vn -0.0000 1.0000 -0.0000
vn -0.9367 0.3501 -0.0000
vn -0.0000 0.4400 0.8980
vn -0.0000 0.4400 -0.8980
vt 0.375000 0.000000
vt 0.625000 0.000000
vt 0.625000 0.250000
vt 0.375000 0.250000
vt 0.625000 0.500000
vt 0.375000 0.500000
vt 0.625000 0.750000
vt 0.375000 0.750000
vt 0.625000 1.000000
vt 0.375000 1.000000
vt 0.125000 0.500000
vt 0.125000 0.750000
vt 0.875000 0.500000
vt 0.875000 0.750000
s 0
usemtl Material.001
f 21/29/17 22/30/17 24/31/17 23/32/17
f 23/32/18 24/31/18 28/33/18 27/34/18
f 27/34/19 28/33/19 26/35/19 25/36/19
f 25/36/20 26/35/20 22/37/20 21/38/20
f 23/39/21 27/34/21 25/36/21 21/40/21
f 26/35/22 28/33/22 31/33/22 32/35/22
f 31/33/23 30/41/23 29/42/23 32/35/23
f 24/31/24 22/30/24 29/30/24 30/31/24
f 22/37/25 26/35/25 32/35/25 29/37/25
f 28/33/26 24/31/26 30/31/26 31/33/26
