# Blender 5.0.1
# www.blender.org
mtllib Беседка.mtl
o Circle
v 0.000000 0.000000 -3.000000
v -0.585271 0.000000 -2.942356
v -1.148050 0.000000 -2.771638
v -1.666711 0.000000 -2.494409
v -2.121320 0.000000 -2.121320
v -2.494409 0.000000 -1.666711
v -2.771638 0.000000 -1.148050
v -2.942356 0.000000 -0.585271
v -3.000000 0.000000 0.000000
v -2.942356 0.000000 0.585271
v -2.771638 0.000000 1.148050
v -2.494409 0.000000 1.666711
v -2.121320 0.000000 2.121320
v -1.666711 0.000000 2.494409
v -1.148050 0.000000 2.771638
v -0.585271 0.000000 2.942356
v 0.000000 0.000000 3.000000
v 0.585271 0.000000 2.942356
v 1.148050 0.000000 2.771638
v 1.666711 0.000000 2.494409
v 2.121320 0.000000 2.121320
v 2.494409 0.000000 1.666711
v 2.771638 0.000000 1.148050
v 2.942356 0.000000 0.585271
v 3.000000 0.000000 0.000000
v 2.942356 0.000000 -0.585271
v 2.771638 0.000000 -1.148050
v 2.494409 0.000000 -1.666711
v 2.121320 0.000000 -2.121320
v 1.666711 0.000000 -2.494409
v 1.148050 0.000000 -2.771638
v 0.585271 0.000000 -2.942356
v 0.000000 0.388669 -3.000000
v -0.585271 0.388669 -2.942356
v -1.148050 0.388669 -2.771638
v -1.666711 0.388669 -2.494409
v -2.121320 0.388669 -2.121320
v -2.494409 0.388669 -1.666711
v -2.771638 0.388669 -1.148050
v -2.942356 0.388669 -0.585271
v -3.000000 0.388669 0.000000
v -2.942356 0.388669 0.585271
v -2.771638 0.388669 1.148050
v -2.494409 0.388669 1.666711
v -2.121320 0.388669 2.121320
v -1.666711 0.388669 2.494409
v -1.148050 0.388669 2.771638
v -0.585271 0.388669 2.942356
v 0.000000 0.388669 3.000000
v 0.585271 0.388669 2.942356
v 1.148050 0.388669 2.771638
v 1.666711 0.388669 2.494409
v 2.121320 0.388669 2.121320
v 2.494409 0.388669 1.666711
v 2.771638 0.388669 1.148050
v 2.942356 0.388669 0.585271
v 3.000000 0.388669 0.000000
v 2.942356 0.388669 -0.585271
v 2.771638 0.388669 -1.148050
v 2.494409 0.388669 -1.666711
v 2.121320 0.388669 -2.121320
v 1.666711 0.388669 -2.494409
v 1.148050 0.388669 -2.771638
v 0.585271 0.388669 -2.942356
v -0.551542 0.388669 -2.772789
v 0.000000 0.388669 -2.827112
v -1.081889 0.388669 -2.611910
v -1.570659 0.388669 -2.350657
v -1.999070 0.388669 -1.999070
v -2.350657 0.388669 -1.570659
v -2.611910 0.388669 -1.081889
v -2.772789 0.388669 -0.551542
v -2.827112 0.388669 -0.000000
v -2.772789 0.388669 0.551542
v -2.611910 0.388669 1.081889
v -2.350657 0.388669 1.570659
v -1.999070 0.388669 1.999070
v -1.570659 0.388669 2.350657
v -1.081889 0.388669 2.611910
v -0.551542 0.388669 2.772789
v 0.000000 0.388669 2.827112
v 0.551542 0.388669 2.772789
v 1.081889 0.388669 2.611910
v 1.570659 0.388669 2.350657
v 1.999070 0.388669 1.999070
v 2.350657 0.388669 1.570659
v 2.611910 0.388669 1.081889
v 2.772789 0.388669 0.551542
v 2.827112 0.388669 -0.000000
v 2.772789 0.388669 -0.551542
v 2.611910 0.388669 -1.081889
v 2.350657 0.388669 -1.570659
v 1.999070 0.388669 -1.999070
v 1.570659 0.388669 -2.350657
v 1.081889 0.388669 -2.611910
v 0.551542 0.388669 -2.772789
v -0.585271 1.324002 -2.942356
v 0.000000 1.324002 -3.000000
v -1.148050 1.324002 -2.771638
v -1.666711 1.324002 -2.494409
v -2.121320 1.324002 -2.121320
v -2.494409 1.324002 -1.666711
v -2.771638 1.324002 -1.148050
v -2.942356 1.324002 -0.585271
v -3.000000 1.324002 0.000000
v -2.942356 1.324002 0.585271
v -2.771638 1.324002 1.148050
v -2.494409 1.324002 1.666711
v -2.121320 1.324002 2.121320
v -1.666711 1.324002 2.494409
v -1.148050 1.324002 2.771638
v -0.585271 1.324002 2.942356
v 0.000000 1.324002 3.000000
v 0.585271 1.324002 2.942356
v 1.148050 1.324002 2.771638
v 1.666711 1.324002 2.494409
v 2.121320 1.324002 2.121320
v 2.494409 1.324002 1.666711
v 2.771638 1.324002 1.148050
v 2.494409 1.324002 -1.666711
v 2.771638 1.324002 -1.148050
v 2.121320 1.324002 -2.121320
v 1.666711 1.324002 -2.494409
v 1.148050 1.324002 -2.771638
v 0.585271 1.324002 -2.942356
v -0.551542 1.324002 -2.772789
v 0.000000 1.324002 -2.827112
v -1.081889 1.324002 -2.611910
v -1.570659 1.324002 -2.350657
v -1.999070 1.324002 -1.999070
v -2.350657 1.324002 -1.570659
v -2.611910 1.324002 -1.081889
v -2.772789 1.324002 -0.551542
v -2.827112 1.324002 -0.000000
v -2.772789 1.324002 0.551542
v -2.611910 1.324002 1.081889
v -2.350657 1.324002 1.570659
v -1.999070 1.324002 1.999070
v -1.570659 1.324002 2.350657
v -1.081889 1.324002 2.611910
v -0.551542 1.324002 2.772789
v 0.000000 1.324002 2.827112
v 0.551542 1.324002 2.772789
v 1.081889 1.324002 2.611910
v 1.570659 1.324002 2.350657
v 1.999070 1.324002 1.999070
v 2.350657 1.324002 1.570659
v 2.611910 1.324002 1.081889
v 2.350657 1.324002 -1.570659
v 2.611910 1.324002 -1.081889
v 1.999070 1.324002 -1.999070
v 1.570659 1.324002 -2.350657
v 1.081889 1.324002 -2.611910
v 0.551542 1.324002 -2.772789
v 1.407381 0.000000 2.633024
v 1.407381 0.388669 2.633024
v 1.326274 0.388669 2.481284
v 1.407381 1.324002 2.633024
v 1.326274 1.324002 2.481284
v 1.894016 0.000000 2.307865
v 1.894016 0.388669 2.307865
v 1.784864 0.388669 2.174864
v 1.894016 1.324002 2.307865
v 1.784864 1.324002 2.174864
v 2.307865 0.000000 1.894016
v 2.307865 0.388669 1.894016
v 2.174864 0.388669 1.784864
v 2.307865 1.324002 1.894016
v 2.174864 1.324002 1.784864
v 2.633024 0.000000 1.407381
v 2.633024 0.388669 1.407381
v 2.481284 0.388669 1.326274
v 2.633024 1.324002 1.407381
v 2.481284 1.324002 1.326274
v 0.866661 0.000000 2.856997
v 0.866661 0.388669 2.856997
v 0.816715 0.388669 2.692350
v 0.866661 1.324002 2.856997
v 0.816715 1.324002 2.692350
v 0.292636 0.000000 2.971178
v 0.292636 0.388669 2.971178
v 0.275771 0.388669 2.799951
v 0.292636 1.324002 2.971178
v 0.275771 1.324002 2.799951
v -0.292636 0.000000 2.971178
v -0.292636 0.388669 2.971178
v -0.275771 0.388669 2.799951
v -0.292636 1.324002 2.971178
v -0.275771 1.324002 2.799951
v -0.866661 0.000000 2.856997
v -0.866661 0.388669 2.856997
v -0.816715 0.388669 2.692350
v -0.866661 1.324002 2.856997
v -0.816715 1.324002 2.692350
v -1.407381 0.000000 2.633024
v -1.407381 0.388669 2.633024
v -1.326274 0.388669 2.481284
v -1.407381 1.324002 2.633024
v -1.326274 1.324002 2.481284
v -1.894016 0.000000 2.307865
v -1.894016 0.388669 2.307865
v -1.784864 0.388669 2.174864
v -1.894016 1.324002 2.307865
v -1.784864 1.324002 2.174864
v -2.307865 0.000000 1.894016
v -2.307865 0.388669 1.894016
v -2.174864 0.388669 1.784864
v -2.307865 1.324002 1.894016
v -2.174864 1.324002 1.784864
v -2.633024 0.000000 1.407381
v -2.633024 0.388669 1.407381
v -2.481284 0.388669 1.326274
v -2.633024 1.324002 1.407381
v -2.481284 1.324002 1.326274
v -2.856997 0.000000 0.866661
v -2.856997 0.388669 0.866661
v -2.692350 0.388669 0.816715
v -2.856997 1.324002 0.866661
v -2.692350 1.324002 0.816715
v -2.971178 0.000000 0.292636
v -2.971178 0.388669 0.292636
v -2.799951 0.388669 0.275771
v -2.971178 1.324002 0.292636
v -2.799951 1.324002 0.275771
v -2.971178 0.000000 -0.292636
v -2.971178 0.388669 -0.292636
v -2.799951 0.388669 -0.275771
v -2.971178 1.324002 -0.292636
v -2.799951 1.324002 -0.275771
v -2.856997 0.000000 -0.866661
v -2.856997 0.388669 -0.866661
v -2.692350 0.388669 -0.816716
v -2.856997 1.324002 -0.866661
v -2.692350 1.324002 -0.816716
v -2.633024 0.000000 -1.407381
v -2.633024 0.388669 -1.407381
v -2.481284 0.388669 -1.326274
v -2.633024 1.324002 -1.407381
v -2.481284 1.324002 -1.326274
v -2.307865 0.000000 -1.894016
v -2.307865 0.388669 -1.894016
v -2.174864 0.388669 -1.784864
v -2.307865 1.324002 -1.894016
v -2.174864 1.324002 -1.784864
v -1.894016 0.000000 -2.307865
v -1.894016 0.388669 -2.307865
v -1.784864 0.388669 -2.174864
v -1.894016 1.324002 -2.307865
v -1.784864 1.324002 -2.174864
v -1.407381 0.000000 -2.633024
v -1.407381 0.388669 -2.633024
v -1.326274 0.388669 -2.481284
v -1.407381 1.324002 -2.633024
v -1.326274 1.324002 -2.481284
v -0.866661 0.000000 -2.856997
v -0.866661 0.388669 -2.856997
v -0.816715 0.388669 -2.692350
v -0.866661 1.324002 -2.856997
v -0.816715 1.324002 -2.692350
v -0.292636 0.000000 -2.971178
v -0.292636 0.388669 -2.971178
v -0.275771 0.388669 -2.799951
v -0.292636 1.324002 -2.971178
v -0.275771 1.324002 -2.799951
v 0.292636 0.000000 -2.971178
v 0.292636 0.388669 -2.971178
v 0.275771 0.388669 -2.799951
v 0.292636 1.324002 -2.971178
v 0.275771 1.324002 -2.799951
v 0.866661 0.000000 -2.856997
v 0.866661 0.388669 -2.856997
v 0.816715 0.388669 -2.692350
v 0.866661 1.324002 -2.856997
v 0.816715 1.324002 -2.692350
v 1.407381 0.000000 -2.633024
v 1.407381 0.388669 -2.633024
v 1.326274 0.388669 -2.481284
v 1.407381 1.324002 -2.633024
v 1.326274 1.324002 -2.481284
v 1.894016 0.000000 -2.307865
v 1.894016 0.388669 -2.307865
v 1.784864 0.388669 -2.174864
v 1.894016 1.324002 -2.307865
v 1.784864 1.324002 -2.174864
v 2.307865 0.000000 -1.894016
v 2.307865 0.388669 -1.894016
v 2.174864 0.388669 -1.784864
v 2.307865 1.324002 -1.894016
v 2.174864 1.324002 -1.784864
v 2.633024 0.000000 -1.407381
v 2.633024 0.388669 -1.407381
v 2.481284 0.388669 -1.326274
v 2.633024 1.324002 -1.407381
v 2.481284 1.324002 -1.326274
v -2.494409 1.324002 1.666711
v -2.350657 1.324002 1.570659
v -1.999070 1.324002 1.999070
v -2.121320 1.324002 2.121320
v -1.570659 1.324002 2.350657
v -1.666711 1.324002 2.494409
v 2.350657 1.324002 -1.570659
v 2.494409 1.324002 -1.666711
v -1.081889 1.324002 2.611910
v -1.148050 1.324002 2.771638
v 0.000000 1.324002 -3.000000
v 0.000000 1.324002 -2.827112
v -0.551542 1.324002 -2.772789
v -0.585271 1.324002 -2.942356
v 1.999070 1.324002 -1.999070
v 2.121320 1.324002 -2.121320
v -0.551542 1.324002 2.772789
v -0.585271 1.324002 2.942356
v -1.081889 1.324002 -2.611910
v -1.148050 1.324002 -2.771638
v 1.570659 1.324002 -2.350657
v 1.666711 1.324002 -2.494409
v 0.000000 1.324002 2.827112
v 0.000000 1.324002 3.000000
v -1.570659 1.324002 -2.350657
v -1.666711 1.324002 -2.494409
v 1.081889 1.324002 -2.611910
v 1.148050 1.324002 -2.771638
v 0.551542 1.324002 2.772789
v 0.585271 1.324002 2.942356
v -1.999070 1.324002 -1.999070
v -2.121320 1.324002 -2.121320
v 0.551542 1.324002 -2.772789
v 0.585271 1.324002 -2.942356
v 1.081889 1.324002 2.611910
v 1.148050 1.324002 2.771638
v -2.350657 1.324002 -1.570659
v -2.494409 1.324002 -1.666711
v 1.570659 1.324002 2.350657
v 1.666711 1.324002 2.494409
v -2.611910 1.324002 -1.081889
v -2.771638 1.324002 -1.148050
v 1.999070 1.324002 1.999070
v 2.121320 1.324002 2.121320
v -2.772789 1.324002 -0.551542
v -2.942356 1.324002 -0.585271
v 2.350657 1.324002 1.570659
v 2.494409 1.324002 1.666711
v -2.827112 1.324002 -0.000000
v -3.000000 1.324002 0.000000
v -2.772789 1.324002 0.551542
v -2.942356 1.324002 0.585271
v -2.611910 1.324002 1.081889
v -2.771638 1.324002 1.148050
v 1.407381 1.324002 2.633024
v 1.326274 1.324002 2.481284
v 1.894016 1.324002 2.307865
v 1.784864 1.324002 2.174864
v 2.307865 1.324002 1.894016
v 2.174864 1.324002 1.784864
v 0.866661 1.324002 2.856997
v 0.816715 1.324002 2.692350
v 0.292636 1.324002 2.971178
v 0.275771 1.324002 2.799951
v -0.292636 1.324002 2.971178
v -0.275771 1.324002 2.799951
v -0.866661 1.324002 2.856997
v -0.816715 1.324002 2.692350
v -1.407381 1.324002 2.633024
v -1.326274 1.324002 2.481284
v -1.894016 1.324002 2.307865
v -1.784864 1.324002 2.174864
v -2.307865 1.324002 1.894016
v -2.174864 1.324002 1.784864
v -2.633024 1.324002 1.407381
v -2.481284 1.324002 1.326274
v -2.856997 1.324002 0.866661
v -2.692350 1.324002 0.816715
v -2.971178 1.324002 0.292636
v -2.799951 1.324002 0.275771
v -2.971178 1.324002 -0.292636
v -2.799951 1.324002 -0.275771
v -2.856997 1.324002 -0.866661
v -2.692350 1.324002 -0.816716
v -2.633024 1.324002 -1.407381
v -2.481284 1.324002 -1.326274
v -2.307865 1.324002 -1.894016
v -2.174864 1.324002 -1.784864
v -1.894016 1.324002 -2.307865
v -1.784864 1.324002 -2.174864
v -1.407381 1.324002 -2.633024
v -1.326274 1.324002 -2.481284
v -0.866661 1.324002 -2.856997
v -0.816715 1.324002 -2.692350
v -0.292636 1.324002 -2.971178
v -0.275771 1.324002 -2.799951
v 0.292636 1.324002 -2.971178
v 0.275771 1.324002 -2.799951
v 0.866661 1.324002 -2.856997
v 0.816715 1.324002 -2.692350
v 1.407381 1.324002 -2.633024
v 1.326274 1.324002 -2.481284
v 1.894016 1.324002 -2.307865
v 1.784864 1.324002 -2.174864
v 2.307865 1.324002 -1.894016
v 2.174864 1.324002 -1.784864
v 2.633024 1.324002 -1.407381
v 2.481284 1.324002 -1.326274
v -0.866661 2.749359 -2.856997
v -0.585271 2.749359 -2.942356
v -2.307865 2.749359 -1.894016
v -2.121320 2.749359 -2.121320
v -2.971178 2.749359 -0.292636
v -2.942356 2.749359 -0.585271
v -2.633024 2.749359 1.407381
v -2.771638 2.749359 1.148050
v -1.407381 2.749359 2.633024
v -1.666711 2.749359 2.494409
v 0.292636 2.749359 2.971178
v 0.000000 2.749359 3.000000
v 1.894016 2.749359 2.307865
v 1.666711 2.749359 2.494409
v 2.307865 2.749359 -1.894016
v 2.494409 2.749359 -1.666711
v 0.866661 2.749359 -2.856997
v 1.148050 2.749359 -2.771638
v -0.816715 2.749359 -2.692350
v -0.551542 2.749359 -2.772789
v -2.174864 2.749359 -1.784864
v -1.999070 2.749359 -1.999070
v -2.799951 2.749359 -0.275771
v -2.772789 2.749359 -0.551542
v -2.481284 2.749359 1.326274
v -2.611910 2.749359 1.081889
v -1.326274 2.749359 2.481284
v -1.570659 2.749359 2.350657
v 0.275771 2.749359 2.799951
v 0.000000 2.749359 2.827112
v 1.784864 2.749359 2.174864
v 1.570659 2.749359 2.350657
v 2.174864 2.749359 -1.784864
v 2.350657 2.749359 -1.570659
v 0.816715 2.749359 -2.692350
v 1.081889 2.749359 -2.611910
v -1.999070 2.749359 1.999070
v -2.121320 2.749359 2.121320
v 0.000000 2.749359 -3.000000
v 0.000000 2.749359 -2.827112
v -0.551542 2.749359 2.772789
v -0.585271 2.749359 2.942356
v 1.570659 2.749359 -2.350657
v 1.666711 2.749359 -2.494409
v -1.570659 2.749359 -2.350657
v -1.666711 2.749359 -2.494409
v 1.081889 2.749359 2.611910
v 1.148050 2.749359 2.771638
v -2.611910 2.749359 -1.081889
v -2.771638 2.749359 -1.148050
v 2.350657 2.749359 1.570659
v 2.494409 2.749359 1.666711
v -2.772789 2.749359 0.551542
v -2.942356 2.749359 0.585271
v 2.307865 2.749359 1.894016
v 2.174864 2.749359 1.784864
v 0.866661 2.749359 2.856997
v 0.816715 2.749359 2.692350
v -0.866661 2.749359 2.856997
v -0.816715 2.749359 2.692350
v -2.307865 2.749359 1.894016
v -2.174864 2.749359 1.784864
v -2.971178 2.749359 0.292636
v -2.799951 2.749359 0.275771
v -2.633024 2.749359 -1.407381
v -2.481284 2.749359 -1.326274
v -1.407381 2.749359 -2.633024
v -1.326274 2.749359 -2.481284
v 0.292636 2.749359 -2.971178
v 0.275771 2.749359 -2.799951
v 1.894016 2.749359 -2.307865
v 1.784864 2.749359 -2.174864
v -2.771638 1.012224 1.148050
v -2.771638 0.700447 1.148050
v -2.942356 1.012224 0.585271
v -2.942356 0.700447 0.585271
v -3.000000 1.012224 0.000000
v -3.000000 0.700447 0.000000
v 2.611910 0.700447 1.081889
v 2.611910 1.012224 1.081889
v -2.942356 1.012224 -0.585271
v -2.942356 0.700447 -0.585271
v 2.350657 0.700447 1.570659
v 2.350657 1.012224 1.570659
v -2.771638 1.012224 -1.148050
v -2.771638 0.700447 -1.148050
v 1.999070 0.700447 1.999070
v 1.999070 1.012224 1.999070
v -2.494409 1.012224 -1.666711
v -2.494409 0.700447 -1.666711
v 0.585271 1.012224 -2.942356
v 0.585271 0.700447 -2.942356
v 1.570659 0.700447 2.350657
v 1.570659 1.012224 2.350657
v -2.121320 1.012224 -2.121320
v -2.121320 0.700447 -2.121320
v 1.148050 1.012224 -2.771638
v 1.148050 0.700447 -2.771638
v 1.081889 0.700447 2.611910
v 1.081889 1.012224 2.611910
v -1.666711 1.012224 -2.494409
v -1.666711 0.700447 -2.494409
v 1.666711 1.012224 -2.494409
v 1.666711 0.700447 -2.494409
v 0.551542 0.700447 2.772789
v 0.551542 1.012224 2.772789
v -1.148050 1.012224 -2.771638
v -1.148050 0.700447 -2.771638
v 2.121320 1.012224 -2.121320
v 2.121320 0.700447 -2.121320
v 0.000000 0.700447 2.827112
v 0.000000 1.012224 2.827112
v -0.585271 1.012224 -2.942356
v -0.585271 0.700447 -2.942356
v 0.000000 0.700447 -3.000000
v 0.000000 1.012224 -3.000000
v 2.494409 1.012224 -1.666711
v 2.494409 0.700447 -1.666711
v 2.771638 0.700447 -1.148050
v 2.771638 1.012224 -1.148050
v -0.551542 0.700447 2.772789
v -0.551542 1.012224 2.772789
v -1.570659 1.012224 2.350657
v -1.570659 0.700447 2.350657
v -1.081889 0.700447 2.611910
v -1.081889 1.012224 2.611910
v -2.494409 1.012224 1.666711
v -2.494409 0.700447 1.666711
v -2.121320 1.012224 2.121320
v -2.121320 0.700447 2.121320
v 2.350657 0.700447 -1.570659
v 2.350657 1.012224 -1.570659
v 2.611910 1.012224 -1.081889
v 2.611910 0.700447 -1.081889
v -0.551542 0.700447 -2.772789
v -0.551542 1.012224 -2.772789
v 0.000000 1.012224 -2.827112
v 0.000000 0.700447 -2.827112
v -1.666711 1.012224 2.494409
v -1.666711 0.700447 2.494409
v 1.999070 0.700447 -1.999070
v 1.999070 1.012224 -1.999070
v -1.081889 0.700447 -2.611910
v -1.081889 1.012224 -2.611910
v -1.148050 1.012224 2.771638
v -1.148050 0.700447 2.771638
v 1.570659 0.700447 -2.350657
v 1.570659 1.012224 -2.350657
v -1.570659 0.700447 -2.350657
v -1.570659 1.012224 -2.350657
v -0.585271 1.012224 2.942356
v -0.585271 0.700447 2.942356
v 1.081889 0.700447 -2.611910
v 1.081889 1.012224 -2.611910
v -1.999070 0.700447 -1.999070
v -1.999070 1.012224 -1.999070
v 0.000000 1.012224 3.000000
v 0.000000 0.700447 3.000000
v 0.551542 0.700447 -2.772789
v 0.551542 1.012224 -2.772789
v -2.350657 0.700447 -1.570659
v -2.350657 1.012224 -1.570659
v 0.585271 1.012224 2.942356
v 0.585271 0.700447 2.942356
v -2.611910 0.700447 -1.081889
v -2.611910 1.012224 -1.081889
v 1.148050 1.012224 2.771638
v 1.148050 0.700447 2.771638
v -2.772789 0.700447 -0.551542
v -2.772789 1.012224 -0.551542
v 1.666711 1.012224 2.494409
v 1.666711 0.700447 2.494409
v -2.827112 0.700447 -0.000000
v -2.827112 1.012224 -0.000000
v 2.121320 1.012224 2.121320
v 2.121320 0.700447 2.121320
v 2.771638 0.700447 1.148050
v 2.771638 1.012224 1.148050
v -2.772789 0.700447 0.551542
v -2.772789 1.012224 0.551542
v 2.494409 1.012224 1.666711
v 2.494409 0.700447 1.666711
v -2.611910 0.700447 1.081889
v -2.611910 1.012224 1.081889
v -2.350657 0.700447 1.570659
v -2.350657 1.012224 1.570659
v -1.999070 0.700447 1.999070
v -1.999070 1.012224 1.999070
v 1.407381 0.700447 2.633024
v 1.407381 1.012224 2.633024
v 1.326274 0.700447 2.481284
v 1.326274 1.012224 2.481284
v 1.894016 0.700447 2.307865
v 1.894016 1.012224 2.307865
v 1.784864 0.700447 2.174864
v 1.784864 1.012224 2.174864
v 2.307865 0.700447 1.894016
v 2.307865 1.012224 1.894016
v 2.174864 0.700447 1.784864
v 2.174864 1.012224 1.784864
v 2.633024 0.700447 1.407381
v 2.633024 1.012224 1.407381
v 2.481284 0.700447 1.326274
v 2.481284 1.012224 1.326274
v 0.866661 0.700447 2.856997
v 0.866661 1.012224 2.856997
v 0.816715 0.700447 2.692350
v 0.816715 1.012224 2.692350
v 0.292636 0.700447 2.971178
v 0.292636 1.012224 2.971178
v 0.275771 0.700447 2.799951
v 0.275771 1.012224 2.799951
v -0.292636 0.700447 2.971178
v -0.292636 1.012224 2.971178
v -0.275771 0.700447 2.799951
v -0.275771 1.012224 2.799951
v -0.866661 0.700447 2.856997
v -0.866661 1.012224 2.856997
v -0.816715 0.700447 2.692350
v -0.816715 1.012224 2.692350
v -1.407381 0.700447 2.633024
v -1.407381 1.012224 2.633024
v -1.326274 0.700447 2.481284
v -1.326274 1.012224 2.481284
v -1.784864 0.700447 2.174864
v -1.784864 1.012224 2.174864
v -1.894016 0.700447 2.307865
v -1.894016 1.012224 2.307865
v -2.174864 0.700447 1.784864
v -2.174864 1.012224 1.784864
v -2.307865 0.700447 1.894016
v -2.307865 1.012224 1.894016
v -2.481284 0.700447 1.326274
v -2.481284 1.012224 1.326274
v -2.633024 0.700447 1.407381
v -2.633024 1.012224 1.407381
v -2.692350 0.700447 0.816715
v -2.692350 1.012224 0.816715
v -2.856997 0.700447 0.866661
v -2.856997 1.012224 0.866661
v -2.799951 0.700447 0.275771
v -2.799951 1.012224 0.275771
v -2.971178 0.700447 0.292636
v -2.971178 1.012224 0.292636
v -2.799951 0.700447 -0.275771
v -2.799951 1.012224 -0.275771
v -2.971178 0.700447 -0.292636
v -2.971178 1.012224 -0.292636
v -2.692350 0.700447 -0.816716
v -2.692350 1.012224 -0.816716
v -2.856997 0.700447 -0.866661
v -2.856997 1.012224 -0.866661
v -2.481284 0.700447 -1.326274
v -2.481284 1.012224 -1.326274
v -2.633024 0.700447 -1.407381
v -2.633024 1.012224 -1.407381
v -2.174864 0.700447 -1.784864
v -2.174864 1.012224 -1.784864
v -2.307865 0.700447 -1.894016
v -2.307865 1.012224 -1.894016
v -1.784864 0.700447 -2.174864
v -1.784864 1.012224 -2.174864
v -1.894016 0.700447 -2.307865
v -1.894016 1.012224 -2.307865
v -1.326274 0.700447 -2.481284
v -1.326274 1.012224 -2.481284
v -1.407381 0.700447 -2.633024
v -1.407381 1.012224 -2.633024
v -0.816715 0.700447 -2.692350
v -0.816715 1.012224 -2.692350
v -0.866661 0.700447 -2.856997
v -0.866661 1.012224 -2.856997
v -0.275771 0.700447 -2.799951
v -0.275771 1.012224 -2.799951
v -0.292636 0.700447 -2.971178
v -0.292636 1.012224 -2.971178
v 0.275771 0.700447 -2.799951
v 0.275771 1.012224 -2.799951
v 0.292636 0.700447 -2.971178
v 0.292636 1.012224 -2.971178
v 0.816715 0.700447 -2.692350
v 0.816715 1.012224 -2.692350
v 0.866661 0.700447 -2.856997
v 0.866661 1.012224 -2.856997
v 1.326274 0.700447 -2.481284
v 1.326274 1.012224 -2.481284
v 1.407381 0.700447 -2.633024
v 1.407381 1.012224 -2.633024
v 1.784864 0.700447 -2.174864
v 1.784864 1.012224 -2.174864
v 1.894016 0.700447 -2.307865
v 1.894016 1.012224 -2.307865
v 2.174864 0.700447 -1.784864
v 2.174864 1.012224 -1.784864
v 2.307865 0.700447 -1.894016
v 2.307865 1.012224 -1.894016
v 2.633024 0.700447 -1.407381
v 2.633024 1.012224 -1.407381
v 2.481284 0.700447 -1.326274
v 2.481284 1.012224 -1.326274
v 1.328578 0.737954 1.518088
v 1.328578 0.974717 1.518088
v 1.003244 0.737954 1.785082
v 1.003244 0.974717 1.785082
v 0.632073 0.737954 1.983477
v 0.632073 0.974717 1.983477
v 0.229329 0.737954 2.105648
v 0.229329 0.974717 2.105648
v -0.189510 0.737954 2.146900
v -0.189510 0.974717 2.146900
v -0.608350 0.737954 2.105648
v -0.608350 0.974717 2.105648
v -1.382264 0.974717 1.785082
v -1.382264 0.737954 1.785082
v -1.011093 0.737954 1.983477
v -1.011093 0.974717 1.983477
v -0.608350 0.737954 -2.105648
v -0.608350 0.974717 -2.105648
v -0.189510 0.974717 -2.146900
v -0.189510 0.737954 -2.146900
v 1.328578 0.737954 -1.518088
v 1.328578 0.974717 -1.518088
v -1.011093 0.737954 -1.983477
v -1.011093 0.974717 -1.983477
v 1.003244 0.737954 -1.785082
v 1.003244 0.974717 -1.785082
v -1.382264 0.737954 -1.785082
v -1.382264 0.974717 -1.785082
v 0.632073 0.737954 -1.983477
v 0.632073 0.974717 -1.983477
v -1.707598 0.737954 -1.518088
v -1.707598 0.974717 -1.518088
v 0.229329 0.737954 -2.105648
v 0.229329 0.974717 -2.105648
v -1.974593 0.737954 -1.192754
v -1.974593 0.974717 -1.192754
v -2.172987 0.737954 -0.821583
v -2.172987 0.974717 -0.821583
v -2.295158 0.737954 -0.418839
v -2.295158 0.974717 -0.418839
v -2.336411 0.737954 0.000000
v -2.336411 0.974717 0.000000
v -2.295158 0.737954 0.418840
v -2.295158 0.974717 0.418840
v -2.172987 0.737954 0.821583
v -2.172987 0.974717 0.821583
v -1.974593 0.737954 1.192754
v -1.974593 0.974717 1.192754
v -1.707598 0.737954 1.518088
v -1.707598 0.974717 1.518088
v 0.817658 0.737954 1.884280
v 0.817658 0.974717 1.884280
v 1.165910 0.737954 1.651585
v 1.165910 0.974717 1.651585
v 0.430701 0.737954 2.044563
v 0.430701 0.974717 2.044563
v 0.019909 0.737954 2.126274
v 0.019909 0.974717 2.126274
v -0.398930 0.737954 2.126274
v -0.398930 0.974717 2.126274
v -0.809722 0.737954 2.044563
v -0.809722 0.974717 2.044563
v -1.196679 0.737954 1.884280
v -1.196679 0.974717 1.884280
v -1.544931 0.737954 1.651585
v -1.544931 0.974717 1.651585
v -1.841095 0.737954 1.355421
v -1.841095 0.974717 1.355421
v -2.073790 0.737954 1.007169
v -2.073790 0.974717 1.007169
v -2.234073 0.737954 0.620211
v -2.234073 0.974717 0.620211
v -2.315785 0.737954 0.209420
v -2.315785 0.974717 0.209420
v -2.315785 0.737954 -0.209420
v -2.315785 0.974717 -0.209420
v -2.234073 0.737954 -0.620211
v -2.234073 0.974717 -0.620211
v -2.073790 0.737954 -1.007169
v -2.073790 0.974717 -1.007169
v -1.841095 0.737954 -1.355421
v -1.841095 0.974717 -1.355421
v -1.544931 0.737954 -1.651585
v -1.544931 0.974717 -1.651585
v -1.196679 0.737954 -1.884280
v -1.196679 0.974717 -1.884280
v -0.809722 0.737954 -2.044563
v -0.809722 0.974717 -2.044563
v -0.398930 0.737954 -2.126274
v -0.398930 0.974717 -2.126274
v 0.019909 0.737954 -2.126274
v 0.019909 0.974717 -2.126274
v 0.430701 0.737954 -2.044563
v 0.430701 0.974717 -2.044563
v 0.817658 0.737954 -1.884280
v 0.817658 0.974717 -1.884280
v 1.165910 0.737954 -1.651585
v 1.165910 0.974717 -1.651585
vn -0.4714 -0.0000 0.8819
vn -0.0980 -0.0000 -0.9952
vn 0.6344 -0.0000 0.7730
vn -0.2903 -0.0000 0.9569
vn -0.2903 -0.0000 -0.9569
vn 0.7730 -0.0000 0.6344
vn -0.0980 -0.0000 0.9952
vn -0.4714 -0.0000 -0.8819
vn 0.8819 -0.0000 0.4714
vn -0.6344 -0.0000 -0.7730
vn 0.9569 -0.0000 0.2903
vn -0.7730 -0.0000 -0.6344
vn 0.9952 -0.0000 0.0980
vn -0.8819 -0.0000 -0.4714
vn 0.9952 -0.0000 -0.0980
vn -0.9569 -0.0000 -0.2903
vn 0.9569 -0.0000 -0.2903
vn -0.9952 -0.0000 -0.0980
vn 0.8819 -0.0000 -0.4714
vn -0.9952 -0.0000 0.0980
vn 0.7730 -0.0000 -0.6344
vn -0.9569 -0.0000 0.2903
vn 0.6344 -0.0000 -0.7730
vn -0.8819 -0.0000 0.4714
vn 0.4714 -0.0000 -0.8819
vn 0.0980 -0.0000 0.9952
vn -0.7730 -0.0000 0.6344
vn 0.2903 -0.0000 -0.9569
vn 0.2903 -0.0000 0.9569
vn -0.6344 -0.0000 0.7730
vn 0.0980 -0.0000 -0.9952
vn 0.4714 -0.0000 0.8819
vn -0.0000 1.0000 -0.0000
vn -0.0000 -1.0000 -0.0000
vn -0.5556 -0.0000 0.8315
vn 0.8315 -0.0000 -0.5556
vn -0.3827 -0.0000 0.9239
vn -0.3827 -0.0000 -0.9239
vn 0.3827 -0.0000 -0.9239
vn -0.7071 -0.0000 0.7071
vn -0.9239 -0.0000 0.3827
vn -0.1951 -0.0000 -0.9808
vn -0.1951 -0.0000 0.9808
vn -0.7071 -0.0000 -0.7071
vn 0.3827 -0.0000 0.9239
vn 1.0000 -0.0000 -0.0000
vn 0.8315 -0.0000 0.5556
vn -0.5556 -0.0000 -0.8315
vn -0.9808 -0.0000 -0.1951
vn -0.9808 -0.0000 0.1951
vn -0.9239 -0.0000 -0.3827
vn -0.0056 -0.9984 0.0566
vn -0.0722 -0.9971 -0.0219
vn -0.0762 0.9971 0.0075
vn -0.0056 0.9984 0.0566
vn -0.0722 0.9971 -0.0219
vn -0.0175 -0.9982 -0.0576
vn 0.0230 -0.9988 0.0431
vn -0.0175 0.9982 -0.0576
vn 0.0298 -0.9989 -0.0363
vn 0.0053 -0.9985 0.0536
vn 0.0230 0.9988 0.0431
vn 0.0298 0.9989 -0.0363
vn -0.0762 -0.9971 -0.0075
vn 0.0053 0.9985 0.0536
vn -0.0175 -0.9982 0.0576
vn -0.0300 -0.9980 -0.0562
vn -0.0762 0.9971 -0.0075
vn -0.0175 0.9982 0.0576
vn -0.0056 -0.9984 -0.0566
vn -0.0300 0.9980 -0.0562
vn 0.0298 -0.9989 0.0363
vn -0.0056 0.9984 -0.0566
vn 0.0298 0.9989 0.0363
vn -0.0300 -0.9980 0.0562
vn -0.5829 -0.0000 -0.8126
vn 0.0230 -0.9988 -0.0431
vn -0.0300 0.9980 0.0562
vn 0.0053 -0.9985 -0.0536
vn 0.0230 0.9988 -0.0431
vn -0.5829 -0.0000 0.8126
vn -0.0426 -0.9977 0.0520
vn -0.0762 -0.9971 0.0075
vn 0.0053 0.9985 -0.0536
vn -0.0426 -0.9977 -0.0520
vn -0.0426 0.9977 0.0520
vn -0.0426 0.9977 -0.0520
vn -0.0647 -0.9973 -0.0346
vn -0.0647 0.9973 -0.0346
vn 0.0149 -0.9987 -0.0490
vn 0.0149 0.9987 0.0490
vn -0.0545 0.9975 0.0447
vn 0.0149 -0.9987 0.0490
vn -0.0722 0.9971 0.0219
vn -0.0545 -0.9975 0.0447
vn -0.0722 -0.9971 0.0219
vn -0.0647 0.9973 0.0346
vn -0.0647 -0.9973 0.0346
vn -0.0545 0.9975 -0.0447
vn -0.0545 -0.9975 -0.0447
vn 0.0149 0.9987 -0.0490
vt 0.000000 0.000000
s 0
usemtl Material.001
f 275/1/1 30/1/1 62/1/1 276/1/1
f 180/1/2 17/1/2 49/1/2 181/1/2
f 245/1/3 4/1/3 36/1/3 246/1/3
f 270/1/4 31/1/4 63/1/4 271/1/4
f 175/1/5 18/1/5 50/1/5 176/1/5
f 240/1/6 5/1/6 37/1/6 241/1/6
f 265/1/7 32/1/7 64/1/7 266/1/7
f 155/1/8 19/1/8 51/1/8 156/1/8
f 235/1/9 6/1/9 38/1/9 236/1/9
f 160/1/10 20/1/10 52/1/10 161/1/10
f 230/1/11 7/1/11 39/1/11 231/1/11
f 165/1/12 21/1/12 53/1/12 166/1/12
f 225/1/13 8/1/13 40/1/13 226/1/13
f 170/1/14 22/1/14 54/1/14 171/1/14
f 220/1/15 9/1/15 41/1/15 221/1/15
f 24/1/16 23/1/16 55/1/16 56/1/16
f 215/1/17 10/1/17 42/1/17 216/1/17
f 25/1/18 24/1/18 56/1/18 57/1/18
f 210/1/19 11/1/19 43/1/19 211/1/19
f 26/1/20 25/1/20 57/1/20 58/1/20
f 205/1/21 12/1/21 44/1/21 206/1/21
f 27/1/22 26/1/22 58/1/22 59/1/22
f 200/1/23 13/1/23 45/1/23 201/1/23
f 290/1/24 27/1/24 59/1/24 291/1/24
f 195/1/25 14/1/25 46/1/25 196/1/25
f 260/1/26 1/1/26 33/1/26 261/1/26
f 285/1/27 28/1/27 60/1/27 286/1/27
f 190/1/28 15/1/28 47/1/28 191/1/28
f 255/1/29 2/1/29 34/1/29 256/1/29
f 280/1/30 29/1/30 61/1/30 281/1/30
f 185/1/31 16/1/31 48/1/31 186/1/31
f 250/1/32 3/1/32 35/1/32 251/1/32
f 2/1/33 255/1/33 3/1/33 250/1/33 4/1/33 245/1/33 5/1/33 240/1/33 6/1/33 235/1/33 7/1/33 230/1/33 8/1/33 225/1/33 9/1/33 220/1/33 10/1/33 215/1/33 11/1/33 210/1/33 12/1/33 205/1/33 13/1/33 200/1/33 14/1/33 195/1/33 15/1/33 190/1/33 16/1/33 185/1/33 17/1/33 180/1/33 18/1/33 175/1/33 19/1/33 155/1/33 20/1/33 160/1/33 21/1/33 165/1/33 22/1/33 170/1/33 23/1/33 24/1/33 25/1/33 26/1/33 27/1/33 290/1/33 28/1/33 285/1/33 29/1/33 280/1/33 30/1/33 275/1/33 31/1/33 270/1/33 32/1/33 265/1/33 1/1/33 260/1/33
f 58/1/34 57/1/34 89/1/34 90/1/34
f 65/1/34 262/1/34 66/1/34 267/1/34 96/1/34 272/1/34 95/1/34 277/1/34 94/1/34 282/1/34 93/1/34 287/1/34 92/1/34 292/1/34 91/1/34 90/1/34 89/1/34 88/1/34 87/1/34 172/1/34 86/1/34 167/1/34 85/1/34 162/1/34 84/1/34 157/1/34 83/1/34 177/1/34 82/1/34 182/1/34 81/1/34 187/1/34 80/1/34 192/1/34 79/1/34 197/1/34 78/1/34 202/1/34 77/1/34 207/1/34 76/1/34 212/1/34 75/1/34 217/1/34 74/1/34 222/1/34 73/1/34 227/1/34 72/1/34 232/1/34 71/1/34 237/1/34 70/1/34 242/1/34 69/1/34 247/1/34 68/1/34 252/1/34 67/1/34 257/1/34
f 702/1/19 534/1/19 149/1/19 294/1/19
f 59/1/34 58/1/34 90/1/34 91/1/34
f 634/1/21 529/1/21 108/1/21 208/1/21
f 638/1/19 475/1/19 107/1/19 213/1/19
f 642/1/17 477/1/17 106/1/17 218/1/17
f 646/1/15 479/1/15 105/1/15 223/1/15
f 650/1/13 483/1/13 104/1/13 228/1/13
f 606/1/9 482/1/9 148/1/9 174/1/9
f 654/1/11 487/1/11 103/1/11 233/1/11
f 602/1/6 486/1/6 147/1/6 169/1/6
f 658/1/9 491/1/9 102/1/9 238/1/9
f 682/1/7 493/1/7 125/1/7 268/1/7
f 598/1/3 490/1/3 146/1/3 164/1/3
f 662/1/6 497/1/6 101/1/6 243/1/6
f 686/1/4 499/1/4 124/1/4 273/1/4
f 594/1/32 496/1/32 145/1/32 159/1/32
f 666/1/3 503/1/3 100/1/3 248/1/3
f 690/1/1 505/1/1 123/1/1 278/1/1
f 610/1/29 502/1/29 144/1/29 179/1/29
f 670/1/32 509/1/32 99/1/32 253/1/32
f 694/1/30 511/1/30 122/1/30 283/1/30
f 614/1/26 508/1/26 143/1/26 184/1/26
f 674/1/29 515/1/29 97/1/29 258/1/29
f 698/1/27 519/1/27 120/1/27 288/1/27
f 618/1/7 514/1/7 142/1/7 189/1/7
f 678/1/26 518/1/26 98/1/26 263/1/26
f 700/1/24 522/1/24 121/1/24 293/1/24
f 56/1/34 55/1/34 87/1/34 88/1/34
f 622/1/4 524/1/4 141/1/4 194/1/4
f 57/1/34 56/1/34 88/1/34 89/1/34
f 626/1/1 528/1/1 140/1/1 199/1/1
f 208/1/34 108/1/34 137/1/34 209/1/34
f 203/1/34 109/1/34 138/1/34 204/1/34
f 293/1/34 121/1/34 150/1/34 294/1/34
f 149/1/21 289/1/21 435/1/21 436/1/21
f 263/1/34 98/1/34 127/1/34 264/1/34
f 341/1/35 342/1/35 454/1/35 453/1/35
f 193/1/34 111/1/34 140/1/34 194/1/34
f 116/1/36 145/1/36 434/1/36 416/1/36
f 283/1/34 122/1/34 151/1/34 284/1/34
f 188/1/34 112/1/34 141/1/34 189/1/34
f 253/1/34 99/1/34 128/1/34 254/1/34
f 278/1/34 123/1/34 152/1/34 279/1/34
f 397/1/12 398/1/12 474/1/12 473/1/12
f 248/1/34 100/1/34 129/1/34 249/1/34
f 288/1/27 120/1/27 418/1/27 417/1/27
f 178/1/34 114/1/34 143/1/34 179/1/34
f 379/1/1 380/1/1 468/1/1 467/1/1
f 268/1/34 125/1/34 154/1/34 269/1/34
f 158/1/34 115/1/34 144/1/34 159/1/34
f 238/1/34 102/1/34 131/1/34 239/1/34
f 398/1/23 315/1/23 445/1/23 474/1/23
f 233/1/34 103/1/34 132/1/34 234/1/34
f 168/1/34 117/1/34 146/1/34 169/1/34
f 361/1/11 362/1/11 462/1/11 461/1/11
f 173/1/34 118/1/34 147/1/34 174/1/34
f 223/1/34 105/1/34 134/1/34 224/1/34
f 218/1/34 106/1/34 135/1/34 219/1/34
f 380/1/14 335/1/14 451/1/14 468/1/14
f 676/1/2 538/1/2 126/1/2 264/1/2
f 630/1/23 531/1/23 109/1/23 203/1/23
f 696/1/21 544/1/21 151/1/21 289/1/21
f 672/1/5 546/1/5 128/1/5 259/1/5
f 624/1/25 541/1/25 110/1/25 198/1/25
f 692/1/23 550/1/23 152/1/23 284/1/23
f 668/1/8 552/1/8 129/1/8 254/1/8
f 620/1/28 547/1/28 111/1/28 193/1/28
f 688/1/25 556/1/25 153/1/25 279/1/25
f 664/1/10 558/1/10 130/1/10 249/1/10
f 616/1/31 553/1/31 112/1/31 188/1/31
f 684/1/28 562/1/28 154/1/28 274/1/28
f 660/1/12 564/1/12 131/1/12 244/1/12
f 612/1/2 559/1/2 113/1/2 183/1/2
f 680/1/31 539/1/31 127/1/31 269/1/31
f 656/1/14 568/1/14 132/1/14 239/1/14
f 608/1/5 565/1/5 114/1/5 178/1/5
f 652/1/16 572/1/16 133/1/16 234/1/16
f 592/1/8 569/1/8 115/1/8 158/1/8
f 648/1/18 576/1/18 134/1/18 229/1/18
f 596/1/10 573/1/10 116/1/10 163/1/10
f 482/1/37 580/1/37 119/1/37 148/1/37
f 644/1/20 582/1/20 135/1/20 224/1/20
f 600/1/12 577/1/12 117/1/12 168/1/12
f 640/1/22 586/1/22 136/1/22 219/1/22
f 604/1/14 583/1/14 118/1/14 173/1/14
f 522/1/38 535/1/38 150/1/38 121/1/38
f 636/1/24 588/1/24 137/1/24 214/1/24
f 632/1/27 590/1/27 138/1/27 209/1/27
f 628/1/30 525/1/30 139/1/30 204/1/30
f 573/1/8 592/1/8 158/1/8 116/1/8
f 103/1/33 238/1/33 379/1/33 336/1/33
f 502/1/32 594/1/32 159/1/32 144/1/32
f 20/1/8 155/1/8 156/1/8 52/1/8
f 577/1/10 596/1/10 163/1/10 117/1/10
f 138/1/33 109/1/33 298/1/33 297/1/33
f 496/1/3 598/1/3 164/1/3 145/1/3
f 21/1/10 160/1/10 161/1/10 53/1/10
f 583/1/12 600/1/12 168/1/12 118/1/12
f 137/1/33 108/1/33 295/1/33 296/1/33
f 490/1/6 602/1/6 169/1/6 146/1/6
f 22/1/12 165/1/12 166/1/12 54/1/12
f 580/1/14 604/1/14 173/1/14 119/1/14
f 119/1/34 173/1/34 174/1/34 148/1/34
f 486/1/9 606/1/9 174/1/9 147/1/9
f 23/1/14 170/1/14 171/1/14 55/1/14
f 569/1/5 608/1/5 178/1/5 115/1/5
f 209/1/33 138/1/33 297/1/33 368/1/33
f 508/1/29 610/1/29 179/1/29 143/1/29
f 19/1/5 175/1/5 176/1/5 51/1/5
f 565/1/2 612/1/2 183/1/2 114/1/2
f 293/1/33 294/1/33 402/1/33 401/1/33
f 514/1/26 614/1/26 184/1/26 142/1/26
f 18/1/2 180/1/2 181/1/2 50/1/2
f 559/1/31 616/1/31 188/1/31 113/1/31
f 178/1/33 179/1/33 356/1/33 355/1/33
f 524/1/7 618/1/7 189/1/7 141/1/7
f 17/1/31 185/1/31 186/1/31 49/1/31
f 553/1/28 620/1/28 193/1/28 112/1/28
f 109/1/33 208/1/33 367/1/33 298/1/33
f 528/1/4 622/1/4 194/1/4 140/1/4
f 16/1/28 190/1/28 191/1/28 48/1/28
f 547/1/25 624/1/25 198/1/25 111/1/25
f 294/1/33 149/1/33 301/1/33 402/1/33
f 525/1/1 626/1/1 199/1/1 139/1/1
f 15/1/25 195/1/25 196/1/25 47/1/25
f 590/1/30 628/1/30 204/1/30 138/1/30
f 541/1/23 630/1/23 203/1/23 110/1/23
f 263/1/33 264/1/33 390/1/33 389/1/33
f 14/1/23 200/1/23 201/1/23 46/1/23
f 588/1/27 632/1/27 209/1/27 137/1/27
f 120/1/33 293/1/33 401/1/33 302/1/33
f 531/1/21 634/1/21 208/1/21 109/1/21
f 13/1/21 205/1/21 206/1/21 45/1/21
f 586/1/24 636/1/24 214/1/24 136/1/24
f 179/1/33 144/1/33 329/1/33 356/1/33
f 529/1/19 638/1/19 213/1/19 108/1/19
f 12/1/19 210/1/19 211/1/19 44/1/19
f 582/1/22 640/1/22 219/1/22 135/1/22
f 115/1/33 178/1/33 355/1/33 330/1/33
f 475/1/17 642/1/17 218/1/17 107/1/17
f 11/1/17 215/1/17 216/1/17 43/1/17
f 576/1/20 644/1/20 224/1/20 134/1/20
f 264/1/33 126/1/33 307/1/33 390/1/33
f 477/1/15 646/1/15 223/1/15 106/1/15
f 10/1/15 220/1/15 221/1/15 42/1/15
f 572/1/18 648/1/18 229/1/18 133/1/18
f 233/1/33 234/1/33 378/1/33 377/1/33
f 479/1/13 650/1/13 228/1/13 105/1/13
f 9/1/13 225/1/13 226/1/13 41/1/13
f 568/1/16 652/1/16 234/1/16 132/1/16
f 97/1/33 263/1/33 389/1/33 308/1/33
f 483/1/11 654/1/11 233/1/11 104/1/11
f 8/1/11 230/1/11 231/1/11 40/1/11
f 564/1/14 656/1/14 239/1/14 131/1/14
f 203/1/33 204/1/33 366/1/33 365/1/33
f 487/1/9 658/1/9 238/1/9 103/1/9
f 7/1/9 235/1/9 236/1/9 39/1/9
f 558/1/12 660/1/12 244/1/12 130/1/12
f 234/1/33 133/1/33 339/1/33 378/1/33
f 491/1/6 662/1/6 243/1/6 102/1/6
f 6/1/6 240/1/6 241/1/6 38/1/6
f 552/1/10 664/1/10 249/1/10 129/1/10
f 104/1/33 233/1/33 377/1/33 340/1/33
f 497/1/3 666/1/3 248/1/3 101/1/3
f 5/1/3 245/1/3 246/1/3 37/1/3
f 546/1/8 668/1/8 254/1/8 128/1/8
f 288/1/33 289/1/33 400/1/33 399/1/33
f 503/1/32 670/1/32 253/1/32 100/1/32
f 4/1/32 250/1/32 251/1/32 36/1/32
f 538/1/5 672/1/5 259/1/5 126/1/5
f 204/1/33 139/1/33 299/1/33 366/1/33
f 509/1/29 674/1/29 258/1/29 99/1/29
f 3/1/29 255/1/29 256/1/29 35/1/29
f 539/1/2 676/1/2 264/1/2 127/1/2
f 110/1/33 203/1/33 365/1/33 300/1/33
f 515/1/26 678/1/26 263/1/26 97/1/26
f 2/1/26 260/1/26 261/1/26 34/1/26
f 562/1/31 680/1/31 269/1/31 154/1/31
f 289/1/33 151/1/33 309/1/33 400/1/33
f 518/1/7 682/1/7 268/1/7 98/1/7
f 1/1/7 265/1/7 266/1/7 33/1/7
f 556/1/28 684/1/28 274/1/28 153/1/28
f 258/1/33 259/1/33 388/1/33 387/1/33
f 493/1/4 686/1/4 273/1/4 125/1/4
f 32/1/4 270/1/4 271/1/4 64/1/4
f 550/1/25 688/1/25 279/1/25 152/1/25
f 122/1/33 288/1/33 399/1/33 310/1/33
f 499/1/1 690/1/1 278/1/1 124/1/1
f 31/1/1 275/1/1 276/1/1 63/1/1
f 544/1/23 692/1/23 284/1/23 151/1/23
f 259/1/33 128/1/33 313/1/33 388/1/33
f 505/1/30 694/1/30 283/1/30 123/1/30
f 30/1/30 280/1/30 281/1/30 62/1/30
f 534/1/21 696/1/21 289/1/21 149/1/21
f 228/1/33 229/1/33 376/1/33 375/1/33
f 511/1/27 698/1/27 288/1/27 122/1/27
f 29/1/27 285/1/27 286/1/27 61/1/27
f 99/1/33 258/1/33 387/1/33 314/1/33
f 519/1/24 700/1/24 293/1/24 120/1/24
f 535/1/19 702/1/19 294/1/19 150/1/19
f 28/1/24 290/1/24 291/1/24 60/1/24
f 334/1/34 349/1/34 350/1/34 333/1/34
f 338/1/34 351/1/34 352/1/34 337/1/34
f 316/1/30 397/1/30 473/1/30 446/1/30
f 335/1/39 336/1/39 452/1/39 451/1/39
f 324/1/34 357/1/34 358/1/34 323/1/34
f 318/1/34 359/1/34 360/1/34 317/1/34
f 362/1/4 311/1/4 443/1/4 462/1/4
f 304/1/34 363/1/34 364/1/34 303/1/34
f 300/1/34 365/1/34 366/1/34 299/1/34
f 145/1/3 164/1/3 433/1/3 434/1/3
f 295/1/34 369/1/34 370/1/34 296/1/34
f 348/1/34 371/1/34 372/1/34 347/1/34
f 336/1/9 379/1/9 467/1/9 452/1/9
f 344/1/34 375/1/34 376/1/34 343/1/34
f 340/1/34 377/1/34 378/1/34 339/1/34
f 312/1/28 361/1/28 461/1/28 444/1/28
f 332/1/34 381/1/34 382/1/34 331/1/34
f 326/1/34 383/1/34 384/1/34 325/1/34
f 101/1/40 130/1/40 424/1/40 406/1/40
f 314/1/34 387/1/34 388/1/34 313/1/34
f 308/1/34 389/1/34 390/1/34 307/1/34
f 163/1/10 116/1/10 416/1/10 415/1/10
f 328/1/34 393/1/34 394/1/34 327/1/34
f 322/1/34 395/1/34 396/1/34 321/1/34
f 329/1/41 330/1/41 450/1/41 449/1/41
f 310/1/34 399/1/34 400/1/34 309/1/34
f 302/1/34 401/1/34 402/1/34 301/1/34
f 208/1/33 209/1/33 368/1/33 367/1/33
f 239/1/33 132/1/33 335/1/33 380/1/33
f 139/1/33 110/1/33 300/1/33 299/1/33
f 149/1/33 120/1/33 302/1/33 301/1/33
f 98/1/33 268/1/33 391/1/33 305/1/33
f 238/1/33 239/1/33 380/1/33 379/1/33
f 140/1/33 111/1/33 304/1/33 303/1/33
f 269/1/33 127/1/33 306/1/33 392/1/33
f 114/1/33 183/1/33 357/1/33 324/1/33
f 127/1/33 98/1/33 305/1/33 306/1/33
f 184/1/33 143/1/33 323/1/33 358/1/33
f 126/1/33 97/1/33 308/1/33 307/1/33
f 268/1/33 269/1/33 392/1/33 391/1/33
f 108/1/33 213/1/33 369/1/33 295/1/33
f 151/1/33 122/1/33 310/1/33 309/1/33
f 183/1/33 184/1/33 358/1/33 357/1/33
f 214/1/33 137/1/33 296/1/33 370/1/33
f 141/1/33 112/1/33 312/1/33 311/1/33
f 128/1/33 99/1/33 314/1/33 313/1/33
f 102/1/33 243/1/33 381/1/33 332/1/33
f 213/1/33 214/1/33 370/1/33 369/1/33
f 152/1/33 123/1/33 316/1/33 315/1/33
f 244/1/33 131/1/33 331/1/33 382/1/33
f 116/1/33 158/1/33 349/1/33 334/1/33
f 142/1/33 113/1/33 318/1/33 317/1/33
f 159/1/33 145/1/33 333/1/33 350/1/33
f 129/1/33 100/1/33 320/1/33 319/1/33
f 125/1/33 273/1/33 393/1/33 328/1/33
f 243/1/33 244/1/33 382/1/33 381/1/33
f 153/1/33 124/1/33 322/1/33 321/1/33
f 274/1/33 154/1/33 327/1/33 394/1/33
f 113/1/33 188/1/33 359/1/33 318/1/33
f 158/1/33 159/1/33 350/1/33 349/1/33
f 143/1/33 114/1/33 324/1/33 323/1/33
f 189/1/33 142/1/33 317/1/33 360/1/33
f 273/1/33 274/1/33 394/1/33 393/1/33
f 130/1/33 101/1/33 326/1/33 325/1/33
f 107/1/33 218/1/33 371/1/33 348/1/33
f 154/1/33 125/1/33 328/1/33 327/1/33
f 188/1/33 189/1/33 360/1/33 359/1/33
f 219/1/33 136/1/33 347/1/33 372/1/33
f 144/1/33 115/1/33 330/1/33 329/1/33
f 131/1/33 102/1/33 332/1/33 331/1/33
f 101/1/33 248/1/33 383/1/33 326/1/33
f 218/1/33 219/1/33 372/1/33 371/1/33
f 145/1/33 116/1/33 334/1/33 333/1/33
f 249/1/33 130/1/33 325/1/33 384/1/33
f 117/1/33 163/1/33 351/1/33 338/1/33
f 132/1/33 103/1/33 336/1/33 335/1/33
f 164/1/33 146/1/33 337/1/33 352/1/33
f 146/1/33 117/1/33 338/1/33 337/1/33
f 124/1/33 278/1/33 395/1/33 322/1/33
f 248/1/33 249/1/33 384/1/33 383/1/33
f 133/1/33 104/1/33 340/1/33 339/1/33
f 279/1/33 153/1/33 321/1/33 396/1/33
f 112/1/33 193/1/33 361/1/33 312/1/33
f 163/1/33 164/1/33 352/1/33 351/1/33
f 147/1/33 118/1/33 342/1/33 341/1/33
f 194/1/33 141/1/33 311/1/33 362/1/33
f 134/1/33 105/1/33 344/1/33 343/1/33
f 278/1/33 279/1/33 396/1/33 395/1/33
f 106/1/33 223/1/33 373/1/33 346/1/33
f 193/1/33 194/1/33 362/1/33 361/1/33
f 224/1/33 135/1/33 345/1/33 374/1/33
f 135/1/33 106/1/33 346/1/33 345/1/33
f 136/1/33 107/1/33 348/1/33 347/1/33
f 100/1/33 253/1/33 385/1/33 320/1/33
f 223/1/33 224/1/33 374/1/33 373/1/33
f 254/1/33 129/1/33 319/1/33 386/1/33
f 118/1/33 168/1/33 353/1/33 342/1/33
f 169/1/33 147/1/33 341/1/33 354/1/33
f 123/1/33 283/1/33 397/1/33 316/1/33
f 253/1/33 254/1/33 386/1/33 385/1/33
f 284/1/33 152/1/33 315/1/33 398/1/33
f 111/1/33 198/1/33 363/1/33 304/1/33
f 168/1/33 169/1/33 354/1/33 353/1/33
f 199/1/33 140/1/33 303/1/33 364/1/33
f 283/1/33 284/1/33 398/1/33 397/1/33
f 105/1/33 228/1/33 375/1/33 344/1/33
f 198/1/33 199/1/33 364/1/33 363/1/33
f 229/1/33 134/1/33 343/1/33 376/1/33
f 411/1/34 412/1/34 430/1/34 429/1/34
f 417/1/34 418/1/34 436/1/34 435/1/34
f 403/1/34 404/1/34 422/1/34 421/1/34
f 413/1/34 414/1/34 432/1/34 431/1/34
f 419/1/34 420/1/34 438/1/34 437/1/34
f 405/1/34 406/1/34 424/1/34 423/1/34
f 415/1/34 416/1/34 434/1/34 433/1/34
f 407/1/34 408/1/34 426/1/34 425/1/34
f 409/1/34 410/1/34 428/1/34 427/1/34
f 454/1/34 457/1/34 458/1/34 453/1/34
f 450/1/34 459/1/34 460/1/34 449/1/34
f 444/1/34 461/1/34 462/1/34 443/1/34
f 440/1/34 463/1/34 464/1/34 439/1/34
f 456/1/34 465/1/34 466/1/34 455/1/34
f 452/1/34 467/1/34 468/1/34 451/1/34
f 448/1/34 469/1/34 470/1/34 447/1/34
f 441/1/34 471/1/34 472/1/34 442/1/34
f 446/1/34 473/1/34 474/1/34 445/1/34
f 273/1/4 124/1/4 420/1/4 419/1/4
f 164/1/27 163/1/27 415/1/27 433/1/27
f 345/1/42 346/1/42 456/1/42 455/1/42
f 104/1/43 133/1/43 426/1/43 408/1/43
f 258/1/29 97/1/29 404/1/29 403/1/29
f 153/1/28 274/1/28 437/1/28 438/1/28
f 297/1/44 298/1/44 440/1/44 439/1/44
f 298/1/21 367/1/21 463/1/21 440/1/21
f 126/1/5 259/1/5 421/1/5 422/1/5
f 320/1/32 385/1/32 469/1/32 448/1/32
f 368/1/27 297/1/27 439/1/27 464/1/27
f 243/1/6 101/1/6 406/1/6 405/1/6
f 386/1/8 319/1/8 447/1/8 470/1/8
f 367/1/3 368/1/3 464/1/3 463/1/3
f 107/1/45 136/1/45 428/1/45 410/1/45
f 385/1/24 386/1/24 470/1/24 469/1/24
f 130/1/12 244/1/12 423/1/12 424/1/12
f 306/1/46 305/1/46 441/1/46 442/1/46
f 110/1/47 139/1/47 430/1/47 412/1/47
f 228/1/13 104/1/13 408/1/13 407/1/13
f 120/1/48 149/1/48 436/1/48 418/1/48
f 342/1/12 353/1/12 457/1/12 454/1/12
f 133/1/18 229/1/18 425/1/18 426/1/18
f 354/1/6 341/1/6 453/1/6 458/1/6
f 311/1/49 312/1/49 444/1/49 443/1/49
f 184/1/20 183/1/20 413/1/20 431/1/20
f 213/1/19 107/1/19 410/1/19 409/1/19
f 353/1/23 354/1/23 458/1/23 457/1/23
f 97/1/50 126/1/50 422/1/50 404/1/50
f 199/1/14 198/1/14 411/1/14 429/1/14
f 330/1/5 355/1/5 459/1/5 450/1/5
f 315/1/47 316/1/47 446/1/47 445/1/47
f 214/1/8 213/1/8 409/1/8 427/1/8
f 346/1/15 373/1/15 465/1/15 456/1/15
f 136/1/24 214/1/24 427/1/24 428/1/24
f 356/1/29 329/1/29 449/1/29 460/1/29
f 229/1/31 228/1/31 407/1/31 425/1/31
f 305/1/7 391/1/7 471/1/7 441/1/7
f 374/1/20 345/1/20 455/1/20 466/1/20
f 244/1/23 243/1/23 405/1/23 423/1/23
f 355/1/17 356/1/17 460/1/17 459/1/17
f 198/1/25 110/1/25 412/1/25 411/1/25
f 319/1/36 320/1/36 448/1/36 447/1/36
f 392/1/31 306/1/31 442/1/31 472/1/31
f 373/1/26 374/1/26 466/1/26 465/1/26
f 259/1/17 258/1/17 403/1/17 421/1/17
f 391/1/18 392/1/18 472/1/18 471/1/18
f 274/1/11 273/1/11 419/1/11 437/1/11
f 139/1/1 199/1/1 429/1/1 430/1/1
f 289/1/3 288/1/3 417/1/3 435/1/3
f 113/1/46 142/1/46 432/1/46 414/1/46
f 183/1/2 113/1/2 414/1/2 413/1/2
f 124/1/51 153/1/51 438/1/51 420/1/51
f 142/1/26 184/1/26 431/1/26 432/1/26
f 91/1/19 292/1/19 701/1/19 536/1/19
f 536/1/19 701/1/19 702/1/19 535/1/19
f 60/1/24 291/1/24 699/1/24 520/1/24
f 520/1/24 699/1/24 700/1/24 519/1/24
f 61/1/27 286/1/27 697/1/27 512/1/27
f 512/1/27 697/1/27 698/1/27 511/1/27
f 92/1/21 287/1/21 695/1/21 533/1/21
f 533/1/21 695/1/21 696/1/21 534/1/21
f 62/1/30 281/1/30 693/1/30 506/1/30
f 506/1/30 693/1/30 694/1/30 505/1/30
f 93/1/23 282/1/23 691/1/23 543/1/23
f 618/1/52 524/1/52 714/1/52 762/1/52
f 63/1/1 276/1/1 689/1/1 500/1/1
f 500/1/1 689/1/1 690/1/1 499/1/1
f 94/1/25 277/1/25 687/1/25 549/1/25
f 572/1/53 652/1/53 780/1/53 742/1/53
f 64/1/4 271/1/4 685/1/4 494/1/4
f 494/1/4 685/1/4 686/1/4 493/1/4
f 95/1/28 272/1/28 683/1/28 555/1/28
f 575/1/54 643/1/54 775/1/54 743/1/54
f 33/1/7 266/1/7 681/1/7 517/1/7
f 517/1/7 681/1/7 682/1/7 518/1/7
f 96/1/31 267/1/31 679/1/31 561/1/31
f 523/1/55 617/1/55 761/1/55 713/1/55
f 34/1/26 261/1/26 677/1/26 516/1/26
f 516/1/26 677/1/26 678/1/26 515/1/26
f 66/1/2 262/1/2 675/1/2 540/1/2
f 651/1/56 571/1/56 741/1/56 779/1/56
f 35/1/29 256/1/29 673/1/29 510/1/29
f 510/1/29 673/1/29 674/1/29 509/1/29
f 65/1/5 257/1/5 671/1/5 537/1/5
f 672/1/57 538/1/57 720/1/57 790/1/57
f 36/1/32 251/1/32 669/1/32 504/1/32
f 504/1/32 669/1/32 670/1/32 503/1/32
f 67/1/8 252/1/8 667/1/8 545/1/8
f 594/1/58 502/1/58 708/1/58 754/1/58
f 37/1/3 246/1/3 665/1/3 498/1/3
f 498/1/3 665/1/3 666/1/3 497/1/3
f 68/1/10 247/1/10 663/1/10 551/1/10
f 537/1/59 671/1/59 789/1/59 719/1/59
f 38/1/6 241/1/6 661/1/6 492/1/6
f 492/1/6 661/1/6 662/1/6 491/1/6
f 69/1/12 242/1/12 659/1/12 557/1/12
f 550/1/60 692/1/60 800/1/60 728/1/60
f 39/1/9 236/1/9 657/1/9 488/1/9
f 488/1/9 657/1/9 658/1/9 487/1/9
f 70/1/14 237/1/14 655/1/14 563/1/14
f 508/1/61 614/1/61 760/1/61 710/1/61
f 40/1/11 231/1/11 653/1/11 484/1/11
f 484/1/11 653/1/11 654/1/11 483/1/11
f 71/1/16 232/1/16 651/1/16 567/1/16
f 501/1/62 593/1/62 753/1/62 707/1/62
f 41/1/13 226/1/13 649/1/13 480/1/13
f 480/1/13 649/1/13 650/1/13 479/1/13
f 72/1/18 227/1/18 647/1/18 571/1/18
f 691/1/63 549/1/63 727/1/63 799/1/63
f 42/1/15 221/1/15 645/1/15 478/1/15
f 478/1/15 645/1/15 646/1/15 477/1/15
f 73/1/20 222/1/20 643/1/20 575/1/20
f 648/1/64 572/1/64 742/1/64 778/1/64
f 43/1/17 216/1/17 641/1/17 476/1/17
f 476/1/17 641/1/17 642/1/17 475/1/17
f 74/1/22 217/1/22 639/1/22 581/1/22
f 613/1/65 507/1/65 709/1/65 759/1/65
f 44/1/19 211/1/19 637/1/19 530/1/19
f 530/1/19 637/1/19 638/1/19 529/1/19
f 75/1/24 212/1/24 635/1/24 585/1/24
f 622/1/66 528/1/66 718/1/66 764/1/66
f 45/1/21 206/1/21 633/1/21 532/1/21
f 532/1/21 633/1/21 634/1/21 531/1/21
f 76/1/27 207/1/27 631/1/27 587/1/27
f 576/1/64 648/1/64 778/1/64 744/1/64
f 46/1/23 201/1/23 629/1/23 542/1/23
f 542/1/23 629/1/23 630/1/23 541/1/23
f 77/1/30 202/1/30 627/1/30 589/1/30
f 552/1/67 668/1/67 788/1/67 730/1/67
f 78/1/1 197/1/1 625/1/1 526/1/1
f 571/1/68 647/1/68 777/1/68 741/1/68
f 47/1/25 196/1/25 623/1/25 548/1/25
f 548/1/25 623/1/25 624/1/25 547/1/25
f 79/1/4 192/1/4 621/1/4 527/1/4
f 527/1/69 621/1/69 763/1/69 717/1/69
f 48/1/28 191/1/28 619/1/28 554/1/28
f 554/1/28 619/1/28 620/1/28 553/1/28
f 80/1/7 187/1/7 617/1/7 523/1/7
f 647/1/68 575/1/68 743/1/68 777/1/68
f 49/1/31 186/1/31 615/1/31 560/1/31
f 560/1/31 615/1/31 616/1/31 559/1/31
f 81/1/26 182/1/26 613/1/26 513/1/26
f 676/1/70 539/1/70 721/1/70 792/1/70
f 50/1/2 181/1/2 611/1/2 566/1/2
f 566/1/2 611/1/2 612/1/2 565/1/2
f 82/1/29 177/1/29 609/1/29 507/1/29
f 667/1/71 551/1/71 729/1/71 787/1/71
f 51/1/5 176/1/5 607/1/5 570/1/5
f 570/1/5 607/1/5 608/1/5 569/1/5
f 86/1/9 172/1/9 605/1/9 485/1/9
f 485/1/9 605/1/9 606/1/9 486/1/9
f 55/1/14 171/1/14 603/1/14 579/1/14
f 579/1/14 603/1/14 604/1/14 580/1/14
f 85/1/6 167/1/6 601/1/6 489/1/6
f 489/1/6 601/1/6 602/1/6 490/1/6
f 54/1/12 166/1/12 599/1/12 584/1/12
f 584/1/12 599/1/12 600/1/12 583/1/12
f 84/1/3 162/1/3 597/1/3 495/1/3
f 598/1/72 496/1/72 706/1/72 756/1/72
f 53/1/10 161/1/10 595/1/10 578/1/10
f 578/1/10 595/1/10 596/1/10 577/1/10
f 83/1/32 157/1/32 593/1/32 501/1/32
f 540/1/73 675/1/73 791/1/73 722/1/73
f 52/1/8 156/1/8 591/1/8 574/1/8
f 574/1/8 591/1/8 592/1/8 573/1/8
f 202/1/30 78/1/30 526/1/30 627/1/30
f 495/1/74 597/1/74 755/1/74 705/1/74
f 207/1/27 77/1/27 589/1/27 631/1/27
f 652/1/53 568/1/53 740/1/53 780/1/53
f 212/1/24 76/1/24 587/1/24 635/1/24
f 626/1/75 525/1/75 715/1/75 766/1/75
f 59/1/38 91/1/38 536/1/38 521/1/38
f 521/1/38 536/1/38 535/1/38 522/1/38
f 171/1/14 54/1/14 584/1/14 603/1/14
f 603/1/14 584/1/14 583/1/14 604/1/14
f 217/1/22 75/1/22 585/1/22 639/1/22
f 544/1/76 543/1/76 723/1/76 724/1/76
f 166/1/12 53/1/12 578/1/12 599/1/12
f 599/1/12 578/1/12 577/1/12 600/1/12
f 222/1/20 74/1/20 581/1/20 643/1/20
f 556/1/77 688/1/77 798/1/77 732/1/77
f 87/1/37 55/1/37 579/1/37 481/1/37
f 481/1/37 579/1/37 580/1/37 482/1/37
f 161/1/10 52/1/10 574/1/10 595/1/10
f 595/1/10 574/1/10 573/1/10 596/1/10
f 227/1/18 73/1/18 575/1/18 647/1/18
f 567/1/56 651/1/56 779/1/56 739/1/56
f 156/1/8 51/1/8 570/1/8 591/1/8
f 591/1/8 570/1/8 569/1/8 592/1/8
f 232/1/16 72/1/16 571/1/16 651/1/16
f 514/1/52 618/1/52 762/1/52 712/1/52
f 176/1/5 50/1/5 566/1/5 607/1/5
f 607/1/5 566/1/5 565/1/5 608/1/5
f 237/1/14 71/1/14 567/1/14 655/1/14
f 526/1/78 625/1/78 765/1/78 716/1/78
f 267/1/31 66/1/31 540/1/31 679/1/31
f 680/1/79 562/1/79 736/1/79 794/1/79
f 181/1/2 49/1/2 560/1/2 611/1/2
f 611/1/2 560/1/2 559/1/2 612/1/2
f 242/1/12 70/1/12 563/1/12 659/1/12
f 687/1/80 555/1/80 731/1/80 797/1/80
f 272/1/28 96/1/28 561/1/28 683/1/28
f 489/1/81 490/1/81 704/1/81 703/1/81
f 186/1/31 48/1/31 554/1/31 615/1/31
f 615/1/31 554/1/31 553/1/31 616/1/31
f 247/1/10 69/1/10 557/1/10 663/1/10
f 617/1/55 513/1/55 711/1/55 761/1/55
f 277/1/25 95/1/25 555/1/25 687/1/25
f 628/1/82 590/1/82 752/1/82 768/1/82
f 191/1/28 47/1/28 548/1/28 619/1/28
f 619/1/28 548/1/28 547/1/28 620/1/28
f 252/1/8 68/1/8 551/1/8 667/1/8
f 582/1/83 644/1/83 776/1/83 746/1/83
f 282/1/23 94/1/23 549/1/23 691/1/23
f 561/1/84 679/1/84 793/1/84 735/1/84
f 196/1/25 46/1/25 542/1/25 623/1/25
f 623/1/25 542/1/25 541/1/25 624/1/25
f 257/1/5 67/1/5 545/1/5 671/1/5
f 558/1/85 664/1/85 786/1/85 734/1/85
f 287/1/21 93/1/21 543/1/21 695/1/21
f 695/1/21 543/1/21 544/1/21 696/1/21
f 201/1/23 45/1/23 532/1/23 629/1/23
f 629/1/23 532/1/23 531/1/23 630/1/23
f 262/1/2 65/1/2 537/1/2 675/1/2
f 589/1/86 627/1/86 767/1/86 751/1/86
f 197/1/1 79/1/1 527/1/1 625/1/1
f 490/1/72 598/1/72 756/1/72 704/1/72
f 192/1/4 80/1/4 523/1/4 621/1/4
f 643/1/54 581/1/54 745/1/54 775/1/54
f 291/1/24 59/1/24 521/1/24 699/1/24
f 699/1/24 521/1/24 522/1/24 700/1/24
f 261/1/26 33/1/26 517/1/26 677/1/26
f 677/1/26 517/1/26 518/1/26 678/1/26
f 187/1/7 81/1/7 513/1/7 617/1/7
f 663/1/87 557/1/87 733/1/87 785/1/87
f 286/1/27 60/1/27 520/1/27 697/1/27
f 697/1/27 520/1/27 519/1/27 698/1/27
f 256/1/29 34/1/29 516/1/29 673/1/29
f 673/1/29 516/1/29 515/1/29 674/1/29
f 182/1/26 82/1/26 507/1/26 613/1/26
f 656/1/88 564/1/88 738/1/88 782/1/88
f 281/1/30 61/1/30 512/1/30 693/1/30
f 693/1/30 512/1/30 511/1/30 694/1/30
f 251/1/32 35/1/32 510/1/32 669/1/32
f 669/1/32 510/1/32 509/1/32 670/1/32
f 177/1/29 83/1/29 501/1/29 609/1/29
f 597/1/74 489/1/74 703/1/74 755/1/74
f 276/1/1 62/1/1 506/1/1 689/1/1
f 689/1/1 506/1/1 505/1/1 690/1/1
f 246/1/3 36/1/3 504/1/3 665/1/3
f 665/1/3 504/1/3 503/1/3 666/1/3
f 157/1/32 84/1/32 495/1/32 593/1/32
f 563/1/89 655/1/89 781/1/89 737/1/89
f 271/1/4 63/1/4 500/1/4 685/1/4
f 685/1/4 500/1/4 499/1/4 686/1/4
f 241/1/6 37/1/6 498/1/6 661/1/6
f 661/1/6 498/1/6 497/1/6 662/1/6
f 162/1/3 85/1/3 489/1/3 597/1/3
f 684/1/90 556/1/90 732/1/90 796/1/90
f 266/1/7 64/1/7 494/1/7 681/1/7
f 681/1/7 494/1/7 493/1/7 682/1/7
f 236/1/9 38/1/9 492/1/9 657/1/9
f 657/1/9 492/1/9 491/1/9 658/1/9
f 167/1/6 86/1/6 485/1/6 601/1/6
f 601/1/6 485/1/6 486/1/6 602/1/6
f 231/1/11 39/1/11 488/1/11 653/1/11
f 653/1/11 488/1/11 487/1/11 654/1/11
f 172/1/9 87/1/9 481/1/9 605/1/9
f 605/1/9 481/1/9 482/1/9 606/1/9
f 226/1/13 40/1/13 484/1/13 649/1/13
f 649/1/13 484/1/13 483/1/13 650/1/13
f 221/1/15 41/1/15 480/1/15 645/1/15
f 645/1/15 480/1/15 479/1/15 646/1/15
f 216/1/17 42/1/17 478/1/17 641/1/17
f 641/1/17 478/1/17 477/1/17 642/1/17
f 211/1/19 43/1/19 476/1/19 637/1/19
f 637/1/19 476/1/19 475/1/19 638/1/19
f 206/1/21 44/1/21 530/1/21 633/1/21
f 633/1/21 530/1/21 529/1/21 634/1/21
f 292/1/19 92/1/19 533/1/19 701/1/19
f 701/1/19 533/1/19 534/1/19 702/1/19
f 723/1/23 799/1/23 800/1/23 724/1/23
f 727/1/25 797/1/25 798/1/25 728/1/25
f 731/1/28 795/1/28 796/1/28 732/1/28
f 735/1/31 793/1/31 794/1/31 736/1/31
f 722/1/2 791/1/2 792/1/2 721/1/2
f 719/1/5 789/1/5 790/1/5 720/1/5
f 725/1/8 787/1/8 788/1/8 726/1/8
f 729/1/10 785/1/10 786/1/10 730/1/10
f 733/1/12 783/1/12 784/1/12 734/1/12
f 737/1/14 781/1/14 782/1/14 738/1/14
f 739/1/16 779/1/16 780/1/16 740/1/16
f 741/1/18 777/1/18 778/1/18 742/1/18
f 743/1/20 775/1/20 776/1/20 744/1/20
f 745/1/22 773/1/22 774/1/22 746/1/22
f 747/1/24 771/1/24 772/1/24 748/1/24
f 749/1/27 769/1/27 770/1/27 750/1/27
f 751/1/30 767/1/30 768/1/30 752/1/30
f 716/1/1 765/1/1 766/1/1 715/1/1
f 717/1/4 763/1/4 764/1/4 718/1/4
f 713/1/7 761/1/7 762/1/7 714/1/7
f 711/1/26 759/1/26 760/1/26 712/1/26
f 709/1/29 757/1/29 758/1/29 710/1/29
f 705/1/3 755/1/3 756/1/3 706/1/3
f 707/1/32 753/1/32 754/1/32 708/1/32
f 767/1/30 716/1/30 715/1/30 768/1/30
f 769/1/27 751/1/27 752/1/27 770/1/27
f 771/1/24 749/1/24 750/1/24 772/1/24
f 773/1/22 747/1/22 748/1/22 774/1/22
f 775/1/20 745/1/20 746/1/20 776/1/20
f 777/1/18 743/1/18 744/1/18 778/1/18
f 779/1/16 741/1/16 742/1/16 780/1/16
f 781/1/14 739/1/14 740/1/14 782/1/14
f 793/1/31 722/1/31 721/1/31 794/1/31
f 783/1/12 737/1/12 738/1/12 784/1/12
f 795/1/28 735/1/28 736/1/28 796/1/28
f 785/1/10 733/1/10 734/1/10 786/1/10
f 797/1/25 731/1/25 732/1/25 798/1/25
f 787/1/8 729/1/8 730/1/8 788/1/8
f 799/1/23 727/1/23 728/1/23 800/1/23
f 789/1/5 725/1/5 726/1/5 790/1/5
f 791/1/2 719/1/2 720/1/2 792/1/2
f 765/1/1 717/1/1 718/1/1 766/1/1
f 763/1/4 713/1/4 714/1/4 764/1/4
f 761/1/7 711/1/7 712/1/7 762/1/7
f 759/1/26 709/1/26 710/1/26 760/1/26
f 757/1/29 707/1/29 708/1/29 758/1/29
f 753/1/32 705/1/32 706/1/32 754/1/32
f 755/1/3 703/1/3 704/1/3 756/1/3
f 644/1/83 576/1/83 744/1/83 776/1/83
f 671/1/59 545/1/59 725/1/59 789/1/59
f 627/1/86 526/1/86 716/1/86 767/1/86
f 546/1/57 672/1/57 790/1/57 726/1/57
f 545/1/71 667/1/71 787/1/71 725/1/71
f 525/1/82 628/1/82 768/1/82 715/1/82
f 609/1/91 501/1/91 707/1/91 757/1/91
f 668/1/67 546/1/67 726/1/67 788/1/67
f 655/1/89 567/1/89 739/1/89 781/1/89
f 631/1/92 589/1/92 751/1/92 769/1/92
f 513/1/65 613/1/65 759/1/65 711/1/65
f 502/1/93 610/1/93 758/1/93 708/1/93
f 581/1/94 639/1/94 773/1/94 745/1/94
f 568/1/88 656/1/88 782/1/88 740/1/88
f 543/1/63 691/1/63 799/1/63 723/1/63
f 590/1/95 632/1/95 770/1/95 752/1/95
f 614/1/61 514/1/61 712/1/61 760/1/61
f 640/1/96 582/1/96 746/1/96 774/1/96
f 679/1/84 540/1/84 722/1/84 793/1/84
f 692/1/60 544/1/60 724/1/60 800/1/60
f 635/1/97 587/1/97 749/1/97 771/1/97
f 551/1/87 663/1/87 785/1/87 729/1/87
f 539/1/79 680/1/79 794/1/79 721/1/79
f 588/1/98 636/1/98 772/1/98 750/1/98
f 675/1/73 537/1/73 719/1/73 791/1/73
f 664/1/85 552/1/85 730/1/85 786/1/85
f 507/1/91 609/1/91 757/1/91 709/1/91
f 585/1/97 635/1/97 771/1/97 747/1/97
f 538/1/70 676/1/70 792/1/70 720/1/70
f 549/1/80 687/1/80 797/1/80 727/1/80
f 610/1/93 508/1/93 710/1/93 758/1/93
f 593/1/62 495/1/62 705/1/62 753/1/62
f 636/1/98 586/1/98 748/1/98 772/1/98
f 625/1/78 527/1/78 717/1/78 765/1/78
f 659/1/99 563/1/99 737/1/99 783/1/99
f 688/1/77 550/1/77 728/1/77 798/1/77
f 496/1/58 594/1/58 754/1/58 706/1/58
f 528/1/75 626/1/75 766/1/75 718/1/75
f 557/1/99 659/1/99 783/1/99 733/1/99
f 564/1/100 660/1/100 784/1/100 738/1/100
f 621/1/69 523/1/69 713/1/69 763/1/69
f 660/1/100 558/1/100 734/1/100 784/1/100
f 683/1/101 561/1/101 735/1/101 795/1/101
f 639/1/94 585/1/94 747/1/94 773/1/94
f 587/1/92 631/1/92 769/1/92 749/1/92
f 524/1/66 622/1/66 764/1/66 714/1/66
f 562/1/90 684/1/90 796/1/90 736/1/90
f 555/1/101 683/1/101 795/1/101 731/1/101
f 586/1/96 640/1/96 774/1/96 748/1/96
f 632/1/95 588/1/95 750/1/95 770/1/95
o Circle.001
v -0.000000 2.821373 -3.122779
v -0.609224 2.821373 -3.062776
v -1.195036 2.821373 -2.885072
v -1.734923 2.821373 -2.596496
v -2.208138 2.821373 -2.208138
v -2.596496 2.821373 -1.734923
v -2.885072 2.821373 -1.195036
v -3.062776 2.821373 -0.609224
v -3.122779 2.821373 0.000000
v -3.062776 2.821373 0.609224
v -2.885072 2.821373 1.195036
v -2.596496 2.821373 1.734923
v -2.208138 2.821373 2.208138
v -1.734923 2.821373 2.596496
v -1.195036 2.821373 2.885072
v -0.609224 2.821373 3.062776
v -0.000000 2.821373 3.122779
v 0.609224 2.821373 3.062776
v 1.195036 2.821373 2.885072
v 1.734923 2.821373 2.596496
v 2.208138 2.821373 2.208138
v 2.596496 2.821373 1.734923
v 2.885072 2.821373 1.195036
v 3.062776 2.821373 0.609224
v 3.122779 2.821373 0.000000
v 3.062776 2.821373 -0.609224
v 2.885072 2.821373 -1.195036
v 2.596496 2.821373 -1.734923
v 2.208138 2.821373 -2.208138
v 1.734923 2.821373 -2.596496
v 1.195036 2.821373 -2.885072
v 0.609224 2.821373 -3.062776
v -0.000000 2.604438 -2.997969
v -0.584875 2.604438 -2.940363
v -1.147273 2.604438 -2.769762
v -1.665582 2.604438 -2.492720
v -2.119884 2.604438 -2.119884
v -2.492720 2.604438 -1.665582
v -2.769762 2.604438 -1.147273
v -2.940363 2.604438 -0.584875
v -2.997969 2.604438 0.000000
v -2.940363 2.604438 0.584875
v -2.769762 2.604438 1.147273
v -2.492720 2.604438 1.665582
v -2.119884 2.604438 2.119884
v -1.665582 2.604438 2.492720
v -1.147273 2.604438 2.769762
v -0.584875 2.604438 2.940363
v -0.000000 2.604438 2.997969
v 0.584875 2.604438 2.940363
v 1.147273 2.604438 2.769762
v 1.665582 2.604438 2.492720
v 2.119884 2.604438 2.119884
v 2.492720 2.604438 1.665582
v 2.769762 2.604438 1.147273
v 2.940363 2.604438 0.584875
v 2.997969 2.604438 0.000000
v 2.940363 2.604438 -0.584875
v 2.769762 2.604438 -1.147273
v 2.492720 2.604438 -1.665582
v 2.119884 2.604438 -2.119884
v 1.665582 2.604438 -2.492720
v 1.147273 2.604438 -2.769762
v 0.584875 2.604438 -2.940363
v -0.000000 3.471964 -0.732327
v -0.142870 3.471964 -0.718255
v -0.280249 3.471964 -0.676581
v -0.406859 3.471964 -0.608907
v -0.517833 3.471964 -0.517833
v -0.608907 3.471964 -0.406859
v -0.676581 3.471964 -0.280249
v -0.718255 3.471964 -0.142870
v -0.732327 3.471964 0.000000
v -0.718255 3.471964 0.142870
v -0.676581 3.471964 0.280249
v -0.608907 3.471964 0.406859
v -0.517833 3.471964 0.517833
v -0.406859 3.471964 0.608907
v -0.280249 3.471964 0.676581
v -0.142870 3.471964 0.718255
v -0.000000 3.471964 0.732327
v 0.142870 3.471964 0.718255
v 0.280249 3.471964 0.676581
v 0.406859 3.471964 0.608907
v 0.517833 3.471964 0.517833
v 0.608907 3.471964 0.406859
v 0.676581 3.471964 0.280249
v 0.718255 3.471964 0.142870
v 0.732327 3.471964 0.000000
v 0.718255 3.471964 -0.142870
v 0.676581 3.471964 -0.280249
v 0.608907 3.471964 -0.406859
v 0.517833 3.471964 -0.517833
v 0.406859 3.471964 -0.608907
v 0.280249 3.471964 -0.676581
v 0.142870 3.471964 -0.718255
v -0.000000 3.541208 -0.359082
v -0.070054 3.541208 -0.352183
v -0.137415 3.541208 -0.331749
v -0.199496 3.541208 -0.298566
v -0.253910 3.541208 -0.253910
v -0.298566 3.541208 -0.199495
v -0.331749 3.541208 -0.137415
v -0.352183 3.541208 -0.070053
v -0.359082 3.541208 0.000000
v -0.352183 3.541208 0.070054
v -0.331749 3.541208 0.137415
v -0.298566 3.541208 0.199495
v -0.253910 3.541208 0.253910
v -0.199496 3.541208 0.298566
v -0.137415 3.541208 0.331749
v -0.070054 3.541208 0.352183
v -0.000000 3.541208 0.359082
v 0.070053 3.541208 0.352183
v 0.137415 3.541208 0.331749
v 0.199495 3.541208 0.298566
v 0.253910 3.541208 0.253910
v 0.298566 3.541208 0.199495
v 0.331749 3.541208 0.137415
v 0.352183 3.541208 0.070054
v 0.359082 3.541208 0.000000
v 0.352183 3.541208 -0.070053
v 0.331749 3.541208 -0.137415
v 0.298566 3.541208 -0.199495
v 0.253910 3.541208 -0.253910
v 0.199495 3.541208 -0.298566
v 0.137415 3.541208 -0.331749
v 0.070053 3.541208 -0.352183
v -0.000000 2.850060 -1.852634
v -0.361431 2.850060 -1.817036
v -0.708972 2.850060 -1.711610
v -1.029268 2.850060 -1.540409
v -1.310010 2.850060 -1.310010
v -1.540409 2.850060 -1.029268
v -1.711610 2.850060 -0.708972
v -1.817036 2.850060 -0.361431
v -1.852634 2.850060 0.000000
v -1.817036 2.850060 0.361431
v -1.711610 2.850060 0.708972
v -1.540409 2.850060 1.029268
v -1.310010 2.850060 1.310010
v -1.029268 2.850060 1.540409
v -0.708972 2.850060 1.711610
v -0.361431 2.850060 1.817036
v -0.000000 2.850060 1.852634
v 0.361431 2.850060 1.817036
v 0.708972 2.850060 1.711610
v 1.029268 2.850060 1.540409
v 1.310010 2.850060 1.310010
v 1.540409 2.850060 1.029268
v 1.711610 2.850060 0.708972
v 1.817036 2.850060 0.361431
v 1.852634 2.850060 0.000000
v 1.817036 2.850060 -0.361431
v 1.711610 2.850060 -0.708972
v 1.540409 2.850060 -1.029268
v 1.310010 2.850060 -1.310010
v 1.029268 2.850060 -1.540409
v 0.708972 2.850060 -1.711610
v 0.361431 2.850060 -1.817036
vn 0.8305 -0.4969 -0.2519
vn -0.5505 -0.4969 0.6708
vn 0.7653 -0.4969 -0.4091
vn -0.4091 -0.4969 0.7653
vn -0.0851 -0.4969 -0.8636
vn 0.6708 -0.4969 -0.5505
vn -0.2519 -0.4969 0.8305
vn -0.2519 -0.4969 -0.8305
vn 0.5505 -0.4969 -0.6708
vn -0.0851 -0.4969 0.8636
vn -0.4091 -0.4969 -0.7653
vn 0.4091 -0.4969 -0.7653
vn 0.0851 -0.4969 0.8636
vn -0.5505 -0.4969 -0.6708
vn 0.2519 -0.4969 -0.8305
vn 0.2519 -0.4969 0.8305
vn -0.6708 -0.4969 -0.5505
vn 0.0851 -0.4969 -0.8636
vn 0.4091 -0.4969 0.7653
vn -0.7653 -0.4969 -0.4091
vn 0.5505 -0.4969 0.6708
vn -0.8305 -0.4969 -0.2519
vn 0.6708 -0.4969 0.5505
vn -0.8636 -0.4969 -0.0851
vn 0.7653 -0.4969 0.4091
vn -0.8636 -0.4969 0.0851
vn 0.8305 -0.4969 0.2519
vn -0.8305 -0.4969 0.2519
vn 0.8636 -0.4969 0.0851
vn -0.7653 -0.4969 0.4091
vn 0.8636 -0.4969 -0.0851
vn -0.6708 -0.4969 0.5505
vn 0.2524 0.9646 -0.0766
vn -0.1673 0.9646 0.2039
vn 0.2326 0.9646 -0.1244
vn -0.1244 0.9646 0.2326
vn -0.0259 0.9646 -0.2625
vn 0.2039 0.9646 -0.1673
vn -0.0766 0.9646 0.2524
vn -0.0766 0.9646 -0.2524
vn 0.1673 0.9646 -0.2039
vn -0.0259 0.9646 0.2625
vn -0.1244 0.9646 -0.2326
vn 0.1244 0.9646 -0.2326
vn 0.0259 0.9646 0.2625
vn -0.1673 0.9646 -0.2039
vn 0.0766 0.9646 -0.2524
vn 0.0766 0.9646 0.2524
vn -0.2039 0.9646 -0.1673
vn 0.0259 0.9646 -0.2625
vn 0.1244 0.9646 0.2326
vn -0.2326 0.9646 -0.1244
vn 0.1673 0.9646 0.2039
vn -0.2524 0.9646 -0.0766
vn 0.2039 0.9646 0.1673
vn -0.2625 0.9646 -0.0259
vn 0.2326 0.9646 0.1244
vn -0.2625 0.9646 0.0259
vn 0.2524 0.9646 0.0766
vn -0.2524 0.9646 0.0766
vn 0.2625 0.9646 0.0259
vn -0.2326 0.9646 0.1244
vn 0.2625 0.9646 -0.0259
vn -0.2039 0.9646 0.1673
vn -0.1754 0.9831 0.0532
vn 0.1824 0.9831 0.0180
vn -0.1616 0.9831 0.0864
vn 0.1824 0.9831 -0.0180
vn -0.1417 0.9831 0.1163
vn 0.1754 0.9831 -0.0532
vn -0.1163 0.9831 0.1417
vn 0.1616 0.9831 -0.0864
vn -0.0864 0.9831 0.1616
vn -0.0180 0.9831 -0.1824
vn 0.1417 0.9831 -0.1163
vn -0.0532 0.9831 0.1754
vn -0.0532 0.9831 -0.1754
vn 0.1163 0.9831 -0.1417
vn -0.0180 0.9831 0.1824
vn -0.0864 0.9831 -0.1616
vn 0.0864 0.9831 -0.1616
vn 0.0180 0.9831 0.1824
vn -0.1163 0.9831 -0.1417
vn 0.0532 0.9831 -0.1754
vn 0.0532 0.9831 0.1754
vn -0.1417 0.9831 -0.1163
vn 0.0180 0.9831 -0.1824
vn 0.0864 0.9831 0.1616
vn -0.1616 0.9831 -0.0864
vn 0.1163 0.9831 0.1417
vn -0.1754 0.9831 -0.0532
vn 0.1417 0.9831 0.1163
vn -0.1824 0.9831 -0.0180
vn 0.1616 0.9831 0.0864
vn -0.1824 0.9831 0.0180
vn 0.1754 0.9831 0.0532
vn -0.0000 1.0000 -0.0000
vn 0.0993 -0.9776 -0.1858
vn 0.0206 -0.9776 0.2096
vn -0.1628 -0.9776 0.1336
vn 0.0612 -0.9776 -0.2016
vn 0.0612 -0.9776 0.2016
vn -0.1336 -0.9776 0.1628
vn 0.0206 -0.9776 -0.2096
vn 0.0993 -0.9776 0.1858
vn -0.0993 -0.9776 0.1858
vn -0.0206 -0.9776 -0.2096
vn 0.1336 -0.9776 0.1628
vn -0.0612 -0.9776 0.2016
vn -0.0612 -0.9776 -0.2016
vn 0.1628 -0.9776 0.1336
vn -0.0206 -0.9776 0.2096
vn -0.0993 -0.9776 -0.1858
vn 0.1858 -0.9776 0.0993
vn -0.1336 -0.9776 -0.1628
vn 0.2016 -0.9776 0.0612
vn -0.1628 -0.9776 -0.1336
vn 0.2096 -0.9776 0.0206
vn -0.1858 -0.9776 -0.0993
vn 0.2096 -0.9776 -0.0206
vn -0.2016 -0.9776 -0.0612
vn 0.2016 -0.9776 -0.0612
vn -0.2096 -0.9776 -0.0206
vn 0.1858 -0.9776 -0.0993
vn -0.2096 -0.9776 0.0206
vn 0.1628 -0.9776 -0.1336
vn -0.2016 -0.9776 0.0612
vn 0.1336 -0.9776 -0.1628
vn -0.1858 -0.9776 0.0993
vn -0.0000 -1.0000 -0.0000
vt 0.000000 0.000000
s 0
usemtl Material.002
f 827/2/102 826/2/102 858/2/102 859/2/102
f 814/2/103 813/2/103 845/2/103 846/2/103
f 828/2/104 827/2/104 859/2/104 860/2/104
f 815/2/105 814/2/105 846/2/105 847/2/105
f 802/2/106 801/2/106 833/2/106 834/2/106
f 829/2/107 828/2/107 860/2/107 861/2/107
f 816/2/108 815/2/108 847/2/108 848/2/108
f 803/2/109 802/2/109 834/2/109 835/2/109
f 830/2/110 829/2/110 861/2/110 862/2/110
f 817/2/111 816/2/111 848/2/111 849/2/111
f 804/2/112 803/2/112 835/2/112 836/2/112
f 831/2/113 830/2/113 862/2/113 863/2/113
f 818/2/114 817/2/114 849/2/114 850/2/114
f 805/2/115 804/2/115 836/2/115 837/2/115
f 832/2/116 831/2/116 863/2/116 864/2/116
f 819/2/117 818/2/117 850/2/117 851/2/117
f 806/2/118 805/2/118 837/2/118 838/2/118
f 801/2/119 832/2/119 864/2/119 833/2/119
f 820/2/120 819/2/120 851/2/120 852/2/120
f 807/2/121 806/2/121 838/2/121 839/2/121
f 821/2/122 820/2/122 852/2/122 853/2/122
f 808/2/123 807/2/123 839/2/123 840/2/123
f 822/2/124 821/2/124 853/2/124 854/2/124
f 809/2/125 808/2/125 840/2/125 841/2/125
f 823/2/126 822/2/126 854/2/126 855/2/126
f 810/2/127 809/2/127 841/2/127 842/2/127
f 824/2/128 823/2/128 855/2/128 856/2/128
f 811/2/129 810/2/129 842/2/129 843/2/129
f 825/2/130 824/2/130 856/2/130 857/2/130
f 812/2/131 811/2/131 843/2/131 844/2/131
f 826/2/132 825/2/132 857/2/132 858/2/132
f 813/2/133 812/2/133 844/2/133 845/2/133
f 826/2/134 827/2/134 891/2/134 890/2/134
f 813/2/135 814/2/135 878/2/135 877/2/135
f 827/2/136 828/2/136 892/2/136 891/2/136
f 814/2/137 815/2/137 879/2/137 878/2/137
f 801/2/138 802/2/138 866/2/138 865/2/138
f 828/2/139 829/2/139 893/2/139 892/2/139
f 815/2/140 816/2/140 880/2/140 879/2/140
f 802/2/141 803/2/141 867/2/141 866/2/141
f 829/2/142 830/2/142 894/2/142 893/2/142
f 816/2/143 817/2/143 881/2/143 880/2/143
f 803/2/144 804/2/144 868/2/144 867/2/144
f 830/2/145 831/2/145 895/2/145 894/2/145
f 817/2/146 818/2/146 882/2/146 881/2/146
f 804/2/147 805/2/147 869/2/147 868/2/147
f 831/2/148 832/2/148 896/2/148 895/2/148
f 818/2/149 819/2/149 883/2/149 882/2/149
f 805/2/150 806/2/150 870/2/150 869/2/150
f 832/2/151 801/2/151 865/2/151 896/2/151
f 819/2/152 820/2/152 884/2/152 883/2/152
f 806/2/153 807/2/153 871/2/153 870/2/153
f 820/2/154 821/2/154 885/2/154 884/2/154
f 807/2/155 808/2/155 872/2/155 871/2/155
f 821/2/156 822/2/156 886/2/156 885/2/156
f 808/2/157 809/2/157 873/2/157 872/2/157
f 822/2/158 823/2/158 887/2/158 886/2/158
f 809/2/159 810/2/159 874/2/159 873/2/159
f 823/2/160 824/2/160 888/2/160 887/2/160
f 810/2/161 811/2/161 875/2/161 874/2/161
f 824/2/162 825/2/162 889/2/162 888/2/162
f 811/2/163 812/2/163 876/2/163 875/2/163
f 825/2/164 826/2/164 890/2/164 889/2/164
f 812/2/165 813/2/165 877/2/165 876/2/165
f 874/2/166 875/2/166 907/2/166 906/2/166
f 888/2/167 889/2/167 921/2/167 920/2/167
f 875/2/168 876/2/168 908/2/168 907/2/168
f 889/2/169 890/2/169 922/2/169 921/2/169
f 876/2/170 877/2/170 909/2/170 908/2/170
f 890/2/171 891/2/171 923/2/171 922/2/171
f 877/2/172 878/2/172 910/2/172 909/2/172
f 891/2/173 892/2/173 924/2/173 923/2/173
f 878/2/174 879/2/174 911/2/174 910/2/174
f 865/2/175 866/2/175 898/2/175 897/2/175
f 892/2/176 893/2/176 925/2/176 924/2/176
f 879/2/177 880/2/177 912/2/177 911/2/177
f 866/2/178 867/2/178 899/2/178 898/2/178
f 893/2/179 894/2/179 926/2/179 925/2/179
f 880/2/180 881/2/180 913/2/180 912/2/180
f 867/2/181 868/2/181 900/2/181 899/2/181
f 894/2/182 895/2/182 927/2/182 926/2/182
f 881/2/183 882/2/183 914/2/183 913/2/183
f 868/2/184 869/2/184 901/2/184 900/2/184
f 895/2/185 896/2/185 928/2/185 927/2/185
f 882/2/186 883/2/186 915/2/186 914/2/186
f 869/2/187 870/2/187 902/2/187 901/2/187
f 896/2/188 865/2/188 897/2/188 928/2/188
f 883/2/189 884/2/189 916/2/189 915/2/189
f 870/2/190 871/2/190 903/2/190 902/2/190
f 884/2/191 885/2/191 917/2/191 916/2/191
f 871/2/192 872/2/192 904/2/192 903/2/192
f 885/2/193 886/2/193 918/2/193 917/2/193
f 872/2/194 873/2/194 905/2/194 904/2/194
f 886/2/195 887/2/195 919/2/195 918/2/195
f 873/2/196 874/2/196 906/2/196 905/2/196
f 887/2/197 888/2/197 920/2/197 919/2/197
f 898/2/198 899/2/198 900/2/198 901/2/198 902/2/198 903/2/198 904/2/198 905/2/198 906/2/198 907/2/198 908/2/198 909/2/198 910/2/198 911/2/198 912/2/198 913/2/198 914/2/198 915/2/198 916/2/198 917/2/198 918/2/198 919/2/198 920/2/198 921/2/198 922/2/198 923/2/198 924/2/198 925/2/198 926/2/198 927/2/198 928/2/198 897/2/198
f 847/2/199 846/2/199 942/2/199 943/2/199
f 834/2/200 833/2/200 929/2/200 930/2/200
f 861/2/201 860/2/201 956/2/201 957/2/201
f 848/2/202 847/2/202 943/2/202 944/2/202
f 835/2/203 834/2/203 930/2/203 931/2/203
f 862/2/204 861/2/204 957/2/204 958/2/204
f 849/2/205 848/2/205 944/2/205 945/2/205
f 836/2/206 835/2/206 931/2/206 932/2/206
f 863/2/207 862/2/207 958/2/207 959/2/207
f 850/2/208 849/2/208 945/2/208 946/2/208
f 837/2/209 836/2/209 932/2/209 933/2/209
f 864/2/210 863/2/210 959/2/210 960/2/210
f 851/2/211 850/2/211 946/2/211 947/2/211
f 838/2/212 837/2/212 933/2/212 934/2/212
f 833/2/213 864/2/213 960/2/213 929/2/213
f 852/2/214 851/2/214 947/2/214 948/2/214
f 839/2/215 838/2/215 934/2/215 935/2/215
f 853/2/216 852/2/216 948/2/216 949/2/216
f 840/2/217 839/2/217 935/2/217 936/2/217
f 854/2/218 853/2/218 949/2/218 950/2/218
f 841/2/219 840/2/219 936/2/219 937/2/219
f 855/2/220 854/2/220 950/2/220 951/2/220
f 842/2/221 841/2/221 937/2/221 938/2/221
f 856/2/222 855/2/222 951/2/222 952/2/222
f 843/2/223 842/2/223 938/2/223 939/2/223
f 857/2/224 856/2/224 952/2/224 953/2/224
f 844/2/225 843/2/225 939/2/225 940/2/225
f 858/2/226 857/2/226 953/2/226 954/2/226
f 845/2/227 844/2/227 940/2/227 941/2/227
f 859/2/228 858/2/228 954/2/228 955/2/228
f 846/2/229 845/2/229 941/2/229 942/2/229
f 860/2/230 859/2/230 955/2/230 956/2/230
f 930/2/231 929/2/231 960/2/231 959/2/231 958/2/231 957/2/231 956/2/231 955/2/231 954/2/231 953/2/231 952/2/231 951/2/231 950/2/231 949/2/231 948/2/231 947/2/231 946/2/231 945/2/231 944/2/231 943/2/231 942/2/231 941/2/231 940/2/231 939/2/231 938/2/231 937/2/231 936/2/231 935/2/231 934/2/231 933/2/231 932/2/231 931/2/231
o Cylinder
v 0.000000 0.370729 -0.322259
v 0.000000 1.177436 -0.322259
v 0.062870 0.370729 -0.316067
v 0.062870 1.177436 -0.316067
v 0.123323 0.370729 -0.297728
v 0.123323 1.177436 -0.297728
v 0.179038 0.370729 -0.267949
v 0.179038 1.177436 -0.267949
v 0.227872 0.370729 -0.227871
v 0.227872 1.177436 -0.227871
v 0.267948 0.370729 -0.179038
v 0.267948 1.177436 -0.179038
v 0.297729 0.370729 -0.123323
v 0.297729 1.177436 -0.123323
v 0.316067 0.370729 -0.062870
v 0.316067 1.177436 -0.062870
v 0.322259 0.370729 -0.000000
v 0.322259 1.177436 -0.000000
v 0.316067 0.370729 0.062870
v 0.316067 1.177436 0.062870
v 0.297729 0.370729 0.123323
v 0.297729 1.177436 0.123323
v 0.267948 0.370729 0.179038
v 0.267948 1.177436 0.179038
v 0.227872 0.370729 0.227871
v 0.227872 1.177436 0.227871
v 0.179038 0.370729 0.267949
v 0.179038 1.177436 0.267949
v 0.123323 0.370729 0.297728
v 0.123323 1.177436 0.297728
v 0.062870 0.370729 0.316067
v 0.062870 1.177436 0.316067
v 0.000000 0.370729 0.322259
v 0.000000 1.177436 0.322259
v -0.062870 0.370729 0.316067
v -0.062870 1.177436 0.316067
v -0.123323 0.370729 0.297728
v -0.123323 1.177436 0.297728
v -0.179037 0.370729 0.267949
v -0.179037 1.177436 0.267949
v -0.227871 0.370729 0.227871
v -0.227871 1.177436 0.227871
v -0.267949 0.370729 0.179038
v -0.267949 1.177436 0.179038
v -0.297728 0.370729 0.123323
v -0.297728 1.177436 0.123323
v -0.316067 0.370729 0.062870
v -0.316067 1.177436 0.062870
v -0.322259 0.370729 -0.000000
v -0.322259 1.177436 -0.000000
v -0.316067 0.370729 -0.062870
v -0.316067 1.177436 -0.062870
v -0.297728 0.370729 -0.123323
v -0.297728 1.177436 -0.123323
v -0.267949 0.370729 -0.179038
v -0.267949 1.177436 -0.179038
v -0.227871 0.370729 -0.227871
v -0.227871 1.177436 -0.227871
v -0.179037 0.370729 -0.267949
v -0.179037 1.177436 -0.267949
v -0.123323 0.370729 -0.297728
v -0.123323 1.177436 -0.297728
v -0.062870 0.370729 -0.316067
v -0.062870 1.177436 -0.316067
vn 0.0980 -0.0000 -0.9952
vn 0.2903 -0.0000 -0.9569
vn 0.4714 -0.0000 -0.8819
vn 0.6344 -0.0000 -0.7730
vn 0.7730 -0.0000 -0.6344
vn 0.8819 -0.0000 -0.4714
vn 0.9569 -0.0000 -0.2903
vn 0.9952 -0.0000 -0.0980
vn 0.9952 -0.0000 0.0980
vn 0.9569 -0.0000 0.2903
vn 0.8819 -0.0000 0.4714
vn 0.7730 -0.0000 0.6344
vn 0.6344 -0.0000 0.7730
vn 0.4714 -0.0000 0.8819
vn 0.2903 -0.0000 0.9569
vn 0.0980 -0.0000 0.9952
vn -0.0980 -0.0000 0.9952
vn -0.2903 -0.0000 0.9569
vn -0.4714 -0.0000 0.8819
vn -0.6344 -0.0000 0.7730
vn -0.7730 -0.0000 0.6344
vn -0.8819 -0.0000 0.4714
vn -0.9569 -0.0000 0.2903
vn -0.9952 -0.0000 0.0980
vn -0.9952 -0.0000 -0.0980
vn -0.9569 -0.0000 -0.2903
vn -0.8819 -0.0000 -0.4714
vn -0.7730 -0.0000 -0.6344
vn -0.6344 -0.0000 -0.7730
vn -0.4714 -0.0000 -0.8819
vn -0.0000 1.0000 -0.0000
vn -0.2903 -0.0000 -0.9569
vn -0.0980 -0.0000 -0.9952
vn -0.0000 -1.0000 -0.0000
vt 1.000000 0.500000
vt 1.000000 1.000000
vt 0.968750 1.000000
vt 0.968750 0.500000
vt 0.937500 1.000000
vt 0.937500 0.500000
vt 0.906250 1.000000
vt 0.906250 0.500000
vt 0.875000 1.000000
vt 0.875000 0.500000
vt 0.843750 1.000000
vt 0.843750 0.500000
vt 0.812500 1.000000
vt 0.812500 0.500000
vt 0.781250 1.000000
vt 0.781250 0.500000
vt 0.750000 1.000000
vt 0.750000 0.500000
vt 0.718750 1.000000
vt 0.718750 0.500000
vt 0.687500 1.000000
vt 0.687500 0.500000
vt 0.656250 1.000000
vt 0.656250 0.500000
vt 0.625000 1.000000
vt 0.625000 0.500000
vt 0.593750 1.000000
vt 0.593750 0.500000
vt 0.562500 1.000000
vt 0.562500 0.500000
vt 0.531250 1.000000
vt 0.531250 0.500000
vt 0.500000 1.000000
vt 0.500000 0.500000
vt 0.468750 1.000000
vt 0.468750 0.500000
vt 0.437500 1.000000
vt 0.437500 0.500000
vt 0.406250 1.000000
vt 0.406250 0.500000
vt 0.375000 1.000000
vt 0.375000 0.500000
vt 0.343750 1.000000
vt 0.343750 0.500000
vt 0.312500 1.000000
vt 0.312500 0.500000
vt 0.281250 1.000000
vt 0.281250 0.500000
vt 0.250000 1.000000
vt 0.250000 0.500000
vt 0.218750 1.000000
vt 0.218750 0.500000
vt 0.187500 1.000000
vt 0.187500 0.500000
vt 0.156250 1.000000
vt 0.156250 0.500000
vt 0.125000 1.000000
vt 0.125000 0.500000
vt 0.093750 1.000000
vt 0.093750 0.500000
vt 0.062500 1.000000
vt 0.062500 0.500000
vt 0.296822 0.485388
vt 0.250000 0.490000
vt 0.203178 0.485388
vt 0.158156 0.471731
vt 0.116663 0.449553
vt 0.080294 0.419706
vt 0.050447 0.383337
vt 0.028269 0.341844
vt 0.014612 0.296822
vt 0.010000 0.250000
vt 0.014612 0.203178
vt 0.028269 0.158156
vt 0.050447 0.116663
vt 0.080294 0.080294
vt 0.116663 0.050447
vt 0.158156 0.028269
vt 0.203178 0.014612
vt 0.250000 0.010000
vt 0.296822 0.014612
vt 0.341844 0.028269
vt 0.383337 0.050447
vt 0.419706 0.080294
vt 0.449553 0.116663
vt 0.471731 0.158156
vt 0.485388 0.203178
vt 0.490000 0.250000
vt 0.485388 0.296822
vt 0.471731 0.341844
vt 0.449553 0.383337
vt 0.419706 0.419706
vt 0.383337 0.449553
vt 0.341844 0.471731
vt 0.031250 1.000000
vt 0.031250 0.500000
vt 0.000000 1.000000
vt 0.000000 0.500000
vt 0.750000 0.490000
vt 0.796822 0.485388
vt 0.841844 0.471731
vt 0.883337 0.449553
vt 0.919706 0.419706
vt 0.949553 0.383337
vt 0.971731 0.341844
vt 0.985388 0.296822
vt 0.990000 0.250000
vt 0.985388 0.203178
vt 0.971731 0.158156
vt 0.949553 0.116663
vt 0.919706 0.080294
vt 0.883337 0.050447
vt 0.841844 0.028269
vt 0.796822 0.014612
vt 0.750000 0.010000
vt 0.703178 0.014612
vt 0.658156 0.028269
vt 0.616663 0.050447
vt 0.580294 0.080294
vt 0.550447 0.116663
vt 0.528269 0.158156
vt 0.514612 0.203178
vt 0.510000 0.250000
vt 0.514612 0.296822
vt 0.528269 0.341844
vt 0.550447 0.383337
vt 0.580294 0.419706
vt 0.616663 0.449553
vt 0.658156 0.471731
vt 0.703178 0.485388
s 0
usemtl Material.003
f 961/3/232 962/4/232 964/5/232 963/6/232
f 963/6/233 964/5/233 966/7/233 965/8/233
f 965/8/234 966/7/234 968/9/234 967/10/234
f 967/10/235 968/9/235 970/11/235 969/12/235
f 969/12/236 970/11/236 972/13/236 971/14/236
f 971/14/237 972/13/237 974/15/237 973/16/237
f 973/16/238 974/15/238 976/17/238 975/18/238
f 975/18/239 976/17/239 978/19/239 977/20/239
f 977/20/240 978/19/240 980/21/240 979/22/240
f 979/22/241 980/21/241 982/23/241 981/24/241
f 981/24/242 982/23/242 984/25/242 983/26/242
f 983/26/243 984/25/243 986/27/243 985/28/243
f 985/28/244 986/27/244 988/29/244 987/30/244
f 987/30/245 988/29/245 990/31/245 989/32/245
f 989/32/246 990/31/246 992/33/246 991/34/246
f 991/34/247 992/33/247 994/35/247 993/36/247
f 993/36/248 994/35/248 996/37/248 995/38/248
f 995/38/249 996/37/249 998/39/249 997/40/249
f 997/40/250 998/39/250 1000/41/250 999/42/250
f 999/42/251 1000/41/251 1002/43/251 1001/44/251
f 1001/44/252 1002/43/252 1004/45/252 1003/46/252
f 1003/46/253 1004/45/253 1006/47/253 1005/48/253
f 1005/48/254 1006/47/254 1008/49/254 1007/50/254
f 1007/50/255 1008/49/255 1010/51/255 1009/52/255
f 1009/52/256 1010/51/256 1012/53/256 1011/54/256
f 1011/54/257 1012/53/257 1014/55/257 1013/56/257
f 1013/56/258 1014/55/258 1016/57/258 1015/58/258
f 1015/58/259 1016/57/259 1018/59/259 1017/60/259
f 1017/60/260 1018/59/260 1020/61/260 1019/62/260
f 1019/62/261 1020/61/261 1022/63/261 1021/64/261
f 964/65/262 962/66/262 1024/67/262 1022/68/262 1020/69/262 1018/70/262 1016/71/262 1014/72/262 1012/73/262 1010/74/262 1008/75/262 1006/76/262 1004/77/262 1002/78/262 1000/79/262 998/80/262 996/81/262 994/82/262 992/83/262 990/84/262 988/85/262 986/86/262 984/87/262 982/88/262 980/89/262 978/90/262 976/91/262 974/92/262 972/93/262 970/94/262 968/95/262 966/96/262
f 1021/64/263 1022/63/263 1024/97/263 1023/98/263
f 1023/98/264 1024/97/264 962/99/264 961/100/264
f 961/101/265 963/102/265 965/103/265 967/104/265 969/105/265 971/106/265 973/107/265 975/108/265 977/109/265 979/110/265 981/111/265 983/112/265 985/113/265 987/114/265 989/115/265 991/116/265 993/117/265 995/118/265 997/119/265 999/120/265 1001/121/265 1003/122/265 1005/123/265 1007/124/265 1009/125/265 1011/126/265 1013/127/265 1015/128/265 1017/129/265 1019/130/265 1021/131/265 1023/132/265
o Circle.002
v 0.000000 1.204422 -1.508184
v -0.294232 1.204422 -1.479205
v -0.577157 1.204422 -1.393380
v -0.837902 1.204422 -1.254009
v -1.066447 1.204422 -1.066447
v -1.254009 1.204422 -0.837902
v -1.393380 1.204422 -0.577157
v -1.479205 1.204422 -0.294232
v -1.508184 1.204422 -0.000000
v -1.479205 1.204422 0.294232
v -1.393380 1.204422 0.577157
v -1.254009 1.204422 0.837902
v -1.066447 1.204422 1.066447
v -0.837902 1.204422 1.254009
v -0.577157 1.204422 1.393380
v -0.294232 1.204422 1.479204
v 0.000000 1.204422 1.508184
v 0.294232 1.204422 1.479204
v 0.577157 1.204422 1.393380
v 0.837902 1.204422 1.254009
v 1.066447 1.204422 1.066447
v 1.254009 1.204422 0.837902
v 1.393380 1.204422 0.577157
v 1.479205 1.204422 0.294232
v 1.508184 1.204422 -0.000000
v 1.479205 1.204422 -0.294232
v 1.393380 1.204422 -0.577157
v 1.254009 1.204422 -0.837902
v 1.066447 1.204422 -1.066447
v 0.837902 1.204422 -1.254009
v 0.577157 1.204422 -1.393380
v 0.294232 1.204422 -1.479205
v 0.000000 1.378002 -1.508184
v -0.294232 1.378002 -1.479205
v -0.577157 1.378002 -1.393380
v -0.837902 1.378002 -1.254009
v -1.066447 1.378002 -1.066447
v -1.254009 1.378002 -0.837902
v -1.393380 1.378002 -0.577157
v -1.479205 1.378002 -0.294232
v -1.508184 1.378002 -0.000000
v -1.479205 1.378002 0.294232
v -1.393380 1.378002 0.577157
v -1.254009 1.378002 0.837902
v -1.066447 1.378002 1.066447
v -0.837902 1.378002 1.254009
v -0.577157 1.378002 1.393380
v -0.294232 1.378002 1.479204
v 0.000000 1.378002 1.508184
v 0.294232 1.378002 1.479204
v 0.577157 1.378002 1.393380
v 0.837902 1.378002 1.254009
v 1.066447 1.378002 1.066447
v 1.254009 1.378002 0.837902
v 1.393380 1.378002 0.577157
v 1.479205 1.378002 0.294232
v 1.508184 1.378002 -0.000000
v 1.479205 1.378002 -0.294232
v 1.393380 1.378002 -0.577157
v 1.254009 1.378002 -0.837902
v 1.066447 1.378002 -1.066447
v 0.837902 1.378002 -1.254009
v 0.577157 1.378002 -1.393380
v 0.294232 1.378002 -1.479205
vn 0.2903 -0.0000 0.9569
vn -0.6344 -0.0000 0.7730
vn 0.0980 -0.0000 -0.9952
vn 0.4714 -0.0000 0.8819
vn -0.4714 -0.0000 0.8819
vn -0.0980 -0.0000 -0.9952
vn 0.6344 -0.0000 0.7730
vn -0.2903 -0.0000 0.9569
vn -0.2903 -0.0000 -0.9569
vn 0.7730 -0.0000 0.6344
vn -0.0980 -0.0000 0.9952
vn -0.4714 -0.0000 -0.8819
vn 0.8819 -0.0000 0.4714
vn -0.6344 -0.0000 -0.7730
vn 0.9569 -0.0000 0.2903
vn -0.7730 -0.0000 -0.6344
vn 0.9952 -0.0000 0.0980
vn -0.8819 -0.0000 -0.4714
vn 0.9952 -0.0000 -0.0980
vn -0.9569 -0.0000 -0.2903
vn 0.9569 -0.0000 -0.2903
vn -0.9952 -0.0000 -0.0980
vn 0.8819 -0.0000 -0.4714
vn -0.9952 -0.0000 0.0980
vn 0.7730 -0.0000 -0.6344
vn -0.9569 -0.0000 0.2903
vn 0.6344 -0.0000 -0.7730
vn -0.8819 -0.0000 0.4714
vn 0.4714 -0.0000 -0.8819
vn 0.0980 -0.0000 0.9952
vn -0.7730 -0.0000 0.6344
vn 0.2903 -0.0000 -0.9569
vn -0.0000 1.0000 -0.0000
vn -0.0000 -1.0000 -0.0000
vt 0.000000 0.000000
s 0
usemtl Material.003
f 1027/133/266 1026/133/266 1058/133/266 1059/133/266
f 1054/133/267 1053/133/267 1085/133/267 1086/133/267
f 1041/133/268 1040/133/268 1072/133/268 1073/133/268
f 1028/133/269 1027/133/269 1059/133/269 1060/133/269
f 1055/133/270 1054/133/270 1086/133/270 1087/133/270
f 1042/133/271 1041/133/271 1073/133/271 1074/133/271
f 1029/133/272 1028/133/272 1060/133/272 1061/133/272
f 1056/133/273 1055/133/273 1087/133/273 1088/133/273
f 1043/133/274 1042/133/274 1074/133/274 1075/133/274
f 1030/133/275 1029/133/275 1061/133/275 1062/133/275
f 1025/133/276 1056/133/276 1088/133/276 1057/133/276
f 1044/133/277 1043/133/277 1075/133/277 1076/133/277
f 1031/133/278 1030/133/278 1062/133/278 1063/133/278
f 1045/133/279 1044/133/279 1076/133/279 1077/133/279
f 1032/133/280 1031/133/280 1063/133/280 1064/133/280
f 1046/133/281 1045/133/281 1077/133/281 1078/133/281
f 1033/133/282 1032/133/282 1064/133/282 1065/133/282
f 1047/133/283 1046/133/283 1078/133/283 1079/133/283
f 1034/133/284 1033/133/284 1065/133/284 1066/133/284
f 1048/133/285 1047/133/285 1079/133/285 1080/133/285
f 1035/133/286 1034/133/286 1066/133/286 1067/133/286
f 1049/133/287 1048/133/287 1080/133/287 1081/133/287
f 1036/133/288 1035/133/288 1067/133/288 1068/133/288
f 1050/133/289 1049/133/289 1081/133/289 1082/133/289
f 1037/133/290 1036/133/290 1068/133/290 1069/133/290
f 1051/133/291 1050/133/291 1082/133/291 1083/133/291
f 1038/133/292 1037/133/292 1069/133/292 1070/133/292
f 1052/133/293 1051/133/293 1083/133/293 1084/133/293
f 1039/133/294 1038/133/294 1070/133/294 1071/133/294
f 1026/133/295 1025/133/295 1057/133/295 1058/133/295
f 1053/133/296 1052/133/296 1084/133/296 1085/133/296
f 1040/133/297 1039/133/297 1071/133/297 1072/133/297
f 1026/133/298 1027/133/298 1028/133/298 1029/133/298 1030/133/298 1031/133/298 1032/133/298 1033/133/298 1034/133/298 1035/133/298 1036/133/298 1037/133/298 1038/133/298 1039/133/298 1040/133/298 1041/133/298 1042/133/298 1043/133/298 1044/133/298 1045/133/298 1046/133/298 1047/133/298 1048/133/298 1049/133/298 1050/133/298 1051/133/298 1052/133/298 1053/133/298 1054/133/298 1055/133/298 1056/133/298 1025/133/298
f 1058/133/299 1057/133/299 1088/133/299 1087/133/299 1086/133/299 1085/133/299 1084/133/299 1083/133/299 1082/133/299 1081/133/299 1080/133/299 1079/133/299 1078/133/299 1077/133/299 1076/133/299 1075/133/299 1074/133/299 1073/133/299 1072/133/299 1071/133/299 1070/133/299 1069/133/299 1068/133/299 1067/133/299 1066/133/299 1065/133/299 1064/133/299 1063/133/299 1062/133/299 1061/133/299 1060/133/299 1059/133/299
