# Blender 5.0.1
# www.blender.org
mtllib Стена кирпич.mtl
o Cube
v 0.373226 1.135185 -1.758411
v 0.373226 1.135185 1.741588
v -0.126774 1.135185 -1.758411
v -0.126774 1.135185 1.741588
v 0.373226 1.635185 -1.758411
v 0.373226 1.635185 1.741588
v -0.126774 1.635185 -1.758411
v -0.126774 1.635185 1.741588
v 0.373226 1.135185 -1.581232
v -0.126774 1.135185 -1.581232
v -0.126774 1.635185 -1.581232
v 0.373226 1.635185 -1.581232
v 0.373226 1.135185 1.598055
v -0.126774 1.135185 1.598055
v -0.126774 1.635185 1.598055
v 0.373226 1.635185 1.598055
v -0.126774 1.754864 -1.671164
v -0.126774 1.754864 -1.758411
v 0.373226 1.754864 -1.758411
v -0.126774 1.754864 1.741588
v 0.373226 1.754864 1.741588
v 0.373226 1.754864 -1.671164
v -0.126774 1.754864 1.687987
v 0.373226 1.754864 1.687987
vn -0.0000 -1.0000 -0.0000
vn -1.0000 -0.0000 -0.0000
vn -0.0000 -0.0000 1.0000
vn 1.0000 -0.0000 -0.0000
vn -0.0000 -0.0000 -1.0000
vn -0.0000 1.0000 -0.0000
vn -0.0000 0.6007 0.7994
vn -0.0000 0.6007 -0.7994
vt 0.614748 0.000000
vt 0.625000 0.000000
vt 0.625000 0.250000
vt 0.614748 0.250000
vt 0.625000 0.500000
vt 0.614748 0.500000
vt 0.625000 0.750000
vt 0.614748 0.750000
vt 0.625000 1.000000
vt 0.614748 1.000000
vt 0.125000 0.500000
vt 0.375000 0.500000
vt 0.375000 0.750000
vt 0.125000 0.750000
vt 0.875000 0.500000
vt 0.875000 0.750000
vt 0.387656 0.750000
vt 0.387656 1.000000
vt 0.375000 1.000000
vt 0.375000 0.250000
vt 0.387656 0.250000
vt 0.387656 0.500000
vt 0.375000 0.000000
vt 0.387656 0.000000
s 0
usemtl Material.002
f 13/1/1 2/2/1 4/3/1 14/4/1
f 14/4/2 4/3/2 8/5/2 15/6/2
f 8/5/3 6/7/3 21/7/3 20/5/3
f 16/8/4 6/7/4 2/9/4 13/10/4
f 3/11/5 7/12/5 5/13/5 1/14/5
f 8/5/3 4/15/3 2/16/3 6/7/3
f 5/13/4 12/17/4 9/18/4 1/19/4
f 6/7/4 16/8/4 24/8/4 21/7/4
f 3/20/2 10/21/2 11/22/2 7/12/2
f 1/23/1 9/24/1 10/21/1 3/20/1
f 12/17/4 16/8/4 13/10/4 9/18/4
f 11/22/6 15/6/6 16/8/6 12/17/6
f 10/21/2 14/4/2 15/6/2 11/22/2
f 9/24/1 13/1/1 14/4/1 10/21/1
f 23/6/6 20/5/6 21/7/6 24/8/6
f 18/12/6 17/22/6 22/17/6 19/13/6
f 11/22/7 12/17/7 22/17/7 17/22/7
f 7/12/2 11/22/2 17/22/2 18/12/2
f 15/6/2 8/5/2 20/5/2 23/6/2
f 12/17/4 5/13/4 19/13/4 22/17/4
f 5/13/5 7/12/5 18/12/5 19/13/5
f 16/8/8 15/6/8 23/6/8 24/8/8
