# Blender 5.0.1
# www.blender.org
mtllib Пустая грядка.mtl
o Plane
v -0.500000 0.000000 0.500000
v 0.500000 0.000000 0.500000
v -0.500000 0.000000 -0.500000
v 0.500000 0.000000 -0.500000
v -0.429401 0.017285 -0.429401
v -0.429401 0.017285 0.429401
v 0.429401 0.017285 0.429401
v 0.429401 0.017285 -0.429401
v -0.500000 0.000000 -0.375000
v -0.500000 0.000000 -0.250000
v -0.500000 0.000000 -0.125000
v -0.500000 0.000000 0.000000
v -0.500000 0.000000 0.125000
v -0.500000 0.000000 0.250000
v -0.500000 0.000000 0.375000
v 0.500000 0.000000 0.375000
v 0.500000 0.000000 0.250000
v 0.500000 0.000000 0.125000
v 0.500000 0.000000 0.000000
v 0.500000 0.000000 -0.125000
v 0.500000 0.000000 -0.250000
v 0.500000 0.000000 -0.375000
v -0.429401 0.017285 -0.322051
v -0.429401 0.017285 -0.214700
v -0.429401 0.017285 -0.107350
v -0.429401 0.017285 0.000000
v -0.429401 0.017285 0.107350
v -0.429401 0.017285 0.214700
v -0.429401 0.017285 0.322051
v 0.429401 0.017285 0.322051
v 0.429401 0.017285 0.214700
v 0.429401 0.017285 0.107350
v 0.429401 0.017285 -0.000000
v 0.429401 0.017285 -0.107350
v 0.429401 0.017285 -0.214700
v 0.429401 0.017285 -0.322051
v -0.375000 0.000000 0.500000
v -0.250000 0.000000 0.500000
v -0.125000 0.000000 0.500000
v 0.000000 0.000000 0.500000
v 0.125000 0.000000 0.500000
v 0.250000 0.000000 0.500000
v 0.375000 0.000000 0.500000
v 0.375000 0.000000 -0.500000
v 0.250000 0.000000 -0.500000
v 0.125000 0.000000 -0.500000
v 0.000000 0.000000 -0.500000
v -0.125000 0.000000 -0.500000
v -0.250000 0.000000 -0.500000
v -0.375000 0.000000 -0.500000
v -0.322051 0.017285 0.429401
v -0.214700 0.017285 0.429401
v -0.107350 0.017285 0.429401
v 0.000000 0.017285 0.429401
v 0.107350 0.017285 0.429401
v 0.214700 0.017285 0.429401
v 0.322051 0.017285 0.429401
v 0.322051 0.017285 -0.429401
v 0.214700 0.017285 -0.429401
v 0.107350 0.017285 -0.429401
v -0.000000 0.017285 -0.429401
v -0.107350 0.017285 -0.429401
v -0.214700 0.017285 -0.429401
v -0.322051 0.017285 -0.429401
v 0.322051 0.017285 0.322051
v 0.214700 0.017285 0.322051
v 0.107350 0.017285 0.322051
v -0.000000 0.017285 0.322051
v -0.107350 0.017285 0.322051
v -0.214700 0.017285 0.322051
v -0.322051 0.017285 0.322051
v 0.322051 0.017285 0.214700
v 0.214700 0.017285 0.214700
v 0.107350 0.017285 0.214700
v -0.000000 0.017285 0.214700
v -0.107350 0.017285 0.214700
v -0.214700 0.017285 0.214700
v -0.322051 0.017285 0.214700
v 0.322051 0.017285 0.107350
v 0.214700 0.017285 0.107350
v 0.107350 0.017285 0.107350
v -0.000000 0.017285 0.107350
v -0.107350 0.017285 0.107350
v -0.214700 0.017285 0.107350
v -0.322051 0.017285 0.107350
v 0.322051 0.017285 -0.000000
v 0.214700 0.017285 -0.000000
v 0.107350 0.017285 -0.000000
v -0.000000 0.017285 0.000000
v -0.107350 0.017285 0.000000
v -0.214700 0.017285 0.000000
v -0.322051 0.017285 0.000000
v 0.322051 0.017285 -0.107350
v 0.214700 0.017285 -0.107350
v 0.107350 0.017285 -0.107350
v -0.000000 0.017285 -0.107350
v -0.107350 0.017285 -0.107350
v -0.214700 0.017285 -0.107350
v -0.322051 0.017285 -0.107350
v 0.322051 0.017285 -0.214700
v 0.214700 0.017285 -0.214700
v 0.107350 0.017285 -0.214700
v -0.000000 0.017285 -0.214700
v -0.107350 0.017285 -0.214700
v -0.214700 0.017285 -0.214700
v -0.322051 0.017285 -0.214700
v 0.322051 0.017285 -0.322051
v 0.214700 0.017285 -0.322051
v 0.107350 0.017285 -0.322051
v -0.000000 0.017285 -0.322051
v -0.107350 0.017285 -0.322051
v -0.214700 0.017285 -0.322051
v -0.322051 0.017285 -0.322051
v -0.375000 0.000000 0.375000
v -0.250000 0.000000 0.375000
v -0.125000 0.000000 0.375000
v 0.000000 0.000000 0.375000
v 0.125000 0.000000 0.375000
v 0.250000 0.000000 0.375000
v 0.375000 0.000000 0.375000
v -0.375000 0.000000 0.250000
v -0.250000 0.000000 0.250000
v -0.125000 0.000000 0.250000
v 0.000000 0.000000 0.250000
v 0.125000 0.000000 0.250000
v 0.250000 0.000000 0.250000
v 0.375000 0.000000 0.250000
v -0.375000 0.000000 0.125000
v -0.250000 0.000000 0.125000
v -0.125000 0.000000 0.125000
v 0.000000 0.000000 0.125000
v 0.125000 0.000000 0.125000
v 0.250000 0.000000 0.125000
v 0.375000 0.000000 0.125000
v -0.375000 0.000000 0.000000
v -0.250000 0.000000 0.000000
v -0.125000 0.000000 0.000000
v 0.000000 0.000000 0.000000
v 0.125000 0.000000 0.000000
v 0.250000 0.000000 0.000000
v 0.375000 0.000000 0.000000
v -0.375000 0.000000 -0.125000
v -0.250000 0.000000 -0.125000
v -0.125000 0.000000 -0.125000
v 0.000000 0.000000 -0.125000
v 0.125000 0.000000 -0.125000
v 0.250000 0.000000 -0.125000
v 0.375000 0.000000 -0.125000
v -0.375000 0.000000 -0.250000
v -0.250000 0.000000 -0.250000
v -0.125000 0.000000 -0.250000
v 0.000000 0.000000 -0.250000
v 0.125000 0.000000 -0.250000
v 0.250000 0.000000 -0.250000
v 0.375000 0.000000 -0.250000
v -0.375000 0.000000 -0.375000
v -0.250000 0.000000 -0.375000
v -0.125000 0.000000 -0.375000
v 0.000000 0.000000 -0.375000
v 0.125000 0.000000 -0.375000
v 0.250000 0.000000 -0.375000
v 0.375000 0.000000 -0.375000
v -0.394987 0.010834 0.296241
v -0.394987 0.010834 0.394987
v 0.394987 0.010834 -0.296241
v 0.394987 0.010834 -0.394987
v -0.394987 0.010834 -0.296241
v -0.394987 0.010834 -0.197494
v -0.394987 0.010834 -0.098747
v -0.394987 0.010834 0.000000
v -0.394987 0.010834 0.098747
v -0.394987 0.010834 0.197494
v 0.394987 0.010834 0.296241
v 0.394987 0.010834 0.197494
v 0.394987 0.010834 0.098747
v 0.394987 0.010834 -0.000000
v 0.394987 0.010834 -0.098747
v 0.394987 0.010834 -0.197494
v -0.296241 0.010834 0.296241
v -0.296241 0.010834 0.197494
v -0.296241 0.010834 0.098747
v -0.296241 0.010834 0.000000
v -0.296241 0.010834 -0.098747
v -0.296241 0.010834 -0.197494
v -0.296241 0.010834 -0.296241
v -0.296241 0.010834 0.394987
v -0.197494 0.010834 0.394987
v -0.098747 0.010834 0.394987
v 0.000000 0.010834 0.394987
v 0.098747 0.010834 0.394987
v 0.197494 0.010834 0.394987
v 0.296241 0.010834 0.394987
v 0.296241 0.010834 -0.394987
v 0.197494 0.010834 -0.394987
v 0.098747 0.010834 -0.394987
v -0.000000 0.010834 -0.394987
v -0.098747 0.010834 -0.394987
v -0.197494 0.010834 -0.394987
v -0.296241 0.010834 -0.394987
v 0.296241 0.010834 0.296241
v 0.197494 0.010834 0.296241
v 0.098747 0.010834 0.296241
v -0.000000 0.010834 0.296241
v -0.098747 0.010834 0.296241
v -0.197494 0.010834 0.296241
v 0.296241 0.010834 0.197494
v 0.197494 0.010834 0.197494
v 0.098747 0.010834 0.197494
v -0.000000 0.010834 0.197494
v -0.098747 0.010834 0.197494
v -0.197494 0.010834 0.197494
v 0.296241 0.010834 0.098747
v 0.197494 0.010834 0.098747
v 0.098747 0.010834 0.098747
v -0.000000 0.010834 0.098747
v -0.098747 0.010834 0.098747
v -0.197494 0.010834 0.098747
v 0.296241 0.010834 -0.000000
v 0.197494 0.010834 -0.000000
v 0.098747 0.010834 -0.000000
v -0.000000 0.010834 0.000000
v -0.098747 0.010834 0.000000
v -0.197494 0.010834 0.000000
v 0.296241 0.010834 -0.098747
v 0.197494 0.010834 -0.098747
v 0.098747 0.010834 -0.098747
v -0.000000 0.010834 -0.098747
v -0.098747 0.010834 -0.098747
v -0.197494 0.010834 -0.098747
v 0.296241 0.010834 -0.197494
v 0.197494 0.010834 -0.197494
v 0.098747 0.010834 -0.197494
v -0.000000 0.010834 -0.197494
v -0.098747 0.010834 -0.197494
v -0.197494 0.010834 -0.197494
v 0.296241 0.010834 -0.296241
v 0.197494 0.010834 -0.296241
v 0.098747 0.010834 -0.296241
v -0.000000 0.010834 -0.296241
v -0.098747 0.010834 -0.296241
v -0.197494 0.010834 -0.296241
vn -0.0000 -1.0000 -0.0000
vn -0.0000 0.9702 -0.2425
vn -0.0000 0.9713 -0.2378
vn -0.0000 0.9713 0.2378
vn 0.2378 0.9713 -0.0000
vn -0.2378 0.9713 -0.0000
vn -0.0000 1.0000 -0.0000
vn 0.2425 0.9702 -0.0000
vn -0.0000 0.9829 0.1842
vn -0.2425 0.9702 -0.0000
vn 0.3510 -0.9364 -0.0000
vn -0.5999 0.8001 -0.0000
vn -0.0000 -0.9702 -0.2425
vn 1.0000 -0.0000 -0.0000
vn -0.0000 0.9702 0.2425
vn -0.5999 -0.8001 -0.0000
vn 0.3510 0.9364 -0.0000
vn -0.1842 0.9829 -0.0000
vn -0.2425 -0.9702 -0.0000
vn -0.0000 0.9829 -0.1842
vn -0.0000 0.9364 0.3510
vn -0.0000 -0.9364 -0.3510
vn -0.3510 -0.9364 -0.0000
vn -0.0000 -0.9702 0.2425
vn 0.5999 0.8001 -0.0000
vn -1.0000 -0.0000 -0.0000
vn 0.5999 -0.8001 -0.0000
vn -0.3510 0.9364 -0.0000
vn 0.2425 -0.9702 -0.0000
vn -0.0000 -0.9364 0.3510
vn -0.0000 0.9364 -0.3510
vn 0.1842 0.9829 -0.0000
vn -0.0000 -0.8001 0.5999
vn -0.0000 -0.0000 -1.0000
vn -0.0000 0.8001 0.5999
vn -0.0000 0.8001 -0.5999
vn -0.0000 -0.0000 1.0000
vn -0.0000 -0.8001 -0.5999
vt 0.875000 0.875000
vt 0.875000 1.000000
vt 1.000000 1.000000
vt 1.000000 0.875000
vt 0.875000 0.125000
vt 1.000000 0.125000
vt 0.125000 1.000000
vt 0.000000 1.000000
vt 0.875000 0.000000
vt 1.000000 0.000000
vt 0.000000 0.125000
vt 0.000000 0.000000
vt 0.000000 0.875000
vt 0.000000 0.750000
vt 0.000000 0.625000
vt 0.000000 0.500000
vt 0.000000 0.375000
vt 0.000000 0.250000
vt 1.000000 0.250000
vt 1.000000 0.375000
vt 1.000000 0.500000
vt 1.000000 0.625000
vt 1.000000 0.750000
vt 0.125000 0.750000
vt 0.125000 0.625000
vt 0.875000 0.250000
vt 0.875000 0.375000
vt 0.250000 1.000000
vt 0.875000 0.500000
vt 0.875000 0.625000
vt 0.875000 0.750000
vt 0.875000 0.125000
vt 0.875000 0.250000
vt 0.125000 0.875000
vt 0.125000 0.750000
vt 0.250000 0.875000
vt 0.250000 0.750000
vt 0.375000 0.875000
vt 0.375000 0.750000
vt 0.500000 0.875000
vt 0.500000 0.750000
vt 0.625000 0.875000
vt 0.625000 0.750000
vt 0.750000 0.875000
vt 0.750000 0.750000
vt 0.125000 0.625000
vt 0.250000 0.625000
vt 0.375000 0.625000
vt 0.500000 0.625000
vt 0.625000 0.625000
vt 0.750000 0.625000
vt 0.125000 0.500000
vt 0.250000 0.500000
vt 0.375000 0.500000
vt 0.500000 0.500000
vt 0.625000 0.500000
vt 0.750000 0.500000
vt 0.125000 0.375000
vt 0.250000 0.375000
vt 0.375000 0.375000
vt 0.500000 0.375000
vt 0.625000 0.375000
vt 0.750000 0.375000
vt 0.125000 0.250000
vt 0.250000 0.250000
vt 0.375000 0.250000
vt 0.500000 0.250000
vt 0.625000 0.250000
vt 0.750000 0.250000
vt 0.125000 0.125000
vt 0.250000 0.125000
vt 0.375000 0.125000
vt 0.500000 0.125000
vt 0.625000 0.125000
vt 0.750000 0.125000
vt 0.125000 0.000000
vt 0.250000 0.000000
vt 0.375000 0.000000
vt 0.500000 0.000000
vt 0.625000 0.000000
vt 0.750000 0.000000
vt 0.250000 0.750000
vt 0.250000 0.875000
vt 0.125000 0.875000
vt 0.500000 1.000000
vt 0.375000 1.000000
vt 0.250000 0.625000
vt 0.750000 1.000000
vt 0.625000 1.000000
vt 0.125000 0.500000
vt 0.250000 0.500000
vt 0.125000 0.375000
vt 0.250000 0.375000
vt 0.125000 0.250000
vt 0.250000 0.250000
vt 0.375000 0.250000
vt 0.500000 0.250000
vt 0.625000 0.250000
vt 0.750000 0.250000
vt 0.125000 0.125000
vt 0.250000 0.125000
vt 0.375000 0.125000
vt 0.500000 0.125000
vt 0.625000 0.125000
vt 0.750000 0.125000
s 0
usemtl Material.005
f 162/1/1 44/2/1 4/3/1 22/4/1
f 65/5/2 30/6/2 173/6/2 200/5/2
f 50/7/3 3/8/3 5/8/3 64/7/3
f 43/9/4 2/10/4 7/10/4 57/9/4
f 22/4/5 4/3/5 8/3/5 36/4/5
f 15/11/6 1/12/6 6/12/6 29/11/6
f 3/8/6 9/13/6 23/13/6 5/8/6
f 9/13/6 10/14/6 24/14/6 23/13/6
f 10/14/6 11/15/6 25/15/6 24/14/6
f 11/15/6 12/16/6 26/16/6 25/15/6
f 12/16/6 13/17/6 27/17/6 26/16/6
f 13/17/6 14/18/6 28/18/6 27/17/6
f 14/18/6 15/11/6 29/11/6 28/18/6
f 2/10/5 16/6/5 30/6/5 7/10/5
f 16/6/5 17/19/5 31/19/5 30/6/5
f 17/19/5 18/20/5 32/20/5 31/19/5
f 18/20/5 19/21/5 33/21/5 32/20/5
f 19/21/5 20/22/5 34/22/5 33/21/5
f 20/22/5 21/23/5 35/23/5 34/22/5
f 21/23/5 22/4/5 36/4/5 35/23/5
f 57/9/7 7/10/7 30/6/7 65/5/7
f 106/24/8 99/25/8 183/25/8 184/24/8
f 72/26/7 31/19/7 32/20/7 79/27/7
f 63/28/9 64/7/9 199/7/9 198/28/9
f 86/29/7 33/21/7 34/22/7 93/30/7
f 100/31/10 107/1/10 236/1/10 230/31/10
f 100/31/7 35/23/7 36/4/7 107/1/7
f 43/9/1 120/32/1 16/6/1 2/10/1
f 120/32/1 127/33/1 17/19/1 16/6/1
f 127/33/1 134/27/1 18/20/1 17/19/1
f 134/27/1 141/29/1 19/21/1 18/20/1
f 141/29/1 148/30/1 20/22/1 19/21/1
f 148/30/1 155/31/1 21/23/1 20/22/1
f 155/31/1 162/1/1 22/4/1 21/23/1
f 10/14/1 9/13/1 156/34/1 149/35/1
f 149/35/1 156/34/1 157/36/1 150/37/1
f 150/37/1 157/36/1 158/38/1 151/39/1
f 151/39/1 158/38/1 159/40/1 152/41/1
f 152/41/1 159/40/1 160/42/1 153/43/1
f 153/43/1 160/42/1 161/44/1 154/45/1
f 154/45/1 161/44/1 162/1/1 155/31/1
f 11/15/1 10/14/1 149/35/1 142/46/1
f 142/46/1 149/35/1 150/37/1 143/47/1
f 143/47/1 150/37/1 151/39/1 144/48/1
f 144/48/1 151/39/1 152/41/1 145/49/1
f 145/49/1 152/41/1 153/43/1 146/50/1
f 146/50/1 153/43/1 154/45/1 147/51/1
f 147/51/1 154/45/1 155/31/1 148/30/1
f 12/16/1 11/15/1 142/46/1 135/52/1
f 135/52/1 142/46/1 143/47/1 136/53/1
f 136/53/1 143/47/1 144/48/1 137/54/1
f 137/54/1 144/48/1 145/49/1 138/55/1
f 138/55/1 145/49/1 146/50/1 139/56/1
f 139/56/1 146/50/1 147/51/1 140/57/1
f 140/57/1 147/51/1 148/30/1 141/29/1
f 13/17/1 12/16/1 135/52/1 128/58/1
f 128/58/1 135/52/1 136/53/1 129/59/1
f 129/59/1 136/53/1 137/54/1 130/60/1
f 130/60/1 137/54/1 138/55/1 131/61/1
f 131/61/1 138/55/1 139/56/1 132/62/1
f 132/62/1 139/56/1 140/57/1 133/63/1
f 133/63/1 140/57/1 141/29/1 134/27/1
f 14/18/1 13/17/1 128/58/1 121/64/1
f 121/64/1 128/58/1 129/59/1 122/65/1
f 122/65/1 129/59/1 130/60/1 123/66/1
f 123/66/1 130/60/1 131/61/1 124/67/1
f 124/67/1 131/61/1 132/62/1 125/68/1
f 125/68/1 132/62/1 133/63/1 126/69/1
f 126/69/1 133/63/1 134/27/1 127/33/1
f 15/11/1 14/18/1 121/64/1 114/70/1
f 114/70/1 121/64/1 122/65/1 115/71/1
f 115/71/1 122/65/1 123/66/1 116/72/1
f 116/72/1 123/66/1 124/67/1 117/73/1
f 117/73/1 124/67/1 125/68/1 118/74/1
f 118/74/1 125/68/1 126/69/1 119/75/1
f 119/75/1 126/69/1 127/33/1 120/32/1
f 1/12/1 15/11/1 114/70/1 37/76/1
f 37/76/1 114/70/1 115/71/1 38/77/1
f 38/77/1 115/71/1 116/72/1 39/78/1
f 39/78/1 116/72/1 117/73/1 40/79/1
f 40/79/1 117/73/1 118/74/1 41/80/1
f 41/80/1 118/74/1 119/75/1 42/81/1
f 42/81/1 119/75/1 120/32/1 43/9/1
f 108/44/11 101/45/11 231/45/11 237/44/11
f 106/24/7 105/82/7 112/83/7 113/84/7
f 61/85/9 62/86/9 197/86/9 196/85/9
f 104/39/7 103/41/7 110/40/7 111/38/7
f 102/43/12 109/42/12 238/42/12 232/43/12
f 102/43/7 101/45/7 108/44/7 109/42/7
f 113/84/13 112/83/13 241/83/13 185/84/13
f 25/15/7 99/25/7 106/24/7 24/14/7
f 110/40/14 103/41/14 233/41/14 239/40/14
f 98/87/7 97/48/7 104/39/7 105/82/7
f 111/38/15 112/83/15 241/83/15 240/38/15
f 96/49/7 95/50/7 102/43/7 103/41/7
f 59/88/9 60/89/9 195/89/9 194/88/9
f 94/51/7 93/30/7 100/31/7 101/45/7
f 104/39/16 111/38/16 240/38/16 234/39/16
f 92/90/7 91/91/7 98/87/7 99/25/7
f 111/38/13 110/40/13 239/40/13 240/38/13
f 90/54/7 89/55/7 96/49/7 97/48/7
f 112/83/17 105/82/17 235/82/17 241/83/17
f 88/56/7 87/57/7 94/51/7 95/50/7
f 109/42/15 110/40/15 239/40/15 238/42/15
f 27/17/7 85/92/7 92/90/7 26/16/7
f 34/22/18 35/23/18 178/23/18 177/22/18
f 84/93/7 83/60/7 90/54/7 91/91/7
f 8/3/9 58/2/9 193/2/9 166/3/9
f 82/61/7 81/62/7 88/56/7 89/55/7
f 106/24/19 113/84/19 185/84/19 184/24/19
f 80/63/7 79/27/7 86/29/7 87/57/7
f 109/42/13 108/44/13 237/44/13 238/42/13
f 78/94/7 77/95/7 84/93/7 85/92/7
f 56/81/20 57/9/20 192/9/20 191/81/20
f 76/96/7 75/97/7 82/61/7 83/60/7
f 107/1/15 108/44/15 237/44/15 236/1/15
f 74/98/7 73/99/7 80/63/7 81/62/7
f 32/20/18 33/21/18 176/21/18 175/20/18
f 29/11/7 71/100/7 78/94/7 28/18/7
f 107/1/13 36/4/13 165/4/13 236/1/13
f 70/101/7 69/102/7 76/96/7 77/95/7
f 54/79/20 55/80/20 190/80/20 189/79/20
f 68/103/7 67/104/7 74/98/7 75/97/7
f 105/82/21 106/24/21 184/24/21 235/82/21
f 66/105/7 65/5/7 72/26/7 73/99/7
f 30/6/18 31/19/18 174/19/18 173/6/18
f 51/76/7 52/77/7 70/101/7 71/100/7
f 57/9/10 65/5/10 200/5/10 192/9/10
f 53/78/7 54/79/7 68/103/7 69/102/7
f 105/82/22 104/39/22 234/39/22 235/82/22
f 55/80/7 56/81/7 66/105/7 67/104/7
f 66/105/11 56/81/11 191/81/11 201/105/11
f 1/12/4 37/76/4 51/76/4 6/12/4
f 37/76/4 38/77/4 52/77/4 51/76/4
f 38/77/4 39/78/4 53/78/4 52/77/4
f 39/78/4 40/79/4 54/79/4 53/78/4
f 40/79/4 41/80/4 55/80/4 54/79/4
f 41/80/4 42/81/4 56/81/4 55/80/4
f 42/81/4 43/9/4 57/9/4 56/81/4
f 4/3/3 44/2/3 58/2/3 8/3/3
f 44/2/3 45/88/3 59/88/3 58/2/3
f 45/88/3 46/89/3 60/89/3 59/88/3
f 46/89/3 47/85/3 61/85/3 60/89/3
f 47/85/3 48/86/3 62/86/3 61/85/3
f 48/86/3 49/28/3 63/28/3 62/86/3
f 49/28/3 50/7/3 64/7/3 63/28/3
f 23/13/7 113/84/7 64/7/7 5/8/7
f 52/77/20 53/78/20 188/78/20 187/77/20
f 112/83/7 111/38/7 62/86/7 63/28/7
f 103/41/21 104/39/21 234/39/21 233/41/21
f 110/40/7 109/42/7 60/89/7 61/85/7
f 55/80/12 67/104/12 202/104/12 190/80/12
f 108/44/7 107/1/7 58/2/7 59/88/7
f 9/13/1 3/8/1 50/7/1 156/34/1
f 156/34/1 50/7/1 49/28/1 157/36/1
f 157/36/1 49/28/1 48/86/1 158/38/1
f 158/38/1 48/86/1 47/85/1 159/40/1
f 159/40/1 47/85/1 46/89/1 160/42/1
f 160/42/1 46/89/1 45/88/1 161/44/1
f 161/44/1 45/88/1 44/2/1 162/1/1
f 236/1/7 165/4/7 166/3/7 193/2/7
f 200/5/7 173/6/7 174/19/7 206/26/7
f 212/27/7 175/20/7 176/21/7 218/29/7
f 224/30/7 177/22/7 178/23/7 230/31/7
f 168/14/7 184/24/7 185/84/7 167/13/7
f 235/82/7 234/39/7 240/38/7 241/83/7
f 233/41/7 232/43/7 238/42/7 239/40/7
f 231/45/7 230/31/7 236/1/7 237/44/7
f 183/25/7 229/87/7 235/82/7 184/24/7
f 228/48/7 227/49/7 233/41/7 234/39/7
f 226/50/7 225/51/7 231/45/7 232/43/7
f 170/16/7 182/90/7 183/25/7 169/15/7
f 223/91/7 222/54/7 228/48/7 229/87/7
f 221/55/7 220/56/7 226/50/7 227/49/7
f 219/57/7 218/29/7 224/30/7 225/51/7
f 181/92/7 217/93/7 223/91/7 182/90/7
f 216/60/7 215/61/7 221/55/7 222/54/7
f 214/62/7 213/63/7 219/57/7 220/56/7
f 172/18/7 180/94/7 181/92/7 171/17/7
f 211/95/7 210/96/7 216/60/7 217/93/7
f 209/97/7 208/98/7 214/62/7 215/61/7
f 207/99/7 206/26/7 212/27/7 213/63/7
f 179/100/7 205/101/7 211/95/7 180/94/7
f 204/102/7 203/103/7 209/97/7 210/96/7
f 202/104/7 201/105/7 207/99/7 208/98/7
f 164/12/7 186/76/7 179/100/7 163/11/7
f 187/77/7 188/78/7 204/102/7 205/101/7
f 189/79/7 190/80/7 202/104/7 203/103/7
f 191/81/7 192/9/7 200/5/7 201/105/7
f 185/84/7 241/83/7 198/28/7 199/7/7
f 240/38/7 239/40/7 196/85/7 197/86/7
f 238/42/7 237/44/7 194/88/7 195/89/7
f 98/87/23 105/82/23 235/82/23 229/87/23
f 65/5/24 66/105/24 201/105/24 200/5/24
f 104/39/25 97/48/25 228/48/25 234/39/25
f 67/104/2 66/105/2 201/105/2 202/104/2
f 96/49/26 103/41/26 233/41/26 227/49/26
f 67/104/24 68/103/24 203/103/24 202/104/24
f 102/43/27 95/50/27 226/50/27 232/43/27
f 69/102/2 68/103/2 203/103/2 204/102/2
f 64/7/8 113/84/8 185/84/8 199/7/8
f 94/51/28 101/45/28 231/45/28 225/51/28
f 69/102/24 70/101/24 205/101/24 204/102/24
f 112/83/23 63/28/23 198/28/23 241/83/23
f 100/31/29 93/30/29 224/30/29 230/31/29
f 71/100/2 70/101/2 205/101/2 179/100/2
f 62/86/25 111/38/25 240/38/25 197/86/25
f 92/90/19 99/25/19 183/25/19 182/90/19
f 31/19/30 72/26/30 206/26/30 174/19/30
f 110/40/26 61/85/26 196/85/26 239/40/26
f 98/87/17 91/91/17 223/91/17 229/87/17
f 73/99/31 72/26/31 206/26/31 207/99/31
f 60/89/27 109/42/27 238/42/27 195/89/27
f 90/54/16 97/48/16 228/48/16 222/54/16
f 73/99/30 74/98/30 208/98/30 207/99/30
f 108/44/28 59/88/28 194/88/28 237/44/28
f 71/100/24 29/11/24 163/11/24 179/100/24
f 96/49/14 89/55/14 221/55/14 227/49/14
f 75/97/31 74/98/31 208/98/31 209/97/31
f 58/2/29 107/1/29 236/1/29 193/2/29
f 28/18/31 78/94/31 180/94/31 172/18/31
f 29/11/32 6/12/32 164/12/32 163/11/32
f 88/56/12 95/50/12 226/50/12 220/56/12
f 75/97/30 76/96/30 210/96/30 209/97/30
f 85/92/33 27/17/33 171/17/33 181/92/33
f 94/51/11 87/57/11 219/57/11 225/51/11
f 77/95/31 76/96/31 210/96/31 211/95/31
f 26/16/34 92/90/34 182/90/34 170/16/34
f 36/4/18 8/3/18 166/3/18 165/4/18
f 86/29/10 93/30/10 224/30/10 218/29/10
f 77/95/30 78/94/30 180/94/30 211/95/30
f 99/25/35 25/15/35 169/15/35 183/25/35
f 92/90/8 85/92/8 181/92/8 182/90/8
f 79/27/36 32/20/36 175/20/36 212/27/36
f 24/14/22 106/24/22 184/24/22 168/14/22
f 84/93/23 91/91/23 223/91/23 217/93/23
f 79/27/33 80/63/33 213/63/33 212/27/33
f 113/84/15 23/13/15 167/13/15 185/84/15
f 90/54/25 83/60/25 216/60/25 222/54/25
f 81/62/36 80/63/36 213/63/36 214/62/36
f 82/61/26 89/55/26 221/55/26 215/61/26
f 81/62/33 82/61/33 215/61/33 214/62/33
f 88/56/27 81/62/27 214/62/27 220/56/27
f 83/60/36 82/61/36 215/61/36 216/60/36
f 80/63/28 87/57/28 219/57/28 213/63/28
f 83/60/33 84/93/33 217/93/33 216/60/33
f 86/29/29 79/27/29 212/27/29 218/29/29
f 85/92/36 84/93/36 217/93/36 181/92/36
f 78/94/19 85/92/19 181/92/19 180/94/19
f 33/21/37 86/29/37 218/29/37 176/21/37
f 84/93/17 77/95/17 211/95/17 217/93/17
f 87/57/34 86/29/34 218/29/34 219/57/34
f 76/96/16 83/60/16 216/60/16 210/96/16
f 87/57/37 88/56/37 220/56/37 219/57/37
f 82/61/14 75/97/14 209/97/14 215/61/14
f 89/55/34 88/56/34 220/56/34 221/55/34
f 74/98/12 81/62/12 214/62/12 208/98/12
f 89/55/37 90/54/37 222/54/37 221/55/37
f 80/63/11 73/99/11 207/99/11 213/63/11
f 91/91/34 90/54/34 222/54/34 223/91/34
f 72/26/10 79/27/10 212/27/10 206/26/10
f 91/91/37 92/90/37 182/90/37 223/91/37
f 78/94/8 71/100/8 179/100/8 180/94/8
f 93/30/38 34/22/38 177/22/38 224/30/38
f 70/101/23 77/95/23 211/95/23 205/101/23
f 93/30/35 94/51/35 225/51/35 224/30/35
f 76/96/25 69/102/25 204/102/25 210/96/25
f 95/50/38 94/51/38 225/51/38 226/50/38
f 68/103/26 75/97/26 209/97/26 203/103/26
f 95/50/35 96/49/35 227/49/35 226/50/35
f 74/98/27 67/104/27 202/104/27 208/98/27
f 97/48/38 96/49/38 227/49/38 228/48/38
f 66/105/28 73/99/28 207/99/28 201/105/28
f 97/48/35 98/87/35 229/87/35 228/48/35
f 72/26/29 65/5/29 200/5/29 206/26/29
f 23/13/32 24/14/32 168/14/32 167/13/32
f 99/25/38 98/87/38 229/87/38 183/25/38
f 51/76/19 71/100/19 179/100/19 186/76/19
f 35/23/21 100/31/21 230/31/21 178/23/21
f 70/101/17 52/77/17 187/77/17 205/101/17
f 25/15/32 26/16/32 170/16/32 169/15/32
f 101/45/22 100/31/22 230/31/22 231/45/22
f 53/78/16 69/102/16 204/102/16 188/78/16
f 101/45/21 102/43/21 232/43/21 231/45/21
f 6/12/20 51/76/20 186/76/20 164/12/20
f 68/103/14 54/79/14 189/79/14 203/103/14
f 27/17/32 28/18/32 172/18/32 171/17/32
f 103/41/22 102/43/22 232/43/22 233/41/22
